/* XPM */
static char *IconClanSalA.gif[] = {
/* columns rows colors chars-per-pixel */
"64 64 257 2",
"   c gray100",
".  c #FEFEFE",
"X  c #FDFDFD",
"o  c gray99",
"O  c #FBFBFB",
"+  c gray98",
"@  c #F9F9F9",
"#  c #F8F8F8",
"$  c gray97",
"%  c #F6F6F6",
"&  c gray96",
"*  c #F4F4F4",
"=  c #F3F3F3",
"-  c gray95",
";  c #F1F1F1",
":  c gray94",
">  c #EFEFEF",
",  c #EEEEEE",
"<  c gray93",
"1  c #ECECEC",
"2  c gray92",
"3  c #EAEAEA",
"4  c #E9E9E9",
"5  c gray91",
"6  c #E7E7E7",
"7  c #E6E6E6",
"8  c gray90",
"9  c #E4E4E4",
"0  c gray89",
"q  c #E2E2E2",
"w  c #E1E1E1",
"e  c gray88",
"r  c #DFDFDF",
"t  c gray87",
"y  c #DDDDDD",
"u  c gainsboro",
"i  c gray86",
"p  c #DADADA",
"a  c gray85",
"s  c #D8D8D8",
"d  c #D7D7D7",
"f  c gray84",
"g  c #D5D5D5",
"h  c gray83",
"j  c LightGray",
"k  c #D2D2D2",
"l  c gray82",
"z  c #D0D0D0",
"x  c gray81",
"c  c #CECECE",
"v  c #CDCDCD",
"b  c gray80",
"n  c #CBCBCB",
"m  c #CACACA",
"M  c gray79",
"N  c gray78",
"B  c #C6C6C6",
"V  c #C5C5C5",
"C  c gray77",
"Z  c gray76",
"A  c #C1C1C1",
"S  c #C0C0C0",
"D  c gray75",
"F  c gray",
"G  c gray74",
"H  c #BCBCBC",
"J  c #BBBBBB",
"K  c gray73",
"L  c #B9B9B9",
"P  c gray72",
"I  c #B7B7B7",
"U  c #B6B6B6",
"Y  c gray71",
"T  c #B4B4B4",
"R  c gray70",
"E  c #B2B2B2",
"W  c #B1B1B1",
"Q  c gray69",
"!  c #AFAFAF",
"~  c #AEAEAE",
"^  c gray68",
"/  c #ACACAC",
"(  c #AAAAAA",
")  c #A9A9A9",
"_  c gray66",
"`  c #A7A7A7",
"'  c gray65",
"]  c #A5A5A5",
"[  c #A4A4A4",
"{  c gray64",
"}  c #A2A2A2",
"|  c gray63",
" . c #A0A0A0",
".. c #9F9F9F",
"X. c gray62",
"o. c #9D9D9D",
"O. c gray61",
"+. c #9B9B9B",
"@. c #9A9A9A",
"#. c gray60",
"$. c #989898",
"%. c #979797",
"&. c gray59",
"*. c #959595",
"=. c gray58",
"-. c #939393",
";. c #929292",
":. c gray57",
">. c #909090",
",. c gray56",
"<. c #8E8E8E",
"1. c #8D8D8D",
"2. c gray55",
"3. c #8B8B8B",
"4. c gray54",
"5. c #898989",
"6. c #888888",
"7. c gray53",
"8. c #868686",
"9. c gray52",
"0. c #848484",
"q. c #838383",
"w. c gray51",
"e. c #818181",
"r. c #808080",
"t. c gray50",
"y. c #7E7E7E",
"u. c gray49",
"i. c #7C7C7C",
"p. c #7B7B7B",
"a. c gray48",
"s. c #797979",
"d. c gray47",
"f. c #777777",
"g. c #767676",
"h. c gray46",
"j. c #747474",
"k. c gray45",
"l. c #727272",
"z. c #717171",
"x. c gray44",
"c. c #6F6F6F",
"v. c gray43",
"b. c #6D6D6D",
"n. c gray42",
"m. c #6A6A6A",
"M. c DimGray",
"N. c #686868",
"B. c #676767",
"V. c gray40",
"C. c #656565",
"Z. c #646464",
"A. c gray39",
"S. c #626262",
"D. c gray38",
"F. c #606060",
"G. c #5F5F5F",
"H. c gray37",
"J. c #5D5D5D",
"K. c gray36",
"L. c #5B5B5B",
"P. c #5A5A5A",
"I. c gray35",
"U. c #585858",
"Y. c gray34",
"T. c #565656",
"R. c #555555",
"E. c gray33",
"W. c #535353",
"Q. c #515151",
"!. c #505050",
"~. c gray31",
"^. c #4E4E4E",
"/. c gray30",
"(. c #4B4B4B",
"). c gray29",
"_. c #494949",
"`. c #484848",
"'. c gray28",
"]. c #464646",
"[. c gray27",
"{. c #444444",
"}. c #434343",
"|. c gray26",
" X c #414141",
".X c gray25",
"XX c #3F3F3F",
"oX c #3E3E3E",
"OX c gray24",
"+X c #3C3C3C",
"@X c gray23",
"#X c #393939",
"$X c gray22",
"%X c #373737",
"&X c gray21",
"*X c #353535",
"=X c #343434",
"-X c gray20",
";X c #323232",
":X c #313131",
">X c gray19",
",X c #2F2F2F",
"<X c #2D2D2D",
"1X c #2C2C2C",
"2X c gray17",
"3X c #2A2A2A",
"4X c gray16",
"5X c #282828",
"6X c #272727",
"7X c gray15",
"8X c #252525",
"9X c gray14",
"0X c #232323",
"qX c gray13",
"wX c #202020",
"eX c gray12",
"rX c #1E1E1E",
"tX c #1D1D1D",
"yX c gray11",
"uX c #1B1B1B",
"iX c gray10",
"pX c #191919",
"aX c #181818",
"sX c gray9",
"dX c #161616",
"fX c #151515",
"gX c gray8",
"hX c #131313",
"jX c gray7",
"kX c #111111",
"lX c #101010",
"zX c gray6",
"xX c #0E0E0E",
"cX c gray5",
"vX c #0C0C0C",
"bX c #0B0B0B",
"nX c gray4",
"mX c #090909",
"MX c gray3",
"NX c #070707",
"BX c #060606",
"VX c gray2",
"CX c #040404",
"ZX c gray1",
"AX c #020202",
"SX c #010101",
"DX c cyan",
"FX c black",
"GX c black",
"HX c black",
"JX c black",
"KX c black",
"LX c black",
"PX c black",
"IX c black",
"UX c black",
"YX c None",
/* pixels */
"YXYXYXYXYXYXYXYXYXYXYXYXYXYXYXYXYXYXYXYXYXYXYXYXYXYXYXYXYXYXYXYXYXYXYXYXYXYXYXYXYXYXYXYXYXYXYXYXYXYXYXYXYXYXYXYXYXYXYXYXYXYXYXYX",
"YXYXYXYXYXYXYXYXYXYXYXYXYXYXYXYXYXYXYXYXYXYXYXYXYXYXYXYXYXYXYXYXYXYXYXYXYXYXYXYXYXYXYXYXYXYXYXYXYXYXYXYXYXYXYXYXYXYXYXYXYXYXYXYX",
"YXYXYXYXYXYXYXYXYXYXYXYXYXYXYXYXYXYXYXYXYXYXYXYXYXYXYXYXYXYXYXYXYXYXYXYXYXYXYXYXYXYXYXYXYXYXYXYXYXYXYXYXYXYXYXYXYXYXYXYXYXYXYXYX",
"YXYXYXYXYXYXYXYXYXYXYXYXYXYXYXYXYXYXYXYXYXYXYXYXYXYXYXYXYXYXYXYXYXYXYXYXYXYXYXYXYXYXYXYXYXYXYXYXYXYXYXYXYXYXYXYXYXYXYXYXYXYXYXYX",
"YXYXYXYXYXYXYXYXYXYXYXYXYXYXYXYXYXYXYXYXYXYXYXYXYXYXYXYXYXYX  & 8   YXYXYXYXYXYXYXYXYXYXYXYXYXYXYXYXYXYXYXYXYXYXYXYXYXYXYXYXYXYX",
"YXYXYXYXYXYXYXYXYXYXYXYXYXYXYXYXYXYXYXYXYXYXYXYXYXYXYXYXYXYX  X.e.  YXYXYXYXYXYXYXYXYXYXYXYXYXYXYXYXYXYXYXYXYXYXYXYXYXYXYXYXYXYX",
"YXYXYXYXYXYXYXYXYXYXYXYXYXYXYXYXYXYXYXYXYXYXYXYXYXYXYXYXYXYX  ^.5XX   YXYXYXYXYXYXYXYXYXYXYXYXYXYXYXYXYXYXYXYXYXYXYXYXYXYXYXYXYX",
"YXYXYXYXYXYXYXYXYXYXYXYXYXYXYXYXYXYXYXYXYXYXYXYXYXYXYXYXYX  4 kXFXl   YXYXYXYXYXYXYXYXYXYXYXYXYXYXYXYXYXYXYXYXYXYXYXYXYXYXYXYXYX",
"YXYXYXYXYXYXYXYXYXYXYXYXYXYXYXYXYXYXYXYXYXYXYXYXYXYXYXYXYX  ~ FXFXq.  YXYXYXYXYXYXYXYXYXYXYXYXYXYXYXYXYXYXYXYXYXYXYXYXYXYXYXYXYX",
"YXYXYXYXYXYXYXYXYXYXYXYXYXYXYXYXYXYXYXYXYX                  L.U.s.7X                  YXYXYXYXYXYXYXYXYXYXYXYXYXYXYXYXYXYXYXYXYX",
"YXYXYXYXYXYXYXYXYXYXYX      YXYXYXYXYXYXYX  g <.x o r ( y.H.9X4 X &XU.r.^ q + / 6.p   YXYXYXYXYXYXYXYXYXYXYXYXYXYXYXYXYXYXYXYXYX",
"YXYXYXYXYXYXYXYXYXYXYX. g -     YXYXYXYX  9 rXFXjX#XzXFXFXFXw.    z ZXFXFXkX-XFXFXXX    YXYXYXYXYX        YXYXYXYXYXYXYXYXYXYXYX",
"YXYXYXYXYXYXYXYXYXYXYX  J  X/ $     YX    / FXFXFXFXFXFXFX2X<       4.FXFXFXFXFXFXdXp     YXYX    & } U . YXYXYXYXYXYXYXYXYXYXYX",
"YXYXYXYXYXYXYXYXYXYXYX     XFX=X%.@   = t.hXFXFXFXFXFXFXSXF   I f.  + {.FXFXFXFXFXFXaXq.O     # -.,XcXy   YXYXYXYXYXYXYXYXYXYXYX",
"YXYXYXYXYXYXYXYXYXYXYXYX  P FXFXFX.X+.[.FXFXFXFXFXFXFXFXU.  : 0XFXL   w hXFXFXFXFXFXFXFXQ.i L OXFXFXa.    YXYXYXYXYXYXYXYXYXYXYX",
"YXYXYXYXYXYXYXYXYXYXYXYX  . }.FXFXFXFXFXFXFXFXFXFXFXFXMXa   j.FXFXgX .q -.AXFXFXFXFXFXFXFXkXAXFXFXuX1   YXYXYXYXYXYXYXYXYXYXYXYX",
"YXYXYXYXYXYXYXYXYXYXYXYXYX  M MXFXFXFXFXFXFXFXFXFXFXFX5.= C H.e.O.%.3.V.J.FXFXFXFXFXFXFXFXFXFXFXFXi.  YXYXYXYXYXYXYXYXYXYXYXYXYX",
"YXYXYXYXYXYXYXYXYXYXYXYXYX    J.FXFXFXFXFXFXFXFXFXFXwX/ ( r             n (.FXFXFXFXFXFXFXFXFXFX3X>   YXYXYXYXYXYXYXYXYXYXYXYXYX",
"YXYXYXYXYXYXYXYXYXYXYXYXYX  1 $XFXFXFXFXFXFXFX3X).fXE.I     k <.v.n.L X   # a.eX8X}.ZXFXFXFXFXFX&X:   YXYXYXYXYXYXYXYXYXYXYXYXYX",
"YXYXYXYXYXYXYXYXYXYXYXYX    Q.FXFXFXFXFXFXFXFXK.  ; X   l !.NXU.Y /.FXoXV     * % N ZXFXFXFXFXFXFXZ.    YXYXYXYXYXYXYXYXYXYXYXYX",
"YXYXYXYXYXYXYXYXYXYX      ) FXFXFXFXFXFXFXFXFXN.    . 4.nXFXjX<   + rXFXVXV.2     V AXFXFXFXFXFXFXNXV       YXYXYXYXYXYXYXYXYXYX",
"YXYXYXYXYXYXYXYXYXYX  R F.iXFXFXFXFXFXFXFXFXFXm.    X { bXFXdX:   - sXFXFXmXx     a MXFXFXFXFXFXFXFXwXC.z   YXYXYXYXYXYXYXYXYXYX",
"YXYXYXYXYXYXYXYXYX  0 kXFXFXFXFXFXFXFXFXFXFXFXt.9 p .   C '.NX2XC.%XFXbXP.M     @ 9 lXFXFXFXFXFXFXFXFXFX6X& YXYXYXYXYXYXYXYXYXYX",
"YXYXYXYXYXYXYXYXYX  p VXFXFXFXFXFXFXFXFXFXFXFX|.*.U.}.8     c j.[.`.9.g     @ ..u.2.nXFXFXFXFXFXFXFXFXFXjX; YXYXYXYXYXYXYXYXYXYX",
"YXYXYXYXYXYXYXYXYX  . f.FXFXFXFXFXFXFXFXFXFX1Xz % -XFX6XC                 s XXFXb ; I.FXFXFXFXFXFXFXFXSX$.. YXYXYXYXYXYXYXYXYXYX",
"YXYXYXYXYXYXYXYXYXYX  6.FXFXFXFXFXFXFXFXFXFX_   o.FXFXvX=XV.M ; $ $ < n 9.sXFXFXv.  y jXFXFXFXFXFXFXFXFX|   YXYXYXYXYXYXYXYXYXYX",
"YXYXYXYXYXYXYXYXYXYX. _.FXFXFXFXFXFXFXFXFXU.  > 5XFXFX} 4 p.W.P.S.S.J.k.&.5XFXFXVXQ   X.SXFXFXFXFXFXFXFXP.. YXYXYXYXYXYXYXYXYXYX",
"YXYXYXYXYXYXYXYXYXYX& rXFXFXFXFXFXFXFXFXmXs   9.FXFX*XX     . : 1 1 &     I FXFXFX2X&   _.FXFXFXFXFXFXFXtX% YXYXYXYXYXYXYXYXYXYX",
"YXYXYXYXYXYXYXYX    6 mXFXFXFXFXFXFXFXFXh.  r hXFXFX!                     . A.FXFXFXs.  p rXFXFXFXFXFXFXmX2     YXYXYXYXYXYXYXYX",
"YXYXYXYXYX      X d k.AXFXFXFXFXFXFXFX5X=   p.FXFXY.                        9 pXFXFXvXk   %.FXFXFXFXFXFXAXv.c O       YXYXYXYXYX",
"YXYXYX    $ A q.oXbXFXFXFXFXFXFXFXFXZXR   c cXFXcXg                           U SXFXFX+X# $ .XFXFXFXFXFXFXFXBX%Xd.L :     YXYXYX",
"YXYXYX. D .XFXFXFXFXFXFXFXFXFXFXFXFXL.  * Q.FXFXh.                              E.FXFXFX1.  t dXFXFXFXFXFXFXFXFXFXFX4X! X YXYXYX",
"YXYXYX  , M 2. XAXFXFXFXFXFXFXFXFXFXR.x.-XFXFXsX2                               3 5XFXFXlXt.6.5XFXFXFXFXFXFXFXFX-Xe.G 4 . YXYXYX",
"YXYXYXYX      O D y.#XFXFXFXFXFX8XH.-.Y n U z.:Xd                               x }.D.{ m v R 1.6XFXFXFXFX,Xl.U &       YXYXYXYX",
"YXYXYXYXYXYXYX      r MXFXFX8X) %             n v.g                         # 4.x.f             e J.FXFXMXu       YXYXYXYXYXYXYX",
"YXYXYXYXYXYXYXYX  . - dXFX+Xi     4 [ 2.] 6     0 4.c     * %     O       X e.:.    6 <.[..X9.y     p.FXdX  + E w   YXYXYXYXYXYX",
"YXYXYXYXYXYXYXYX# e.F.$X3.%     3.iXvX>XcXsX8.    : t.H.G.~.*.    C N.t p J.#.    W eXFX6X/.FXhXO.    ( *Xy.c.z.}   YXYXYXYXYXYX",
"YXYXYXYXYXYXYXYX5 t.6 =     l Q.FXyXi o l cXFXK.1   $ ` O.S $.    j =...h.}   % r.NXFX6X3   [ FXFXp.    4 S 8 D ^   YXYXYXYXYXYX",
"YXYXYXYXYXYXYXYX5 5.      # ;XFXFXXX      @XFXFX].%       V 7.    V A         8.FXFXFXoX    3 mXFXFXu..       ] H   YXYXYXYXYXYX",
"YXYXYXYXYXYXYXYX5 ,.        n #XFXBXE X 7 iXFXnXx.$       m O.    M K         j <XFXFXCX_ 0 v.FXFXjX|         | L   YXYXYXYXYXYX",
"YXYXYXYXYXYXYXYX3 q.z J 7     * &.iXVX:XiXFX.Xb       ; & C &XB.g.$XC           > e.hXFXFXSXFXmXD.f     7 K Z w.Q   YXYXYXYXYXYX",
"YXYXYXYXYXYXYXYXX ] %.] .XO..     3 T e.q.G O     ] `.fXqX0XFXFXFXFX@._ 4.h. .@     q ) =.;.[ f     9 ' U A.7.@.;   YXYXYXYXYXYX",
"YXYXYXYXYXYXYXYX      N >.| b.w               q F.FXFXFXFXFXFXFXFXFXFXFXFXFXFX*XQ :             + U K.j.  b a.    YXYXYXYXYXYXYX",
"YXYXYXYXYXYXYXYXYX  # q.>   L.pXg.k - $ 2 W J.hXFXFXFXFXFXFXFXFXFXFXFXFXFXFXFXFXFXqXk.U x A | k.>X1X{ J.K   #.R   YXYXYXYXYXYXYX",
"YXYXYXYXYXYXYXYX    | |   . v /  .Y g 8 N ( ..` / / / / / / / / / / / / / / / / / ` } ~ U E _ ..' W W Q s   O g.4   YXYXYXYXYXYX",
"YXYXYXYXYXYXYXYX  y s.+                                                                                 X % % Y q.o YXYXYXYXYXYX",
"YXYXYXYXYXYXYXYX  ( 0.P T [ @.&.&.&.*.&.&.&.&.&.&.&.1.r.r.r.r.r.r.r.r.r.r.r.r.r.P.`.`.`.`.].`.`.`.Q.z.v.f.0.u.n.0.X YXYXYXYXYXYX",
"YXYXYXYXYXYXYXYX  # s g h D bXFXFXFXFXFXFXFXFXFXFXFXFXFXFXFXFXFXFXFXFXFXFXFXFXFXFXFXFXFXFXFXFXFXFXNXv 1 , - - %     YXYXYXYXYXYX",
"YXYXYXYXYXYXYXYXYX        -.FXFXFX[.+.&XFXFXFXFXFXFXFXFXFXFXFXFXFXFXFXFXFXFXFXFXFXFXFXFX].` E.BXFXFXC.    YXYXYXYXYXYXYXYXYXYXYX",
"YXYXYXYXYXYXYXYXYXYXYX  * uXFX|.W .   : t.xXFXFXFXFXFXFXFXFXFXFXFXFXFXFXFXFXFXFXFXFXfX9.@     B T.CXFXv   YXYXYXYXYXYXYXYXYXYXYX",
"YXYXYXYXYXYXYXYXYXYXYX. *.6X-.O     YX    | FXFXFXFXFXFXFXFXFXFXFXFXFXFXFXFXFXFXFXzXm     YX      J  XB.+ YXYXYXYXYXYXYXYXYXYXYX",
"YXYXYXYXYXYXYXYXYXYXYXO C ;     YXYXYXYX  6 gXFXNX3XVXFXFXFXFXFXFXFXFXFXFXBX1XNXFXI.    YXYXYXYX    . B - YXYXYXYXYXYXYXYXYXYXYX",
"YXYXYXYXYXYXYXYXYXYXYX      YXYXYXYXYXYXYX  A h.U # n 3.V.}.SXFXFXFX*XM.>.b # C o.4   YXYXYXYXYXYXYX      YXYXYXYXYXYXYXYXYXYXYX",
"YXYXYXYXYXYXYXYXYXYXYXYXYXYXYXYXYXYXYXYXYX                # 6XFXFXNXp               YXYXYXYXYXYXYXYXYXYXYXYXYXYXYXYXYXYXYXYXYXYX",
"YXYXYXYXYXYXYXYXYXYXYXYXYXYXYXYXYXYXYXYXYXYXYXYXYXYXYXYXYX  N.FXFX#X.   YXYXYXYXYXYXYXYXYXYXYXYXYXYXYXYXYXYXYXYXYXYXYXYXYXYXYXYX",
"YXYXYXYXYXYXYXYXYXYXYXYXYXYXYXYXYXYXYXYXYXYXYXYXYXYXYXYXYX  ~ FXFX,.  YXYXYXYXYXYXYXYXYXYXYXYXYXYXYXYXYXYXYXYXYXYXYXYXYXYXYXYXYX",
"YXYXYXYXYXYXYXYXYXYXYXYXYXYXYXYXYXYXYXYXYXYXYXYXYXYXYXYXYX  4 lXFXl   YXYXYXYXYXYXYXYXYXYXYXYXYXYXYXYXYXYXYXYXYXYXYXYXYXYXYXYXYX",
"YXYXYXYXYXYXYXYXYXYXYXYXYXYXYXYXYXYXYXYXYXYXYXYXYXYXYXYXYXYX  E.6Xo   YXYXYXYXYXYXYXYXYXYXYXYXYXYXYXYXYXYXYXYXYXYXYXYXYXYXYXYXYX",
"YXYXYXYXYXYXYXYXYXYXYXYXYXYXYXYXYXYXYXYXYXYXYXYXYXYXYXYXYXYX  ) 9.  YXYXYXYXYXYXYXYXYXYXYXYXYXYXYXYXYXYXYXYXYXYXYXYXYXYXYXYXYXYX",
"YXYXYXYXYXYXYXYXYXYXYXYXYXYXYXYXYXYXYXYXYXYXYXYXYXYXYXYXYXYX  # 5   YXYXYXYXYXYXYXYXYXYXYXYXYXYXYXYXYXYXYXYXYXYXYXYXYXYXYXYXYXYX",
"YXYXYXYXYXYXYXYXYXYXYXYXYXYXYXYXYXYXYXYXYXYXYXYXYXYXYXYXYXYXYXYXYXYXYXYXYXYXYXYXYXYXYXYXYXYXYXYXYXYXYXYXYXYXYXYXYXYXYXYXYXYXYXYX",
"YXYXYXYXYXYXYXYXYXYXYXYXYXYXYXYXYXYXYXYXYXYXYXYXYXYXYXYXYXYXYXYXYXYXYXYXYXYXYXYXYXYXYXYXYXYXYXYXYXYXYXYXYXYXYXYXYXYXYXYXYXYXYXYX",
"YXYXYXYXYXYXYXYXYXYXYXYXYXYXYXYXYXYXYXYXYXYXYXYXYXYXYXYXYXYXYXYXYXYXYXYXYXYXYXYXYXYXYXYXYXYXYXYXYXYXYXYXYXYXYXYXYXYXYXYXYXYXYXYX",
"YXYXYXYXYXYXYXYXYXYXYXYXYXYXYXYXYXYXYXYXYXYXYXYXYXYXYXYXYXYXYXYXYXYXYXYXYXYXYXYXYXYXYXYXYXYXYXYXYXYXYXYXYXYXYXYXYXYXYXYXYXYXYXYX"
};
