/* XPM */
static char *IconFlight.gif[] = {
/* columns rows colors chars-per-pixel */
"63 41 32 1",
"  c gray100",
". c gray3",
"X c #101010",
"o c #181818",
"O c gray13",
"+ c gray16",
"@ c #313131",
"# c #393939",
"$ c gray26",
"% c gray29",
"& c gray32",
"* c #5A5A5A",
"= c gray39",
"- c gray42",
"; c gray45",
": c #7B7B7B",
"> c #848484",
", c gray55",
"< c gray58",
"1 c gray61",
"2 c #A5A5A5",
"3 c gray68",
"4 c gray71",
"5 c gray74",
"6 c #C6C6C6",
"7 c #CECECE",
"8 c gray84",
"9 c gray87",
"0 c #E7E7E7",
"q c #EFEFEF",
"w c gray97",
"e c black",
/* pixels */
"eeeeeeeeeeeeeeeeeeeeeeeeeeeeeeeeeeeeeeeeeeeeeeeeeeeeeeeeeeeeeee",
"ee.........................................................XXee",
"e.0w  wwwwwwwwwwwwwwwwwwwwwwwwwwwwwwwwwwwwwwwwwwwwwwwwww   qq$e",
"e. q159                                                w72>7 %e",
"e.ww1.e+;3w                                         01&oee>w %e",
"e.w  5XeeeO%,9                                   8:$XeeeX4   %e",
"e.w   5.eeeee.-4w                             q2=.eeeeee4    %e",
"e.w    2eeeeeeeeo:5w                       w5-oeeeeeeee,     %e",
"e.w     &eeeeeeeeeeO;6w                 02=oeeeeeeeeee+      %e",
"e.w     0.eeeeeeeeeeeeo#*:>4557 6>>>:*&+.eeeeeeeeeeeee3      %e",
"e.w      @eeeeeeeeeeeeeeeeeeee$ :eeeeeeeeeeeeeeeeeeee.w      %e",
"e.w      +eeeeeeeeeeeeeeeeeeee$ >eeeeeeeeeeeeeeeeeeee.0      %e",
"e.w     8.eeeeeeeeeeeeeeeeeeee% >eeeeeeeeeeeeeeeeeeeee:      %e",
"e.w    w@eeeeeeeeeeeeeeeeeeeee% >eeeeeeeeeeeeeeeeeeeee.5     %e",
"e.w   9%eeeeeeeeeeeeeeeeeeeeee$ >eeeeeeeeeeeeeeeeeeeeee.4    %e",
"e.w   3@eeeeeeeeeeeeeeeeeeeeee% ,eeeeeeeeeeeeeeeeeeeee.$>    %e",
"e.w     8%eeeeeeeeeeeeeeeeeee=9 w4.eeeeeeeeeeeeeeeeee%8      %e",
"e.w       ,eeeeeeeeeeeeeeeee;     5.eeeeeeeeeeeeeeee1        %e",
"e.w        ,eeeeeeeeeeeeeee&       1eeeeeeeeeeeeeee:         %e",
"e.w        9eeeeeeeeeeeeeeOq        =eeeeeeeeeeeeee5         %e",
"e.w        7eeeeeeeeeeeeee,         5eeeeeeeeeeeeee2         %e",
"e.w        ,eeeeeeeeeeeeee5         q.eeeeeeeeeeeee%         %e",
"e.w       8Xeeeeeeeeeeeee.q          #eeeeeeeeeeeeee5        %e",
"e.w      w$.@**+eeeeeeeee+           ;eeeeeeeee+=-*O+8       %e",
"e.w      3>0   w&eeeeeeee%           >eeeeeeee@q   w21       %e",
"e.w      w      9.eeeeeee:           4eeeeeeee3              %e",
"e.w             w.eeeeeee:           4eeeeeeee3              %e",
"e.w             4eeeeeeee1           8.eeeeeee:              %e",
"e.w             =eeeeeeee5           wXeeeeeee+              %e",
"e.w            0ee%<2;eee5           w.ee:74:oe4             %e",
"e.w            ,%6    :ee5           w.e*    0,*w            %e",
"e.w           w3       @e5           w.X9      70            %e",
"e.w                    2e4           we;                     %e",
"e.w                    0o4           qX7                     %e",
"e.w                     -3           0*                      %e",
"e.w                     44           02                      %e",
"e.w                     07           w9                      %e",
"e.w                                                          %e",
"e.                                                           %e",
"ee->>>>>>>>>>>>>>>>>>>>>>>>>>>>>>>>>>>>>>>>>>>>>>>>>>>>>>>>>>Oe",
"eeeeeeeeeeeeeeeeeeeeeeeeeeeeeeeeeeeeeeeeeeeeeeeeeeeeeeeeeeeeeee"
};
