/* XPM */
static char *Discipline THA[] = {
/* columns rows colors chars-per-pixel */
"24 24 169 2",
"   c #008000800080",
".  c #027102710271",
"X  c #03DC03DC03DC",
"o  c #046104610461",
"O  c #05A605A605A6",
"+  c #06BF06BF06BF",
"@  c #074807480748",
"#  c #087C087C087C",
"$  c #09B009B009B0",
"%  c #0A720A720A72",
"&  c #0B840B840B84",
"*  c #0CAF0CAF0CAF",
"=  c #0D860D860D86",
"-  c #0EB80EB80EB8",
";  c #0F790F790F79",
":  c #107010701070",
">  c #116B116B116B",
",  c #127112711271",
"<  c #138113811381",
"1  c #148214821482",
"2  c #155F155F155F",
"3  c #165616561656",
"4  c #17C917C917C9",
"5  c #19A419A419A4",
"6  c #1A561A561A56",
"7  c #1B861B861B86",
"8  c #1C9F1C9F1C9F",
"9  c #1D641D641D64",
"0  c #1F981F981F98",
"q  c #20A320A320A3",
"w  c #229D229D229D",
"e  c #23AE23AE23AE",
"r  c #24A724A724A7",
"t  c #281028102810",
"y  c #287928792879",
"u  c #296C296C296C",
"i  c #2AE52AE52AE5",
"p  c #2BCD2BCD2BCD",
"a  c #2C932C932C93",
"s  c #2DA62DA62DA6",
"d  c #2ECF2ECF2ECF",
"f  c #2F722F722F72",
"g  c #307D307D307D",
"h  c #336B336B336B",
"j  c #348134813481",
"k  c #35B735B735B7",
"l  c #366436643664",
"z  c #39F039F039F0",
"x  c #3AB53AB53AB5",
"c  c #3CF43CF43CF4",
"v  c #3E2B3E2B3E2B",
"b  c #3EDF3EDF3EDF",
"n  c #3F9E3F9E3F9E",
"m  c #405D405D405D",
"M  c #45FB45FB45FB",
"N  c #46D046D046D0",
"B  c #488C488C488C",
"V  c #4C3F4C3F4C3F",
"C  c #4CB14CB14CB1",
"Z  c #4E2C4E2C4E2C",
"A  c #4EEC4EEC4EEC",
"S  c #4F8C4F8C4F8C",
"D  c #509E509E509E",
"F  c #51B651B651B6",
"G  c #531C531C531C",
"H  c #53B353B353B3",
"J  c #55CB55CB55CB",
"K  c #5A295A295A29",
"L  c #5B395B395B39",
"P  c #5FC75FC75FC7",
"I  c #61C461C461C4",
"U  c #664F664F664F",
"Y  c #66AC66AC66AC",
"T  c #69DE69DE69DE",
"R  c #6D136D136D13",
"E  c #703C703C703C",
"W  c #70F070F070F0",
"Q  c #71DE71DE71DE",
"!  c #730273027302",
"~  c #73DE73DE73DE",
"^  c #74FB74FB74FB",
"/  c #75F575F575F5",
"(  c #76F376F376F3",
")  c #782578257825",
"_  c #78B678B678B6",
"`  c #7A017A017A01",
"'  c #7AD17AD17AD1",
"]  c #7C177C177C17",
"[  c #80D580D580D5",
"{  c #853585358535",
"}  c #887688768876",
"|  c #8D378D378D37",
" . c #912F912F912F",
".. c #92D492D492D4",
"X. c #952F952F952F",
"o. c #987498749874",
"O. c #98F498F498F4",
"+. c #99D999D999D9",
"@. c #9B409B409B40",
"#. c #9C119C119C11",
"$. c #9CCD9CCD9CCD",
"%. c #9E179E179E17",
"&. c #9F349F349F34",
"*. c #9FF09FF09FF0",
"=. c #A228A228A228",
"-. c #A42FA42FA42F",
";. c #A58BA58BA58B",
":. c #A630A630A630",
">. c #A91BA91BA91B",
",. c #AA00AA00AA00",
"<. c #AAAFAAAFAAAF",
"1. c #AC14AC14AC14",
"2. c #ACD4ACD4ACD4",
"3. c #AE07AE07AE07",
"4. c #AEE3AEE3AEE3",
"5. c #B032B032B032",
"6. c #B157B157B157",
"7. c #B354B354B354",
"8. c #B3ECB3ECB3EC",
"9. c #B6D3B6D3B6D3",
"0. c #B85EB85EB85E",
"q. c #B909B909B909",
"w. c #BA46BA46BA46",
"e. c #BB30BB30BB30",
"r. c #BCAFBCAFBCAF",
"t. c #BD1DBD1DBD1D",
"y. c #BE4ABE4ABE4A",
"u. c #BEE9BEE9BEE9",
"i. c #C018C018C018",
"p. c #C15FC15FC15F",
"a. c #C210C210C210",
"s. c #C2E3C2E3C2E3",
"d. c #C44EC44EC44E",
"f. c #C5F4C5F4C5F4",
"g. c #C845C845C845",
"h. c #C93BC93BC93B",
"j. c #CB97CB97CB97",
"k. c #CC1FCC1FCC1F",
"l. c #CF25CF25CF25",
"z. c #D075D075D075",
"x. c #D19AD19AD19A",
"c. c #D2D8D2D8D2D8",
"v. c #D46ED46ED46E",
"b. c #D7FED7FED7FE",
"n. c #DC21DC21DC21",
"m. c #DE81DE81DE81",
"M. c #E04AE04AE04A",
"N. c #E1A0E1A0E1A0",
"B. c #E27CE27CE27C",
"V. c #E3BFE3BFE3BF",
"C. c #E43EE43EE43E",
"Z. c #E52BE52BE52B",
"A. c #E725E725E725",
"S. c #EB55EB55EB55",
"D. c #ECF0ECF0ECF0",
"F. c #EE20EE20EE20",
"G. c #F018F018F018",
"H. c #F251F251F251",
"J. c #F372F372F372",
"K. c #F692F692F692",
"L. c #F878F878F878",
"P. c #F977F977F977",
"I. c #FA8CFA8CFA8C",
"U. c #FB92FB92FB92",
"Y. c #FC72FC72FC72",
"T. c #FD89FD89FD89",
"R. c #FE7DFE7DFE7D",
"E. c #FF7EFF7EFF7E",
"W. c gray100",
/* pixels */
"E.I.E.E.I.E.E.E.E.E.E.E.E.E.E.E.E.E.E.E.I.E.E.E.",
"E.g.+.o.&.&.&.+.+.&.+.+.&.o.+.+.&.&.&.&.&.+.8.I.",
"E.` . * * # # # # # # # * # # # # # # # # @ H E.",
"E.( @ | 8.y.p.y.p.y.y.y.8.y.y.p.p.y.p.q...# V I.",
"E.( * y.J b b b M ! &.1.` -.` A b b b A 8.* H E.",
"E.! # y.4 @ @ j -.Z.I.-.h S.S.5.x . . 3 -.# A E.",
"E.( # y.4 @ A n.I.K.V.h 3 y.K.K.Z.H . 3 &.# A E.",
"E.( # p.4 : >.I.E.K.I # # | E.I.v.j . : -.# A E.",
"E.( # p.r 0 d g.K.q.# R x H J.q.d w { d &.# A E.",
"E.( * q.L 1.y j 8.j h V.` w &.w r f.J.T 5.* A E.",
"E.( # p.o.I.z.w * : p.K.-.@ @ M z.E.E.5.g.: A E.",
"E.( # q.1.E.I.[ @ 4 v.Z.T . b V.I.E.E.k.q.: A E.",
"E.( * y.1.E.Z.d 0 w b V : * L I.I.E.E.v.q.* A E.",
"E.` # y.-.I.] : >.o.. @ ` I d n.I.E.E.p.p.* H E.",
"E.! # y.! 8.: R &.0 0 : j ` : p.E.E.E.{ p.: V E.",
"E.( # y.j r 0 I 4 r p.>.r w @ ..I.E.V.V q.* A E.",
"E.( # y.4 # 3 @ x z.E.K.1.3 . H I.E.} 3 p.: H E.",
"E.( # y.4 # @ Y S.E.I.E.E.8.3 y V.&.: : 5.* H E.",
"E.( # p.4 @ @ R n.I.I.E.I.I.-.y Y : @ : p.* A I.",
"E.( * q.y * : : M { k.J.S.v.o.y * * * w p.: H E.",
"E.` : y.k.p.p.p.q.p.p.p.y.p.y.y.f.y.p.f.z.: H E.",
"E.` . * 3 : 3 3 : : 3 3 : 3 : : : 3 : : 3 . H E.",
"E.} d y h y y d d d y d d d y d d d y h d d R I.",
"E.E.E.E.E.E.E.E.E.E.E.E.E.E.E.E.E.E.E.E.E.E.I.E."
};
