/* XPM */
static char *Discipline DEM[] = {
/* columns rows colors chars-per-pixel */
"24 24 172 2",
"   c #005F005F005F",
".  c #018701870187",
"X  c #028002800280",
"o  c #034D034D034D",
"O  c #048C048C048C",
"+  c #059305930593",
"@  c #064706470647",
"#  c #076707670767",
"$  c #089C089C089C",
"%  c #0A7B0A7B0A7B",
"&  c #0BEA0BEA0BEA",
"*  c #0CA80CA80CA8",
"=  c #0E4D0E4D0E4D",
"-  c #0FA70FA70FA7",
";  c #106710671067",
":  c #11A911A911A9",
">  c #127512751275",
",  c #14A514A514A5",
"<  c #16EA16EA16EA",
"1  c #188C188C188C",
"2  c #1A391A391A39",
"3  c #1BC81BC81BC8",
"4  c #1C381C381C38",
"5  c #1D471D471D47",
"6  c #1EA61EA61EA6",
"7  c #1F5E1F5E1F5E",
"8  c #219221922192",
"9  c #240324032403",
"0  c #248724872487",
"q  c #256625662566",
"w  c #287D287D287D",
"e  c #29BB29BB29BB",
"r  c #2BF42BF42BF4",
"t  c #2DE22DE22DE2",
"y  c #2F762F762F76",
"u  c #30AE30AE30AE",
"i  c #321432143214",
"p  c #328F328F328F",
"a  c #33A533A533A5",
"s  c #34C234C234C2",
"d  c #35F635F635F6",
"f  c #36AA36AA36AA",
"g  c #37AE37AE37AE",
"h  c #389938993899",
"j  c #39CC39CC39CC",
"k  c #3A953A953A95",
"l  c #3BE73BE73BE7",
"z  c #3E493E493E49",
"x  c #3F9E3F9E3F9E",
"c  c #41C041C041C0",
"v  c #42BB42BB42BB",
"b  c #43B943B943B9",
"n  c #44A744A744A7",
"m  c #45FF45FF45FF",
"M  c #468646864686",
"N  c #47AB47AB47AB",
"B  c #493F493F493F",
"V  c #4A334A334A33",
"C  c #4AA44AA44AA4",
"Z  c #4BDC4BDC4BDC",
"A  c #4DCB4DCB4DCB",
"S  c #4F344F344F34",
"D  c #4FEC4FEC4FEC",
"F  c #50D650D650D6",
"G  c #51A451A451A4",
"H  c #52E852E852E8",
"J  c #53BE53BE53BE",
"K  c #558A558A558A",
"L  c #578D578D578D",
"P  c #585C585C585C",
"I  c #5AA05AA05AA0",
"U  c #5BE95BE95BE9",
"Y  c #5CD15CD15CD1",
"T  c #5D9C5D9C5D9C",
"R  c #61DD61DD61DD",
"E  c #634B634B634B",
"W  c #642864286428",
"Q  c #677C677C677C",
"!  c #68A668A668A6",
"~  c #69F769F769F7",
"^  c #6AD56AD56AD5",
"/  c #6FA06FA06FA0",
"(  c #71DA71DA71DA",
")  c #72CB72CB72CB",
"_  c #740874087408",
"`  c #751375137513",
"'  c #764F764F764F",
"]  c #76EE76EE76EE",
"[  c #783A783A783A",
"{  c #790879087908",
"}  c #79BD79BD79BD",
"|  c #7AB47AB47AB4",
" . c #7B977B977B97",
".. c #7DD07DD07DD0",
"X. c #7F037F037F03",
"o. c #82DF82DF82DF",
"O. c #83E183E183E1",
"+. c #84F384F384F3",
"@. c #867286728672",
"#. c #86D086D086D0",
"$. c #87AE87AE87AE",
"%. c #88F688F688F6",
"&. c #8A218A218A21",
"*. c #8AD58AD58AD5",
"=. c #8BBD8BBD8BBD",
"-. c #8CD68CD68CD6",
";. c #8E278E278E27",
":. c #8FF48FF48FF4",
">. c #90C190C190C1",
",. c #91EE91EE91EE",
"<. c #94D294D294D2",
"1. c #95CB95CB95CB",
"2. c #973D973D973D",
"3. c #980C980C980C",
"4. c #996D996D996D",
"5. c #9A369A369A36",
"6. c #9B309B309B30",
"7. c #9C169C169C16",
"8. c #9CE59CE59CE5",
"9. c #9E0D9E0D9E0D",
"0. c #9F989F989F98",
"q. c #9FCD9FCD9FCD",
"w. c #A173A173A173",
"e. c #A26AA26AA26A",
"r. c #A2C9A2C9A2C9",
"t. c #A45BA45BA45B",
"y. c #A531A531A531",
"u. c #A845A845A845",
"i. c #A975A975A975",
"p. c #ADB3ADB3ADB3",
"a. c #AFF1AFF1AFF1",
"s. c #B237B237B237",
"d. c #B332B332B332",
"f. c #B3DFB3DFB3DF",
"g. c #B7FCB7FCB7FC",
"h. c #B957B957B957",
"j. c #BCEEBCEEBCEE",
"k. c #BEB3BEB3BEB3",
"l. c #C075C075C075",
"z. c #C145C145C145",
"x. c #C1F6C1F6C1F6",
"c. c #C505C505C505",
"v. c #C665C665C665",
"b. c #C72DC72DC72D",
"n. c #C87CC87CC87C",
"m. c #C945C945C945",
"M. c #D01CD01CD01C",
"N. c #D180D180D180",
"B. c #D236D236D236",
"V. c #D449D449D449",
"C. c #D60AD60AD60A",
"Z. c #D79FD79FD79F",
"A. c #D905D905D905",
"S. c #DBB3DBB3DBB3",
"D. c #DF35DF35DF35",
"F. c #E05DE05DE05D",
"G. c #E22EE22EE22E",
"H. c #E645E645E645",
"J. c #E7A4E7A4E7A4",
"K. c #E9A4E9A4E9A4",
"L. c #EE7CEE7CEE7C",
"P. c #F0D4F0D4F0D4",
"I. c #F2E1F2E1F2E1",
"U. c #F61DF61DF61D",
"Y. c #F993F993F993",
"T. c #FAABFAABFAAB",
"R. c #FBA5FBA5FBA5",
"E. c #FCADFCADFCAD",
"W. c #FD98FD98FD98",
"Q. c #FE83FE83FE83",
"!. c #FF70FF70FF70",
"~. c gray100",
/* pixels */
"~.~.R.~.~.~.~.~.~.~.~.R.~.~.~.~.~.~.~.~.~.~.~.~.",
"~.w.K S K F F S F S F S F S S S F S S F S F w.~.",
"~.' X X X X X # X % 9 9 = r % X X X X X # X ' ~.",
"~.' X X X # X , ; a k.*.n R.n X X X X X X X ) ~.",
"~.' X X X X K F  .q.A.1.b l.% X X X X X X X ' ~.",
"~.) X X X 9 F.3.t ) I.;.V q.# X X g V X X X [ ~.",
"~.' X X X / t.a 0 i.J.;.b M.; X X ! k.= X X [ ~.",
"~.[ X X # d.a.A.*.9 Q o.b a.t X X a M.g X X [ ~.",
"~.' X X 2 l.t.O.) ;.Q F g ) Y a = 2 b.S X X [ ~.",
"~.' X X r 3.l l d.!  .F g 3.l t.V ) Y V X X ' ~.",
"~.' X X r 3.*.3.n K [ ' b q.! n Q b.Y T X X ) ~.",
"~.' X X t M.l.' J.O.U *.b m.n b.M.! H.U X X ) ~.",
"~.' X X , m.M.b U g U O.n f.0 n U [ H.l X X ) ~.",
"~.' X X X  .Y T t.J.n T a n m.M.w.;.g.; X X [ ~.",
"~.' X X X # X # x A.U.;.b I.~.m.k.l V X X X [ ~.",
"~.) X X X X X # % g L.;.n ~.~. .V 2 # X X X [ ~.",
"~.' X X X X X X X 4 [ o.n f.' n t.g # X X X ' ~.",
"~.' X X X X X X a l *.*.n Z.r f.1.# # X X X ' ~.",
"~.' X X X X X % )  .*.O.V F.V q.4 # # X X X ' ~.",
"~.) X X X X X X 2 O.q.*.n M.[ g X X X X X X [ ~.",
"~.' # # X X X X X ; [ ) g 1.4 X X X X X X X ' R.",
"~.' X X X X X X # X # % X % # # X X X X X X ) ~.",
"~.b.1.O.q.q.1.3.o.3.q.w.3.w.3.3.3.w.3.q.w.1.l.~.",
"~.R.~.R.R.R.~.~.~.~.~.~.~.~.R.~.~.~.R.~.R.~.R.~."
};
