/* XPM */
static char *IconAdv.gif[] = {
/* columns rows colors chars-per-pixel */
"48 64 65 1",
"  c #757576",
". c #5B595B",
"X c #EDEDEE",
"o c #4C494A",
"O c #696769",
"+ c #8B8C8E",
"@ c #1A1616",
"# c #A3A1A1",
"$ c #2C292A",
"% c #CDCDCE",
"& c #383637",
"* c #DDDEDE",
"= c #BBBABA",
"- c gray94",
"; c gray98",
": c #FDFDFD",
"> c #E4E4E4",
", c #D2D3D3",
"< c gray67",
"1 c #B3B3B4",
"2 c #9D9C9D",
"3 c #1F1B1C",
"4 c #242122",
"5 c #959495",
"6 c #F4F5F5",
"7 c #838182",
"8 c #DADADB",
"9 c #C2C3C4",
"0 c #A8A6A7",
"q c #2F2B2C",
"w c #221E1F",
"e c #292627",
"r c #6C6C6D",
"t c #8D8E8F",
"y c #AFAEAF",
"u c #403E3F",
"i c #E8E8E9",
"p c #BFBEBF",
"a c #2A2728",
"s c #D0D0D1",
"d c #C8C8C8",
"f c #616061",
"g c #454344",
"h c #E0E0E1",
"j c #EFEFEF",
"k c #706E6F",
"l c #807F81",
"z c #727071",
"x c #D5D6D7",
"c c #D8D8D9",
"v c #F7F7F8",
"b c #E6E7E7",
"n c #A1A0A0",
"m c #E8E7E7",
"M c #322F30",
"N c #BFC0C2",
"B c #7E7D7E",
"V c #888788",
"C c #B7B7B8",
"Z c #9F9E9F",
"A c #979798",
"S c #929091",
"D c gray100",
"F c gray100",
"G c None",
/* pixels */
"GGGGGGGGGGGGGGGGGGGGGGGGGGGGGGGGGGGGGGGGGGGGGGGG",
"GGGGGGGGGGGGGGGGGGGGGG*o*GGGGGGGGGGGGGGGGGGGGGGG",
"GGGGGGGGGGGGGGGGGGGGG;gwVGGGGGGGGGGGGGGGGGGGGGGG",
"GGGGGGGGGGGGGGGGGGGGG+ww4ZGGGGGGGGGGGGGGGGGGGGGG",
"GGGGGGGGGGGGGGGGGGGGs4w@wu>GGGGGGGGGGGGGGGGGGGGG",
"GGGGGGGGGGGGGGGGGGG>&3$Oww.GGGGGGGGGGGGGGGGGGGGG",
"GGGGGGGGGGGGGGGGGGGV4@BDf@w=GGGGGGGGGGGGGGGGGGGG",
"GGGGGGGGGGGGGGGGGG>q@g-D,$3oiGGGGGGGGGGGGGGGGGGG",
"GGGGGGGGGGGGGGGGGGBw3CDDD5@wBGGGGGGGGGGGGGGGGGGG",
"GGGGGGGGGGGGGGGGG24@ODDDD6o@w*GGGGGGGGGGGGGGGGGG",
"GGGGGGGGGGGGGGGGjg3exDDDDDC3wOGGGGGGGGGGGGGGGGGG",
"GGGGGGGGGGGGGGGGnw@VDDDDDDD.@wdGGGGGGGGGGGGGGGGG",
"GGGGGGGGGGGGGGGj&3&iDDDDDDD%4wfGGGGGGGGGGGGGGGGG",
"GGGGGGGGGGGGGGGSw@5DDDDDDDDD @4pGGGGGGGGGGGGGGGG",
"GGGGGGGGGGGGGG>e@&XDDDDDDDDD%e3f;GGGGGGGGGGGGGGG",
"GGGGGGGGGGGGGG=w@tDDDDDDDDDDDk@wpGGGGGGGGGGGGGGG",
"GGGGGGGGGGGGGG.3&>DDDDDDDDDDD%43fGGGGGGGGGGGGGGG",
"GGGGGGGGGGGGGpw@7DDDDDDDDDDDDDf@q8GGGGGGGGGGGGGG",
"GGGGGGGGGGGGG7wexDDDDDDDDDDDDD1@wVGGGGGGGGGGGGGG",
"GGGGGGGGGGGG*M@fDDDDDDDDDDDDDD6g@uGGGGGGGGGGGGGG",
"GGGGGGGGGGGG5ww1DDDDDDDDDDDDDDD5@w0GGGGGGGGGGGGG",
"GGGGGGGGGGG6g3gvDDDDDDDDDDDDDDDcq3VGGGGGGGGGGGGG",
"GGGGGGGGGGG>4@VDDDDDDDDDDDDDDDDDO@4mGGGGGGGGGGGG",
"GGGGGGGGGGGkww%DDDDDDDDDDDDDDDDD1@wCGGGGGGGGGGGG",
"GGGGGGGGGG:.@o;DDDDDDDDDDDDDDDDDb&3OGGGGGGGGGGGG",
"GGGGGGGGGGd4@tDDDDDDDDDDDDDDDDDDDz@$8GGGGGGGGGGG",
"GGGGGGGGGG w3sDDDDDDDDDDDDDDDDDDDy@4pGGGGGGGGGGG",
"GGGGGGGGGGg@o6DDDDDDDDDDDDDDDDDDDiq3oGGGGGGGGGGG",
"GGGGGGGGGb&@lDDDDDDDDDDDDDDDDDDDDDf@gGGGGGGGGGGG",
"GGGGGGGGG2w4CDDDDDDDDDDDDDDDDDDDDD2@w1GGGGGGGGGG",
"GGGGGGGGG53MiDDDDDDDDDDDDDDDDDDDDD%e32GGGGGGGGGG",
"GGGGGGGGXe@.DDDDDDDDDDDDDDDDDDDDDDvu3f:GGGGGGGGG",
"GGGGGGGGXe@+DDDDDDDDDDDDDDDDDDDDDDDr@eXGGGGGGGGG",
"GGGGGGGGtw@=DDDDDDDDDDDDDDDDDDDDDDD2@eXGGGGGGGGG",
"GGGGGGGGk3&hDDDDDDDDDDDDDDDDDDDDDDDdwwAGGGGGGGGG",
"GGGGGGGGk@o:DDDDDDDDDDDDDDDDDDDDDDDi&@zGGGGGGGGG",
"GGGGGGG,4@ODDDDDDDDDDj9<d6DDDDDDDDDDo@zGGGGGGGGG",
"GGGGGGG%w@ADDDDDDDDDy&3@wgdDDDDDDDDD @4cGGGGGGGG",
"GGGGGGG%w@=DDDDDDDD1@@w4w@qxDDDDDDDD2@4%GGGGGGGG",
"GGGGGGGVw4*DDDDDDDvg@qZyZe@lDDDDDDDDp@w%GGGGGGGG",
"GGGGGGGo3uXDDDDDDD*$3nGG-$@.DDDDDDDDh4wSGGGGGGGG",
"GGGGGGGo@.;DDDDDDD*q3#GG-$@.DDDDDDDDXu3oGGGGGGGG",
"GGGGGGGo@rDDDDDDDD*q3#GG-$@.DDDDDDDD;.@oGGGGGGGG",
"GGGGGGGg@7DDDDDDDD*q3#GG-$@.DDDDDDDDDr@oGGGGGGGG",
"GGGGGG0w3#DDDDDDDD*q3#GG-$@.DDDDDDDDDB@oGGGGGGGG",
"GGGGGG0ww1DDDDDDDD*q3#GG-$@.DDDDDDDDDZ@wyGGGGGGG",
"GGGGGG0w4dDDDDDDDD*q3#GG-$@.DDDDDDDDD1ww0GGGGGGG",
"GGGGGG03$cDDDDDDDD*q3#GG-$@.DDDDDDDDDN4w0GGGGGGG",
"GGGGGG03MXDDDDDDDD*q3#GG-$@.DDDDDDDDD,a30GGGGGGG",
"GGGGGG03MvDDDDDDDD*q3#GG-$@.DDDDDDDDD8$30GGGGGGG",
"GGGGGGg@g;DDDDDDDD*q3#GG-$@.DDDDDDDDD6M30GGGGGGG",
"GGGGGGq@.DDDDDDDDD*q3#GG-$@.DDDDDDDDDvM30GGGGGGG",
"GGGGGGq@.DDDDDDDDD*q3#GG-$@.DDDDDDDDD;g3.GGGGGGG",
"GGGGGGq@rDDDDDDDDD*q3#GG-$@.DDDDDDDDDD.@qGGGGGGG",
"GGGGGGq@ DDDDDDDDD*q3#GG-$@.DDDDDDDDDD.@qGGGGGGG",
"GGGGGGq@ DDDDDDDDD*q3#GG-$@.DDDDDDDDD:.@qGGGGGGG",
"GGGGGGq@ DDDDDDDDD*q3#GG-$@.DDDDDDDDDDf@qGGGGGGG",
"GGGGGGq@ DDDDDDDDD*q3#GG-$@.DDDDDDDDDD @qGGGGGGG",
"GGGGGGq@ DDDDDDDDDhq3#GG-$@fDDDDDDDDDD @qGGGGGGG",
"GGGGGGq3ot+++++++tBew#GG-$3u+++++++++to3qGGGGGGG",
"GGGGGGq43@@@@@@@@@@w4#GG-$w3@@@@@@@@@@34qGGGGGGG",
"GGGGGG&a$$$$$$$$$$$$w0GG-&a$$$$$$$$$$$$e&GGGGGGG",
"GGGGGGGGGGGGGGGGGGGGGGGGGGGGGGGGGGGGGGGGGGGGGGGG",
"GGGGGGGGGGGGGGGGGGGGGGGGGGGGGGGGGGGGGGGGGGGGGGGG"
};
