/* XPM */
static char *IconClanNos.gif[] = {
/* columns rows colors chars-per-pixel */
"64 64 17 1",
"  c gray100",
". c gray97",
"X c #E7E7E7",
"o c gray84",
"O c gray74",
"+ c gray68",
"@ c gray58",
"# c #848484",
"$ c gray42",
"% c #5A5A5A",
"& c gray26",
"* c #393939",
"= c gray13",
"- c gray3",
"; c cyan",
": c black",
"> c None",
/* pixels */
">>>>>>>>>>>>>>>>>>>>>>>>>>>>>>>>>>>>>>>>>>>>>>>>>>>>>>>>>>>>>>>>",
">>>>>>>>>>>>>>>>>>>>>>>>>>>>>>>>>>>>>>>>>>>>>>>>>>>>>>>>>>>>>>>>",
">>>>>>>>>>>>>>>>>>>>>>>>>>>>>>>>>>>>>>>>>>>>>>>>>>>>>>>>>>>>>>>>",
">>>>>>>>>>>>>>>>>>>>>>>>>>>>>>>>>>>>>>>>>>>>>>>>>>>>>>>>>>>>>>>>",
">>>>>>>>>>>>>>>>>>>>>>>>    .>>>>>>>>>>>>>>>>>>>>>>>>>>>>>>>>>>>",
">>>>>>>>>>>>>>>>>>>>>>>> &-%@X. >>>>>>>>>>>>>>>>>>>>>>>>>>>>>>>>",
">>>>>>>>>>>>>>>>>>>>>>>> +-::=%O  >>>>>>>>>>>>>>>>>>>>>>>>>>>>>>",
">>>>>>>>>>>>>>>>>>>>>>>>>X-::::*$X >>>>>>>>>>>>>>>>>>>>>>>>>>>>>",
">>>>>>>>>>>>>>>>>>>>>>>>> ::-:::-%X >>>>>>>>>>>>>>>>>>>>>>>>>>>>",
">>>>>>>>>>>>>>>>>>>>>>>>>.::::::::#  >>>>>>>>>>>>>>>>>>>>>>>>>>>",
">>>>>>>>>>>>>>>>>>>>>>>> O::::::::-# >>>>>>>>>>>>>>>>>>>>>>>>>>>",
">>>>>>>>>>>>>>>>>>>>>>>> #:-:::---:=@X>>>>>>>>>>>>>>>>>>>>>>>>>>",
">>>>>>>>>>>>>>>>>>>>>>>> %:::-::::-:-+  >>>>>>>>>>>>>>>>>>>>>>>>",
">>>>>>>>>>>>>>>>>>>>>>> o::::::::::%&:$  >>>>>>>>>>>>>>>>>>>>>>>",
">>>>>>>>>>>>>>>>>>>>>>>.#:::::::::#X$::*o.>>>>>>>>>>>>>>>>>>>>>>",
">>>>>>>>>>>>>>>>>>>>>> X=:::-:::-$ o=:::-@X   >>>>>>>>>>>>>>>>>>",
">>>>>>>>>>>>>>>>>>>>>> #::::-*$O. @-:-::-:=$@O  .   >>>>>>>>>>>>",
">>>>>>>>>>>>>>>>>>>>>.o:=&@X.o+#%=::::::::::::-**##Oo  >>>>>>>>>",
">>>>>>>>>>>>>>>>>>>>> %=$O%-::::::-::-::::-:-=::=-::-%O >>>>>>>>",
">>>>>>>>>>>>>>>>>>>> O:%$:-=%&-::--:&$--::-:$@-:::::::$.>>>>>>>>",
">>>>>>>>>>>>>>>>>>> .=:-=@X  . o#%*#X#:::::-++::::--::$ >>>>>>>>",
">>>>>>>>>>>>>>>>>>>X$::%o+=:::*@o.  o-:+#::%O::-:::-:-+ >>>>>>>>",
">>>>>>>>>>>>>>>>>> @::$#=--:::-::-**-:#X=:-##:::::-::$ >>>>>>>>>",
">>>>>>>>>>>>>>>>> @=:--::::-::::::-::-O :::+&::::::-$X >>>>>>>>>",
">>>>>>>>>>>>>>>> X=:::::::::::--::::::#.%::+&:::::-#. >>>>>>>>>>",
">>>>>>>>>>>>>>>>X*-:::=$OOO#%$&-::::::=@o::##::-::@  >>>>>>>>>>>",
">>>>>>>>>>>>>>> +::::=+      O&:::-::-:=o%:&+::::$.>>>>>>>>>>>>>",
">>>>>>>>>>>>>>>o*::::::=#  X#-:-:::-:-::$O--+:::&. >>>>>>>>>>>>>",
">>>>>>>>>>>>>> +:::-:::::*&=:::-::-$-:=::.--+::=o >>>>>>>>>>>>>>",
">>>>>>>>>>>>>> *-:-::::::-:::::::::.$::::#@:$::#.>>>>>>>>>>>>>>>",
">>>>>>>>>>>>>>X=:=%-:-::::::-:-:::- +-:::$+:-:-o >>>>>>>>>>>>>>>",
">>>>>>>>>>>>> O::O%::::-:::-:=::::=  $:::*O:::$ >>>>>>>>>>>>>>>>",
">>>>>>>>>>>>> @:$ -:-:-:::::%-:==:-o .--:*+:-:o >>>>>>>>>>>>>>>>",
">>>>>>>>>>>>> %:o &::::-:::*$::+::-*X.#::$%::= >>>>>>>>>>>>>>>>>",
">>>>>>>>>>>>> &-o +=::=$@:=+::$$::::&.@-:#--:$.>>>>>>>>>>>>>>>>>",
">>>>>>>>>>>>> &-$O*::#O%o:O=-:O-:-:::++-:*:--o >>>>>>>>>>>>>>>>>",
">>>>>>>>>>>>> &:::::@O::+#$-:=+::::::%#:::::= >>>>>>>>>>>>>>>>>>",
">>>>>>>>>>>>> &::::$O:-:X@:::$%-*::::=-::-:-@ >>>>>>>>>>>>>>>>>>",
">>>>>>>>>>>>> *:-:=o=:::+::::+=++::::::-::=#X>>>>>>>>>>>>>>>>>>>",
">>>>>>>>>>>>> *:-:O*::--$::-* O@+:-::-::-%+. >>>>>>>>>>>>>>>>>>>",
">>>>>>>>>>>>> &::*#-:-::#%:#o#-++::::-:=#X >>>>>>>>>>>>>>>>>>>>>",
">>>>>>>>>>>>> &::O--:%*-$oX#=::o$:::::&o  >>>>>>>>>>>>>>>>>>>>>>",
">>>>>>>>>>>>> &:*O:&o  +*o%:-:* =::::=O >>>>>>>>>>>>>>>>>>>>>>>>",
">>>>>>>>>>>>> *:#%-X.   +=:::-%o::-:-+ >>>>>>>>>>>>>>>>>>>>>>>>>",
">>>>>>>>>>>>> =-o:#  .    X%::+%:::-$.>>>>>>>>>>>>>>>>>>>>>>>>>>",
">>>>>>>>>>>>> :-+: o      .O:-o-:::%. >>>>>>>>>>>>>>>>>>>>>>>>>>",
">>>>>>>>>>>> o:&%*  XO.    @:#*:::=+ >>>>>>>>>>>>>>>>>>>>>>>>>>>",
">>>>>>>>>>>> #:%=$ @-:-O  X*=$::-:$ >>>>>>>>>>>>>>>>>>>>>>>>>>>>",
">>>>>>>>>>>> *:*:#@-:::%..#:&:-::&o >>>>>>>>>>>>>>>>>>>>>>>>>>>>",
">>>>>>>>>>> O--::&-:%=:- @:-=:::-+ >>>>>>>>>>>>>>>>>>>>>>>>>>>>>",
">>>>>>>>>>> %:::::%o X:=O-:-:-:-@ >>>>>>>>>>>>>>>>>>>>>>>>>>>>>>",
">>>>>>>>>>> &::::-=:=o:*-:-:::-%. >>>>>>>>>>>>>>>>>>>>>>>>>>>>>>",
">>>>>>>>>>> #:::::-:---:-:::::$  >>>>>>>>>>>>>>>>>>>>>>>>>>>>>>>",
">>>>>>>>>>> X#&-:::-:::::-::=+  >>>>>>>>>>>>>>>>>>>>>>>>>>>>>>>>",
">>>>>>>>>>>>    X%-::-::-::%O >>>>>>>>>>>>>>>>>>>>>>>>>>>>>>>>>>",
">>>>>>>>>>>>>>>>. +=::-::-%o >>>>>>>>>>>>>>>>>>>>>>>>>>>>>>>>>>>",
">>>>>>>>>>>>>>>>>> +=:::-@X >>>>>>>>>>>>>>>>>>>>>>>>>>>>>>>>>>>>",
">>>>>>>>>>>>>>>>>>> +##+   >>>>>>>>>>>>>>>>>>>>>>>>>>>>>>>>>>>>>",
">>>>>>>>>>>>>>>>>>>>   .>>>>>>>>>>>>>>>>>>>>>>>>>>>>>>>>>>>>>>>>",
">>>>>>>>>>>>>>>>>>>>>>>>>>>>>>>>>>>>>>>>>>>>>>>>>>>>>>>>>>>>>>>>",
">>>>>>>>>>>>>>>>>>>>>>>>>>>>>>>>>>>>>>>>>>>>>>>>>>>>>>>>>>>>>>>>",
">>>>>>>>>>>>>>>>>>>>>>>>>>>>>>>>>>>>>>>>>>>>>>>>>>>>>>>>>>>>>>>>",
">>>>>>>>>>>>>>>>>>>>>>>>>>>>>>>>>>>>>>>>>>>>>>>>>>>>>>>>>>>>>>>>",
">>>>>>>>>>>>>>>>>>>>>>>>>>>>>>>>>>>>>>>>>>>>>>>>>>>>>>>>>>>>>>>>"
};
