/* XPM */
static char *Type Ally[] = {
/* columns rows colors chars-per-pixel */
"24 24 140 2",
"   c #006600660066",
".  c #017501750175",
"X  c #026D026D026D",
"o  c #036403640364",
"O  c #046204620462",
"+  c #058905890589",
"@  c #06BB06BB06BB",
"#  c #076207620762",
"$  c #085E085E085E",
"%  c #097A097A097A",
"&  c #0A1C0A1C0A1C",
"*  c #0B840B840B84",
"=  c #0D7F0D7F0D7F",
"-  c #0F950F950F95",
";  c #101D101D101D",
":  c #13E513E513E5",
">  c #14C514C514C5",
",  c #15DE15DE15DE",
"<  c #173317331733",
"1  c #18E618E618E6",
"2  c #196319631963",
"3  c #1D231D231D23",
"4  c #20C120C120C1",
"5  c #223122312231",
"6  c #23C023C023C0",
"7  c #243724372437",
"8  c #288E288E288E",
"9  c #2A882A882A88",
"0  c #2BF52BF52BF5",
"q  c #2CCF2CCF2CCF",
"w  c #2F9C2F9C2F9C",
"e  c #34EB34EB34EB",
"r  c #358435843584",
"t  c #38E238E238E2",
"y  c #399139913991",
"u  c #3A403A403A40",
"i  c #3CC23CC23CC2",
"p  c #3E003E003E00",
"a  c #3EA43EA43EA4",
"s  c #420F420F420F",
"d  c #42F242F242F2",
"f  c #469046904690",
"g  c #4B324B324B32",
"h  c #4C694C694C69",
"j  c #503F503F503F",
"k  c #516251625162",
"l  c #545254525452",
"z  c #54F854F854F8",
"x  c #577357735773",
"c  c #588958895889",
"v  c #5B8C5B8C5B8C",
"b  c #5CFD5CFD5CFD",
"n  c #5F745F745F74",
"m  c #645364536453",
"M  c #65D865D865D8",
"N  c #673C673C673C",
"B  c #6A396A396A39",
"V  c #6E2E6E2E6E2E",
"C  c #6F716F716F71",
"Z  c #710371037103",
"A  c #732473247324",
"S  c #73D573D573D5",
"D  c #7B687B687B68",
"F  c #7E4F7E4F7E4F",
"G  c #7F1F7F1F7F1F",
"H  c #805A805A805A",
"J  c #816881688168",
"K  c #827382738273",
"L  c #85F685F685F6",
"P  c #890889088908",
"I  c #8A248A248A24",
"U  c #8AF58AF58AF5",
"Y  c #8BE98BE98BE9",
"T  c #8CE88CE88CE8",
"R  c #8E458E458E45",
"E  c #8F348F348F34",
"W  c #907B907B907B",
"Q  c #91C691C691C6",
"!  c #945D945D945D",
"~  c #95F995F995F9",
"^  c #970097009700",
"/  c #981B981B981B",
"(  c #997199719971",
")  c #9ACB9ACB9ACB",
"_  c #9BB79BB79BB7",
"`  c #9DF79DF79DF7",
"'  c #A505A505A505",
"]  c #A684A684A684",
"[  c #A711A711A711",
"{  c #A852A852A852",
"}  c #A901A901A901",
"|  c #AA34AA34AA34",
" . c #AB06AB06AB06",
".. c #AC28AC28AC28",
"X. c #B068B068B068",
"o. c #B134B134B134",
"O. c #B4B2B4B2B4B2",
"+. c #B6A3B6A3B6A3",
"@. c #B7ECB7ECB7EC",
"#. c #B8CBB8CBB8CB",
"$. c #BA2ABA2ABA2A",
"%. c #C28BC28BC28B",
"&. c #C38CC38CC38C",
"*. c #C660C660C660",
"=. c #CA62CA62CA62",
"-. c #CB5CCB5CCB5C",
";. c #CE44CE44CE44",
":. c #D2C7D2C7D2C7",
">. c #D327D327D327",
",. c #D5F7D5F7D5F7",
"<. c #D714D714D714",
"1. c #DCB4DCB4DCB4",
"2. c #DD57DD57DD57",
"3. c #DF37DF37DF37",
"4. c #E0C9E0C9E0C9",
"5. c #E10DE10DE10D",
"6. c #E33EE33EE33E",
"7. c #E440E440E440",
"8. c #E54AE54AE54A",
"9. c #E61CE61CE61C",
"0. c #E75AE75AE75A",
"q. c #E871E871E871",
"w. c #E8EEE8EEE8EE",
"e. c #EA0DEA0DEA0D",
"r. c #EB81EB81EB81",
"t. c #EDB2EDB2EDB2",
"y. c #EE91EE91EE91",
"u. c #F178F178F178",
"i. c #F3DCF3DCF3DC",
"p. c #F671F671F671",
"a. c #F77AF77AF77A",
"s. c #F878F878F878",
"d. c #F97EF97EF97E",
"f. c #FA7FFA7FFA7F",
"g. c #FB4EFB4EFB4E",
"h. c #FC9AFC9AFC9A",
"j. c #FD88FD88FD88",
"k. c #FE78FE78FE78",
"l. c #FF4AFF4AFF4A",
"z. c gray100",
/* pixels */
":.| [ [ | [ [ | | [ | | [ | | | [ [ | [ [ [ | :.",
"R # # % # % # % 8 N F D F R N w = % # # # # % R ",
"U . . # . . r [ 1.[ u 1 6 x ,.6.| i . # . . . U ",
"R # . . ; N 0.d.=.6 . # . % x u.d.0.A ; . . . U ",
"U . # = J d.d.a.J # . . . . > =.j.j.d.F % . . R ",
"U . # A a.j.j.j.A . . . . # = %.j.j.d.d.V . . U ",
"U . u 0.j.j.j.j.` % # . # # e 1.j.j.j.j.0.s . U ",
"U # | j.j.j.j.j.0.l # . # > ^ d.j.j.j.d.j.| # U ",
"U w 0.j.j.j.j.j.j.0.Q j b $.a.j.j.j.j.j.j.e.r U ",
"U m d.j.j.j.j.j.j.y.*.^ R ..0.d.j.j.j.j.j.j.V U ",
"U R j.j.j.j.j.j.3.x % . . . u %.j.j.j.j.j.j.` U ",
"R | j.j.j.j.j.j.b # . . . . . s a.j.j.j.j.j.$.R ",
"U X.j.j.j.j.j.6.6 . . . . . # 3 ,.j.j.j.j.j.| U ",
"U Q j.j.j.j.j.6.3 . . . . # . 1 ;.j.j.j.j.j.) U ",
"U A j.j.j.j.j.a.8 . . . . . . 6 3.j.j.j.j.j.A U ",
"U u e.j.j.j.j.j.r . . . # . . 7 e.j.j.j.j.e.r U ",
"U # +.d.j.j.j.j.l . . . . . . 8 a.j.j.d.d.+.% U ",
"U . f e.j.j.j.j.B . . . . . . i j.j.j.j.u.j . U ",
"U . % F j.j.j.j.A . . . . . # x j.j.j.d.L % . U ",
"U . . > ` d.j.j.R . . . . . . A j.d.a.) > . . R ",
"U . . . > F y.d.^ . . . # . # R j.e.L > . . . R ",
"U . . . # # j ..^ # . . . . . ^ $.j % . . . . U ",
"R . . . . . # = w . . . . . . 8 = . . . . . . R ",
"=.U R U R R U U U R R R R U R R R R U R U R U =."
};
