/* XPM */
static char *Type Action[] = {
/* columns rows colors chars-per-pixel */
"24 24 140 2",
"   c #003500350035",
".  c #01A201A201A2",
"X  c #028D028D028D",
"o  c #03A803A803A8",
"O  c #045C045C045C",
"+  c #057A057A057A",
"@  c #063C063C063C",
"#  c #075907590759",
"$  c #089008900890",
"%  c #09AA09AA09AA",
"&  c #0A5B0A5B0A5B",
"*  c #0B970B970B97",
"=  c #0C420C420C42",
"-  c #0D760D760D76",
";  c #0E7E0E7E0E7E",
":  c #0F750F750F75",
">  c #10F110F110F1",
",  c #11BD11BD11BD",
"<  c #123D123D123D",
"1  c #155915591559",
"2  c #174C174C174C",
"3  c #181818181818",
"4  c #1B101B101B10",
"5  c #1CB91CB91CB9",
"6  c #1F6A1F6A1F6A",
"7  c #21CF21CF21CF",
"8  c #22A322A322A3",
"9  c #24A724A724A7",
"0  c #25D125D125D1",
"q  c #27E027E027E0",
"w  c #28E628E628E6",
"e  c #298F298F298F",
"r  c #2E7F2E7F2E7F",
"t  c #2FF02FF02FF0",
"y  c #316231623162",
"u  c #326132613261",
"i  c #34EB34EB34EB",
"p  c #35E535E535E5",
"a  c #37F337F337F3",
"s  c #390439043904",
"d  c #3BA93BA93BA9",
"f  c #3C6F3C6F3C6F",
"g  c #430E430E430E",
"h  c #4FC04FC04FC0",
"j  c #50B150B150B1",
"k  c #516F516F516F",
"l  c #59F759F759F7",
"z  c #5D085D085D08",
"x  c #659A659A659A",
"c  c #66CE66CE66CE",
"v  c #67F967F967F9",
"b  c #68CE68CE68CE",
"n  c #6ACE6ACE6ACE",
"m  c #6C1D6C1D6C1D",
"M  c #6FF56FF56FF5",
"N  c #70FA70FA70FA",
"B  c #725272527252",
"V  c #72DE72DE72DE",
"C  c #738473847384",
"Z  c #751175117511",
"A  c #781A781A781A",
"S  c #78DC78DC78DC",
"D  c #7A277A277A27",
"F  c #7B317B317B31",
"G  c #7E667E667E66",
"H  c #804580458045",
"J  c #856385638563",
"K  c #886F886F886F",
"L  c #88C588C588C5",
"P  c #89BC89BC89BC",
"I  c #8B278B278B27",
"U  c #8BB68BB68BB6",
"Y  c #8CF68CF68CF6",
"T  c #8E008E008E00",
"R  c #8EC98EC98EC9",
"E  c #900590059005",
"W  c #90C390C390C3",
"Q  c #930793079307",
"!  c #999F999F999F",
"~  c #A1DAA1DAA1DA",
"^  c #A610A610A610",
"/  c #A75DA75DA75D",
"(  c #A855A855A855",
")  c #A907A907A907",
"_  c #A9C3A9C3A9C3",
"`  c #AC22AC22AC22",
"'  c #B0B8B0B8B0B8",
"]  c #B342B342B342",
"[  c #B3F5B3F5B3F5",
"{  c #B71EB71EB71E",
"}  c #B9FBB9FBB9FB",
"|  c #BBCEBBCEBBCE",
" . c #BEF3BEF3BEF3",
".. c #BFC7BFC7BFC7",
"X. c #C177C177C177",
"o. c #C348C348C348",
"O. c #C3F3C3F3C3F3",
"+. c #C55CC55CC55C",
"@. c #C618C618C618",
"#. c #C735C735C735",
"$. c #C7F8C7F8C7F8",
"%. c #CBFACBFACBFA",
"&. c #CE2ECE2ECE2E",
"*. c #D02CD02CD02C",
"=. c #D0ECD0ECD0EC",
"-. c #D287D287D287",
";. c #D36BD36BD36B",
":. c #D4ABD4ABD4AB",
">. c #D7E8D7E8D7E8",
",. c #DA54DA54DA54",
"<. c #DC33DC33DC33",
"1. c #DD00DD00DD00",
"2. c #DE88DE88DE88",
"3. c #DFC3DFC3DFC3",
"4. c #E058E058E058",
"5. c #E183E183E183",
"6. c #E27DE27DE27D",
"7. c #E4CBE4CBE4CB",
"8. c #E60BE60BE60B",
"9. c #E9D0E9D0E9D0",
"0. c #EBA3EBA3EBA3",
"q. c #EE57EE57EE57",
"w. c #EF73EF73EF73",
"e. c #F0CAF0CAF0CA",
"r. c #F162F162F162",
"t. c #F25AF25AF25A",
"y. c #F37CF37CF37C",
"u. c #F4B1F4B1F4B1",
"i. c #F587F587F587",
"p. c #F68AF68AF68A",
"a. c #F775F775F775",
"s. c #F894F894F894",
"d. c #F97BF97BF97B",
"f. c #FA99FA99FA99",
"g. c #FB96FB96FB96",
"h. c #FC6CFC6CFC6C",
"j. c #FD8CFD8CFD8C",
"k. c #FE7AFE7AFE7A",
"l. c #FF66FF66FF66",
"z. c gray100",
/* pixels */
"5.+.+.o.o.+.+.o.+.+.%...+.+.+.+.o.+.+.+.+.%.+.5.",
"R ; ; * * * * ; 0 h S R I S h 8 ; ; ; * * * ; R ",
"I           q I <.t.j.j.j.j.i.:.J 8           R ",
"R       ; z <.j.j.j.i.j.s.i.j.j.s.1.h #       R ",
"I     ; G w.j.j.j.t.Q 5.%.G w.j.j.j.t.c *     R ",
"R   # b s.s.j.j.t.Z < 5.%.> N t.j.j.j.i.l     I ",
"I   d 0.j.j.j.i.m # < 5.+.; # c i.j.j.j.5.u   R ",
"R # _ s.j.j.i.m #   > 5.+.;   * b i.j.j.j.!   R ",
"R a 0.j.j.i.m ;     > 5.+.; #   * c i.j.j.5.q R ",
"I N j.j.w.Z #       > 8.+.;       # N t.j.s.z I ",
"I _ j.t.Z *         > 8.+.;       # # S i.j.Q I ",
"I +.i.G             > 8.+.*             Z i.` R ",
"I o.:.q             > 8.%.*         # # a 8.} I ",
"I } j.o.8           > 8.+.;           u ;.j.~ R ",
"R I j.j.o.0   #     > 8.+.;       # a ;.s.j.S R ",
"I h i.j.s.%.3       > 8.%.;       r <.j.s.w.d I ",
"I > ;.j.j.j.+.8     > 8.+.;     u &.j.s.j.o.* I ",
"R   b j.j.j.s.o.3   > 8.+.;   u ;.j.j.j.s.l   J ",
"I   ; ` j.j.j.j.+.0 > 5.o.; u ;.j.j.j.j.^ *   R ",
"I     q %.j.j.j.j...d 1.o.g &.s.j.j.j.[ 5     I ",
"I   #   q ' j.j.j.j.;.i.5.5.s.j.j.s._ 3       R ",
"I         > J 1.j.j.j.j.j.s.j.s.:.N ;         I ",
"R # # # # # # q N ' 8.t.t.1.^ c 8 # # # * # # Q ",
";._ ^ ^ _ _ _ _ _ _ _ [ [ _ _ _ _ _ _ _ _ ^ ^ ;."
};
