/* XPM */
static char *IconClanCai.gif[] = {
/* columns rows colors chars-per-pixel */
"64 64 17 1",
"  c gray100",
". c gray97",
"X c gray87",
"o c #CECECE",
"O c #C6C6C6",
"+ c gray71",
"@ c gray61",
"# c gray55",
"$ c #7B7B7B",
"% c gray39",
"& c gray29",
"* c #313131",
"= c gray13",
"- c gray3",
"; c cyan",
": c black",
"> c None",
/* pixels */
">>>>>>>>>>>>>>>>>>>>>>>>>>>>>>>>>>>>>>>>>>>>>>>>>>>>>>>>>>>>>>>>",
">>>>>>>>>>>>>>>>>>>>>>>>>>>>>>>>>>>>>>>>>>>>>>>>>>>>>>>>>>>>>>>>",
">>>>>>>>>>>>>>>>>>>>>>>>>>>>>>>>>>>>>>>>>>>>>>>>>>>>>>>>>>>>>>>>",
">>>>>>>>>>>>>>>>>>>>>>>>>>>>>>>>>>>>>>>>>>>>>>>>>>>>>>>>>>>>>>>>",
">>>>>>>>>>>>>>>>>>>>>>>>>>>>>>>>>>>>>>>>        >>>>>>>>>>>>>>>>",
">>>>>>>>>>>>>>>>>>>>>>>>>>>>>>>>>>>>>  Xo%&&&%#o .>>>>>>>>>>>>>>",
">>>>>>>>>>>>>>>>>>>>>>>>>>>>>>>>>>>> X#*:-:::::-=+. >>>>>>>>>>>>",
">>>>>>>>>>>>>>>>>>>>>>>>>>>>>>>>>>> O=-:::--:::::-*@  >>>>>>>>>>",
">>>>>>>>>>>>>>>>>>>>>>>>>>>>>>>>>> +--::*$@Oo+$&-::=$. >>>>>>>>>",
">>>>>>>>>>>>>>>>>>>>>>>>>>>>>>>>> o=::=+X  >>   .%::-% .>>>>>>>>",
">>>>>>>>>>>>>>>>>>>>>>>>>>>>>>>>  *:-*X >>>>>>>> X@-::$ >>>>>>>>",
">>>>>>>>>>>>>>>>>>>>>>>>>>>>>>>> #::*X >>>>>>>>>>> @:::+ >>>>>>>",
">>>>>>>>>>>>>>>>>>>>>>>>>>>>>>> X::=+ >>>>>>>>>>>>> #::*.>>>>>>>",
">>>>>>>>>>>>>>>>>>>>>>>>>>>>>>>.%::# >>>>>>>>>>>>>>. &:-# >>>>>>",
">>>>>>>>>>>>>>>>>>>>>>>>>>>>>> o::&. >>>>>>>>>>>>>>>.+::* >>>>>>",
">>>>>>>>>>>>>>>>>>>>>>>>>>>>>> &::O >>>>>>>>>>>>>>>>>.*::X>>>>>>",
">>>>>>>>>>>>>>>>>>>>>>>>>>>>>>X*:&.>>>>>>>>>>>>>>>>>> $::+ >>>>>",
">>>>>>>>>>>>>>>>>>>>>>>>>>>>> @-:+ >>>>>>>>>>>>>>>>>> +::$ >>>>>",
">>>>>>>>>>>>>>>>>>>>>>>>>>>>> %:=.>>>>>>>>>>>>>>>>>>>>O::$ >>>>>",
">>>>>>>>>>>>>>>>>>>>>>>>>>>>>.=:& >>>>>>>>>>>>>>>>>>>>+::$ >>>>>",
">>>>>>>>>>>>>>>>>>>>>>>>>>>>>o-:@ >>>>>. X>>>>>>>>>>> @::$ >>>>>",
">>>>>>>>>>>>>>>>>>>>>>>>>>>> @:-X>>>> .@$#.>>>>>>>>>> %::+ >>>>>",
">>>>>>>>>>>>>>>>>>     >>>>> $:- >> O+$-:$.>>>>>>>>> .=::X>>>>>>",
">>>>>>>>>>>>>>>>>>O:&$...>>> *-* >>.%:::-+.>>>>>>>>> $::* >>>>>>",
">>>>>>>>>>>>>>>>>>O:::%=@ >> -:& > X-:=:$ >>>>>>>>> O-:=+ >>>>>>",
">>>>>>>>>>>>>>>>>>.=::::% >> ::$ > #:-::+.>>>>>>>> O=:-* >>>>>>>",
">>>>>>>>>>>>>>>>>> O-:-::. >.::$. X=:==$O>>>>>>>>.O-::*. >>>>>>>",
">>>>>>>>>>>>>>>>>>>.-::::# >o:-$ .&:=#.  >>>>>> .@:::&X.>>>>>>>>",
">>>>>>>>>>>>>>>>>>>+&=::-=O O::&.#=$X  >>>>>   @*:::%. >>>>>>>>>",
">>>>>>>>>>>>>>>>>>>  X#-::%Xo:::&-#  >>>>.  .#=:::=+. >>>>>>>>>>",
">>>>>>>>>>>>>>>>>>>>> ..$::$@:-::*  .   .o#&-::::#o >>>>>>>>>>>>",
">>>>>>>>>>>>>>>>>>>>>>>  o=:-:::::*&**&*::::::=#.  >>>>>>>>>>>>>",
">>>>>>>>>>>>>>>>>>>>>>>>  $-:::::-:::-:::::=$o   >>>>>>>>>>>>>>>",
">>>>>>>>>>>>>>>>>>>>>>>> ==:::::-:--:-&%$oX.  >>>>>>>>>>>>>>>>>>",
">>>>>>>>>>>>>>>>>>>>>>> O:::-::=o ...     >>>>>>>>>>>>>>>>>>>>>>",
">>>>>>>>>>>>>>>>>>>>>> o*-::::-:$. >>>>>>>>>>>>>>>>>>>>>>>>>>>>>",
">>>>>>>>>>>>>>>>>>>>> o&:::-:*+*:%O  >>>>>>>>>>>>>>>>>>>>>>>>>>>",
">>>>>>>>>>>>>>>>>>>> +*:::::-&.+::-%o  >>>>>>>>>>>>>>>>>>>>>>>>>",
">>>>>>>>>>>>>>>>>>  @-:-:::*..  $-::-&@X>>>>>>>>>>>>>>>>>>>>>>>>",
">>>>>>>>>>>>>>>>>  %-:-:::$. >>..-:-::% >>>>>>>>>>>>>>>>>>>>>>>>",
">>>>>>>>>>>>>>>> o&-:-:::%o >>>> $::::%X >>>>>>>>>>>>>>>>>>>>>>>",
">>>>>>>>>>>>>>  @=::-:::*o >>>>> o-:::-$ >>>>>>>>>>>>>>>>>>>>>>>",
">>>>>>>>>>>>> X%::-::::=+ >>>>>>> *==:-&.>>>>>>>>>>>>>>>>>>>>>>>",
">>>>>>>>>>>  +*:::--::-# >>>>>>>> + +=:=.>>>>>>>>>>>>>>>>>>>>>>>",
">>>>>>>>>>..#-::-:::::%  >>>>>>>>>>> ..o >>>>>>>>>>>>>>>>>>>>>>>",
">>>>>>>>> o&:::-::-::=o >>>>>>>>>>>>>>>>>>>>>>>>>>>>>>>>>>>>>>>>",
">>>>>>>  @=::-::::-:-o >>>>>>>>>>>>>>>>>>>>>>>>>>>>>>>>>>>>>>>>>",
">>>>>> .$::-::-:::::$ >>>>>>>>>>>>>>>>>>>>>>>>>>>>>>>>>>>>>>>>>>",
">>>>> o&::-::::-:::&X >>>>>>>>>>>>>>>>>>>>>>>>>>>>>>>>>>>>>>>>>>",
">>>> o&::-::::::::=O >>>>>>>>>>>>>>>>>>>>>>>>>>>>>>>>>>>>>>>>>>>",
">>>>o&:::::::::::-@ >>>>>>>>>>>>>>>>>>>>>>>>>>>>>>>>>>>>>>>>>>>>",
">>>>+$%&::-::::-:%.>>>>>>>>>>>>>>>>>>>>>>>>>>>>>>>>>>>>>>>>>>>>>",
">>>>.  .+*::::::*X >>>>>>>>>>>>>>>>>>>>>>>>>>>>>>>>>>>>>>>>>>>>>",
">>>>>>>> +=::::=+ >>>>>>>>>>>>>>>>>>>>>>>>>>>>>>>>>>>>>>>>>>>>>>",
">>>>>>>>> +::::@ >>>>>>>>>>>>>>>>>>>>>>>>>>>>>>>>>>>>>>>>>>>>>>>",
">>>>>>>>>> =::$ >>>>>>>>>>>>>>>>>>>>>>>>>>>>>>>>>>>>>>>>>>>>>>>>",
">>>>>>>>>> $:%. >>>>>>>>>>>>>>>>>>>>>>>>>>>>>>>>>>>>>>>>>>>>>>>>",
">>>>>>>>>> $%. >>>>>>>>>>>>>>>>>>>>>>>>>>>>>>>>>>>>>>>>>>>>>>>>>",
">>>>>>>>>> $. >>>>>>>>>>>>>>>>>>>>>>>>>>>>>>>>>>>>>>>>>>>>>>>>>>",
">>>>>>>>>> X >>>>>>>>>>>>>>>>>>>>>>>>>>>>>>>>>>>>>>>>>>>>>>>>>>>",
">>>>>>>>>>>>>>>>>>>>>>>>>>>>>>>>>>>>>>>>>>>>>>>>>>>>>>>>>>>>>>>>",
">>>>>>>>>>>>>>>>>>>>>>>>>>>>>>>>>>>>>>>>>>>>>>>>>>>>>>>>>>>>>>>>",
">>>>>>>>>>>>>>>>>>>>>>>>>>>>>>>>>>>>>>>>>>>>>>>>>>>>>>>>>>>>>>>>",
">>>>>>>>>>>>>>>>>>>>>>>>>>>>>>>>>>>>>>>>>>>>>>>>>>>>>>>>>>>>>>>>"
};
