/* XPM */
static char *IconClanAhr.gif[] = {
/* columns rows colors chars-per-pixel */
"64 64 257 2",
"   c gray100",
".  c #FEFEFE",
"X  c #FDFDFD",
"o  c gray99",
"O  c #FBFBFB",
"+  c gray98",
"@  c #F9F9F9",
"#  c #F8F8F8",
"$  c gray97",
"%  c #F6F6F6",
"&  c gray96",
"*  c #F4F4F4",
"=  c #F3F3F3",
"-  c gray95",
";  c #F1F1F1",
":  c gray94",
">  c #EFEFEF",
",  c #EEEEEE",
"<  c gray93",
"1  c #ECECEC",
"2  c gray92",
"3  c #EAEAEA",
"4  c #E9E9E9",
"5  c #E7E7E7",
"6  c #E6E6E6",
"7  c gray90",
"8  c #E4E4E4",
"9  c gray89",
"0  c #E2E2E2",
"q  c #E1E1E1",
"w  c gray88",
"e  c #DFDFDF",
"r  c gray87",
"t  c #DDDDDD",
"y  c gainsboro",
"u  c gray86",
"i  c #DADADA",
"p  c gray85",
"a  c #D7D7D7",
"s  c gray84",
"d  c #D5D5D5",
"f  c gray83",
"g  c LightGray",
"h  c #D2D2D2",
"j  c gray82",
"k  c #D0D0D0",
"l  c #CECECE",
"z  c gray80",
"x  c #CBCBCB",
"c  c #CACACA",
"v  c gray79",
"b  c #C8C8C8",
"n  c gray78",
"m  c #C5C5C5",
"M  c gray77",
"N  c #C3C3C3",
"B  c gray76",
"V  c #C1C1C1",
"C  c #C0C0C0",
"Z  c gray75",
"A  c gray",
"S  c gray74",
"D  c #BCBCBC",
"F  c #BBBBBB",
"G  c gray73",
"H  c #B9B9B9",
"J  c gray72",
"K  c #B7B7B7",
"L  c gray71",
"P  c #B4B4B4",
"I  c #B2B2B2",
"U  c #B1B1B1",
"Y  c gray69",
"T  c #AEAEAE",
"R  c gray68",
"E  c #ACACAC",
"W  c gray67",
"Q  c #AAAAAA",
"!  c #A9A9A9",
"~  c gray66",
"^  c #A7A7A7",
"/  c #A5A5A5",
"(  c #A4A4A4",
")  c gray64",
"_  c #A2A2A2",
"`  c gray63",
"'  c #A0A0A0",
"]  c #9F9F9F",
"[  c gray62",
"{  c gray61",
"}  c #9B9B9B",
"|  c #9A9A9A",
" . c gray60",
".. c #989898",
"X. c #979797",
"o. c gray59",
"O. c #959595",
"+. c gray58",
"@. c #939393",
"#. c #929292",
"$. c gray57",
"%. c #909090",
"&. c gray56",
"*. c #8E8E8E",
"=. c #8D8D8D",
"-. c gray55",
";. c #8B8B8B",
":. c gray54",
">. c #898989",
",. c #888888",
"<. c gray53",
"1. c #868686",
"2. c gray52",
"3. c #848484",
"4. c #838383",
"5. c gray51",
"6. c #818181",
"7. c #808080",
"8. c gray50",
"9. c #7E7E7E",
"0. c gray49",
"q. c #7C7C7C",
"w. c gray48",
"e. c #797979",
"r. c gray47",
"t. c #777777",
"y. c #767676",
"u. c #747474",
"i. c #727272",
"p. c gray44",
"a. c #6F6F6F",
"s. c gray43",
"d. c #6D6D6D",
"f. c #6C6C6C",
"g. c gray42",
"h. c #6A6A6A",
"j. c DimGray",
"k. c #686868",
"l. c #676767",
"z. c gray40",
"x. c #656565",
"c. c #646464",
"v. c #626262",
"b. c #606060",
"n. c #5F5F5F",
"m. c #5D5D5D",
"M. c gray36",
"N. c #5B5B5B",
"B. c #5A5A5A",
"V. c gray35",
"C. c #585858",
"Z. c #565656",
"A. c #555555",
"S. c gray33",
"D. c gray32",
"F. c #515151",
"G. c #505050",
"H. c gray31",
"J. c #4E4E4E",
"K. c gray30",
"L. c #4C4C4C",
"P. c #4B4B4B",
"I. c #494949",
"U. c #484848",
"Y. c #464646",
"T. c gray27",
"R. c #444444",
"E. c #434343",
"W. c gray26",
"Q. c #414141",
"!. c gray25",
"~. c #3F3F3F",
"^. c #3E3E3E",
"/. c gray24",
"(. c #3C3C3C",
"). c gray23",
"_. c #3A3A3A",
"`. c #393939",
"'. c gray22",
"]. c #373737",
"[. c gray21",
"{. c #353535",
"}. c #343434",
"|. c gray20",
" X c #323232",
".X c gray19",
"XX c #2F2F2F",
"oX c gray18",
"OX c #2D2D2D",
"+X c #2C2C2C",
"@X c gray17",
"#X c #2A2A2A",
"$X c gray16",
"%X c #282828",
"&X c #272727",
"*X c gray15",
"=X c #252525",
"-X c gray14",
";X c #232323",
":X c #222222",
">X c gray13",
",X c #202020",
"<X c gray12",
"1X c #1E1E1E",
"2X c #1D1D1D",
"3X c gray11",
"4X c #1B1B1B",
"5X c gray10",
"6X c #191919",
"7X c #181818",
"8X c gray9",
"9X c #161616",
"0X c #151515",
"qX c gray8",
"wX c #131313",
"eX c gray7",
"rX c #101010",
"tX c gray6",
"yX c #0E0E0E",
"uX c gray5",
"iX c #0C0C0C",
"pX c #0B0B0B",
"aX c gray4",
"sX c #090909",
"dX c gray3",
"fX c #070707",
"gX c #060606",
"hX c gray2",
"jX c #040404",
"kX c gray1",
"lX c #020202",
"zX c #010101",
"xX c cyan",
"cX c black",
"vX c black",
"bX c black",
"nX c black",
"mX c black",
"MX c black",
"NX c black",
"BX c black",
"VX c black",
"CX c black",
"ZX c black",
"AX c black",
"SX c black",
"DX c black",
"FX c black",
"GX c black",
"HX c black",
"JX c black",
"KX c black",
"LX c black",
"PX c black",
"IX c black",
"UX c black",
"YX c None",
/* pixels */
"YXYXYXYXYXYXYXYXYXYXYXYXYXYXYXYXYXYXYXYXYXYXYXYXYXYXYXYXYXYXYXYXYXYXYXYXYXYXYXYXYXYXYXYXYXYXYXYXYXYXYXYXYXYXYXYXYXYXYXYXYXYXYXYX",
"YXYXYXYXYXYXYXYXYXYXYXYXYXYXYXYXYXYXYXYXYXYXYXYXYXYXYXYXYXYXYXYXYXYXYXYXYXYXYXYXYXYXYXYXYXYXYXYXYXYXYXYXYXYXYXYXYXYXYXYXYXYXYXYX",
"YXYXYXYXYXYXYXYXYXYXYXYXYXYXYXYXYXYXYXYXYXYXYXYXYXYXYXYXYXYXYXYXYXYXYXYXYXYXYXYXYXYXYXYXYXYXYXYXYXYXYXYXYXYXYXYXYXYXYXYXYXYXYXYX",
"YXYXYXYXYXYXYXYXYXYXYXYXYXYXYXYXYXYXYXYXYXYXYXYXYXYXYXYXYXYXYXYXYXYXYXYXYXYXYXYXYXYXYXYXYXYXYXYXYXYXYXYXYXYXYXYXYXYXYXYXYXYXYXYX",
"YXYXYXYXYXYXYXYXYXYXYXYXYXYXYXYXYXYXYXYXYXYXYXYXYXYXYXYXYXYXYXYXYXYXYXYXYXYXYXYXYXYXYXYXYXYXYXYXYXYXYXYXYXYXYXYXYXYXYXYXYXYXYXYX",
"YXYXYXYXYXYXYXYXYXYXYXYXYXYXYXYXYXYXYXYXYXYXYXYXYXYXYXYXYXYXYXYXYXYXYXYXYXYXYXYXYXYXYXYXYXYXYXYXYXYXYXYXYXYXYXYXYXYXYXYXYXYXYXYX",
"YXYXYXYXYXYXYXYXYXYXYXYXYXYXYXYXYXYXYXYXYXYXYXYXYXYXYXYXYXYXYXYXYXYX              . YXYXYXYXYXYXYXYXYXYXYXYXYXYXYXYXYXYXYXYXYXYX",
"YXYXYXYXYXYXYXYXYXYXYXYXYXYXYXYXYXYXYXYXYXYXYXYXYXYXYXYXYXYXYXYX    # N :.S.6.;.H O YXYXYXYXYXYXYXYXYXYXYX      YXYXYXYXYXYXYXYX",
"YXYXYXYXYXYXYXYXYXYXYXYXYXYXYXYXYXYXYXYXYXYXYXYXYXYXYXYXYX      w 4._.lXcX:X! c $                         # c e YXYXYXYXYXYXYXYX",
"YXYXYXYXYXYXYXYXYXYXYXYXYXYXYXYXYXYXYXYXYXYXYXYXYXYXYXYX    c b.uXcXcXcXz.r   X 9 P ;.x.Y.l.j.<.{ } ' _ l.z.1.q YXYXYXYXYXYXYXYX",
"YXYXYXYXYXYXYXYXYXYXYXYXYXYXYXYXYXYXYXYX      # % 1 # # 8 i.yXcXcXcXeXs.q.h.~.*XwXcXcXcXcXcXcXcXcXcXcX8X@XN     YXYXYXYXYXYXYXYX",
"YXYXYXYXYXYXYXYXYXYXYXYXYXYXYXYXYXYX    7 ' z.OX$X<X+X+X3XcXcXcXcXcXiX'.eXcXcXcXcXcXcXcXcXcXcXdX*XD.@.d 9     YXYXYXYXYXYXYXYXYX",
"YXYXYXYXYXYXYXYXYXYXYXYXYXYXYXYXYX    U 0XcXcXcXcXcXcXcXcXcXcXcXcXcXcXcXcXcXcXcXcXcXcXcXcXcXcXrXoXK.2     YXYXYXYXYXYXYXYXYXYXYX",
"YXYXYXYXYXYXYXYXYXYXYXYXYXYXYXYX    6.dXcXcXcXcXcXcXcXcXcXcXcXcXcXcXcXcXcXcXcXcXcXcXcXcXcXcXcXT.~ >   YXYXYXYXYXYXYXYXYXYXYXYXYX",
"YXYXYXYXYXYXYXYXYXYXYXYXYXYX    # h.cXcXcXcXcXcXcXcXcXcXcXcXcXcXcXcXcXcXcXcXcXcXcXcXcXcXcXjXw.      YXYXYXYXYXYXYXYXYXYXYXYXYXYX",
"YXYXYXYXYXYXYXYXYXYXYXYXYX    a J.cXcXcXcXcXcXcXcXcXcXcXcXcXcXcXcXcXcXcXcXcXcXcXcXcXcXcXcXt.    YXYXYXYXYXYXYXYXYXYXYXYXYXYXYXYX",
"YXYXYXYXYXYXYXYXYXYXYX      L 7XcXcXcXcXcXcXcXcXcXcXcXcXcXcXcXcXcXcXcXcXcXcXcXcXcXcXcXcXY.$   YXYXYXYXYXYXYXYXYXYXYXYXYXYXYXYXYX",
"YXYXYXYXYXYXYXYXYXYX  o j L.kXcXcXcXcXcXcXcXcXcXcXcXcXcXcXcXcXcXcXcXcXcXcXcXcXcXcXcXcX@X2       YXYXYXYXYXYXYXYXYXYXYXYXYXYXYXYX",
"YXYXYXYXYXYXYXYXYXYX@ Z.sXcXcXcXcXcXcXcXcXcXcXcXcXcXcXcXcXcXcXcXcXcXcXcXcXcXcXcXcXcXcX0Xm.O.r       YXYXYXYXYXYXYXYXYXYXYXYXYXYX",
"YXYXYXYXYXYXYXYXYXYXO (.cXcXcXcXcXcXcXcXcXlXzXcXcXcXcXcXcXcXcXcXcXcXcXcXcXcXcXcXcXcXcXcXcXcXuXk.H %     YXYXYXYXYXYXYXYXYXYXYXYX",
"YXYXYXYXYXYXYXYXYXYX  J sXcXcXcXcXcXcXdX9.{ jXcXcXcXcXcXcXcXcXcXcXcXcXcXcXcXcXcXcXcXcXcXcXcXcXcXcXoXr.e       YXYXYXYXYXYXYXYXYX",
"YXYXYXYXYXYXYXYXYXYX    k.cXcXcXcXcXlX[   1.cXcXcXcXcXcXcXcXcXcXcXcXcXcXcXcXcXcXcXcXcXcXcXcXcXcXcXcXcXkXM.D +     YXYXYXYXYXYXYX",
"YXYXYXYXYXYXYXYX    * u.rXcXcXcXcXlX7.5 o.wXcXcXcXcXcXcXcXcXcXcXcXcXcXcXcXcXcXcXcXcXcXcXcXcXcXcXcXcX!.A.XX,XP.E 2     YXYXYXYXYX",
"YXYXYXYXYXYXYX    n ).cXcXcXcXcXcXlX@X8XcXcXcXcXcXcXcXcXcXcXcXcXcXcXcXcXcXcXcXcXcXcXcXcXcXcXcXcXcXcX9.  O 3 j F 0.[ =   YXYXYXYX",
"YXYXYXYXYXYX    ! uXcXcXcXcXcXcXcXcXcXcXcXcXcXcXcXcXcXcXcXcXcXcXcXcXcXcXcXcXcXcXcXcXcXcXcXcXcXcXcXcXcX,.=       % ..S . YXYXYXYX",
"YXYXYXYXYX    3.cXcXcXcXcXcXcXcXcXcXcXcXcXcXcXcXcXcXcXcXcXcXcXcXcXcXcXcXcXcXcXcXcXcXcXcXcXcXcXcXcXcXcXcX-X8.#       o   YXYXYXYX",
"YXYXYXYX  @ j.cXcXcXcXcXcXcXcXcXcXcXcXcXcXcXcXcXcXcXcXcXcXcXcXcXcXcXcXcXcXcXcXcXcXcXcXcXcXcXcXcXcXcXcXcXcX5Xe.< YXYXYXYXYXYXYXYX",
"YXYX    X x.cXcXcXcXcXcXcXcXcXcXcXcXcXcXcXcXcXcXcXcXcXcXcXcXcXcXcXcXcXcXcXcXcXcXcXcXcXcXcXcXcXcXcXcXzXlXcXtXd.:     YXYXYXYXYXYX",
"      v K.cXcXcXcXcXcXcXcXcXcXcXcXcXcXcXcXcXcXcXcXcXcXcXcXcXcXcXcXcXcXcXcXcXcXcXcXcXcXcXcXcXtXh.;.) M B  .n.;X0.h +       YXYXYX",
". s x.aXcXcXcXcXcXcXcXcXcXcXcXcXcXcXcXcXcXcXcXcXcXcXcXcXcXcXcXcXcXcXcXcXcXcXcXcXcXcXcXcXcXcXgX_.y.n X       5 B ( w.@.p   YXYXYX",
"@ }.cXcXcXcXcXcXcXcXcXcXcXcXcXcXcXcXcXcXcXcXcXcXcXcXcXcXcXcXcXcXcXcXcXcXcXcXcXcXcXcXcXcXcXcXcXcXuX|.C.^ ,         e } X.. YXYXYX",
"X M.cXcXcXcXcXcXcXcXcXcXcXcXcXcXcXcXcXcXcXcXcXcXcXcXcXcXcXcXcXcXcXcXcXcXcXcXcXcXcXcXcXcXcXcXcXcXgXJ.X.H +.t   YXYX        YXYXYX",
"  5 :XcXcXcXcXcXcXcXcXcXcXcXcXcXcXcXcXcXcXcXcXcXcXcXcXcXcXcXcXcXcXcXcXcXcXcXcXcXcXcXcXcXcXcXcXcXcXcX3X6.1     YXYXYXYXYXYXYXYXYX",
"YX  !.cXcXcXcXcXcXcXcXcXcXcXcXcXcXcXcXcXcXcXcXcXcXcXcXcXcXcXcXcXcXcXcXcXcXcXcXcXcXcXcXcXcXcXcXcXcXcXcXcX^.L     X   YXYXYXYXYXYX",
"YXX '.cXcXcXcXcXcXcXcXcXcXcXcXcXcXcXcXcXcXcXcXcXcXcXcXcXcXcXcXcXcXcXcXcXcXcXcXcXcXcXcXsX9XcXcXcXhXcX-XM.G.0XH.$.}   YXYXYXYXYXYX",
"YX. G.cXcXcXcXcXcXcXcXcXcXcXcXcXcXcXcXcXcXlX[.T.L.B.0.H.jXcXcXcXcXcXcXcXcXcXcXcXcXcXcXhXF.%.S.pXkX_.L._.O.N w.;.V   YXYXYXYXYXYX",
"YX  R cXcXcXcXcXcXcXcXcXcXcXcXcXcXcXcXcX_.A +           C >XcXcXcXcXcXcXcXcXcXcXcXcXcXcXcX^.F j y.g.[ P c.$.Y       YXYXYXYXYXYX",
"YX    4.cXcXcXcXcXcXcXcXcXcXcXcXcXcXcX%X<     YXYXYXYX    f  XcXcXcXcXcXcXcXcXcXcXcXcXcXcXcXjXl.i   j ,   X - X YXYXYXYXYXYXYXYX",
"YXYX    y.cXcXcXcXcXcXcXcXzXC.>.6XcXcX_.    YXYXYXYXYXYX  y -XcXcXcXcXcXcXcXcXcXcXzX0XqXjXcXcXcXaXw.d       YXYXYXYXYXYXYXYXYXYX",
"YXYXYX    $.sXcXcXcXcXcXcXzX`   K dXcXzX{     YXYXYXYX    N.cXcXcXcXcXcXcXcXcXcXcXzX.X@.H ] k.`.sXcXcXG.U -       YXYXYXYXYXYXYX",
"YXYXYXYX    W 1XlXlXiXiXcXcX!.+   =.cXcXyXd     YXYXYX  d iXcXcXcXcXcXcXcXcXcXcXcXcXcXdX~.V X   t @.L.tXcX3X0.z %     YXYXYXYXYX",
"YXYXYXYXYX    , M N 9 8 W.cXcXy.    / 3XcX4Xg   YXYXYX  d.cXcXcXcXcXcXcXcXcXcXcXcXcXcXcXcXcX5Xy.a     $ ^ (.cXrX[.] $   YXYXYXYX",
"YXYXYXYXYXYXYX          $ E Y.tXJ     9 O.L.m.- YXYX  3 7XcXcXcXcXcXcXcXcXcXcX=XS.R.OX:XsXcXcXcXlX>X&.5     v 2.C.W.G     YXYXYX",
"YXYXYXYXYXYXYXYXYXYXYXYX      F *.% YX      > o YXYX  { cXcXcXcXcXcXcXcXcXcXcX1Xk._ k 8 i m ( s.).tXcXpXD.) q $ 5 b Q m   YXYXYX",
"YXYXYXYXYXYXYXYXYXYXYXYXYXYX      X YXYXYX; ~     YX. E.cXcXcXcXcXcXcXcXcXcXcXcXcXjXdX7XH.4.G < @ : k @.U.rXkXrXJ..., X     YXYX",
"YXYXYXYXYXYXYXYXYXYXYXYXYXYXYXYXYXYXYXYXYX@ I./     8 0XcXcXcXcXcXcXcXcXcXcXcXcXcX<XN.u.a.Q.%X{.N.>.%.h   0 ( s.XX&Xh._ d     YX",
"YXYXYXYXYXYXYXYXYXYXYXYXYXYXYXYX      YXYX  &.pX^   ' cXcXcXcXcXcXcXcXcXcXgX4X2XwXzXtX).-.D w j x 1 x 6         % F Q k $.` 0 YX",
"YXYXYXYXYXYXYXYXYXYXYXYXYXYXYXYXX T #   YX  8 sXcXG.K.cXcXcXcXcXcXcXcXcXcX0XV.p.,.} :.f.Q._.%XE.r.%.H i ,   YXYX          3 7 YX",
"YXYXYXYXYXYXYXYXYXYXYXYXYXYXYXYX  K.G   YXYXo S.cXcXcXcXcXcXcXcXcXcXcXcXcXcXcXcXsXQ.>.K u 8 , H ,.1...&.#.e YXYXYXYXYXYXYXYXYXYX",
"YXYXYXYXYXYXYXYXYXYXYXYXYXYXYXYX  T.=X&   YX  t fXcXcXcXcXcXcXcXcXsX/.].tXtXuXkXcXhXF.U Z U I     $ 6 r = $ YXYXYXYXYXYXYXYXYXYX",
"YXYXYXYXYXYXYXYXYXYXYXYXYXYXYXYX  ;.cXe.    , 5.lXcXcXcXcXcXcXhXb.i X O : : 6 n ^ $.v.{.| t 1 X YXYX      YXYXYXYXYXYXYXYXYXYXYX",
"YXYXYXYXYXYXYXYXYXYXYXYXYXYXYXYX  4 9XaXG R 1XcXcXcXcXcXcXcX[.C       YXYXYX          : u [ M o YXYXYXYXYXYXYXYXYXYXYXYXYXYXYXYX",
"YXYXYXYXYXYXYXYXYXYXYXYXYXYXYXYXYX  M.cXdXhXcXcXcXcXcXcXjXi.%     YXYXYXYXYXYXYXYXYXYX      9 O YXYXYXYXYXYXYXYXYXYXYXYXYXYXYXYX",
"YXYXYXYXYXYXYXYXYXYXYXYXYXYXYXYXYX  l wXcXcXcXcXcXcXcXcX_     YXYXYXYXYXYXYXYXYXYXYXYXYXYXYXYXYXYXYXYXYXYXYXYXYXYXYXYXYXYXYXYXYX",
"YXYXYXYXYXYXYXYXYXYXYXYXYXYXYXYXYX    A +XcXcXcXcXcX6X]     YXYXYXYXYXYXYXYXYXYXYXYXYXYXYXYXYXYXYXYXYXYXYXYXYXYXYXYXYXYXYXYXYXYX",
"YXYXYXYXYXYXYXYXYXYXYXYXYXYXYXYXYXYX    $ +.%XcXcXcX#XZ >   YXYXYXYXYXYXYXYXYXYXYXYXYXYXYXYXYXYXYXYXYXYXYXYXYXYXYXYXYXYXYXYXYXYX",
"YXYXYXYXYXYXYXYXYXYXYXYXYXYXYXYXYXYXYXYX    < _ i.z.P.c.{ O YXYXYXYXYXYXYXYXYXYXYXYXYXYXYXYXYXYXYXYXYXYXYXYXYXYXYXYXYXYXYXYXYXYX",
"YXYXYXYXYXYXYXYXYXYXYXYXYXYXYXYXYXYXYXYXYXYX            .   YXYXYXYXYXYXYXYXYXYXYXYXYXYXYXYXYXYXYXYXYXYXYXYXYXYXYXYXYXYXYXYXYXYX",
"YXYXYXYXYXYXYXYXYXYXYXYXYXYXYXYXYXYXYXYXYXYXYXYXYXYXYXYXYXYXYXYXYXYXYXYXYXYXYXYXYXYXYXYXYXYXYXYXYXYXYXYXYXYXYXYXYXYXYXYXYXYXYXYX",
"YXYXYXYXYXYXYXYXYXYXYXYXYXYXYXYXYXYXYXYXYXYXYXYXYXYXYXYXYXYXYXYXYXYXYXYXYXYXYXYXYXYXYXYXYXYXYXYXYXYXYXYXYXYXYXYXYXYXYXYXYXYXYXYX",
"YXYXYXYXYXYXYXYXYXYXYXYXYXYXYXYXYXYXYXYXYXYXYXYXYXYXYXYXYXYXYXYXYXYXYXYXYXYXYXYXYXYXYXYXYXYXYXYXYXYXYXYXYXYXYXYXYXYXYXYXYXYXYXYX",
"YXYXYXYXYXYXYXYXYXYXYXYXYXYXYXYXYXYXYXYXYXYXYXYXYXYXYXYXYXYXYXYXYXYXYXYXYXYXYXYXYXYXYXYXYXYXYXYXYXYXYXYXYXYXYXYXYXYXYXYXYXYXYXYX",
"YXYXYXYXYXYXYXYXYXYXYXYXYXYXYXYXYXYXYXYXYXYXYXYXYXYXYXYXYXYXYXYXYXYXYXYXYXYXYXYXYXYXYXYXYXYXYXYXYXYXYXYXYXYXYXYXYXYXYXYXYXYXYXYX",
"YXYXYXYXYXYXYXYXYXYXYXYXYXYXYXYXYXYXYXYXYXYXYXYXYXYXYXYXYXYXYXYXYXYXYXYXYXYXYXYXYXYXYXYXYXYXYXYXYXYXYXYXYXYXYXYXYXYXYXYXYXYXYXYX"
};
