/* XPM */
static char *IconClanVenA.gif[] = {
/* columns rows colors chars-per-pixel */
"64 64 17 1",
"  c gray100",
". c gray97",
"X c #E7E7E7",
"o c gray84",
"O c #C6C6C6",
"+ c gray68",
"@ c #A5A5A5",
"# c gray55",
"$ c gray45",
"% c gray39",
"& c gray29",
"* c #393939",
"= c gray13",
"- c gray3",
"; c cyan",
": c black",
"> c None",
/* pixels */
">>>>>>>>>>>>>>>>>>>>>>>>>>>>>>>>>>>>>>>>>>>>>>>>>>>>>>>>>>>>>>>>",
">>>>>>>>>>>>>>>>>>>>>>>>>>>>>>>>>>>>>>>>>>>>>>>>>>>>>>>>>>>>>>>>",
">>>>>>>>>>>>>>>>>>>>>>>>>>>>>>>>>>>>>>>>>>>>>>>>>>>>>>>>>>>>>>>>",
">>>>>>>>>>>>>>>>>>>>>>>>>>>>>>>>>>>>>>>>>>>>>>>>>>>>>>>>>>>>>>>>",
">>>>>>>>>>>>>>>>>>>>>>>>>>>>>>>>>>>>>>>>>>>>>>>>>>>>>>>>>>>>>>>>",
">>>>>>>>>>>>>>>>>>>>>>>>>>>>>>>>>>>>>>>>>>>>>>>>>>>>>>>>>>>>>>>>",
">>>>>>>>>>>>>>>>>>>>>>>>>>>>>>>>>>>>>>>>>>>>>>>>>>>>>>>>>>>>>>>>",
">>>>>>>>>>>>>>>>>>>>>>>>>>>>>>>>>>>>>>>>>>>>>>>>>>>>>>>>>>>>>>>>",
">>>>>>>>>>>>>>>>>>>>>>>>>>>>> XoX>>>>>>>>>>>>>>>>>>>>>>>>>>>>>>>",
">>>>>>>>>>>>>>>>>>>>>>>>>>>>> +& >>>>>>>>>>>>>>>>>>>>>>>>>>>>>>>",
">>>>>>>>>>>>>>>>>>>>>>>>>>>>> &-X >>>>>        >>>>>>>>>>>>>>>>>",
">>>>>>>>>>>>>>>>>>>>>>>>>>>> .=:+ >>>  X## .@@o  >>>>>>>>>>>>>>>",
">>>>>>>>>>>>>>>>>>>>>> .X   .+-:%X . .++XX$#Oo#O.>>>>>>>>>>>>>>>",
">>>>>>>>>>>>>> .  >>>> @#oO#%*:::%#Oo#@    o  #O >>>>>>>>>>>>>>>",
">>>>>>>>>>>>>>X+O  >> O-:=:::::-:::-:* X:+    +OX>>>>>>>>>>>>>>>",
">>>>>>>>>>>>>> #-%o. O#-::::::::::::::OX:: . O$. >>>>>>>>>>>>>>>",
">>>>>>>>>>>>>> .=:-%@*::::::::::-:-:::+ X  .  +X.>>>>>>>>>>>>>>>",
">>>>>>>>>>>>>>>.+::::::::::::::::::::*o  .X--  #X >>>>>>>>>>>>>>",
">>>>>>>>>>>>>>> X*::::::::::::::--:-=o     @# X$@ >>>>>>>>>>>>>>",
">>>>>>>>>>>>>>>  %::::::::::::::::::%  .X .   @.  >>>>>>>>>>>>>>",
">>>>>>>>>>>>>>> O*:::::::::::::::::*@X.  X@&&#@ >>>>>>>>>>>>>>>>",
">>>>>>>>>>>>>  X&:::::::::::-::--:=     o*:::=O  >>>>>>>>>>>>>>>",
">>>>>>>>>>>>> $&:::::::::::-::::::$   .#&:::::&$ >>>>>>>>>>>>>>>",
">>>>>>>>>>>>> -::-:::::::::::::-:=X  o#=::-::-::o>>>>>>>>>>>>>>>",
">>>>>>>>>>>>> =-:::::::::::::::*%@  o#-:-::::::=X>>>>>>>>>>>>>>>",
">>>>>>>>>>>>> $::::-:::::::::-:&.  #&:::::::::-* >>>>>>>>>>>>>>>",
">>>>>>>>>>>>> *:::::::::::::-:-%  .=:::::::::::=.>>>>>>>>>>>>>>>",
">>>>>>>>>>>>>.-::::::--:::::::*X  @:::::::---:::O >>>>>>>>>>>>>>",
">>>>>>>>>>  .O-::::::-:::::::=O.O*---::::::::::-#X   >>>>>>>>>>>",
">>>>>>>  .o$*=::::-:::::-:::-O o=:::::::::::::::-=&Oo  >>>>>>>>>",
">>>>>>>.O&:=::=::::::::-::::# O-::-:::::::::::--::::=#o>>>>>>>>>",
">>>>>>>  o@=--::::::::::::-@ X*::=::::::::-:::::::-$+X >>>>>>>>>",
">>>>>>>>>   o#:::-:::::::-& .*:-::::::::::::::::&O .  >>>>>>>>>>",
">>>>>>>>>>>>  -:-::::-:-*+ X*:::::::::::::::::-:OX >>>>>>>>>>>>>",
">>>>>>>>>>>>> *::::::::o   %::::::-::::::::::::: >>>>>>>>>>>>>>>",
">>>>>>>>>>>>> %-:-:::::  . -::::-::::::::::-::-= >>>>>>>>>>>>>>>",
">>>>>>>>>>>>> *:--::::=.  o::-::-:::::::::::-::=X>>>>>>>>>>>>>>>",
">>>>>>>>>>>>>.=::::=:=OXO#%:::::::::::::::::-::-o>>>>>>>>>>>>>>>",
">>>>>>>>>>>>> @*::::-@ %::::::::::-:::::::::::&$ >>>>>>>>>>>>>>>",
">>>>>>>>>>>>>  o%:::@.#::-:-::-::::::::::::-:*o. >>>>>>>>>>>>>>>",
">>>>>>>>>>>>>>> O=:# O-::::-::::::::::::::::-# >>>>>>>>>>>>>>>>>",
">>>>>>>>>>>>>>   %# o=:-::::::::--::::-::-:::X >>>>>>>>>>>>>>>>>",
">>>>>>>>>>>>> .O#O X*--:-:-:::--::::::::::::-$ >>>>>>>>>>>>>>>>>",
">>>>>>>>>>>>> +XX X%-:-::-::::::::::::-::::::-X >>>>>>>>>>>>>>>>",
">>>>>>>>>>>>  +   O%#=:::-::::::::::::::=##=-:# >>>>>>>>>>>>>>>>",
">>>>>>>>>>>> OX   #  X&:::-:::::-:::-::&+.  @=-o >>>>>>>>>>>>>>>",
">>>>>>>>>>>> @.  o@ > O=:-:-::::::::=:-+  >  .@O.>>>>>>>>>>>>>>>",
">>>>>>>>>>>> +oO@#  >. @#oO%%-:::&%Oo#@  >>>>  . >>>>>>>>>>>>>>>",
">>>>>>>>>>>> @+OX  >>>   .   %-:=X      >>>>>>>>>>>>>>>>>>>>>>>>",
">>>>>>>>>>>>      >>>>>>>>>>.o::% >>>>>>>>>>>>>>>>>>>>>>>>>>>>>>",
">>>>>>>>>>>>>>>>>>>>>>>>>>>>>.=:+ >>>>>>>>>>>>>>>>>>>>>>>>>>>>>>",
">>>>>>>>>>>>>>>>>>>>>>>>>>>>> $-. >>>>>>>>>>>>>>>>>>>>>>>>>>>>>>",
">>>>>>>>>>>>>>>>>>>>>>>>>>>>> O% >>>>>>>>>>>>>>>>>>>>>>>>>>>>>>>",
">>>>>>>>>>>>>>>>>>>>>>>>>>>>>  O >>>>>>>>>>>>>>>>>>>>>>>>>>>>>>>",
">>>>>>>>>>>>>>>>>>>>>>>>>>>>>>  .>>>>>>>>>>>>>>>>>>>>>>>>>>>>>>>",
">>>>>>>>>>>>>>>>>>>>>>>>>>>>>>>>>>>>>>>>>>>>>>>>>>>>>>>>>>>>>>>>",
">>>>>>>>>>>>>>>>>>>>>>>>>>>>>>>>>>>>>>>>>>>>>>>>>>>>>>>>>>>>>>>>",
">>>>>>>>>>>>>>>>>>>>>>>>>>>>>>>>>>>>>>>>>>>>>>>>>>>>>>>>>>>>>>>>",
">>>>>>>>>>>>>>>>>>>>>>>>>>>>>>>>>>>>>>>>>>>>>>>>>>>>>>>>>>>>>>>>",
">>>>>>>>>>>>>>>>>>>>>>>>>>>>>>>>>>>>>>>>>>>>>>>>>>>>>>>>>>>>>>>>",
">>>>>>>>>>>>>>>>>>>>>>>>>>>>>>>>>>>>>>>>>>>>>>>>>>>>>>>>>>>>>>>>",
">>>>>>>>>>>>>>>>>>>>>>>>>>>>>>>>>>>>>>>>>>>>>>>>>>>>>>>>>>>>>>>>",
">>>>>>>>>>>>>>>>>>>>>>>>>>>>>>>>>>>>>>>>>>>>>>>>>>>>>>>>>>>>>>>>",
">>>>>>>>>>>>>>>>>>>>>>>>>>>>>>>>>>>>>>>>>>>>>>>>>>>>>>>>>>>>>>>>"
};
