/* XPM */
static char *Type Equipment[] = {
/* columns rows colors chars-per-pixel */
"24 24 163 2",
"   c #004100410041",
".  c #016801680168",
"X  c #027802780278",
"o  c #038103810381",
"O  c #047004700470",
"+  c #055505550555",
"@  c #066306630663",
"#  c #07B507B507B5",
"$  c #088C088C088C",
"%  c #099D099D099D",
"&  c #0ACE0ACE0ACE",
"*  c #0BA70BA70BA7",
"=  c #0C930C930C93",
"-  c #0D7B0D7B0D7B",
";  c #0E960E960E96",
":  c #108C108C108C",
">  c #123F123F123F",
",  c #138713871387",
"<  c #15EB15EB15EB",
"1  c #16AF16AF16AF",
"2  c #17ED17ED17ED",
"3  c #187518751875",
"4  c #1AFF1AFF1AFF",
"5  c #1B3B1B3B1B3B",
"6  c #1DCB1DCB1DCB",
"7  c #1E481E481E48",
"8  c #26EE26EE26EE",
"9  c #27C527C527C5",
"0  c #28C528C528C5",
"q  c #295129512951",
"w  c #2B772B772B77",
"e  c #2C6A2C6A2C6A",
"r  c #2DAA2DAA2DAA",
"t  c #2F182F182F18",
"y  c #2FA92FA92FA9",
"u  c #307C307C307C",
"i  c #31D031D031D0",
"p  c #32BE32BE32BE",
"a  c #337533753375",
"s  c #34B134B134B1",
"d  c #354035403540",
"f  c #374E374E374E",
"g  c #39D839D839D8",
"h  c #3A7E3A7E3A7E",
"j  c #3D1B3D1B3D1B",
"k  c #3E003E003E00",
"l  c #3FA43FA43FA4",
"z  c #446C446C446C",
"x  c #47EF47EF47EF",
"c  c #4C0A4C0A4C0A",
"v  c #4D884D884D88",
"b  c #51DB51DB51DB",
"n  c #541454145414",
"m  c #557155715571",
"M  c #571657165716",
"N  c #59EB59EB59EB",
"B  c #5C4B5C4B5C4B",
"V  c #5DC55DC55DC5",
"C  c #5EFB5EFB5EFB",
"Z  c #60C760C760C7",
"A  c #619C619C619C",
"S  c #640664066406",
"D  c #65C065C065C0",
"F  c #669F669F669F",
"G  c #68EC68EC68EC",
"H  c #6A4E6A4E6A4E",
"J  c #6AD86AD86AD8",
"K  c #6BE66BE66BE6",
"L  c #6F476F476F47",
"P  c #70B670B670B6",
"I  c #750775077507",
"U  c #764E764E764E",
"Y  c #77B377B377B3",
"T  c #7B6E7B6E7B6E",
"R  c #7B7F7B7F7B7F",
"E  c #7ECD7ECD7ECD",
"W  c #80E480E480E4",
"Q  c #830E830E830E",
"!  c #86B986B986B9",
"~  c #884F884F884F",
"^  c #88FF88FF88FF",
"/  c #8A1E8A1E8A1E",
"(  c #8B068B068B06",
")  c #8BF08BF08BF0",
"_  c #8D288D288D28",
"`  c #8DF78DF78DF7",
"'  c #8ED68ED68ED6",
"]  c #906690669066",
"[  c #90F690F690F6",
"{  c #934793479347",
"}  c #964596459645",
"|  c #982098209820",
" . c gray60",
".. c #9AB89AB89AB8",
"X. c #9D689D689D68",
"o. c #9F179F179F17",
"O. c #A08BA08BA08B",
"+. c #A144A144A144",
"@. c #A2D6A2D6A2D6",
"#. c #A4FCA4FCA4FC",
"$. c #A5EDA5EDA5ED",
"%. c #A73EA73EA73E",
"&. c #A7FAA7FAA7FA",
"*. c #A92DA92DA92D",
"=. c #AA48AA48AA48",
"-. c #AE9BAE9BAE9B",
";. c #AFEDAFEDAFED",
":. c #B280B280B280",
">. c #B2EAB2EAB2EA",
",. c #B894B894B894",
"<. c #B97BB97BB97B",
"1. c #BB5BBB5BBB5B",
"2. c #BCF8BCF8BCF8",
"3. c #BDF6BDF6BDF6",
"4. c #BF77BF77BF77",
"5. c #C100C100C100",
"6. c #C23FC23FC23F",
"7. c #C412C412C412",
"8. c #C5ACC5ACC5AC",
"9. c #C649C649C649",
"0. c #C76CC76CC76C",
"q. c #C80DC80DC80D",
"w. c #CD81CD81CD81",
"e. c #CEEACEEACEEA",
"r. c #D0F2D0F2D0F2",
"t. c #D2A5D2A5D2A5",
"y. c #D47BD47BD47B",
"u. c #D569D569D569",
"i. c #D630D630D630",
"p. c #D6E3D6E3D6E3",
"a. c #D83DD83DD83D",
"s. c #D957D957D957",
"d. c #DA41DA41DA41",
"f. c #DB2BDB2BDB2B",
"g. c #DE6DDE6DDE6D",
"h. c #DF51DF51DF51",
"j. c #E06BE06BE06B",
"k. c #E17FE17FE17F",
"l. c #E331E331E331",
"z. c #E467E467E467",
"x. c #E5ACE5ACE5AC",
"c. c #E5EDE5EDE5ED",
"v. c #E75BE75BE75B",
"b. c #E87AE87AE87A",
"n. c #E9C3E9C3E9C3",
"m. c #EB90EB90EB90",
"M. c #ECC4ECC4ECC4",
"N. c #EF30EF30EF30",
"B. c #F175F175F175",
"V. c #F1F5F1F5F1F5",
"C. c #F48CF48CF48C",
"Z. c #F599F599F599",
"A. c #F64BF64BF64B",
"S. c #F749F749F749",
"D. c #F89FF89FF89F",
"F. c #F97BF97BF97B",
"G. c #FA77FA77FA77",
"H. c #FB91FB91FB91",
"J. c #FC8DFC8DFC8D",
"K. c #FD92FD92FD92",
"L. c #FE84FE84FE84",
"P. c #FF7AFF7AFF7A",
"I. c gray100",
/* pixels */
"6./ _ _ _ _ / _ / _ / / ~ / _ _ / / [ / _ / _ 6.",
"/ X X X X X X : x Q >.0.>.>./ / ..%.0.6.q.i X _ ",
"/ + X X + - m 6.N.K.K.K.G.K.G.K.G.h.| x 2.I X / ",
"~ X X X < _ N.K.G.K.K.K.K.K.C.y.T w X X L 2.& / ",
"/ X & <  .G.G.K.K.K.G.G.C.0.S 6 X X X X J h.w / ",
"_ X + / K.G.K.K.K.K.C.>.x & X X X X X X ;.n.i _ ",
"/ i / N.G.K.K.K.x.[ e X X X X X X X + < ,.x.i _ ",
"_ C K.K.K.K.t.S 6 + X X X X X X + w R f.C.0.< Q ",
"_ C y. .<.Z < X + X X X + X & g | k.C.K.K.N.k / ",
"/ L 6.- - X X X X X X X + e =.n.K.K.K.K.K.K.I / ",
"/ | e.< X X X X X + < Z d Z G.K.K.K.K.K.K.K.%./ ",
"_ ;.x.i X X X X : R f.K.b m G.K.K.K.K.K.K.K.<._ ",
"/ >.G.S X X X X w h.t.I - R K.K.K.K.K.K.K.K.2._ ",
"_ [ K.S X X X X - i - : S h.K.K.K.K.K.K.K.K.| / ",
"/ Z G.v X X X X X w I t.C.K.K.K.K.K.K.K.K.K.J _ ",
"_ i h.k X X X X i e.K.G.K.K.K.K.K.K.K.K.K.x.i / ",
"/ 3 t.k X X X X k C.K.K.K.K.K.K.K.K.K.K.K.=.+ / ",
"_ w x.N X X X X 6 t.G.G.K.K.K.K.K.K.K.K.n.g X _ ",
"/ i x.I X X X - N f.K.K.K.K.K.K.K.K.G.C.S & + _ ",
"_ 3 y.N X 9 I t.G.K.K.K.K.K.K.K.K.G.N.Q - X X / ",
"/ + 0. .| f.k.K.G.K.G.K.K.K.G.K.K.k.S & X + X / ",
"_ X P k.=.v d ..h.C.K.K.K.K.C.h.@.i + X X + X _ ",
"/ & < i - & & & 9 m Q @.@.Q N e & & & + & + & _ ",
"y.=.%.@.%.=.%.=.%.%.%.%.%.%.%.=.%.@.%.=.=.=.%.y."
};
