/* XPM */
static char *IconClanTzi.gif[] = {
/* columns rows colors chars-per-pixel */
"64 64 17 1",
"  c gray100",
". c gray97",
"X c gray87",
"o c #CECECE",
"O c gray74",
"+ c #A5A5A5",
"@ c gray58",
"# c #7B7B7B",
"$ c gray42",
"% c gray32",
"& c gray26",
"* c gray16",
"= c #101010",
"- c gray3",
"; c cyan",
": c black",
"> c None",
/* pixels */
">>>>>>>>>>>>>>>>>>>>>>>>>>>>>>>>>>>>>>>>>>>>>>>>>>>>>>>>>>>>>>>>",
">>>>>>>>>>>>>>>>>>>>>>>>>>>>>>>>>>>>>>>>>>>>>>>>>>>>>>>>>>>>>>>>",
">>>>>>>>>>>>>>>>>>>>>>>>>>>>>>>>>>>>>>>>>>>>>>>>>>>>>>>>>>>>>>>>",
">>>>>>>>>>>>>>>>>>>>>>>>>>>>>>>>>>>>>>>>>>>>>>>>>>>>>>>>>>>>>>>>",
">>>>>>>>>>>>>>>>>>>>>>>>>>>>>>>>>>>>>>>>>>>>>>>>>>>>>>>>>>>>>>>>",
">>>>>>>>>>>>>>>>>>>>>>>>>>>>>>>>>>>>>>>>>>>>>>>>>>>>>>>>>>>>>>>>",
">>>>>>>>>>>>>>>>>>>>>>>>>>>>>>>>>>>>>>>>>>>>>>>>>>>>>>>>>>>>>>>>",
">>>>>>>>>>>>>>>>>>>>>>>>>>>>>>>> . >>>>>>>>>>>>>>>>>>>>>>>>>>>>>",
">>>>>>>>>>>>>>>>>>>>>>>>>>>>>>> X$ >>>>>>>>>>>>>>>>>>>>>>>>>>>>>",
">>>>>>>>>>>>>>>>>>>>>>>>>>>>>>  @=o >>>>>>>>>>>>>>>>>>>>>>>>>>>>",
">>>>>>>>>>>>>>>>>>>>>> . . .>  @-:%   >>>>>>>>>>>>>>>>>>>>>>>>>>",
">>>>>>>>>>>>>>>>>>>>>> OO#O .X#:::$@+X   >>>>>>>>>>>>>>>>>>>>>>>",
">>>>>>>>>>>>>>>>>>>   .$&:==&-:::-*::-%+.  >>>>>>>>>>>>>>>>>>>>>",
">>>>>>>>>>>>>>>>>>>.o  o*:::*@$-:::--:::*@   >>>>>>>>>>>>>>>>>>>",
">>>>>>>>>>>>>>>>>>  &::=:-:-:*=:::-:==-::-*O  >>>>>>>>>>>>>>>>>>",
">>>>>>>>>>>>>>>>>> $*::-:::-:-:-:::--::::::*@. >>>>>>>>>>>>>>>>>",
">>>>>>>>>>>>>>>>>> +*::=-:::-::*=-:-=-::::::=$. >>>>>>>>>>>>>>>>",
">>>>>>>>>>>>>>>>>>  X$=:-::::::=::-:==::::::::$  >>>>>>>>>>>>>>>",
">>>>>>>>>>>>>>>>  .$=:::-=%$-:=#$*:::::-::-:=:-#. >>>>>>>>>>>>>>",
">>>>>>>>>>>>>>>  O#:::=&@$O*:&+  .O&=:-**::::::=@  >>>>>>>>>>>>>",
">>>>>>>>>>>>>>> o&:::%X .*::*X      +*:*$%::::::*o >>>>>>>>>>>>>",
">>>>>>>>>>>>>> .*:::+. . .:*X .      X*::+$:-:::-&  >>>>>>>>>>>>",
">>>>>>>>>>>>>  &::-@   . .%#          .&:=o%:::::=O >>>>>>>>>>>>",
">>>>>>>>>>>>> #:::#       oo    .   .  o-:%.*:::::% >>>>>>>>>>>>",
">>>>>>>>>>>> .--:$   .       .       .  @=:O$-:::::X >>>>>>>>>>>",
">>>>>>>>>>>> @:-=.           .       . ..=:=$%:::::@ >>>>>>>>>>>",
">>>>>>>>>>>  =-:#                 . .  . @::+o-:=:-&.>>>>>>>>>>>",
">>>>>>>>>>> o::=X.     .                 X:=+ *:-::-X>>>>>>>>>>>",
">>>>>>>>>>> @::&    .                .  O&-:# #=:-::X >>>>>>>>>>",
">>>>>>>>>>> $:-#. .                    . o:-& O:-:::O >>>>>>>>>>",
">>>>>>>>>>> &-:&@.                       .%:& X:::::O >>>>>>>>>>",
">>>>>>>>>>> *-:=@                         @:&  :::::O >>>>>>>>>>",
">>>>>>>>>>> &::-.  .                      $:$  :::::O >>>>>>>>>>",
">>>>>>>>>>> &::=  .                       *:@ .:::::o >>>>>>>>>>",
">>>>>>>>>>> &::&                         X=:O o::::-X >>>>>>>>>>",
">>>>>>>>>>> %::&    ..                   #-*X @::::*.>>>>>>>>>>>",
">>>>>>>>>>> #:::.   oX  .               .*:$..$::::& >>>>>>>>>>>",
">>>>>>>>>>> o-::$   X&  .     o$#+      #:-$+X:-:-:O.>>>>>>>>>>>",
">>>>>>>>>>> .=:-*.   *#  . .@*::&@X .  +::O. @::-:=X >>>>>>>>>>>",
">>>>>>>>>>>> $:::@ . $:%@@$-:::*O.    @:-@  .-:-::$ >>>>>>>>>>>>",
">>>>>>>>>>>> o=::-O  O-:--::--:&  . .$:=+   %:::::X >>>>>>>>>>>>",
">>>>>>>>>>>>> $:-:*X .%:::::::-%  X$=:&O   +::::-$ >>>>>>>>>>>>>",
">>>>>>>>>>>>> X=:::&O O=:::::*&*&:::*+    O=::::&. >>>>>>>>>>>>>",
">>>>>>>>>>>>>> #-=::&O #::-::**=%$@o  .  @-::::*+ >>>>>>>>>>>>>>",
">>>>>>>>>>>>>>  %:-:::@ %::::::&.    . .%:::::=O  >>>>>>>>>>>>>>",
">>>>>>>>>>>>>>> o%:::-:*@@=::-:-#  . .#=:::::*O  >>>>>>>>>>>>>>>",
">>>>>>>>>>>>>>>> O#::::::*&%=:::=#oO$-::-:::&O  >>>>>>>>>>>>>>>>",
">>>>>>>>>>>>>>>>  .#-:=::::::--::::::--::::$o  >>>>>>>>>>>>>>>>>",
">>>>>>>>>>>>>>>>>>  O&:::::::::::::=:::::%O.  >>>>>>>>>>>>>>>>>>",
">>>>>>>>>>>>>>>>>>>   +*:=::::::---:::-%O   >>>>>>>>>>>>>>>>>>>>",
">>>>>>>>>>>>>>>>>>>>>   o$*:-::::::=&@X   >>>>>>>>>>>>>>>>>>>>>>",
">>>>>>>>>>>>>>>>>>>>>>>>    O@@##+X.  .>>>>>>>>>>>>>>>>>>>>>>>>>",
">>>>>>>>>>>>>>>>>>>>>>>>>>>        >>>>>>>>>>>>>>>>>>>>>>>>>>>>>",
">>>>>>>>>>>>>>>>>>>>>>>>>>>>>>>>>>>>>>>>>>>>>>>>>>>>>>>>>>>>>>>>",
">>>>>>>>>>>>>>>>>>>>>>>>>>>>>>>>>>>>>>>>>>>>>>>>>>>>>>>>>>>>>>>>",
">>>>>>>>>>>>>>>>>>>>>>>>>>>>>>>>>>>>>>>>>>>>>>>>>>>>>>>>>>>>>>>>",
">>>>>>>>>>>>>>>>>>>>>>>>>>>>>>>>>>>>>>>>>>>>>>>>>>>>>>>>>>>>>>>>",
">>>>>>>>>>>>>>>>>>>>>>>>>>>>>>>>>>>>>>>>>>>>>>>>>>>>>>>>>>>>>>>>",
">>>>>>>>>>>>>>>>>>>>>>>>>>>>>>>>>>>>>>>>>>>>>>>>>>>>>>>>>>>>>>>>",
">>>>>>>>>>>>>>>>>>>>>>>>>>>>>>>>>>>>>>>>>>>>>>>>>>>>>>>>>>>>>>>>",
">>>>>>>>>>>>>>>>>>>>>>>>>>>>>>>>>>>>>>>>>>>>>>>>>>>>>>>>>>>>>>>>",
">>>>>>>>>>>>>>>>>>>>>>>>>>>>>>>>>>>>>>>>>>>>>>>>>>>>>>>>>>>>>>>>",
">>>>>>>>>>>>>>>>>>>>>>>>>>>>>>>>>>>>>>>>>>>>>>>>>>>>>>>>>>>>>>>>",
">>>>>>>>>>>>>>>>>>>>>>>>>>>>>>>>>>>>>>>>>>>>>>>>>>>>>>>>>>>>>>>>"
};
