/* XPM */
static char *IconClanNag.gif[] = {
/* columns rows colors chars-per-pixel */
"64 64 257 2",
"   c gray100",
".  c #FEFEFE",
"X  c #FDFDFD",
"o  c gray99",
"O  c #FBFBFB",
"+  c gray98",
"@  c #F9F9F9",
"#  c #F8F8F8",
"$  c #F6F6F6",
"%  c gray96",
"&  c #F4F4F4",
"*  c #F3F3F3",
"=  c gray95",
"-  c #F1F1F1",
";  c gray94",
":  c #EFEFEF",
">  c #EEEEEE",
",  c gray93",
"<  c #ECECEC",
"1  c gray92",
"2  c #E9E9E9",
"3  c gray90",
"4  c #E4E4E4",
"5  c gray89",
"6  c #E2E2E2",
"7  c #E1E1E1",
"8  c gray88",
"9  c #DFDFDF",
"0  c #DDDDDD",
"q  c gainsboro",
"w  c gray86",
"e  c #DADADA",
"r  c #D8D8D8",
"t  c gray84",
"y  c #D5D5D5",
"u  c gray83",
"i  c LightGray",
"p  c #D2D2D2",
"a  c gray82",
"s  c #D0D0D0",
"d  c #CECECE",
"f  c #CDCDCD",
"g  c #CBCBCB",
"h  c #CACACA",
"j  c gray79",
"k  c #C8C8C8",
"l  c #C6C6C6",
"z  c gray77",
"x  c #C3C3C3",
"c  c gray76",
"v  c #C1C1C1",
"b  c #C0C0C0",
"n  c gray",
"m  c #BCBCBC",
"M  c #BBBBBB",
"N  c #B9B9B9",
"B  c gray72",
"V  c #B7B7B7",
"C  c #B6B6B6",
"Z  c gray71",
"A  c #B4B4B4",
"S  c gray70",
"D  c #B2B2B2",
"F  c #B1B1B1",
"G  c gray69",
"H  c #AFAFAF",
"J  c #AEAEAE",
"K  c gray68",
"L  c #ACACAC",
"P  c gray67",
"I  c gray66",
"U  c #A7A7A7",
"Y  c gray65",
"T  c #A5A5A5",
"R  c #A4A4A4",
"E  c gray64",
"W  c #A2A2A2",
"Q  c #A0A0A0",
"!  c #9F9F9F",
"~  c gray62",
"^  c gray61",
"/  c #9B9B9B",
"(  c #9A9A9A",
")  c gray60",
"_  c #979797",
"`  c gray59",
"'  c #959595",
"]  c gray58",
"[  c #939393",
"{  c #929292",
"}  c gray57",
"|  c #8E8E8E",
" . c gray55",
".. c #8B8B8B",
"X. c gray53",
"o. c #868686",
"O. c gray52",
"+. c #848484",
"@. c gray51",
"#. c #818181",
"$. c #808080",
"%. c gray50",
"&. c gray49",
"*. c #7C7C7C",
"=. c #7B7B7B",
"-. c #797979",
";. c gray47",
":. c #777777",
">. c gray46",
",. c #747474",
"<. c #727272",
"1. c #717171",
"2. c #6F6F6F",
"3. c gray43",
"4. c #6D6D6D",
"5. c gray42",
"6. c #6A6A6A",
"7. c DimGray",
"8. c #686868",
"9. c #676767",
"0. c gray40",
"q. c #656565",
"w. c #646464",
"e. c gray39",
"r. c #626262",
"t. c #5D5D5D",
"y. c gray36",
"u. c #5B5B5B",
"i. c gray35",
"p. c #585858",
"a. c gray34",
"s. c #555555",
"d. c gray33",
"f. c #535353",
"g. c #515151",
"h. c #505050",
"j. c #4C4C4C",
"k. c gray29",
"l. c #494949",
"z. c #484848",
"x. c #464646",
"c. c #444444",
"v. c #414141",
"b. c gray25",
"n. c #3C3C3C",
"m. c gray23",
"M. c #3A3A3A",
"N. c #393939",
"B. c gray22",
"V. c gray21",
"C. c #353535",
"Z. c #343434",
"A. c gray20",
"S. c #323232",
"D. c #313131",
"F. c gray18",
"G. c #2D2D2D",
"H. c #2C2C2C",
"J. c gray17",
"K. c gray16",
"L. c #282828",
"P. c gray15",
"I. c gray14",
"U. c #222222",
"Y. c gray13",
"T. c #202020",
"R. c gray12",
"E. c #1E1E1E",
"W. c #1D1D1D",
"Q. c gray11",
"!. c #1B1B1B",
"~. c gray10",
"^. c #191919",
"/. c #181818",
"(. c gray9",
"). c #161616",
"_. c #151515",
"`. c gray8",
"'. c gray7",
"]. c #111111",
"[. c #101010",
"{. c gray6",
"}. c #0E0E0E",
"|. c gray5",
" X c #0C0C0C",
".X c #0B0B0B",
"XX c gray4",
"oX c #090909",
"OX c gray3",
"+X c #070707",
"@X c #060606",
"#X c gray2",
"$X c #040404",
"%X c gray1",
"&X c #020202",
"*X c #010101",
"=X c cyan",
"-X c black",
";X c black",
":X c black",
">X c black",
",X c black",
"<X c black",
"1X c black",
"2X c black",
"3X c black",
"4X c black",
"5X c black",
"6X c black",
"7X c black",
"8X c black",
"9X c black",
"0X c black",
"qX c black",
"wX c black",
"eX c black",
"rX c black",
"tX c black",
"yX c black",
"uX c black",
"iX c black",
"pX c black",
"aX c black",
"sX c black",
"dX c black",
"fX c black",
"gX c black",
"hX c black",
"jX c black",
"kX c black",
"lX c black",
"zX c black",
"xX c black",
"cX c black",
"vX c black",
"bX c black",
"nX c black",
"mX c black",
"MX c black",
"NX c black",
"BX c black",
"VX c black",
"CX c black",
"ZX c black",
"AX c black",
"SX c black",
"DX c black",
"FX c black",
"GX c black",
"HX c black",
"JX c black",
"KX c black",
"LX c black",
"PX c black",
"IX c black",
"UX c black",
"YX c None",
/* pixels */
"YXYXYXYXYXYXYXYXYXYXYXYXYXYXYXYXYXYXYXYXYXYXYXYXYXYXYXYXYXYXYXYXYXYXYXYXYXYXYXYXYXYXYXYXYXYXYXYXYXYXYXYXYXYXYXYXYXYXYXYXYXYXYXYX",
"YXYXYXYXYXYXYXYXYXYXYXYXYXYXYXYXYXYXYXYXYXYXYXYXYXYXYXYXYXYXYXYXYXYXYXYXYXYXYXYXYXYXYXYXYXYXYXYXYXYXYXYXYXYXYXYXYXYXYXYXYXYXYXYX",
"YXYXYXYXYXYXYXYXYXYXYXYXYXYXYXYXYXYXYXYXYXYXYXYXYXYXYXYXYXYXYXYXYXYXYXYXYXYXYXYXYXYXYXYXYXYXYXYXYXYXYXYXYXYXYXYXYXYXYXYXYXYXYXYX",
"YXYXYXYXYXYXYXYXYXYXYXYXYXYXYXYXYXYXYXYXYXYXYXYXYXYXYXYXYXYXYXYXYXYXYXYXYXYXYXYXYXYXYXYXYXYXYXYXYXYXYXYXYXYXYXYXYXYXYXYXYXYXYXYX",
"YXYXYXYXYXYXYXYXYXYXYXYXYXYXYXYXYXYXYXYXYXYXYXYXYXYXYXYXYXYXYXYXYXYXYXYXYXYXYXYXYXYXYXYXYXYXYXYXYXYXYXYXYXYXYXYXYXYXYXYXYXYXYXYX",
"YXYXYXYXYXYXYXYXYXYXYXYXYXYXYXYXYXYXYXYXYXYXYXYXYXYXYXYXYXYXYXYXYXYXYXYXYXYXYXYXYXYXYXYXYXYXYXYXYXYXYXYXYXYXYXYXYXYXYXYXYXYXYXYX",
"YXYXYXYXYXYXYXYXYXYXYXYXYXYXYXYXYXYXYXYXYXYXYXYXYXYXYXYXYXYXYXYXYXYXYXYXYXYXYXYXYXYXYXYXYXYXYXYXYXYXYXYXYXYXYXYXYXYXYXYXYXYXYXYX",
"YXYXYXYXYXYXYXYXYXYXYXYXYXYXYXYXYXYXYXYXYXYXYXYXYXYXYXYXYXYXYXYXYXYXYXYXYXYXYXYXYXYXYXYXYXYXYXYXYXYXYXYXYXYXYXYXYXYXYXYXYXYXYXYX",
"YXYXYXYXYXYXYXYXYXYXYXYXYXYXYXYXYXYXYXYXYXYXYXYXYXYXYXYXYXYXYXYXYXYXYXYXYXYXYXYXYXYXYXYXYXYXYXYXYXYXYXYXYXYXYXYXYXYXYXYXYXYXYXYX",
"YXYXYXYXYXYXYXYXYXYXYXYXYXYXYXYXYXYXYXYXYXYXYXYXYXYXYXYXYXYXYXYXYXYXYXYXYXYXYXYXYXYXYXYXYXYXYXYXYXYXYXYXYXYXYXYXYXYXYXYXYXYXYXYX",
"YXYXYXYXYXYXYXYXYXYXYXYXYXYXYXYXYXYXYXYXYXYXYXYXYXYXYXYXYXYXYXYXYXYXYXYXYXYXYXYXYXYXYXYXYXYXYXYXYXYXYXYXYXYXYXYXYXYXYXYXYXYXYXYX",
"YXYXYXYXYXYXYXYXYXYXYXYXYXYXYXYXYXYXYXYXYXYXYXYXYXYXYXYXYXYXYXYXYXYXYXYXYXYXYXYXYXYXYXYXYXYXYXYXYXYXYXYXYXYXYXYXYXYXYXYXYXYXYXYX",
"YXYXYXYXYXYXYXYXYXYXYXYXYXYXYXYXYXYXYXYXYXYXYXYXYXYXYXYXYXYXYXYXYXYXYXYXYXYXYXYXYXYXYXYXYXYXYXYXYXYXYXYXYXYXYXYXYXYXYXYXYXYXYXYX",
"YXYXYXYXYXYXYXYXYXYXYXYXYXYXYXYXYXYXYXYXYXYXYXYXYXYXYXYXYXYXYXYXYXYXYXYXYXYXYXYXYXYXYXYXYXYXYXYXYXYXYXYXYXYXYXYXYXYXYXYXYXYXYXYX",
"YXYXYXYXYXYXYXYXYXYXYXYXYXYXYXYXYXYXYXYXYXYXYXYXYXYXYXYXYXYXYXYXYXYXYXYXYXYXYXYXYXYXYXYXYXYXYXYXYXYXYXYXYXYXYXYXYXYXYXYXYXYXYXYX",
"YXYXYXYXYXYXYXYXYXYXYXYXYXYXYXYXYXYXYXYX                                            YXYXYXYXYXYXYXYXYXYXYXYXYXYXYXYXYXYXYXYXYXYX",
"YXYXYXYXYXYXYXYXYXYXYXYXYXYXYX        $ 8 g L ~ $.$.7.z.z.z.z.z.z.z.s.%.$.o.P J a 3 $           YXYXYXYXYXYXYXYXYXYXYXYXYXYXYXYX",
"YXYXYXYXYXYXYXYXYXYXYXYX      < F >.h.L.[.$X-X-X-X-X-X-X-X-X-X-X-X-X-X-X-X-X-X-X@X`.P.x.1.Q w .     YXYXYXYXYXYXYXYXYXYXYXYXYXYX",
"YXYXYXYXYXYXYXYXYXYX    ; H f.!.-X-X-X-X-X-X-X-X-X-X-X-X-X-X-X-X-X-X-X-X-X-X-X-X-X-X-X-X-X-X Xb.o.5       YXYXYXYXYXYXYXYXYXYXYX",
"YXYXYXYXYXYXYXYXYX  . E H.-X-X-X-X-X-X-X-X-X-X$X~.n.a.7.5.] ^ ^ &.7.7.l.J..X-X-X-X-X-X-X-X-X-X-X-X(.=.q     YXYXYXYXYXYXYXYXYXYX",
"YXYXYXYXYXYXYXYX  ; f.-X-X-X-X-X-X-X-X-X-XS.+.g * X                     # 7 G ,.`.-X-X-X-X-X-X-X-X-X-X^.H     YXYXYXYXYXYXYXYXYX",
"YXYXYXYXYXYXYXYXo y.-X-X-X-X-X-X-X-X-X&X;.=       YXYXYXYXYXYXYXYXYXYXYXYX      r Z.-X-X-X-X-X-X-X-X-X-X(.0   YXYXYXYXYXYXYXYXYX",
"YXYXYXYXYXYXYXYX8 XX-X-X-X-X-X-X-X-X-XXX>   YXYXYXYXYXYXYXYXYXYXYXYXYXYXYXYXYX    / -X-X-X-X-X-X-X-X-X-X-XW   YXYXYXYXYXYXYXYXYX",
"YXYXYXYXYXYXYXYX7 |.-X-X-X-X-X-X-X-X-X*X@.    YXYXYXYXYXYXYXYXYXYXYXYXYXYXYX    4 A.-X-X-X-X-X-X-X-X-X-X|.r   YXYXYXYXYXYXYXYXYX",
"YXYXYXYXYXYXYXYX. 8.-X-X-X-X-X-X-X-X-X-X%X4.2       YXYXYXYXYXYXYXYXYXYX      x D.-X-X-X-X-X-X-X-X-X-X#XU     YXYXYXYXYXYXYXYXYX",
"YXYXYXYXYXYXYXYX  * <.*X-X-X-X-X-X-X-X-X-X-XT.;.f @         YXYXYX      # B i.oX-X-X-X-X-X-X-X-X-X-XI.N     YXYXYXYXYXYXYXYXYXYX",
"YXYXYXYXYXYXYXYXYX    C l.%X-X-X-X-X-X-X-X-X-X-X#XF.7.R u #       = S 2.H.-X-X-X-X-X-X-X-X-X-X-X#X9.6     YXYXYXYXYXYXYXYXYXYXYX",
"YXYXYXYXYXYXYXYXYXYX      c k.&X-X-X-X-X-X-X-X-X-X-X-X-X+XH.3.E 5.Y.-X-X-X-X-X-X-X-X-X-X-X-X-Xa.l     YXYXYXYXYXYXYXYXYXYXYXYXYX",
"YXYXYXYXYXYXYXYXYX  .         h &.K.-X-X-X-X-X-X-X-X-X-X-X-X-X-X-X-X-X-X-X-X-X-X-X-X-X-X).q.v                 o   YXYXYXYXYXYXYX",
"YXYXYXYXYXYXYXYXYX  y a.*.( Z 7 4 f T 0.I.*X-X-X-X-X-X-X-X-X-X-X-X-X-X-X-X-X-X-X-X-X'.u.K 8 4 k L L ` $.%.t.f.y   YXYXYXYXYXYXYX",
"YXYXYXYXYXYXYXYXYX  t -X-X-X-XOXXX(.B.B.T.*X-X-X-X-X-X-X-X-X-X-X-X-X-X-X-X-X-X-X-X-X#X_.].XXoX%X-X-X-X-X-X-XT.&   YXYXYXYXYXYXYX",
"YXYXYXYXYXYXYXYXYX  q XX-X-X-X-X-X-X-X-X-X-X-X-X-X-X-X-X-X-X-X-X-X-X-X-X-X-X-X-X-X-X-X-X-X-X-X-X-X-X-X-X-X-X9.  YXYXYXYXYXYXYXYX",
"YXYXYXYXYXYXYXYXYX  j #X-X-X-X-X-X-X-X-X-X-X-X-X-X-X-X*XY.n.n.n.S.{.-X-X-X-X-X-X-X-X-X-X-X-X-X-X-X-X-X-X-X-X .  YXYXYXYXYXYXYXYX",
"YXYXYXYXYXYXYXYXYX  ] -X-X-X-X-X-X-X*X&XXX+X-X-X-X-Xt.b % X X X + < ^ U.-X-X-X-X-X-X+X[.{.{.{.{.XX&X-X-X-X-X+.  YXYXYXYXYXYXYXYX",
"YXYXYXYXYXYXYXYXYX  ^ n.c.8.7.X.` ) b x 6 p.-X-X-X-.      YXYXYXYX    8 N.-X-X-X-X-Xl.& ; ; ; ; 0 x L ` :.q.{   YXYXYXYXYXYXYXYX",
"YXYXYXYXYXYXYXYXYX  . X                 i ^.-X-Xt.        . 4 1     YX  e ^.-X-X-X-X/.9   YXYX                  YXYXYXYXYXYXYXYX",
"YXYXYXYXYXYXYXYXYXYXYXYXYXYXYXYXYX    y W.-X-X Xs   YX  q z.`.Q.,.X       r.-X-X-X-X-XF.4     YXYXYXYXYXYXYXYXYXYXYXYXYXYXYXYXYX",
"YXYXYXYXYXYXYXYXYXYXYXYXYXYXYX      I Y.-X-X-XG.O   YX. d.-X-X-X-XM   YX  _ -X-X-X-X-X-XN.i     YXYXYXYXYXYXYXYXYXYXYXYXYXYXYXYX",
"YXYXYXYXYXYXYXYXYXYXYXYXYXYX    q w.-X-X-X-X-Xj.  YXYXX C.-X-X-X-X@.  YX  D -X-X-X-X-X-X-X^.' X     YXYXYXYXYXYXYXYXYXYXYXYXYXYX",
"YXYXYXYXYXYXYXYXYXYXYXYX    - O.[.-X-X-X-X-X-X!   YX  : ].-X-X-X-X0.  YX  ; m.-X-X-X-X-X-X-X-Xx.n     YXYXYXYXYXYXYXYXYXYXYXYXYX",
"YXYXYXYXYXYXYXYXYXYX    @ A A.-X-X-X-X-X-X-X8.    YX  V &X-X-X-X-XU.#   YX  p '.-X-X-X-X-X-X-X-X+X1.4     YXYXYXYXYXYXYXYXYXYXYX",
"YXYXYXYXYXYXYXYX      C V.-X-X-X-X-X-X-X-Xh.O   YXYX  ..-X-X-X-X-X$Xt   YX    Z @X-X-X-X-X-X-X-X-X-X^.>.,     YXYXYXYXYXYXYXYXYX",
"YXYXYXYXYXYXYX    d f.$X-X-X-X-X-X-X-X-XJ.>   YXYXYX  6.-X-X-X-X-X-XT   YXYX    *.-X-X-X-X-X-X-X-X-X-X-XL.! o     YXYXYXYXYXYXYX",
"YXYXYXYXYX    - +.|.-X-X-X-X-X-X-X-X-X].s   YXYXYXYXo Z.-X-X-X-X-X-X#.  YXYXYX  # M.-X-X-X-X-X-X-X-X-X-X-X-Xv.g     YXYXYXYXYXYX",
"YXYXYXYX    x Z.-X-X-X-X-X-X-X-X-X-X{.A     YXYXYX  3 XX-X-X-X-X-X-Xg.  YXYXYXYX  6 Y.-X-X-X-X-X-X-X-X-X-X-X-X X>.:     YXYXYXYX",
"YXYXYX    ^ }.-X-X-X-X-X-X-X-X-X-X-X]     YXYXYXYX  m -X-X-X-X-X-X-XE.#   YXYXYXYX  z  X-X-X-X-X-X-X-X-X-X-X-X-X-XN.p     YXYXYX",
"YXYXYX  x -X-X-X-X-X-X-X-X-X-X-X-X4.    YXYXYXYXYX  | -X-X-X-X-X-X-X-Xy   YXYXYXYX    [ -X-X-X-X-X-X-X-X-X-X-X-X-X-XR.d . YXYXYX",
"YXYXYXo Y } ` ` ` ` ` ` ` ` ` ` ~ $   YXYXYXYXYXYX  x ` ` ` ` ` ` ` ' 9   YXYXYXYXYX  . E ` ` ` ` ` ` ` ` ` ' ,.7.7.e.} O YXYXYX",
"YXYXYX                              YXYXYXYXYXYXYX                      YXYXYXYXYXYXYX                                    YXYXYX",
"YXYXYXYXYXYXYXYXYXYXYXYXYXYXYXYXYXYXYXYXYXYXYXYXYXYXYXYXYXYXYXYXYXYXYXYXYXYXYXYXYXYXYXYXYXYXYXYXYXYXYXYXYXYXYXYXYXYXYXYXYXYXYXYX",
"YXYXYXYXYXYXYXYXYXYXYXYXYXYXYXYXYXYXYXYXYXYXYXYXYXYXYXYXYXYXYXYXYXYXYXYXYXYXYXYXYXYXYXYXYXYXYXYXYXYXYXYXYXYXYXYXYXYXYXYXYXYXYXYX",
"YXYXYXYXYXYXYXYXYXYXYXYXYXYXYXYXYXYXYXYXYXYXYXYXYXYXYXYXYXYXYXYXYXYXYXYXYXYXYXYXYXYXYXYXYXYXYXYXYXYXYXYXYXYXYXYXYXYXYXYXYXYXYXYX",
"YXYXYXYXYXYXYXYXYXYXYXYXYXYXYXYXYXYXYXYXYXYXYXYXYXYXYXYXYXYXYXYXYXYXYXYXYXYXYXYXYXYXYXYXYXYXYXYXYXYXYXYXYXYXYXYXYXYXYXYXYXYXYXYX",
"YXYXYXYXYXYXYXYXYXYXYXYXYXYXYXYXYXYXYXYXYXYXYXYXYXYXYXYXYXYXYXYXYXYXYXYXYXYXYXYXYXYXYXYXYXYXYXYXYXYXYXYXYXYXYXYXYXYXYXYXYXYXYXYX",
"YXYXYXYXYXYXYXYXYXYXYXYXYXYXYXYXYXYXYXYXYXYXYXYXYXYXYXYXYXYXYXYXYXYXYXYXYXYXYXYXYXYXYXYXYXYXYXYXYXYXYXYXYXYXYXYXYXYXYXYXYXYXYXYX",
"YXYXYXYXYXYXYXYXYXYXYXYXYXYXYXYXYXYXYXYXYXYXYXYXYXYXYXYXYXYXYXYXYXYXYXYXYXYXYXYXYXYXYXYXYXYXYXYXYXYXYXYXYXYXYXYXYXYXYXYXYXYXYXYX",
"YXYXYXYXYXYXYXYXYXYXYXYXYXYXYXYXYXYXYXYXYXYXYXYXYXYXYXYXYXYXYXYXYXYXYXYXYXYXYXYXYXYXYXYXYXYXYXYXYXYXYXYXYXYXYXYXYXYXYXYXYXYXYXYX",
"YXYXYXYXYXYXYXYXYXYXYXYXYXYXYXYXYXYXYXYXYXYXYXYXYXYXYXYXYXYXYXYXYXYXYXYXYXYXYXYXYXYXYXYXYXYXYXYXYXYXYXYXYXYXYXYXYXYXYXYXYXYXYXYX",
"YXYXYXYXYXYXYXYXYXYXYXYXYXYXYXYXYXYXYXYXYXYXYXYXYXYXYXYXYXYXYXYXYXYXYXYXYXYXYXYXYXYXYXYXYXYXYXYXYXYXYXYXYXYXYXYXYXYXYXYXYXYXYXYX",
"YXYXYXYXYXYXYXYXYXYXYXYXYXYXYXYXYXYXYXYXYXYXYXYXYXYXYXYXYXYXYXYXYXYXYXYXYXYXYXYXYXYXYXYXYXYXYXYXYXYXYXYXYXYXYXYXYXYXYXYXYXYXYXYX",
"YXYXYXYXYXYXYXYXYXYXYXYXYXYXYXYXYXYXYXYXYXYXYXYXYXYXYXYXYXYXYXYXYXYXYXYXYXYXYXYXYXYXYXYXYXYXYXYXYXYXYXYXYXYXYXYXYXYXYXYXYXYXYXYX",
"YXYXYXYXYXYXYXYXYXYXYXYXYXYXYXYXYXYXYXYXYXYXYXYXYXYXYXYXYXYXYXYXYXYXYXYXYXYXYXYXYXYXYXYXYXYXYXYXYXYXYXYXYXYXYXYXYXYXYXYXYXYXYXYX",
"YXYXYXYXYXYXYXYXYXYXYXYXYXYXYXYXYXYXYXYXYXYXYXYXYXYXYXYXYXYXYXYXYXYXYXYXYXYXYXYXYXYXYXYXYXYXYXYXYXYXYXYXYXYXYXYXYXYXYXYXYXYXYXYX",
"YXYXYXYXYXYXYXYXYXYXYXYXYXYXYXYXYXYXYXYXYXYXYXYXYXYXYXYXYXYXYXYXYXYXYXYXYXYXYXYXYXYXYXYXYXYXYXYXYXYXYXYXYXYXYXYXYXYXYXYXYXYXYXYX"
};
