/* XPM */
static char *IconClanGar.gif[] = {
/* columns rows colors chars-per-pixel */
"64 64 257 2",
"   c gray100",
".  c #FEFEFE",
"X  c #FDFDFD",
"o  c gray99",
"O  c #FBFBFB",
"+  c gray98",
"@  c #F9F9F9",
"#  c #F8F8F8",
"$  c gray97",
"%  c #F6F6F6",
"&  c gray96",
"*  c #F4F4F4",
"=  c #F3F3F3",
"-  c gray95",
";  c #F1F1F1",
":  c gray94",
">  c #EFEFEF",
",  c #EEEEEE",
"<  c gray93",
"1  c #ECECEC",
"2  c gray92",
"3  c #EAEAEA",
"4  c #E9E9E9",
"5  c gray91",
"6  c #E7E7E7",
"7  c #E6E6E6",
"8  c gray90",
"9  c #E4E4E4",
"0  c gray89",
"q  c #E2E2E2",
"w  c #E1E1E1",
"e  c gray88",
"r  c #DFDFDF",
"t  c gray87",
"y  c #DDDDDD",
"u  c gainsboro",
"i  c gray86",
"p  c #DADADA",
"a  c gray85",
"s  c #D8D8D8",
"d  c #D7D7D7",
"f  c gray84",
"g  c #D5D5D5",
"h  c gray83",
"j  c LightGray",
"k  c #D2D2D2",
"l  c gray82",
"z  c #D0D0D0",
"x  c gray81",
"c  c #CECECE",
"v  c #CDCDCD",
"b  c #CBCBCB",
"n  c #CACACA",
"m  c gray79",
"M  c #C8C8C8",
"N  c gray78",
"B  c #C6C6C6",
"V  c #C5C5C5",
"C  c gray77",
"Z  c #C3C3C3",
"A  c gray76",
"S  c #C1C1C1",
"D  c #C0C0C0",
"F  c gray75",
"G  c gray",
"H  c gray74",
"J  c #BCBCBC",
"K  c #BBBBBB",
"L  c gray73",
"P  c #B9B9B9",
"I  c gray72",
"U  c #B6B6B6",
"Y  c gray71",
"T  c #B4B4B4",
"R  c gray70",
"E  c #B2B2B2",
"W  c #B1B1B1",
"Q  c gray69",
"!  c #AFAFAF",
"~  c #AEAEAE",
"^  c gray68",
"/  c #ACACAC",
"(  c gray67",
")  c #AAAAAA",
"_  c #A9A9A9",
"`  c gray66",
"'  c #A7A7A7",
"]  c gray65",
"[  c #A5A5A5",
"{  c #A4A4A4",
"}  c gray64",
"|  c #A2A2A2",
" . c gray63",
".. c #A0A0A0",
"X. c #9F9F9F",
"o. c gray62",
"O. c #9D9D9D",
"+. c gray61",
"@. c #9B9B9B",
"#. c #9A9A9A",
"$. c gray60",
"%. c #989898",
"&. c #979797",
"*. c gray59",
"=. c #959595",
"-. c gray58",
";. c #939393",
":. c #929292",
">. c gray57",
",. c #909090",
"<. c gray56",
"1. c #8E8E8E",
"2. c #8D8D8D",
"3. c gray55",
"4. c #8B8B8B",
"5. c gray54",
"6. c #898989",
"7. c #888888",
"8. c #868686",
"9. c #838383",
"0. c gray51",
"q. c #818181",
"w. c #808080",
"e. c gray50",
"r. c #7E7E7E",
"t. c gray49",
"y. c #7C7C7C",
"u. c #7B7B7B",
"i. c gray48",
"p. c #797979",
"a. c gray47",
"s. c #777777",
"d. c #767676",
"f. c gray46",
"g. c #747474",
"h. c gray45",
"j. c #727272",
"k. c #717171",
"l. c gray44",
"z. c #6F6F6F",
"x. c gray43",
"c. c #6D6D6D",
"v. c #6C6C6C",
"b. c #6A6A6A",
"n. c #686868",
"m. c #676767",
"M. c gray40",
"N. c #656565",
"B. c #646464",
"V. c gray39",
"C. c #626262",
"Z. c gray38",
"A. c #606060",
"S. c #5F5F5F",
"D. c gray37",
"F. c #5D5D5D",
"G. c gray36",
"H. c #5B5B5B",
"J. c gray35",
"K. c #585858",
"L. c #565656",
"P. c #555555",
"I. c gray33",
"U. c #535353",
"Y. c gray32",
"T. c #515151",
"R. c gray31",
"E. c #4E4E4E",
"W. c gray30",
"Q. c #4C4C4C",
"!. c #4B4B4B",
"~. c gray29",
"^. c #494949",
"/. c #484848",
"(. c #464646",
"). c gray27",
"_. c #444444",
"`. c #434343",
"'. c gray26",
"]. c #414141",
"[. c gray25",
"{. c #3F3F3F",
"}. c #3E3E3E",
"|. c gray24",
" X c #3C3C3C",
".X c gray23",
"XX c #3A3A3A",
"oX c #393939",
"OX c gray22",
"+X c #373737",
"@X c gray21",
"#X c #353535",
"$X c #343434",
"%X c gray20",
"&X c #323232",
"*X c #313131",
"=X c gray19",
"-X c #2F2F2F",
";X c gray18",
":X c #2D2D2D",
">X c #2C2C2C",
",X c gray17",
"<X c #2A2A2A",
"1X c gray16",
"2X c #282828",
"3X c #272727",
"4X c gray15",
"5X c #252525",
"6X c gray14",
"7X c #232323",
"8X c #222222",
"9X c gray13",
"0X c #202020",
"qX c gray12",
"wX c #1E1E1E",
"eX c #1D1D1D",
"rX c gray11",
"tX c #1B1B1B",
"yX c gray10",
"uX c #191919",
"iX c #181818",
"pX c gray9",
"aX c #161616",
"sX c gray8",
"dX c #131313",
"fX c gray7",
"gX c #111111",
"hX c #101010",
"jX c gray6",
"kX c #0E0E0E",
"lX c gray5",
"zX c #0C0C0C",
"xX c #0B0B0B",
"cX c #090909",
"vX c gray3",
"bX c #070707",
"nX c #060606",
"mX c gray2",
"MX c #040404",
"NX c gray1",
"BX c #020202",
"VX c #010101",
"CX c cyan",
"ZX c black",
"AX c black",
"SX c black",
"DX c black",
"FX c black",
"GX c black",
"HX c black",
"JX c black",
"KX c black",
"LX c black",
"PX c black",
"IX c black",
"UX c black",
"YX c None",
/* pixels */
"YXYXYXYXYXYXYXYXYXYXYXYXYXYXYXYXYXYXYXYXYXYXYXYXYXYXYXYXYXYXYXYXYXYXYXYXYXYXYXYXYXYXYXYXYXYXYXYXYXYXYXYXYXYXYXYXYXYXYXYXYXYXYXYX",
"YXYXYXYXYXYXYXYXYXYXYXYXYXYXYXYXYXYXYXYXYXYXYXYXYXYXYXYXYXYXYXYXYXYXYXYXYXYXYXYXYXYXYXYXYXYXYXYXYXYXYXYXYXYXYXYXYXYXYXYXYXYXYXYX",
"YXYXYXYXYXYXYXYXYXYXYXYXYXYXYXYXYXYXYXYXYXYXYXYXYXYXYXYXYXYXYXYXYXYXYXYXYXYXYXYXYXYXYXYXYXYXYXYXYXYXYXYXYXYXYXYXYXYXYXYXYXYXYXYX",
"YXYXYXYXYXYXYXYXYXYXYXYXYXYXYXYXYXYXYXYXYXYXYXYXYXYXYXYXYXYXYXYXYXYXYXYXYXYXYXYXYXYXYXYXYXYXYXYXYXYXYXYXYXYXYXYXYXYXYXYXYXYXYXYX",
"YXYXYXYXYXYXYXYXYXYXYXYXYXYXYXYXYXYXYXYXYXYXYXYXYXYXYXYXYXYXYXYXYXYXYXYX  $ ; $ # # @ # @ +                                 YXYX",
"YXYXYXYXYXYXYXYXYXYXYXYXYXYXYXYXYXYXYXYXYXYXYXYXYXYXYXYXYXYXYXYXYXYXYXYX  t ^.6X>X-X=X-X=X#X~.E.R.I.J.G.D.S.A.Z.K.R.E.W.F   YXYX",
"YXYXYXYXYXYXYXYXYXYXYXYXYXYXYXYXYXYXYXYXYXYXYXYXYXYX                        M dXZXZXZXZXZXZXZXZXZXZXZXZXZXZXZXZXZXZXZXZX'   YXYX",
"YXYXYXYXYXYXYXYXYXYXYXYXYXYXYXYXYXYXYXYXYXYX      o 8 H %.j.D.J.G.m.r.O.S 4   a 1XZXBXBXBXBXBXBXBXBXBXBXBXBXBXBXBXBXZXZX/   YXYX",
"YXYXYXYXYXYXYXYXYXYXYXYXYXYXYXYXYXYXYXYX    $ D u.oXhXBXZXZXZXZXZXZXZXZXNXdXR.} J ;XBXBXBXBXBXBXBXBXBXBXBXBXBXBXBXBXZXZX~   YXYX",
"YXYXYXYXYXYXYXYXYXYXYXYXYXYXYXYXYXYX    9 0.;XBXZXZXZXZXVXBXBXBXBXBXBXVXZXZXZXZXwXXXvXVXBXBXBXBXBXBXBXBXBXBXBXBXBXBXZXZXE   YXYX",
"YXYXYXYXYXYXYXYXYXYXYXYXYXYXYXYX    q a.uXZXZXZXBXBXBXBXBXBXBXBXBXBXBXBXBXBXBXVXZXZXVXBXBXBXBXBXBXBXBXBXBXBXBXBXBXBXZXZXE   YXYX",
"YXYXYXYXYXYXYXYXYXYXYXYXYXYX    . o.0XZXZXVXBXBXBXBXBXBXBXBXBXBXBXBXBXBXBXBXBXBXBXBXBXBXBXBXBXBXBXBXBXBXBXBXBXBXBXBXZXZXY   YXYX",
"YXYXYXYXYXYXYXYXYXYXYXYXYX    t W.ZXZXBXBXBXBXBXBXBXBXBXBXBXBXBXBXBXBXBXBXBXBXBXBXBXBXBXBXBXBXBXBXBXBXBXBXBXBXBXBXBXZXZXU   YXYX",
"YXYXYXYXYXYXYXYXYXYXYXYX    S 5XZXZXBXBXBXBXBXBXBXBXBXBXBXBXBXBXBXBXBXBXBXBXBXBXBXBXBXBXBXBXBXBXBXBXBXBXBXBXBXBXBXBXZXZXT   YXYX",
"YXYXYXYXYXYXYXYXYXYXYX    / lXZXBXBXBXBXBXBXBXBXBXBXBXBXBXBXBXBXBXBXBXBXBXBXBXBXBXBXBXBXBXBXBXBXBXBXBXBXBXBXBXBXBXBXZXVXP   YXYX",
"YXYXYXYXYXYXYXYXYXYX    %.bXZXBXBXBXBXBXBXBXBXBXBXBXBXBXBXBXBXBXBXBXBXBXBXBXBXBXBXBXBXBXBXBXBXBXBXBXBXBXBXBXBXBXBXBXZXVXK   YXYX",
"YXYXYXYXYXYXYXYXYX    Q NXZXBXBXBXBXBXBXBXBXBXBXBXBXBXBXBXBXBXBXBXBXBXBXBXBXBXBXBXBXBXBXVXVXBXBXVXBXBXVXVXVXVXBXBXBXZXVXP   YXYX",
"YXYXYXYXYXYXYXYXYX  L ZXZXZXZXZXZXZXZXZXZXZXZXZXZXZXZXZXZXZXZXZXZXZXZXZXZXZXZXZXZXZXZXZXZXZXZXZXZXZXZXZXZXZXZXZXBXBXZXBXH   YXYX",
"YXYXYXYXYXYX      X +.l.j.=XNXeXz.iXiXp.gX,X.Xa.a.w.[.4X9.9.F.2X,XI.U.:X8.7.6.5.1.K.0X].1.1.Y.Y.,.iXf.,.>.;.%.!.VXBXZXNXD   YXYX",
"YXYXYXYXYXYX              ' v.s   G.4.  Y h X       u F     = m 5.z   0           O j 3     B c   a.+         *XZXBXZXNXS   YXYX",
"YXYXYXYXYXYXYX              % p   Z * 6 .     .       / -.      <             d k.      -   =.N.$ %         y.ZXVXBXZXMXZ   YXYX",
"YXYXYXYXYXYX  % p       + S O.$Xl.` T L.N.~ 6.^.[ o.h.6X3X .X.u.n.=.;.*.&.=.%.P.bX7.<.5.+Xi.2XNX@.+ 3 x >.S.cXZXBXBXZXMXC   YXYX",
"YXYXYXYXYXYX  ! -X=     $ .XZXZXZXZXZXZXZXZXZXZXZXZXZXZXZXZXZXZXZXZXZXZXZXZXZXZXZXZXZXZXZXZXZXZXl.S -.S _ zXZXzXZXVXZXmXM   YXYX",
"YXYXYXYXYXYX  I.ZX'.g.u   T ZXZXVXZXZXVXVXZXVXBXVXVXBXBXBXVXVXVXBXVXVXVXVXVXVXBXBXVXVXBXBXVXZXb.m ;     _ vXZX(.P.ZXZXmXM   YXYX",
"YXYXYXYXYX  w lXZXZXOX&   z +XZXVXBXBXBXBXBXBXBXBXBXBXBXBXBXBXBXBXBXBXBXBXBXBXBXBXBXBXBXBXZXtXh     ; i.fXZXZXaXs T.ZXmXm   YXYX",
"YXYXYXYXYX  =.ZXVXZXI.      4 wXZXBXBXBXBXBXBXBXBXBXBXBXBXBXBXBXBXBXBXBXBXBXBXBXBXBXBXBXBXZX7X@     b ].ZXBXVXZX=.+ T.ZXn   YXYX",
"YXYXYXYXYX. `.ZXBXVXbX] > n   %.ZXVXBXBXBXBXBXBXBXBXBXBXBXBXBXBXBXBXBXBXBXBXBXBXBXBXBXBXZXZXM.$   / 7XVXBXBXBXZXE.  : A.N   YXYX",
"YXYXYXYX  w lXZXBXBXZXmXtX-.  O _.ZXBXBXBXBXBXBXBXBXBXBXBXBXBXBXBXBXBXBXBXBXBXBXBXBXBXVXgXJ.&..   v BXZXBXBXBXZXrX-     @   YXYX",
"YXYXYXYX  ` ZXVXBXBXBXZXvX2     ) MXZXBXBXBXBXBXBXBXBXBXBXBXBXBXBXBXBXBXBXBXBXBXBXBXVXZX2.  *   < b.NXVXBXBXBXZXnXx   YXYXYXYXYX",
"YXYXYXYX  q.ZXBXBXBXBXZXcXL 3   f yXZXBXBXBXBXBXBXBXBXBXBXBXBXBXBXBXBXBXBXBXBXBXBXBXZXBXD   e ! ` ZXZXBXBXBXBXZXZX!   YXYXYXYXYX",
"YXYXYXYX  N.ZXBXBXBXBXBXZXgXm   E ZXZXVXBXBXBXBXBXBXBXBXBXBXBXBXBXBXBXBXBXBXBXBXBXVXNX>.u   - I.NXVXBXBXBXBXBXVXZX,.  YXYXYXYXYX",
"YXYXYXYX  !.ZXVXZXVXZXZXVXVXo.  ..#.f.ZXZXVXBXVXBXVXVXBXBXVXVXVXVXBXBXBXBXBXBXBXVXZXJ.      9 4.ZXZXBXBXBXBXBXBXZXt.  YXYXYXYXYX",
"YXYXYXYX. /.NXVXNXZXbXBXZXZXuX7 O     L.ZXZXZXZXZXZXZXZXVXZXZXZXZXZXZXZXVXZXZXZXZXxXg       ~ ZXZXZXZXZXZXZXBXZXZXp.  YXYXYXYXYX",
"YXYXYXYXo u A.z.[ h.c ^ ZXOXz.9       3 E D.|.r.W.| X.[.ZX4.;.,.<.V.f.G.ZXV.a.C.f.[         x ].BX~.&X!.~.2XZXhXZXp.  YXYXYXYXYX",
"YXYXYXYX    _ q         b.] X             1 B   .     @.V.            % %.                  . f d.  =     r }.O.{ p   YXYXYXYXYX",
"YXYXYXYX      7     1     .                       u   *.6                 5                     @ ]         &         YXYXYXYXYX",
"YXYXYXYX  s N L.s.j.|.n x z l k f 0       . y p A <X` 2XD w s -.e x f.3.G C.< $         = - = & V tXi.L $ $ O ( w @   YXYXYXYXYX",
"YXYXYXYX  l.NXZXZXZXZXnXbXbXvXvXvXwX~ l   # [.mXnXZXNXZXbXzXxXZXzXbXZXZXmXVX2Xd       $ OXuXwX8XpXZXZXhX<X1X<XnXyXG   YXYXYXYXYX",
"YXYXYXYX  >.ZXVXVXVXBXZXZXZXZXZXZXZXxXx # G D.fXZXBXZXBXZXZXZXVXZXZXBXVXZXZX[.    . ; ,.ZXZXZXZXZXBXVXZXZXZXZXZXMXu   YXYXYXYXYX",
"YXYXYXYX  B BXZXBXBXBXBXBXBXBXBXBXVXzXc.F.T   @.ZXVXBXBXBXBXBXBXBXBXBXBXZXeX(.C     f.nXVXBXBXBXBXBXBXBXBXBXBXZX>X@   YXYXYXYXYX",
"YXYXYXYX  = 9XZXBXBXBXBXBXBXBXBXBXBXZXZX$.-   o /.ZXBXBXBXBXBXBXBXBXBXVXZX| & M M N P.ZXBXBXBXBXBXBXBXBXBXBXBXZXb.  YXYXYXYXYXYX",
"YXYXYXYXYX  c.ZXBXBXBXBXBXBXBXBXBXBXBXBXjXe.    k vXZXBXBXBXBXBXBXBXBXZXE.X   } vXNXVXBXBXBXBXBXBXBXBXBXBXBXZXZXR   YXYXYXYXYXYX",
"YXYXYXYXYX  A NXZXBXBXBXBXBXBXBXBXBXBXZXZXK       s.ZXVXBXBXBXBXBXBXBXZX).&   % N.ZXZXBXBXBXBXBXBXBXBXBXBXBXZX2X*   YXYXYXYXYXYX",
"YXYXYXYXYX  O @XZXBXBXBXBXBXBXBXBXBXBXBXVX{.X.-   K VXZXBXBXBXBXBXBXNXsX$XM     <.ZXVXBXBXBXBXBXBXBXBXBXBXVXZXw.  YXYXYXYXYXYXYX",
"YXYXYXYXYXYX  +.ZXVXBXBXBXBXBXBXBXBXBXBXBXZXZXf   1 :.ZXVXBXBXBXBXZXVXh + o . l kXZXBXBXBXBXBXBXBXBXBXBXBXZXxXu   YXYXYXYXYXYXYX",
"YXYXYXYXYXYX  - *XZXBXBXBXBXBXBXBXBXBXBXBXZXcX9     u &XZXBXBXBXVXZXY.-     M ;XZXBXBXBXBXBXBXBXBXBXBXBXVXZXM.    YXYXYXYXYXYXYX",
"YXYXYXYXYXYXYX  I VXZXBXBXBXBXBXBXBXBXBXBXVXVXh.3   > !.ZXVXBXBXZXI..     D 4.ZXVXBXBXBXBXBXBXBXBXBXBXBXZXuX0   YXYXYXYXYXYXYXYX",
"YXYXYXYXYXYXYX    D.ZXVXBXBXBXBXBXBXBXBXBXBXZXZX{   i i.v.MXVXBXZXL.O     u.NXVXBXBXBXBXBXBXBXBXBXBXBXVXZXO.  YXYXYXYXYXYXYXYXYX",
"YXYXYXYXYXYXYXYX  3 4XZXBXBXBXBXBXBXBXBXBXBXBXZXE.1     * lXZXZXZXx.o     h.ZXBXBXBXBXBXBXBXBXBXBXBXVXZXJ.X   YXYXYXYXYXYXYXYXYX",
"YXYXYXYXYXYXYXYXYX  A zXZXBXBXBXBXBXBXBXBXBXBXBXZX-Xt   j.fXMXvXZX@.    p sXZXBXBXBXBXBXBXBXBXBXBXBXZX=X,   YXYXYXYXYXYXYXYXYXYX",
"YXYXYXYXYXYXYXYXYX    ` MXZXBXBXBXBXBXBXBXBXBXBXZXZXl 5 G.z q.+.1./ X :. XZXBXBXBXBXBXBXBXBXBXBXBXZX7Xf   YXYXYXYXYXYXYXYXYXYXYX",
"YXYXYXYXYXYXYXYXYXYX    >.BXZXBXBXBXBXBXBXBXBXBXVXBX*XB.2             u.ZXBXBXBXBXBXBXBXBXBXBXBXZXyXn     YXYXYXYXYXYXYXYXYXYXYX",
"YXYXYXYXYXYXYXYXYXYXYX    #.nXZXBXBXBXBXBXBXBXBXBXVXZX[         3 7.w %XZXBXBXBXBXBXBXBXBXBXVXZX6Xx     YXYXYXYXYXYXYXYXYXYXYXYX",
"YXYXYXYXYXYXYXYXYXYXYXYX    R uXZXVXBXBXBXBXBXBXBXBXZXW.X       o H.4XZXVXBXBXBXBXBXBXBXBXZXZX'.u     YXYXYXYXYXYXYXYXYXYXYXYXYX",
"YXYXYXYXYXYXYXYXYXYXYXYXYX    l }.ZXZXBXBXBXBXBXBXBXVXZX^ h D     ` ZXZXBXBXBXBXBXBXBXZXZXmXc.*     YXYXYXYXYXYXYXYXYXYXYXYXYXYX",
"YXYXYXYXYXYXYXYXYXYXYXYXYXYX    $ 1.eXZXZXBXBXBXBXBXBXZXtX{.u q o.Q.ZXBXBXBXBXBXBXZXZXZX'.H     YXYXYXYXYXYXYXYXYXYXYXYXYXYXYXYX",
"YXYXYXYXYXYXYXYXYXYXYXYXYXYXYXYX    e c.fXZXZXZXBXBXBXBXZXQ.  # T.ZXBXBXBXBXVXZXZXZX$X..o     YXYXYXYXYXYXYXYXYXYXYXYXYXYXYXYXYX",
"YXYXYXYXYXYXYXYXYXYXYXYXYXYXYXYXYXYX    i q.4XZXZXZXZXZXZXkXv & 1XZXZXZXZXZXZXsXS.U #     YXYXYXYXYXYXYXYXYXYXYXYXYXYXYXYXYXYXYX",
"YXYXYXYXYXYXYXYXYXYXYXYXYXYXYXYXYXYXYX      ; R d.[.iXmXZXZX$Xn.ZXNXxXqX[.x.} w       YXYXYXYXYXYXYXYXYXYXYXYXYXYXYXYXYXYXYXYXYX",
"YXYXYXYXYXYXYXYXYXYXYXYXYXYXYXYXYXYXYXYXYXYX      . 1 m ~ #.7.' W A u * .       YXYXYXYXYXYXYXYXYXYXYXYXYXYXYXYXYXYXYXYXYXYXYXYX",
"YXYXYXYXYXYXYXYXYXYXYXYXYXYXYXYXYXYXYXYXYXYXYXYXYXYX                    YXYXYXYXYXYXYXYXYXYXYXYXYXYXYXYXYXYXYXYXYXYXYXYXYXYXYXYX",
"YXYXYXYXYXYXYXYXYXYXYXYXYXYXYXYXYXYXYXYXYXYXYXYXYXYXYXYXYXYXYXYXYXYXYXYXYXYXYXYXYXYXYXYXYXYXYXYXYXYXYXYXYXYXYXYXYXYXYXYXYXYXYXYX",
"YXYXYXYXYXYXYXYXYXYXYXYXYXYXYXYXYXYXYXYXYXYXYXYXYXYXYXYXYXYXYXYXYXYXYXYXYXYXYXYXYXYXYXYXYXYXYXYXYXYXYXYXYXYXYXYXYXYXYXYXYXYXYXYX",
"YXYXYXYXYXYXYXYXYXYXYXYXYXYXYXYXYXYXYXYXYXYXYXYXYXYXYXYXYXYXYXYXYXYXYXYXYXYXYXYXYXYXYXYXYXYXYXYXYXYXYXYXYXYXYXYXYXYXYXYXYXYXYXYX"
};
