/* XPM */
static char *IconClanMal.gif[] = {
/* columns rows colors chars-per-pixel */
"64 64 17 1",
"  c gray100",
". c gray97",
"X c gray87",
"o c #C6C6C6",
"O c gray71",
"+ c #A5A5A5",
"@ c gray58",
"# c gray55",
"$ c #7B7B7B",
"% c gray39",
"& c gray32",
"* c #393939",
"= c gray13",
"- c gray3",
"; c cyan",
": c black",
"> c None",
/* pixels */
">>>>>>>>>>>>>>>>>>>>>>>>>>>>>>>>>>>>>>>>>>>>>>>>>>>>>>>>>>>>>>>>",
">>>>>>>>>>>>>>>>>>>>>>>>>>>>>>>>>>>>>>>>>>>>>>>>>>>>>>>>>>>>>>>>",
">>>>>>>>>>>>>>>>>>>>>>>>>>>>>>>>>>>>>>>>>>>>>>>>>>>>>>>>>>>>>>>>",
">>>>>>>>>>>>>>>>>>>>>>>>>>>>>>>>>>>>>>>>>>>    .oOXX  >>>>>>>>>>",
">>>>>>>>>>>>>>>>>>>>>>>>>>>>>>> ..>>>>>>>  X@&=-::::*@. >>>>>>>>",
">>>>>>>>>>>>>>>>>>>>>>>>>>>>>> o-.>>>>> .+=::::::::::-*X >>>>>>>",
">>>>>>>>>>>>>>>>>>>>>>>>>>>>> X=$.>>>  o*:::-*$OX.X#*::&X >>>>>>",
">>>>>>>>>>>>>>>>>>>>>>>>>>>>  &:@ >> .$--:=$X   >>  .@=:$ >>>>>>",
">>>>>>>>>>>>>>>>>>>>>>>>>>>> @:-&.. O=::=@.  >>>>>>>  %:=X>>>>>>",
">>>>>>>>>>>>>>>>>>>>>>>>>>>.X-::-&#=::-#. >>>>>>>>>>> O::+ >>>>>",
">>>>>>>>>>>>>>>>>>>>>>>>>> O-:-:-::::&X. >>>>>>>>>>>>> ::$ >>>>>",
">>>>>>>>>>>>>>>>>>>>>>>>>.o=::=@:-:=@. >>>>>>>>>>>>>>> ::$ >>>>>",
">>>>>>>>>>>>>>>>>>>>>>>>.X=::*X .$+. >>>>>>>>>>>>>>>>>o:-@ >>>>>",
">>>>>>>>>>>>>>>>>>>>>>>  -::-. >   >>>>>>>>>>>>>>>>>>.+::X >>>>>",
">>>>>>>>>>>>>>>>>>>>>> .=-::-o>>>>>>>>>>>>>>>>>>>>>>> *-* >>>>>>",
">>>>>>>>>>>>>>>>>>>>> X*-:=-:o>>>>>>>>>>>>>>>>>>>>>> X:-$ >>>>>>",
">>>>>>>>>>>>>>>>>>>> .&::=O&:O >>>>>>>>>>>>>>>>>>>>> %:-X >>>>>>",
">>>>>>>>>>>>>>>>>>> X%::=O $:$.>>>>>>>>>>>>>>>>>>>> o::& >>>>>>>",
">>>>>>>>>>>>>>>>>> .%::-O  $:#  .X+.>>>>>>>>>  .  . &::o >>>>>>>",
">>>>>>>>>>>>>>>>>>.$:::@ > @:*$*-:$.>>>>>>>>.O#$#$#O::& >>>>>>>>",
">>>>>>>>>>>>>>>>> @-::$ >> O-:-:::$ >>>>>>  O*::-::=::O >>>>>>>>",
">>>>>>>>>>>>>>>> O:::%  >>>O-=&+-:o.>>>>>> @-:*$$$&::& >>>>>>>>>",
">>>>>>>>>>>>>>> o*::&X >>>> X. X:: >>>>> .+::$X   =::+ >>>>>>>>>",
">>>>>>>>>>>>>> .&::*o >>>>>>>> o:= >>>>  @::$. > o=:* >>>>>>>>>>",
">>>>>>>>>>>>>> #::-+ >>>>>>>>>.#:& >>>  %::$. >> &::o >>>>>>>>>>",
">>>>>>>>>>>>> o=:-$.>>>>>>>>>> &:# >>  &::+  >>> =:: >> X >>>>>>",
">>>>>>>>>>>>> &::-. >>>>>>>>> X=:o.> X&:-+.>>>>> ::-X .o&.>>>>>>",
">>>>>>>>>>>>>X-:-% >>>   X.> X#-:.> X&:-@ >>>>>> *::%+&-*.>>>>>>",
">>>>>>>>>>>>.O:::X >  X$=-X.o=::-  X*:=o  >>>>>> .%::::=. >>>>>>",
">>>>>>>>>>>> $=:*  .o%::-:-&::=:: X=:-X >>>>>>>>>..=::=. >>>>>>>",
">>>>>>>>>>>> $::&.@=:::&#*::-&X-:X=::*.>>>>>>>>>>> =:=o.>>>>>>>>",
">>>>>>>>>>>> $:::-::=%o  X==@. ::-:=:* >>>>>>>>>  O-:O >>>>>>>>>",
">>>>>>>>>>>> o::::*@X  >>  X >.--:&#-* >>>>>>>>  @=:+ >>>>>>>>>>",
">>>>>>>>>>>>> -:-#   >>>>>>>>> ::%Xo:* >>>>>>>  %-:% >>>>>>>>>>>",
">>>>>>>>>>>>> $::&  >>>>>>>>>> :%  o:* >>>>>>> @-:&. >>>>>>>>>>>",
">>>>>>>>>>>>> X=::#. >>>>>>>>> #X >o:= >>>>>> O::=X >>>>>>>>>>>>",
">>>>>>>>>>>>>> @-::&o >>>>>>>> . >>X-- >>>>> o*:=o >>>>>>>>>>>>>",
">>>>>>>>>>>>>>>X%:::&OX . >>>>>>>>> :: >>>> X*:=@ >>>>>>>>>>>>>>",
">>>>>>>>>>>>>>> o*-:*:-:& >>>>>>>>> :: >>> .&:-$  >>>>>>>>>>>>>>",
">>>>>>>>>>>>>>>>  #%=:::- >>>>>>>>> :: >> .%-:%  >>>>>>>>>>>>>>>",
">>>>>>>>>>>>>>>>>  $:::::X >>>>>>>> :: > .$::$. >>>>>>>>>>>>>>>>",
">>>>>>>>>>>>>>>>> .=::-:=#X >>>>>>> :-  o$::*X >>>>>>>>>>>>>>>>>",
">>>>>>>>>>>>>>>   @:-::**:&X >>>>>>.:-.O*::&X >>>>>>>>>>>>>>>>>>",
">>>>>>>>>>>>>> .#*&@=:$X=::%o. >>>> ::$*::%X >>>>>>>>>>>>>>>>>>>",
">>>>>>>>>>>>>> @-:::%$. #:::=@  . . ::=::#  >>>>>>>>>>>>>>>>>>>>",
">>>>>>>>>>>>>> %&=::$ .  &-::-*$$$=--::*+  >>>>>>>>>>>>>>>>>>>>>",
">>>>>>>>>>>>>.+:-$*:$ >>  $*:::::::::-&O >>>>>>>>>>>>>>>>>>>>>>>",
">>>>>>>>>>>> X-::-$*$.>>>  X$=::-:-=%o  >>>>>>>>>>>>>>>>>>>>>>>>",
">>>>>>>>>>> O-:-::%+  >>>>>   XO@$OX  >>>>>>>>>>>>>>>>>>>>>>>>>>",
">>>>>>>>> .X*:::=+. >>>>>>>>>>>    >>>>>>>>>>>>>>>>>>>>>>>>>>>>>",
">>>>>>> X+=::::=X >>>>>>>>>>>>>>>>>>>>>>>>>>>>>>>>>>>>>>>>>>>>>>",
">>>>>> O*::-::=o >>>>>>>>>>>>>>>>>>>>>>>>>>>>>>>>>>>>>>>>>>>>>>>",
">>>>>>X*::::::= >>>>>>>>>>>>>>>>>>>>>>>>>>>>>>>>>>>>>>>>>>>>>>>>",
">>>>>>O-:-::::= >>>>>>>>>>>>>>>>>>>>>>>>>>>>>>>>>>>>>>>>>>>>>>>>",
">>>>>>O:-::-::+ >>>>>>>>>>>>>>>>>>>>>>>>>>>>>>>>>>>>>>>>>>>>>>>>",
">>>>> X:::-::=.>>>>>>>>>>>>>>>>>>>>>>>>>>>>>>>>>>>>>>>>>>>>>>>>>",
">>>>  @*:::::$.>>>>>>>>>>>>>>>>>>>>>>>>>>>>>>>>>>>>>>>>>>>>>>>>>",
">>>> $:=-::=$ .>>>>>>>>>>>>>>>>>>>>>>>>>>>>>>>>>>>>>>>>>>>>>>>>>",
">>>> -:--%$O. >>>>>>>>>>>>>>>>>>>>>>>>>>>>>>>>>>>>>>>>>>>>>>>>>>",
">>>>.=::=o  >>>>>>>>>>>>>>>>>>>>>>>>>>>>>>>>>>>>>>>>>>>>>>>>>>>>",
">>>> O:*O >>>>>>>>>>>>>>>>>>>>>>>>>>>>>>>>>>>>>>>>>>>>>>>>>>>>>>",
">>>>>    >>>>>>>>>>>>>>>>>>>>>>>>>>>>>>>>>>>>>>>>>>>>>>>>>>>>>>>",
">>>>>>>>>>>>>>>>>>>>>>>>>>>>>>>>>>>>>>>>>>>>>>>>>>>>>>>>>>>>>>>>",
">>>>>>>>>>>>>>>>>>>>>>>>>>>>>>>>>>>>>>>>>>>>>>>>>>>>>>>>>>>>>>>>"
};
