/* XPM */
static char *Discipline SAN[] = {
/* columns rows colors chars-per-pixel */
"24 24 101 2",
"   c #000400040004",
".  c #018101810181",
"X  c #029402940294",
"o  c #04B004B004B0",
"O  c #067506750675",
"+  c #07B607B607B6",
"@  c #085E085E085E",
"#  c #0AB70AB70AB7",
"$  c #0BAB0BAB0BAB",
"%  c #0C7E0C7E0C7E",
"&  c #0DB80DB80DB8",
"*  c #109B109B109B",
"=  c #124712471247",
"-  c #14A914A914A9",
";  c #178A178A178A",
":  c #181B181B181B",
">  c #195C195C195C",
",  c #1EFE1EFE1EFE",
"<  c #20E320E320E3",
"1  c #222B222B222B",
"2  c #257A257A257A",
"3  c #271D271D271D",
"4  c #27AB27AB27AB",
"5  c #29A029A029A0",
"6  c #2B312B312B31",
"7  c #2CC82CC82CC8",
"8  c #2DF12DF12DF1",
"9  c #2EA22EA22EA2",
"0  c #348A348A348A",
"q  c #35D835D835D8",
"w  c #384138413841",
"e  c #3E213E213E21",
"r  c #428242824282",
"t  c #44A544A544A5",
"y  c #49FC49FC49FC",
"u  c #514C514C514C",
"i  c #569456945694",
"p  c #59E359E359E3",
"a  c #5C4E5C4E5C4E",
"s  c #631063106310",
"d  c #660A660A660A",
"f  c #676067606760",
"g  c #6DF56DF56DF5",
"h  c #6FF36FF36FF3",
"j  c #76FC76FC76FC",
"k  c #791B791B791B",
"l  c #7A297A297A29",
"z  c #7CBB7CBB7CBB",
"x  c #817D817D817D",
"c  c #84B184B184B1",
"v  c #883B883B883B",
"b  c #945294529452",
"n  c #94F894F894F8",
"m  c #9DF29DF29DF2",
"M  c #9F409F409F40",
"N  c #A010A010A010",
"B  c #A6FBA6FBA6FB",
"V  c #A80CA80CA80C",
"C  c #AAEEAAEEAAEE",
"Z  c #B12EB12EB12E",
"A  c #B1F7B1F7B1F7",
"S  c #B306B306B306",
"D  c #B515B515B515",
"F  c #B691B691B691",
"G  c #BA2CBA2CBA2C",
"H  c #BD3DBD3DBD3D",
"J  c #BE04BE04BE04",
"K  c #C026C026C026",
"L  c #C1C7C1C7C1C7",
"P  c #C34EC34EC34E",
"I  c #C799C799C799",
"U  c #C82AC82AC82A",
"Y  c #CA50CA50CA50",
"T  c #CCF7CCF7CCF7",
"R  c #D064D064D064",
"E  c #D323D323D323",
"W  c #D9A0D9A0D9A0",
"Q  c #DAFEDAFEDAFE",
"!  c #DDB4DDB4DDB4",
"~  c #DFC6DFC6DFC6",
"^  c #E06AE06AE06A",
"/  c #E12AE12AE12A",
"(  c #E258E258E258",
")  c #E4F8E4F8E4F8",
"_  c #E688E688E688",
"`  c #EA92EA92EA92",
"'  c #EB3DEB3DEB3D",
"]  c #ED45ED45ED45",
"[  c #EFA2EFA2EFA2",
"{  c #F08CF08CF08C",
"}  c #F4E6F4E6F4E6",
"|  c #F624F624F624",
" . c #F7D4F7D4F7D4",
".. c #F8D0F8D0F8D0",
"X. c #FA83FA83FA83",
"o. c #FB8DFB8DFB8D",
"O. c #FCB6FCB6FCB6",
"+. c #FD78FD78FD78",
"@. c #FEA6FEA6FEA6",
"#. c #FF91FF91FF91",
"$. c gray100",
/* pixels */
"$.$.$.$.$.$.$.$.$.$.$.$.$.$.$.$.$.$.$.$.$.$.$.$.",
"$.$.$.$.$.$.$.$.$.$.$.$.$.$.$.$.$.$.$.$.$.$.$.$.",
"$.X.R L L L L L L L L L L L L L L L L L L R | $.",
"$.^ 6                                     9 ^ $.",
"$.^ 6           2 9 &     = 9 1           9 ^ $.",
"$.^ 6         a E ^ N > 1 C ^ I u         0 ^ $.",
"$.^ 6       ; ' $.$.$.z b $.$.$.' #       9 ^ $.",
"$.^ 6       r $.$.$.$.G L $.$.$.X.6       9 ^ $.",
"$.^ 6       2 [ $.$.$.N B $.$.$.{ ;       9 ^ $.",
"$.^ 6         k ~ [ J 9 9 I [ ~ z         9 ^ $.",
"$.^ 6         # 0 d 2 #   > d q >         9 ^ $.",
"$.^ 9       # v W ' ' z s Y ' ' L q       9 ^ $.",
"$.^ 6       a X.$.$.$.| { $.$.$.$.B #     9 ^ $.",
"$.^ 6       d $.$.$.$.$.$.$.$.$.$.S &     0 ^ $.",
"$.^ 6       6 X.$.$.$.~ I $.$.$.$.v       9 ^ $.",
"$.^ 6         W $.$.$.J k $.$.$.$.i       9 ^ $.",
"$.^ 6         F $.$.$.B y $.$.$.X.0       9 ^ $.",
"$.^ 6         g $.$.$.j > ^ $.$.)         9 ^ $.",
"$.^ 6         e [ $.$.t # C $.$.S         9 ^ $.",
"$.^ 6         = E $.[ ,   g $.$.k         9 ^ $.",
"$.^ 6           k F b &   2 S S e         9 ^ $.",
"$.^ 6             # +       + +           9 ^ $.",
"$.| S N N N N N N N N N N N N N N N N N N S | $.",
"$.$.$.$.$.$.$.$.$.$.$.$.$.$.$.$.$.$.$.$.$.$.$.$."
};
