/* XPM */
static char *Discipline CHI[] = {
/* columns rows colors chars-per-pixel */
"24 24 174 2",
"   c #00A900A900A9",
".  c #017E017E017E",
"X  c #029902990299",
"o  c #037303730373",
"O  c #046E046E046E",
"+  c #057105710571",
"@  c #06C906C906C9",
"#  c #078D078D078D",
"$  c #089F089F089F",
"%  c #095809580958",
"&  c #0BD50BD50BD5",
"*  c #0C9D0C9D0C9D",
"=  c #0DA40DA40DA4",
"-  c #0EA30EA30EA3",
";  c #0FCE0FCE0FCE",
":  c #10D510D510D5",
">  c #11AA11AA11AA",
",  c gray7",
"<  c #15B415B415B4",
"1  c #176A176A176A",
"2  c #1A0F1A0F1A0F",
"3  c #1E981E981E98",
"4  c #21EB21EB21EB",
"5  c #260A260A260A",
"6  c #281B281B281B",
"7  c #299429942994",
"8  c #2AA22AA22AA2",
"9  c #2BD82BD82BD8",
"0  c #2EA92EA92EA9",
"q  c #312031203120",
"w  c #31D731D731D7",
"e  c #32A932A932A9",
"r  c #338A338A338A",
"t  c #36D836D836D8",
"y  c #378137813781",
"u  c #390239023902",
"i  c #39BE39BE39BE",
"p  c #3A983A983A98",
"a  c #3BAD3BAD3BAD",
"s  c #3CCE3CCE3CCE",
"d  c #3D963D963D96",
"f  c #3E623E623E62",
"g  c #3F6C3F6C3F6C",
"h  c #409F409F409F",
"j  c #420F420F420F",
"k  c #434943494349",
"l  c #44AF44AF44AF",
"z  c #45D545D545D5",
"x  c #46AC46AC46AC",
"c  c #487B487B487B",
"v  c #49D149D149D1",
"b  c #4AE04AE04AE0",
"n  c #4C024C024C02",
"m  c #4DB14DB14DB1",
"M  c #508950895089",
"N  c #51AE51AE51AE",
"B  c #54E054E054E0",
"V  c #55BB55BB55BB",
"C  c #58C558C558C5",
"Z  c #5ADB5ADB5ADB",
"A  c #5BC25BC25BC2",
"S  c #5CF95CF95CF9",
"D  c #5DD85DD85DD8",
"F  c #5E9A5E9A5E9A",
"G  c #609A609A609A",
"H  c #61E561E561E5",
"J  c #645C645C645C",
"K  c #647F647F647F",
"L  c #65AD65AD65AD",
"P  c #683968396839",
"I  c #68CA68CA68CA",
"U  c #6A556A556A55",
"Y  c #6E0E6E0E6E0E",
"T  c #6E836E836E83",
"R  c #6FC86FC86FC8",
"E  c #741774177417",
"W  c #749674967496",
"Q  c #759B759B759B",
"!  c #792A792A792A",
"~  c #798479847984",
"^  c #7B5D7B5D7B5D",
"/  c #7C147C147C14",
"(  c #7D3C7D3C7D3C",
")  c #80B980B980B9",
"_  c #832483248324",
"`  c #86E186E186E1",
"'  c #89E289E289E2",
"]  c #8B1D8B1D8B1D",
"[  c #8C7B8C7B8C7B",
"{  c #8D8D8D8D8D8D",
"}  c #8EB08EB08EB0",
"|  c #8FAF8FAF8FAF",
" . c #929D929D929D",
".. c #951695169516",
"X. c #976F976F976F",
"o. c #995199519951",
"O. c #9A309A309A30",
"+. c #9ADC9ADC9ADC",
"@. c #9C059C059C05",
"#. c #9E059E059E05",
"$. c #9EF69EF69EF6",
"%. c #A042A042A042",
"&. c #A11BA11BA11B",
"*. c #A252A252A252",
"=. c #A312A312A312",
"-. c #A3C7A3C7A3C7",
";. c #A60EA60EA60E",
":. c #A7FEA7FEA7FE",
">. c #A936A936A936",
",. c #A9FAA9FAA9FA",
"<. c #AAFBAAFBAAFB",
"1. c #ABC0ABC0ABC0",
"2. c #AD65AD65AD65",
"3. c #AE2CAE2CAE2C",
"4. c #B1B7B1B7B1B7",
"5. c #B525B525B525",
"6. c #B66CB66CB66C",
"7. c #B780B780B780",
"8. c #B853B853B853",
"9. c #B946B946B946",
"0. c #BA45BA45BA45",
"q. c #BB65BB65BB65",
"w. c #BC92BC92BC92",
"e. c #BE52BE52BE52",
"r. c #C041C041C041",
"t. c #C160C160C160",
"y. c #C53DC53DC53D",
"u. c #C650C650C650",
"i. c #C759C759C759",
"p. c #C97BC97BC97B",
"a. c #CAB5CAB5CAB5",
"s. c #D013D013D013",
"d. c #D167D167D167",
"f. c #D1F9D1F9D1F9",
"g. c #D474D474D474",
"h. c #D50FD50FD50F",
"j. c #D6CBD6CBD6CB",
"k. c #D733D733D733",
"l. c #D846D846D846",
"z. c #DA12DA12DA12",
"x. c #DBA4DBA4DBA4",
"c. c #DD20DD20DD20",
"v. c #DF15DF15DF15",
"b. c #E08DE08DE08D",
"n. c #E13BE13BE13B",
"m. c #E2A3E2A3E2A3",
"M. c #E335E335E335",
"N. c #E4C8E4C8E4C8",
"B. c #E4EFE4EFE4EF",
"V. c #E698E698E698",
"C. c #E92CE92CE92C",
"Z. c #EABDEABDEABD",
"A. c #EB43EB43EB43",
"S. c #EC48EC48EC48",
"D. c #ED80ED80ED80",
"F. c #EE9CEE9CEE9C",
"G. c #EF2EEF2EEF2E",
"H. c #F07FF07FF07F",
"J. c #F185F185F185",
"K. c #F2B3F2B3F2B3",
"L. c #F39DF39DF39D",
"P. c #F455F455F455",
"I. c #F5A1F5A1F5A1",
"U. c #F672F672F672",
"Y. c #F74FF74FF74F",
"T. c #F875F875F875",
"R. c #F97DF97DF97D",
"E. c #FA82FA82FA82",
"W. c #FB9EFB9EFB9E",
"Q. c #FC7BFC7BFC7B",
"!. c #FD54FD54FD54",
"~. c #FE64FE64FE64",
"^. c #FF66FF66FF66",
"/. c gray100",
/* pixels */
"/./././././././././././././././././././././././.",
"W.n.0.0.0.0.0.7.7.0.0.0.0.7.7.7.e.0.0.7.0.0.d./.",
"/.*.* * * * * * * * , 9 6 < & * * * * * * * K /.",
"/.*.. . . . . . . @ g l.g.e.~ 9 @ . @ . . @ C /.",
"/.$.. . . . . . @ @ 9 7.g.F.W.v.E , . . . . C /.",
"/.*.. . . . . @ . @ 3 q < 9 ( S.Y.:.& . . . F W.",
"/.*.. @ @ @ . v :.Y./.W./.l.R u 0./. .& @ . F /.",
"/.*.. . . * $.K.Y.s.<.$.3.n.Y.<.u g.K.m @ . C /.",
"/.*.. @ * +.Y.u.C z V I m z 4.W.$.m Y.0., . C /.",
"/.*.. @ I W.u.g } n.W./.Y.4.k p.F.z 0.Y.k . F /.",
"/.*.. < s.F.y +.W.g.) G t.W.} F Y.X.K Y.~ . F /.",
"/.*.. q Y.3.N W.0.g ) +.g v.l.k n.l.9 F.<.. C /.",
"/.*.. N /.E ' W.z :.W.Y.V <.F.z 0.W.3 S.0.. V /.",
"/.*.@ N /.~ ` W.g 7.F.k q p.B.k u.K.3 S.0.. C /.",
"/.*.. u W.+.G W.) ( Y.l.B.Y.*.v F.t.g K.*.. F W.",
"/.*.@ 4 n.n.9 S.g.v *.l.u.) z e.Y.G } /.K . F /.",
"/.*.@ @ $./.V ' W.t.v 9 9 ~ d.Y.<.y S.g.6 . F /.",
"/.*.. . u F.n.u $./.Y./././.K.' q p.W.R . . G /.",
"/.*.. . @ ~ /.d.v N +.:.*.R 9 F n./.+.@ @ . F /.",
"/.*.. . . , X.K.B.<.I m C ' d.K.F.) & @ . . C W.",
"/.*.. . @ . * K u.Y.W.K.W./.n.:.u & . . . . G /.",
"/.$.. . . . . . 2 z E ' R N 9 & . . . @ . . F /.",
"/.7.u u u u g g u u g u y u u g u u g u g u ) /.",
"/./././././././././././././././././././././././."
};
