/* XPM */
static char *Discipline NEC[] = {
/* columns rows colors chars-per-pixel */
"24 24 145 2",
"   c #008200820082",
".  c #018B018B018B",
"X  c #026602660266",
"o  c #038103810381",
"O  c #047804780478",
"+  c #059505950595",
"@  c #066806680668",
"#  c #07BA07BA07BA",
"$  c #086A086A086A",
"%  c #090F090F090F",
"&  c #0A690A690A69",
"*  c #0B9A0B9A0B9A",
"=  c #0C0E0C0E0C0E",
"-  c #0D150D150D15",
";  c #0EEA0EEA0EEA",
":  c #0F8E0F8E0F8E",
">  c #104B104B104B",
",  c #11C111C111C1",
"<  c #12F212F212F2",
"1  c #13A413A413A4",
"2  c #14D414D414D4",
"3  c #165C165C165C",
"4  c #178F178F178F",
"5  c #190D190D190D",
"6  c #1A4D1A4D1A4D",
"7  c #1BE91BE91BE9",
"8  c #1CA11CA11CA1",
"9  c #226422642264",
"0  c #23C323C323C3",
"q  c #2C9E2C9E2C9E",
"w  c #2DFF2DFF2DFF",
"e  c #2F612F612F61",
"r  c #311E311E311E",
"t  c #322032203220",
"y  c #32D732D732D7",
"u  c #34D534D534D5",
"i  c #35C135C135C1",
"p  c #366836683668",
"a  c #3B803B803B80",
"s  c #3ED33ED33ED3",
"d  c #403B403B403B",
"f  c #410741074107",
"g  c #447144714471",
"h  c #472847284728",
"j  c #4EE34EE34EE3",
"k  c #501C501C501C",
"l  c #50C550C550C5",
"z  c #51C251C251C2",
"x  c #529852985298",
"c  c #53D853D853D8",
"v  c #54DC54DC54DC",
"b  c #55EB55EB55EB",
"n  c #565F565F565F",
"m  c #5A5C5A5C5A5C",
"M  c #5CAD5CAD5CAD",
"N  c #5E245E245E24",
"B  c #5EE15EE15EE1",
"V  c #608860886088",
"C  c #63F163F163F1",
"Z  c #650B650B650B",
"A  c #657365736573",
"S  c #686868686868",
"D  c #6D506D506D50",
"F  c #6DDA6DDA6DDA",
"G  c #715D715D715D",
"H  c #71A871A871A8",
"J  c #743074307430",
"K  c #74E274E274E2",
"L  c #75FA75FA75FA",
"P  c #76E976E976E9",
"I  c #77D177D177D1",
"U  c #78BF78BF78BF",
"Y  c #799F799F799F",
"T  c #7B117B117B11",
"R  c #7E1E7E1E7E1E",
"E  c #854D854D854D",
"W  c #8BED8BED8BED",
"Q  c #8D438D438D43",
"!  c #8EBD8EBD8EBD",
"~  c #907590759075",
"^  c #934393439343",
"/  c #96BC96BC96BC",
"(  c #99CF99CF99CF",
")  c #9B389B389B38",
"_  c #9BE39BE39BE3",
"`  c #9CE59CE59CE5",
"'  c #9E079E079E07",
"]  c #9EDB9EDB9EDB",
"[  c #A053A053A053",
"{  c #A12CA12CA12C",
"}  c #A320A320A320",
"|  c #A77CA77CA77C",
" . c #A7CAA7CAA7CA",
".. c #AAC3AAC3AAC3",
"X. c #ACAAACAAACAA",
"o. c #ACB6ACB6ACB6",
"O. c #B2B4B2B4B2B4",
"+. c #B67BB67BB67B",
"@. c #B6F2B6F2B6F2",
"#. c #BA6EBA6EBA6E",
"$. c #BC08BC08BC08",
"%. c #BCEFBCEFBCEF",
"&. c #BED7BED7BED7",
"*. c #C05BC05BC05B",
"=. c #C14DC14DC14D",
"-. c #C271C271C271",
";. c #C65AC65AC65A",
":. c #C741C741C741",
">. c #C94BC94BC94B",
",. c #CA59CA59CA59",
"<. c #CD5BCD5BCD5B",
"1. c #D0A2D0A2D0A2",
"2. c #D17DD17DD17D",
"3. c #D224D224D224",
"4. c #D2F5D2F5D2F5",
"5. c gray85",
"6. c #DC7EDC7EDC7E",
"7. c #DE06DE06DE06",
"8. c #DF6BDF6BDF6B",
"9. c #E17FE17FE17F",
"0. c #E468E468E468",
"q. c #E57DE57DE57D",
"w. c #E69FE69FE69F",
"e. c #E808E808E808",
"r. c #E951E951E951",
"t. c #EC8DEC8DEC8D",
"y. c #ED78ED78ED78",
"u. c #EE54EE54EE54",
"i. c #EF64EF64EF64",
"p. c #F01CF01CF01C",
"a. c #F185F185F185",
"s. c #F260F260F260",
"d. c #F3DCF3DCF3DC",
"f. c #F461F461F461",
"g. c #F68AF68AF68A",
"h. c #F774F774F774",
"j. c #F8AEF8AEF8AE",
"k. c #F99BF99BF99B",
"l. c #FA6FFA6FFA6F",
"z. c #FB7CFB7CFB7C",
"x. c #FC79FC79FC79",
"c. c #FD7CFD7CFD7C",
"v. c #FE7DFE7DFE7D",
"b. c #FF7CFF7CFF7C",
"n. c gray100",
/* pixels */
"n.n.n.n.n.n.n.n.n.n.n.n.n.n.n.n.n.n.n.n.n.n.n.n.",
"n.>.` ` ` E ` ` ` ( ` ( ( ( ( ^ Q ( ` ` [ [ :.n.",
"n.T X X X X # X - 1 1 1 6 2 - % X X X X X X I n.",
"n.I # X X X # Z @.g.n.l.n.g.9.@.I 6 X X X X I l.",
"n.H X X X 2 [ g.n.l.l.l.n.n.l.l.l.2.c # X X I l.",
"n.I X X X I g.l.l.n.n.n.n.n.n.l.l.g.2.y X X H l.",
"n.H X # 6 2.n.n.n.n.n.l.n.n.n.n.n.n.l.R # X I n.",
"n.I X X a e.n.n.n.l.l.n.n.n.l.n.l.n.n.$.X X I n.",
"n.I X # c l.n.n.l.l.l.l.n.n.n.l.n.n.l.-.X X I n.",
"n.H X X k l.l.n.l.u.a.n.l.n.l.a.l.l.n.%.# X I n.",
"n.T X # g u.n.a.F k h o.n.9.c u / n.n.[ X X T l.",
"n.I # X % ( l.:.C u.2.B a.` # # 6 n.l.H X X I n.",
"n.T # - 2 w $.<.B 8.%.Z g...- # g n.>.u 9 # H n.",
"l.H X y 2.6.q.g.^ c n <.>.l.[ Q <.n.6.%.>.1 T n.",
"n.I X # | n.l.n.g.u.a.$.w o.n.n.l.l.l.n.| # H n.",
"n.I X X c 6.u.l.l.g.u.F I C a.l.l.n.l.u.Z X I l.",
"n.H X X % w g Q e.l.q.q.l.8.a.n.9.Q C c 9 X I n.",
"n.I X X X X X X B l.n.l.n.n.n.a.F X X X X X T l.",
"n.F # X X X X X u e.<.u.2.g.9.q.u X # X X X I l.",
"n.I X X X X X X y q.B >.C 8.H q.u X X # X X H n.",
"n.I X X X X X % g %.m ..B %.B <.s X X X X X I l.",
"n.I X X X X X X % - # 1 % 1 # 1 # X X X X X I n.",
"l.` c k n c c k c k c k n k n c k k c k k k ` n.",
"n.l.l.l.n.l.n.n.n.l.l.n.n.n.l.n.n.n.n.l.n.n.g.l."
};
