/* XPM */
static char * Discipline STR_xpm[] = {
"24 24 412 2",
"  	c None",
". 	c #DDDDDE",
"+ 	c #A7A6A8",
"@ 	c #7A797C",
"# 	c #79797A",
"$ 	c #828382",
"% 	c #817F80",
"& 	c #817D80",
"* 	c #838082",
"= 	c #848283",
"- 	c #827F80",
"; 	c #848082",
"> 	c #858283",
", 	c #848182",
"' 	c #828081",
") 	c #827F81",
"! 	c #817E7F",
"~ 	c #848183",
"{ 	c #858285",
"] 	c #7C7A79",
"^ 	c #9C9C9A",
"/ 	c #B7B8B8",
"( 	c #565658",
"_ 	c #181819",
": 	c #141514",
"< 	c #000000",
"[ 	c #151515",
"} 	c #444341",
"| 	c #B5B7B7",
"1 	c #505151",
"2 	c #0F0E0F",
"3 	c #141212",
"4 	c #0C0A08",
"5 	c #3E3E3B",
"6 	c #B9BBBB",
"7 	c #5B5B5B",
"8 	c #181415",
"9 	c #131112",
"0 	c #141213",
"a 	c #494745",
"b 	c #B8BCBC",
"c 	c #5C5D5D",
"d 	c #151010",
"e 	c #282324",
"f 	c #2E2A2B",
"g 	c #393738",
"h 	c #393839",
"i 	c #2E2C2D",
"j 	c #1A1819",
"k 	c #272626",
"l 	c #353333",
"m 	c #3A3839",
"n 	c #343233",
"o 	c #292728",
"p 	c #191515",
"q 	c #140E0E",
"r 	c #494545",
"s 	c #B9BDBD",
"t 	c #5A5B5B",
"u 	c #1F1819",
"v 	c #5B5555",
"w 	c #8B8687",
"x 	c #9A999A",
"y 	c #9B9A9B",
"z 	c #888687",
"A 	c #4F4D4E",
"B 	c #282627",
"C 	c #201E1F",
"D 	c #413F40",
"E 	c #777678",
"F 	c #939192",
"G 	c #9C9A9B",
"H 	c #959394",
"I 	c #6D6A6B",
"J 	c #2E292A",
"K 	c #464141",
"L 	c #BABFBE",
"M 	c #565757",
"N 	c #3B3435",
"O 	c #9A9494",
"P 	c #DBD9D9",
"Q 	c #EAE8E9",
"R 	c #E9EAE9",
"S 	c #DCDBDB",
"T 	c #AEADAD",
"U 	c #5E5C5D",
"V 	c #1E1C1D",
"W 	c #484546",
"X 	c #9A9798",
"Y 	c #CFCECF",
"Z 	c #E4E4E5",
"` 	c #EBEAEA",
" .	c #E5E4E4",
"..	c #BAB7B8",
"+.	c #635F5F",
"@.	c #1E1817",
"#.	c #413C3C",
"$.	c #B8BDBC",
"%.	c #525453",
"&.	c #585253",
"*.	c #BCB8B8",
"=.	c #EDEDEC",
"-.	c #F7F7F7",
";.	c #FCFBFC",
">.	c #FFFFFF",
",.	c #FFFEFF",
"'.	c #ADABAC",
").	c #4D4B4C",
"!.	c #1B191A",
"~.	c #323031",
"{.	c #898788",
"].	c #F2F0F1",
"^.	c #F9F9F9",
"/.	c #F2F1F1",
"(.	c #DDDCDC",
"_.	c #938F8F",
":.	c #403B3A",
"<.	c #B4B8B7",
"[.	c #525253",
"}.	c #5B5556",
"|.	c #A29E9D",
"1.	c #B0AEAD",
"2.	c #B4B2B2",
"3.	c #C5C3C4",
"4.	c #E3E2E3",
"5.	c #FDFDFD",
"6.	c #F0EFF0",
"7.	c #8D8B8C",
"8.	c #3D3B3C",
"9.	c #605E5F",
"0.	c #CCCACB",
"a.	c #FFFEFE",
"b.	c #ECEBEB",
"c.	c #D0CECF",
"d.	c #B9B7B9",
"e.	c #AFAEAE",
"f.	c #B2B0B0",
"g.	c #474342",
"h.	c #B3B7B6",
"i.	c #4F4F50",
"j.	c #726C6C",
"k.	c #D6D2D1",
"l.	c #989697",
"m.	c #625F61",
"n.	c #757375",
"o.	c #E4E3E3",
"p.	c #B7B6B7",
"q.	c #6F6D6E",
"r.	c #9B999A",
"s.	c #FEFEFE",
"t.	c #F5F4F5",
"u.	c #8B898A",
"v.	c #7F7E7E",
"w.	c #CBCACA",
"x.	c #F1F0F0",
"y.	c #ACA8A9",
"z.	c #413D3C",
"A.	c #4E4E4E",
"B.	c #7A7574",
"C.	c #EAE8E7",
"D.	c #E8E8E9",
"E.	c #7B7A7B",
"F.	c #252324",
"G.	c #2B292A",
"H.	c #929091",
"I.	c #E0DFE0",
"J.	c #B0AEAF",
"K.	c #757273",
"L.	c #9D9C9D",
"M.	c #E8E7E8",
"N.	c #B1AFB0",
"O.	c #424041",
"P.	c #545253",
"Q.	c #C6C5C5",
"R.	c #B6B3B4",
"S.	c #363534",
"T.	c #BABDBE",
"U.	c #515151",
"V.	c #686563",
"W.	c #DFDEDC",
"X.	c #EEEEEE",
"Y.	c #868486",
"Z.	c #272526",
"`.	c #0F0D0E",
" +	c #8C8A8B",
".+	c #7B7879",
"++	c #555354",
"@+	c #706E6F",
"#+	c #999899",
"$+	c #5F5D5E",
"%+	c #161415",
"&+	c #5C5A5B",
"*+	c #F3F1F2",
"=+	c #A09F9F",
"-+	c #323431",
";+	c #C7C8C9",
">+	c #5F5E5D",
",+	c #12110F",
"'+	c #43423F",
")+	c #BBBAB8",
"!+	c #F9F8F8",
"~+	c #BFBDBF",
"{+	c #5D5A5C",
"]+	c #151314",
"^+	c #373537",
"/+	c #363435",
"(+	c #2B2A2A",
"_+	c #343333",
":+	c #3F3D3F",
"<+	c #262425",
"[+	c #0E0C0D",
"}+	c #3F3E3E",
"|+	c #9A9899",
"1+	c #E4E3E4",
"2+	c #D7D5D6",
"3+	c #737171",
"4+	c #1D1D1B",
"5+	c #3E413E",
"6+	c #D2D2D3",
"7+	c #7C7B7B",
"8+	c #2A2827",
"9+	c #22211E",
"0+	c #82817F",
"a+	c #F2F1F0",
"b+	c #F6F4F5",
"c+	c #9F9E9F",
"d+	c #353233",
"e+	c #151213",
"f+	c #0F0C0E",
"g+	c #181717",
"h+	c #161414",
"i+	c #110F10",
"j+	c #181617",
"k+	c #797878",
"l+	c #DEDDDD",
"m+	c #ACABAB",
"n+	c #3C3A3A",
"o+	c #302F2D",
"p+	c #646663",
"q+	c #CDCDCD",
"r+	c #9C9A9A",
"s+	c #636061",
"t+	c #2D2B2A",
"u+	c #504F4D",
"v+	c #BEBCBB",
"w+	c #F7F6F7",
"x+	c #CDCBCB",
"y+	c #635E5F",
"z+	c #161112",
"A+	c #191516",
"B+	c #1E1A1B",
"C+	c #363234",
"D+	c #A7A5A6",
"E+	c #F3F3F3",
"F+	c #E2E0E1",
"G+	c #757173",
"H+	c #272325",
"I+	c #939393",
"J+	c #AFAFB0",
"K+	c #837F81",
"L+	c #646061",
"M+	c #716D6E",
"N+	c #D8D7D9",
"O+	c #E3E1E2",
"P+	c #857E80",
"Q+	c #1B1416",
"R+	c #191014",
"S+	c #1D1416",
"T+	c #574F52",
"U+	c #C0BCBD",
"V+	c #9D999A",
"W+	c #625B5D",
"X+	c #726B6F",
"Y+	c #978E94",
"Z+	c #969094",
"`+	c #AEAFAE",
" @	c #6D6B6B",
".@	c #5C575A",
"+@	c #928D90",
"@@	c #9C979A",
"#@	c #979496",
"$@	c #E3E3E3",
"%@	c #E6E5E6",
"&@	c #8F8B8D",
"*@	c #160E11",
"=@	c #625C5E",
"-@	c #C5C0C1",
";@	c #E8E5E6",
">@	c #9E989A",
",@	c #9B9397",
"'@	c #756B72",
")@	c #6C656A",
"!@	c #B7B8B7",
"~@	c #585756",
"{@	c #605A5E",
"]@	c #989397",
"^@	c #B3B1B3",
"/@	c #F0F0F0",
"(@	c #E7E7E7",
"_@	c #8F8F90",
":@	c #120E10",
"<@	c #615F61",
"[@	c #C7C4C5",
"}@	c #F5F3F4",
"|@	c #D5D5D5",
"1@	c #A9A7A8",
"2@	c #787377",
"3@	c #372F35",
"4@	c #494448",
"5@	c #BABBBA",
"6@	c #585656",
"7@	c #0E0D0D",
"8@	c #1A1619",
"9@	c #464145",
"0@	c #828182",
"a@	c #D7D7D7",
"b@	c #DADBDB",
"c@	c #878988",
"d@	c #161515",
"e@	c #BFC0C0",
"f@	c #E3E5E5",
"g@	c #AAADAC",
"h@	c #5A5C5C",
"i@	c #232224",
"j@	c #100C10",
"k@	c #474347",
"l@	c #BBBBBA",
"m@	c #5F5D5D",
"n@	c #151414",
"o@	c #100D10",
"p@	c #39393A",
"q@	c #747575",
"r@	c #848685",
"s@	c #5D5F5E",
"t@	c #1C1C1B",
"u@	c #434444",
"v@	c #78797A",
"w@	c #818483",
"x@	c #505352",
"y@	c #232524",
"z@	c #111213",
"A@	c #111013",
"B@	c #4B4A4D",
"C@	c #B9B9B8",
"D@	c #5B5A5A",
"E@	c #141314",
"F@	c #141215",
"G@	c #121112",
"H@	c #202020",
"I@	c #2A2B2A",
"J@	c #282727",
"K@	c #221E20",
"L@	c #292829",
"M@	c #252525",
"N@	c #151415",
"O@	c #171718",
"P@	c #101114",
"Q@	c #424445",
"R@	c #B8B8B7",
"S@	c #545453",
"T@	c #0A0B0A",
"U@	c #0B0B0D",
"V@	c #141214",
"W@	c #0E0B0C",
"X@	c #100B0D",
"Y@	c #383E3D",
"Z@	c #BFC0BF",
"`@	c #686B6A",
" #	c #262827",
".#	c #29292B",
"+#	c #39393C",
"@#	c #363536",
"##	c #343232",
"$#	c #312D2D",
"%#	c #312B2D",
"&#	c #383134",
"*#	c #383133",
"=#	c #382F33",
"-#	c #3A3033",
";#	c #3C3134",
">#	c #3A3034",
",#	c #372F32",
"'#	c #352E30",
")#	c #352F30",
"!#	c #353031",
"~#	c #363132",
"{#	c #383536",
"]#	c #2F3030",
"^#	c #242B29",
"/#	c #4F5A57",
"(#	c #D5D7D6",
"_#	c #A2A5A4",
":#	c #7A7D7C",
"<#	c #7C7E7E",
"[#	c #858587",
"}#	c #848284",
"|#	c #878585",
"1#	c #888584",
"2#	c #848181",
"3#	c #858281",
"4#	c #888384",
"5#	c #8A8485",
"6#	c #898284",
"7#	c #867F81",
"8#	c #837E80",
"9#	c #8B8788",
"0#	c #8A8687",
"a#	c #848282",
"b#	c #838282",
"c#	c #7E8181",
"d#	c #767E7D",
"e#	c #929C99",
". + @ # $ % & * = - ; > , ' ) ! ! ~ { ~ = ! ] ^ ",
"/ ( _ : < < < < < < < < < < < < < < < < < < [ } ",
"| 1 < 2 < < < < < < < < < < < < < < < < < 3 4 5 ",
"6 7 < 8 < < 9 0 9 < < < < < < < < < < < < < < a ",
"b c < d e f g h i < < < < < < j k l m n o p q r ",
"s t < u v w x y z A B < < < C D E F G H I J q K ",
"L M < N O P Q R S T U B < V W X Y Z `  ...+.@.#.",
"$.%.< &.*.=.-.;.>.,.'.).!.~.{.].>.>.^./.(._.< :.",
"<.[.< }.|.1.2.3.4.5.6.7.8.9.0.a.b.c.d.e.f.w < g.",
"h.i.< j.k.S l.m.n.o.>.p.q.r.s.t.u.U v.w.x.y.< z.",
"<.A.< B.C.D.E.F.G.H.I.J.K.L.M.N.O.!.P.Q.>.R.< S.",
"T.U.< V.W.X.Y.Z.`.O. +.+++@+#+$+j %+&+Q.*+=+< -+",
";+>+,+'+)+!+~+{+]+!.^+/+(+_+:+<+[+}+|+1+2+3+4+5+",
"6+7+8+9+0+a+b+c+d+e+f+0 g+h+i+]+j+k+l+s.m+n+o+p+",
"q+r+s+t+u+v+w+x+y+z+A+< < < < B+C+D+E+F+G+H+&+I+",
"J+u.= K+L+M+N+O+P+Q+R+< < < < S+T+U+O+V+W+X+Y+Z+",
"`+ @.@+@@@#@$@%@&@< < < < < < *@=@-@;@..>@,@'@)@",
"!@~@< {@]@^@/@(@_@< < < < < < :@<@[@}@|@1@2@3@4@",
"5@6@7@8@9@0@a@b@c@< < < < < < d@c e@f@g@h@i@j@k@",
"l@m@n@o@< p@q@r@s@< < < < < < t@u@v@w@x@y@z@A@B@",
"C@D@E@F@< G@H@I@J@< < < < < < < K@L@M@[ N@O@P@Q@",
"R@S@T@U@< V@i+W@X@< < < < < < < < < < < < < < Y@",
"Z@`@ #.#+#@###$#%#&#*#=#-#;#>#,#'#)#!#~#{#]#^#/#",
"(#_#:#<#[#}#|#1#> 2#3#4#5#6#7#8#4#9#0#a#b#c#d#e#"};
