/* XPM */
static char *Discipline PRE[] = {
/* columns rows colors chars-per-pixel */
"24 24 129 2",
"   c #007300730073",
".  c #019701970197",
"X  c #026A026A026A",
"o  c #037003700370",
"O  c #047904790479",
"+  c #055A055A055A",
"@  c #067006700670",
"#  c #076C076C076C",
"$  c #086B086B086B",
"%  c #094909490949",
"&  c #0B720B720B72",
"*  c #0CD20CD20CD2",
"=  c #0DEC0DEC0DEC",
"-  c #118F118F118F",
";  c #132E132E132E",
":  c #179017901790",
">  c #1BDA1BDA1BDA",
",  c #1C441C441C44",
"<  c #1DB31DB31DB3",
"1  c #1FBD1FBD1FBD",
"2  c #20B820B820B8",
"3  c #22D822D822D8",
"4  c #244F244F244F",
"5  c #289D289D289D",
"6  c #2A1E2A1E2A1E",
"7  c #2E9F2E9F2E9F",
"8  c #30B230B230B2",
"9  c #330933093309",
"0  c #368036803680",
"q  c #3E103E103E10",
"w  c #3EF63EF63EF6",
"e  c #3F423F423F42",
"r  c #40A440A440A4",
"t  c #421A421A421A",
"y  c #429442944294",
"u  c #43C043C043C0",
"i  c #462846284628",
"p  c #46D946D946D9",
"a  c #480848084808",
"s  c #4A884A884A88",
"d  c #4BD94BD94BD9",
"f  c #4CB34CB34CB3",
"g  c #4E2D4E2D4E2D",
"h  c #4EFB4EFB4EFB",
"j  c #50AF50AF50AF",
"k  c #522352235223",
"l  c #52A952A952A9",
"z  c #53AE53AE53AE",
"x  c #549F549F549F",
"c  c #557F557F557F",
"v  c #570A570A570A",
"b  c #58F058F058F0",
"n  c #5BB75BB75BB7",
"m  c #5FA65FA65FA6",
"M  c #637363736373",
"N  c #64B864B864B8",
"B  c #694669466946",
"V  c #6C126C126C12",
"C  c #6D046D046D04",
"Z  c #6E206E206E20",
"A  c #733273327332",
"S  c #740374037403",
"D  c #751C751C751C",
"F  c #75E975E975E9",
"G  c #76F276F276F2",
"H  c #77B577B577B5",
"J  c #790779077907",
"K  c #79E979E979E9",
"L  c #7AA67AA67AA6",
"P  c #7BF57BF57BF5",
"I  c #804680468046",
"U  c #842B842B842B",
"Y  c #851985198519",
"T  c #871A871A871A",
"R  c #88F088F088F0",
"E  c #899989998999",
"W  c #931193119311",
"Q  c #93AA93AA93AA",
"!  c #989098909890",
"~  c #9EEF9EEF9EEF",
"^  c #9FDE9FDE9FDE",
"/  c #A332A332A332",
"(  c #A454A454A454",
")  c #A62BA62BA62B",
"_  c #A93EA93EA93E",
"`  c #ACA6ACA6ACA6",
"'  c #ADE9ADE9ADE9",
"]  c #AF26AF26AF26",
"[  c #B12EB12EB12E",
"{  c #B1D3B1D3B1D3",
"}  c #B386B386B386",
"|  c #B7BFB7BFB7BF",
" . c #BB98BB98BB98",
".. c #BBE5BBE5BBE5",
"X. c #BE24BE24BE24",
"o. c #C33EC33EC33E",
"O. c #C694C694C694",
"+. c #C6F3C6F3C6F3",
"@. c #CCCFCCCFCCCF",
"#. c #CE48CE48CE48",
"$. c #D3E5D3E5D3E5",
"%. c #D558D558D558",
"&. c #D8A1D8A1D8A1",
"*. c #DB84DB84DB84",
"=. c #DCFEDCFEDCFE",
"-. c #DE28DE28DE28",
";. c #DFB8DFB8DFB8",
":. c #E176E176E176",
">. c #E21FE21FE21F",
",. c #E368E368E368",
"<. c #E68BE68BE68B",
"1. c #E7E6E7E6E7E6",
"2. c #E8EEE8EEE8EE",
"3. c #EA18EA18EA18",
"4. c #EC89EC89EC89",
"5. c #ED2BED2BED2B",
"6. c #EE4DEE4DEE4D",
"7. c #EFF6EFF6EFF6",
"8. c #F43BF43BF43B",
"9. c #F7B2F7B2F7B2",
"0. c #F869F869F869",
"q. c #F95BF95BF95B",
"w. c #FA32FA32FA32",
"e. c #FB9DFB9DFB9D",
"r. c #FCB1FCB1FCB1",
"t. c #FD82FD82FD82",
"y. c #FE87FE87FE87",
"u. c #FF62FF62FF62",
"i. c gray100",
/* pixels */
"y.w.y.y.y.y.y.y.y.y.y.y.y.y.y.y.y.y.y.y.y.y.w.y.",
"y.| P P G G G G G P P P G G P G G P G G G P ) y.",
"y.G . . . . . . . . . > > . . . . . . . . . x y.",
"y.G . . . . . . . + . r p . . + . . + . . . h y.",
"y.G . . . + . . . + . n P . . + . + . . . . h y.",
"y.G . . + h 3 . . . . I ~ . . . . 3 d % . + h y.",
"y.G . . . 7 { 9 + . . ) o.. . . 5 ` e . . . h y.",
"y.G . . . . p ,.P - + o.;.% % N ;.M % . . . h y.",
"y.G . . . . + R 5.` 7 ,.,.r Q 5.^ - . . . . d y.",
"w.G . . . . . 1  .y.*.9.9.;.y.#.4 + + . + . h y.",
"y.G . . . + + . 0 <.y.y.w.y.5.p . . + . . . h y.",
"y.G 1 e d Z Q o.*.8.y.w.y.y.w.,.o.^ S h e 1 h y.",
"y.P 1 h Y _ %.,.3.9.y.y.w.w.w.5.,.$.{ R n 3 x y.",
"y.G . . . + . > d ;.w.y.y.y.3.n 1 . . + . . h y.",
"y.G . . . . . = ~ w.3.9.w.5.w.` - + . . + . h y.",
"y.P . . . . . B 5.@.x 3.<.B X.8.Y + + . . . h y.",
"y.G . . . . 7 ,._ 3 . %.,.- 3 W 3.r . . . . h y.",
"y.S . . . > { Z = . . ` #.. . % d X.5 . . . h y.",
"y.G . . + h e + . + . Y ) . . . + 9 x % . . h y.",
"y.G . . % - . + . + . M Y . + + + . = % . . h y.",
"y.G . . . % + . . . . r x . . + . + + + + . h y.",
"y.G . . . . . . + . . 3 4 . . . + . + . . . h y.",
"w.^ h n h h h h h h d x x h d h h h h d h h E w.",
"y.y.y.y.y.y.y.y.y.y.y.y.y.y.y.y.y.y.y.y.y.y.y.y."
};
