/* XPM */
static char *Type Power[] = {
/* columns rows colors chars-per-pixel */
"24 24 145 2",
"   c #000000",
".  c #010101",
"X  c #040404",
"o  c #070707",
"O  c #080808",
"+  c #090909",
"@  c #0B0B0B",
"#  c #0C0C0C",
"$  c #0E0E0E",
"%  c #111111",
"&  c #131313",
"*  c #161616",
"=  c #1B1B1B",
"-  c #1C1C1C",
";  c #1F1F1F",
":  c #202020",
">  c #212121",
",  c #232323",
"<  c #242424",
"1  c #252525",
"2  c #2B2B2B",
"3  c #2D2D2D",
"4  c #2F2F2F",
"5  c #303030",
"6  c gray20",
"7  c #363636",
"8  c #373737",
"9  c #383838",
"0  c #393939",
"q  c #3A3A3A",
"w  c #3B3B3B",
"e  c #3D3D3D",
"r  c #3E3E3E",
"t  c #434343",
"y  c #454545",
"u  c #474747",
"i  c #494949",
"p  c #4C4C4C",
"a  c #4D4D4D",
"s  c #4F4F4F",
"d  c #515151",
"f  c #525252",
"g  c #535353",
"h  c #545454",
"j  c #565656",
"k  c #5A5A5A",
"l  c #5C5C5C",
"z  c #5D5D5D",
"x  c #5F5F5F",
"c  c #616161",
"v  c #646464",
"b  c #656565",
"n  c #676767",
"m  c #696969",
"M  c #6A6A6A",
"N  c #6B6B6B",
"B  c #6C6C6C",
"V  c #6D6D6D",
"C  c #6E6E6E",
"Z  c #707070",
"A  c #747474",
"S  c #767676",
"D  c #797979",
"F  c #7A7A7A",
"G  c #7B7B7B",
"H  c #7C7C7C",
"J  c #7E7E7E",
"K  c #808080",
"L  c #828282",
"P  c #848484",
"I  c #858585",
"U  c #878787",
"Y  c #898989",
"T  c #8A8A8A",
"R  c #8C8C8C",
"E  c #8D8D8D",
"W  c #8E8E8E",
"Q  c #8F8F8F",
"!  c #919191",
"~  c #929292",
"^  c #949494",
"/  c #959595",
"(  c #979797",
")  c #9C9C9C",
"_  c #9F9F9F",
"`  c #A1A1A1",
"'  c #A3A3A3",
"]  c #A6A6A6",
"[  c #A7A7A7",
"{  c #A8A8A8",
"}  c #ABABAB",
"|  c #ACACAC",
" . c #ADADAD",
".. c #AFAFAF",
"X. c #B2B2B2",
"o. c #B5B5B5",
"O. c #B7B7B7",
"+. c #B8B8B8",
"@. c #B9B9B9",
"#. c #BCBCBC",
"$. c #BDBDBD",
"%. c #BEBEBE",
"&. c #C2C2C2",
"*. c #C3C3C3",
"=. c #C4C4C4",
"-. c #C5C5C5",
";. c #C6C6C6",
":. c #C9C9C9",
">. c #CCCCCC",
",. c #CECECE",
"<. c #CFCFCF",
"1. c #D2D2D2",
"2. c #D4D4D4",
"3. c #D5D5D5",
"4. c #D7D7D7",
"5. c #D8D8D8",
"6. c #DBDBDB",
"7. c #DDDDDD",
"8. c #DFDFDF",
"9. c #E0E0E0",
"0. c #E1E1E1",
"q. c #E2E2E2",
"w. c #E3E3E3",
"e. c #E4E4E4",
"r. c #E5E5E5",
"t. c #E6E6E6",
"y. c #E7E7E7",
"u. c #E9E9E9",
"i. c #EAEAEA",
"p. c #EBEBEB",
"a. c #ECECEC",
"s. c #EEEEEE",
"d. c #F1F1F1",
"f. c #F2F2F2",
"g. c #F4F4F4",
"h. c #F5F5F5",
"j. c #F6F6F6",
"k. c #F7F7F7",
"l. c #F8F8F8",
"z. c #F9F9F9",
"x. c #FAFAFA",
"c. c #FBFBFB",
"v. c #FCFCFC",
"b. c #FDFDFD",
"n. c gray100",
/* pixels */
"M ; ; ; ; ; ; : : 3 q d d i 3 < : ; ; ; ; ; ; ; ",
"j           X r ) 6.n.n.n.n.a.+.n &             ",
"j         < | j.n.n.n.n.n.n.n.n.n.5.j           ",
"j       i 8.n.n.n.n.n.n.j.n.n.n.n.n.k.! +       ",
"j     t u.n.n.n.n.a.K M n C 1.n.n.n.n.k.! X     ",
"j   : 6.n.n.n.n.j.M +.j.k.8.M ;.n.n.n.n.n.n     ",
"j X _ n.n.n.n.n.{ ] n.t.$.n.t.B k.n.n.n.n.t.<   ",
"j 3 f.n.n.n.n.n.E 6.n.M d 6.n.H u.n.n.n.n.n.T   ",
"j H n.n.n.n.n.n.E 2.$.K 2.C n.D u.n.n.n.n.n.2.+ ",
"l $.n.n.n.n.n.n.+.H n u.n.L ( D n.n.n.n.n.n.n.3 ",
"n 8.n.n.n.n.n.n.n.j l a.k.{ : 1.n.n.n.n.n.n.n.k ",
"M n.n.n.n.n.n.n.t.n | A x ^ ! ] n.n.n.n.n.n.n.M ",
"n n.n.n.n.n.n.n.D ;.n.n.n.n.j.n t.n.n.n.n.n.n.M ",
"x 8.n.n.n.k.>.{ A n.n.n.n.n.n.&.D $.a.n.n.n.n.k ",
"l ;.n.n.n.E X   H n.n.n.n.n.n.1.&   q f.n.n.n.5 ",
"j L n.n.n.q     ; A A A A A A y     X :.n.n.6.# ",
"j 5 f.n.n.D     B j.f.j.f.f.f.&.%   < u.n.n.T   ",
"k   _ n.n.k.| o.j.n.n.n.n.n.n.n.1._ 8.n.n.u.<   ",
"j   < 8.n.n.n.n.n.n.n.n.n.n.n.n.n.n.n.n.k.B     ",
"j     p u.n.n.n.n.n.n.n.n.n.n.n.n.n.n.n.) +     ",
"j       p t.n.n.n.n.n.n.n.n.n.n.n.n.n.^ %       ",
"j         5 +.k.n.n.n.n.n.n.n.n.n.8.x X         ",
"j           + i ] u.n.n.n.n.j.;.B ;             ",
"D 8 8 8 8 8 8 8 q y l H L M p r 8 8 8 8 8 8 8 8 "
};
