/* XPM */
static char *IconMerge.gif[] = {
/* columns rows colors chars-per-pixel */
"52 64 33 1",
"  c #232021",
". c #939597",
"X c #636466",
"o c #636467",
"O c #C6C8CA",
"+ c #929597",
"@ c #242021",
"# c #929497",
"$ c #C7C8CA",
"% c #636567",
"& c #C7C9CB",
"* c #646567",
"= c #474648",
"- c #474748",
"; c #E1E2E3",
": c #C7C9CA",
"> c #474749",
", c #232020",
"< c #939598",
"1 c #231F20",
"2 c gray100",
"3 c gray100",
"4 c black",
"5 c black",
"6 c black",
"7 c black",
"8 c black",
"9 c black",
"0 c black",
"q c black",
"w c black",
"e c black",
"r c None",
/* pixels */
"rrrrrrrrrrrrrr111@1,1, 11111111 1111111 11111 1 1 rr",
"rrrrrrrrrrrrrr 11@ 11 1111,1111111,111111111@111,1rr",
"rrrrrrrrrrrrrr11=+.<<<<<.<<<<<.<<<<<<<.<<<#<<<<%11rr",
"rrrrrrrrrrrrrr 1o222222222222222222222222222222<, rr",
"rrrrrrrrrrrrrr11o222222222222222222222222222222<,1rr",
"rrrrrrrrrrrrrr,1X222222222222222222222222222222<1@rr",
"rrrrrrrrrrrrrr, *222222222222222222222222222222<11rr",
"rrrrrrrrrrrrrr11%222222222222222222222222222222#1,rr",
"rrrrrrrrrrrrrr11o222222222222222222222222222222+11rr",
"rrrrrrrrrrrrrr@1X222222222222222222222222222222<11rr",
"rrrrrrrrrrrrrr11%222222222222222222222222222222+1 rr",
"rrrrrrrrrrrrrr,1X222222222222222222222222222222<11rr",
"rrrrrrrrrrrrrr,1X222222222222222222222222222222<,1rr",
"rr11111111 11, 1%222222222222222222222222222222.11rr",
"rr1111111,111111o222222222222222222222222222222.1 rr",
"rr,11, 11111111,o222222222222222222222222222222< 1rr",
"rr1,<22222222$11o222222222222222222222222222222<1 rr",
"rr11.22222222O1,X222222222222222222222222222222<1 rr",
"rr  .22222222O11o222222222222222222222222222222<11rr",
"rr11<22222222O11X222222222222222222222222222222#11rr",
"rr@1<22222222$1 o222222222222222222222222222222.11rr",
"rr11<22222222:11%222222222222222222222222222222+11rr",
"rr,1#22222222O,1*222222222222222222222222222222#11rr",
"rr 1<22222222&1,X222222222222222222222222222222. 1rr",
"rr, <22222222O,1X222222222222222222222222222222<1@rr",
"rr11<22222222O  X222222222222222222222222222222+,1rr",
"rr,1#22222222O11o222222222222222222222222222222.11rr",
"rr@1<22222222O11%222222222222222222222222222222<11rr",
"rr1 <22222222O11o222222222222222222222222222222<11rr",
"rr11<22222222O11X222222222222222222222222222222<11rr",
"rr11.22222222$, %222222222222222222222222222222<11rr",
"rr1 #22222222&@@X222222222222222222222222222222<11rr",
"rr1@<22222222O,1X222222222222222222222222222222+11rr",
"rr1,<22222222O1,o222222222222222222222222222222<11rr",
"rr11+22222222O,,o222222222222222222222222222222+11rr",
"rr11<22222222$11%222222222222222222222222222222+11rr",
"rr1 <22222222O,1X222222222222222222222222222222< 1rr",
"rr11<22222222$11o222222222222222222222222222222<11rr",
"rr11<22222222O 1o222222222222222222222222222222<  rr",
"rr1 <22222222&11X222222222222222222222222222222.,1rr",
"rr 1.22222222$11X222222222222222222222222222222<@1rr",
"rr11<22222222O11o222222222222222222222222222222.11rr",
"rr11<22222222O,1o222222222222222222222222222222<11rr",
"rr11#22222222$11o222222222222222222222222222222.11rr",
"rr,1<22222222O11X222222222222222222222222222222#,1rr",
"rr11<22222222$11o222222222222222222222222222222<11rr",
"rr11<22222222O11X222222222222222222222222222222.,,rr",
"rr1 .22222222$11X222222222222222222222222222222.1,rr",
"rr11.22222222O,1-<<...+<.<<<<<<<<<.+.<.#<<..<<.X1 rr",
"rr1@.22222222$,11111,11 111 ,,111 111111111,1 ,@11rr",
"rr 1<22222222O111,11,11,,1,,111111111 1@,1,11,1,1 rr",
"rr11+22222222;+<+<+<<.#..+.<<....+<>11rrrrrrrrrrrrrr",
"rr 1.222222222222222222222222222222X11rrrrrrrrrrrrrr",
"rr11<222222222222222222222222222222o1 rrrrrrrrrrrrrr",
"rr,,.222222222222222222222222222222o11rrrrrrrrrrrrrr",
"rr11.222222222222222222222222222222o11rrrrrrrrrrrrrr",
"rr1,<222222222222222222222222222222X1,rrrrrrrrrrrrrr",
"rr1,<222222222222222222222222222222o, rrrrrrrrrrrrrr",
"rr11.222222222222222222222222222222X,1rrrrrrrrrrrrrr",
"rr11.222222222222222222222222222222X, rrrrrrrrrrrrrr",
"rr1 <222222222222222222222222222222o1,rrrrrrrrrrrrrr",
"rr  .222222222222222222222222222222X11rrrrrrrrrrrrrr",
"rr1111  1111111,1111,111 1@,1  1111,11rrrrrrrrrrrrrr",
"rr1, ,11111111@,11 1,11,111111,111,,,1rrrrrrrrrrrrrr"
};
