/* XPM */
static char *IconClanPan.gif[] = {
/* columns rows colors chars-per-pixel */
"64 64 17 1",
"  c gray100",
". c gray97",
"X c #EFEFEF",
"o c gray84",
"O c gray74",
"+ c gray68",
"@ c gray61",
"# c gray55",
"$ c #7B7B7B",
"% c gray39",
"& c gray29",
"* c #313131",
"= c #181818",
"- c gray3",
"; c cyan",
": c black",
"> c None",
/* pixels */
">>>>>>>>>>>>>>>>>>>>>>>>>>>>>>>>>>>>>>>>>>>>>>>>>>>>>>>>>>>>>>>>",
">>>>>>>>>>>>>>>>>>>>>>>>>>>>>>>>>>>>>>>>>>>>>>>>>>>>>>>>>>>>>>>>",
">>>>>>>>>>>>>>>>>>>>>>>>>>>>>>>>>>>>>>>>>>>>>>>>>>>>>>>>>>>>>>>>",
">>>>>>>>>>>>>>>>>>>>>>>>>>>>>>>>>>>>>>>>>>>>>>>>>>>>>>>>>>>>>>>>",
">>>>>>>>>>>>>>>>>>>>>>>>>>>>>>>>>>>>>>>>>>>>>>>>>>>>>>>>>>>>>>>>",
">>>>>>>>>>>>>>>>>>>>>>>>>>>>>>>>>>>>>>>>>>>>>>>>>>>>>>>>>>>>>>>>",
">>>>>>>>>>>>>>>>>>>>>>>>>>>>>>  .>>>>>>>>>>>>>>>>>>>>>>>>>>>>>>>",
">>>>>>>>>>>>>>>>>>>>>>>>>>>>> .X.>>>>>>>>>>>>>>>>>>>>>>>>>>>>>>>",
">>>>>>>>>>>>>>>>>>>>>>>>>>>>> +@ >>>>>>>>>>>>>>>>>>>>>>>>>>>>>>>",
">>>>>>>>>>>>>>>>>>>>>>>>>>>>> %& >>>>>>>>>>>>>>>>>>>>>>>>>>>>>>>",
">>>>>>>>>>>>>>>>>>>>>>>>>>>> X=-X >>>>>>>>>>>>>>>>>>>>>>>>>>>>>>",
">>>>>>>>>>>>>>>>>>>>>>>>>>>> +::@ >>>>>>>>>>>>>>>>>>>>>>>>>>>>>>",
">>>>>>>>>>>>>>>>>>>>>>>>     %::&        >>>>>>>>>>>>>>>>>>>>>>>",
">>>>>>>>>>>> X  X>> >>. .o@$*::::*#+X#%O   >>>. .>>>>>>>>>>>>>>>",
">>>>>>>>>>>> ++X  X    +*:::::-::-::-:=O   ..  XX >>>>>>>>>>>>>>",
">>>>>>>>>>>> O-&O    .@-:::::::::::-:-@       @&+.>>>>>>>>>>>>>>",
">>>>>>>>>>>>X %:-@ . .#-::::-::-:::-:%  ..  X*:&. >>>>>>>>>>>>>>",
">>>>>>>>>>>>> o-&    .&-=::::::-::::-@ .   Xo:-+ >>>>>>>>>>>>>>>",
">>>>>>>>>>>>>  o   .. #oO-::-:::::-:&X       :&  >>>>>>>>>>>>>>>",
">>>>>>>>>>>>      X   .  o=::--::::=@    . XO-O >>>>>>>>>>>>>>>>",
">>>>>>>>>>>>.   .      o  @=::::::-@    .   +:o >>>>>>>>>>>>>>>>",
">>>>>>>>>>>>. .    .      X*::::::- .  .   .#-*   >>>>>>>>>>>>>>",
">>>>>>>>>>>. X$oXX   ..    &:-::::&.        %::+X. >>>>>>>>>>>>>",
">>>>>>>>>>> $*%        ..  %==::-*@..  .X   &:-:*O >>>>>>>>>>>>>",
">>>>>>>>>>> ::*o o   .       X&:%     X  X+@*::::* >>>>>>>>>>>>>",
">>>>>>>>>>>.&::&@*%o  .    .  oOX    o# X&O::-:-:# >>>>>>>>>>>>>",
">>>>>>>>>>> #:::-::&o   .      .  .X ++o** ::::::o >>>>>>>>>>>>>",
">>>>>>>>>>> %:::::-:*%O              X #:$o:::::-@ >>>>>>>>>>>>>",
">>>>>>>>>>. *::::-::::&X  . .       . #::--:::-::$ >>>>>>>>>>>>>",
">>>>>>>>>  X-:-:-:-:-:-o           X X=:::::::::-*    >>>>>>>>>>",
">>>>>>   .@$:::::::--:-*X           X#:::::::::::-&@X    >>>>>>>",
">>>>   +&-:::::-:::::::-*.           @::-::::::::::::&+X  >>>>>>",
">>>> X$*:::::-:::-::::-:=X         X  %::::::::-:::--:-$o >>>>>>",
">>>>.   O$*-:::::::-:::=+          .. o&:-:::::-:-:-%+.   >>>>>>",
">>>>>>>   .O-:::-:::-::O               o&:::-::::=OX   >>>>>>>>>",
">>>>>>>>>> .*:-:::::::#X.+         X    +*:::::::&   >>>>>>>>>>>",
">>>>>>>>>>> %::::::-:&  $O         Oo .++o-:::::-# >>>>>>>>>>>>>",
">>>>>>>>>>> #-::::::-o Oo     .X    o   O#o::::::o >>>>>>>>>>>>>",
">>>>>>>>>>> $-::::::*o X     X+=%X.    . X@&::-::+ >>>>>>>>>>>>>",
">>>>>>>>>>>.&:::-::::@o      o=::%    oX$#X*::-::$ >>>>>>>>>>>>>",
">>>>>>>>>>> %=::-::::&O . o. &:-::*oo O&X%%.&::-:+ >>>>>>>>>>>>>",
">>>>>>>>>>> XO%::--::$. XX@ @:::-:::*@ #=@-*X*:%X  >>>>>>>>>>>>>",
">>>>>>>>>>>   O*::::$.+   .o=::::-::=o$.$-:-&$*X  >>>>>>>>>>>>>>",
">>>>>>>>>>>>>  $:::& O&#  .*::=::::-:#$%.&::$*o .>>>>>>>>>>>>>>>",
">>>>>>>>>>>>>> +-::OO-=...*::-::::-:-:=:*.&:@ X >>>>>>>>>>>>>>>>",
">>>>>>>>>>>>> .&::-&-=oo%=:::-:-::-:::::-=o*:+  .>>>>>>>>>>>>>>>",
">>>>>>>>>>>>> +::==:-+o=:::-:::::-:--:::::*%-:*+ .>>>>>>>>>>>>>>",
">>>>>>>>>>>>  *:*O+#@X&::--::-:--:-:::-::=#$=:%&X >>>>>>>>>>>>>>",
">>>>>>>>>>>> @-=+  . $::=:--::::::-::-::%X  X$o%O >>>>>>>>>>>>>>",
">>>>>>>>>>>> $$o  >> O:::-::::--::::-::%X   . .$% >>>>>>>>>>>>>>",
">>>>>>>>>>>> o   >>> .$-%$&-=::-:-=&#$%+  >>>>  o >>>>>>>>>>>>>>",
">>>>>>>>>>>>   >>>>>> .. .  o=::=o .  .  >>>>>>.  >>>>>>>>>>>>>>",
">>>>>>>>>>>>>>>>>>>>>>>>>>>  &:-&  >>>>>>>>>>>>>>>>>>>>>>>>>>>>>",
">>>>>>>>>>>>>>>>>>>>>>>>>>>>.@::+ >>>>>>>>>>>>>>>>>>>>>>>>>>>>>>",
">>>>>>>>>>>>>>>>>>>>>>>>>>>> o-:X >>>>>>>>>>>>>>>>>>>>>>>>>>>>>>",
">>>>>>>>>>>>>>>>>>>>>>>>>>>>  &&  >>>>>>>>>>>>>>>>>>>>>>>>>>>>>>",
">>>>>>>>>>>>>>>>>>>>>>>>>>>>> +@ >>>>>>>>>>>>>>>>>>>>>>>>>>>>>>>",
">>>>>>>>>>>>>>>>>>>>>>>>>>>>>.XX >>>>>>>>>>>>>>>>>>>>>>>>>>>>>>>",
">>>>>>>>>>>>>>>>>>>>>>>>>>>>>    >>>>>>>>>>>>>>>>>>>>>>>>>>>>>>>",
">>>>>>>>>>>>>>>>>>>>>>>>>>>>>>>>>>>>>>>>>>>>>>>>>>>>>>>>>>>>>>>>",
">>>>>>>>>>>>>>>>>>>>>>>>>>>>>>>>>>>>>>>>>>>>>>>>>>>>>>>>>>>>>>>>",
">>>>>>>>>>>>>>>>>>>>>>>>>>>>>>>>>>>>>>>>>>>>>>>>>>>>>>>>>>>>>>>>",
">>>>>>>>>>>>>>>>>>>>>>>>>>>>>>>>>>>>>>>>>>>>>>>>>>>>>>>>>>>>>>>>",
">>>>>>>>>>>>>>>>>>>>>>>>>>>>>>>>>>>>>>>>>>>>>>>>>>>>>>>>>>>>>>>>"
};
