/* XPM */
static char *Discipline CEL[] = {
/* columns rows colors chars-per-pixel */
"24 24 104 2",
"   c #002900290029",
".  c #018601860186",
"X  c #028202820282",
"o  c #03BF03BF03BF",
"O  c #048E048E048E",
"+  c #056D056D056D",
"@  c #063106310631",
"#  c #072C072C072C",
"$  c #08B608B608B6",
"%  c #094A094A094A",
"&  c #0A1D0A1D0A1D",
"*  c #0B460B460B46",
"=  c #0D200D200D20",
"-  c #0E850E850E85",
";  c #0FA60FA60FA6",
":  c #116211621162",
">  c #125212521252",
",  c #156815681568",
"<  c #183618361836",
"1  c #1BE81BE81BE8",
"2  c #1C351C351C35",
"3  c #1F951F951F95",
"4  c #23C023C023C0",
"5  c #24BD24BD24BD",
"6  c #262026202620",
"7  c #287D287D287D",
"8  c #29F529F529F5",
"9  c #316331633163",
"0  c #35AE35AE35AE",
"q  c #370937093709",
"w  c #3A123A123A12",
"e  c #407E407E407E",
"r  c #42B942B942B9",
"t  c #44FD44FD44FD",
"y  c #4F734F734F73",
"u  c #517951795179",
"i  c #52EF52EF52EF",
"p  c #53D253D253D2",
"a  c #5AED5AED5AED",
"s  c #5C245C245C24",
"d  c #5CD25CD25CD2",
"f  c #5DC15DC15DC1",
"g  c #5ED05ED05ED0",
"h  c #602F602F602F",
"j  c #60B360B360B3",
"k  c #6FB56FB56FB5",
"l  c #72CE72CE72CE",
"z  c #754875487548",
"x  c #757D757D757D",
"c  c #7DF27DF27DF2",
"v  c #80CF80CF80CF",
"b  c #849784978497",
"n  c #89B689B689B6",
"m  c #8C258C258C25",
"M  c #8CE98CE98CE9",
"N  c #909290929092",
"B  c #943994399439",
"V  c #981698169816",
"C  c #99C199C199C1",
"Z  c #9C569C569C56",
"A  c #9DF49DF49DF4",
"S  c #A08DA08DA08D",
"D  c #A24BA24BA24B",
"F  c #A34BA34BA34B",
"G  c #A44DA44DA44D",
"H  c #A54EA54EA54E",
"J  c #B2CBB2CBB2CB",
"K  c #B49BB49BB49B",
"L  c #C131C131C131",
"P  c #C21CC21CC21C",
"I  c #C3FEC3FEC3FE",
"U  c #C8FBC8FBC8FB",
"Y  c #CE0BCE0BCE0B",
"T  c #CEF2CEF2CEF2",
"R  c #D59FD59FD59F",
"E  c #D672D672D672",
"W  c #D7FFD7FFD7FF",
"Q  c #D951D951D951",
"!  c #DA30DA30DA30",
"~  c #DB15DB15DB15",
"^  c #DCF3DCF3DCF3",
"/  c #E0BCE0BCE0BC",
"(  c #E36AE36AE36A",
")  c #E4A4E4A4E4A4",
"_  c #E517E517E517",
"`  c #EB8CEB8CEB8C",
"'  c #ED89ED89ED89",
"]  c #EE4CEE4CEE4C",
"[  c #F176F176F176",
"{  c #F299F299F299",
"}  c #F3B1F3B1F3B1",
"|  c #F446F446F446",
" . c #F57EF57EF57E",
".. c #F62AF62AF62A",
"X. c #F77CF77CF77C",
"o. c #F870F870F870",
"O. c #F965F965F965",
"+. c #FA8CFA8CFA8C",
"@. c #FB74FB74FB74",
"#. c #FC6FFC6FFC6F",
"$. c #FD6FFD6FFD6F",
"%. c #FE6EFE6EFE6E",
"&. c #FF73FF73FF73",
"*. c gray100",
/* pixels */
"%.%.%.%.%.%.%.%.%.%.%.%.%.%.%.%.%.%.%.@.@.%.%.%.",
"%.I f f f a j f f f f f f f f f f j j f f f B @.",
"%.D X X X X X X X # : q q q q q w 5 X X X X a %.",
"%.D X X X X X X X # z ' ' ' ' ' Q u X X X X a %.",
"%.D X X X X X X X 1 Y @.%.%.%.[ k X X X X X j %.",
"%.D X X X X X X # b %.%.%.%. .z # # X X X X f %.",
"%.D X X X X X X 9 / @.@.%.%./ Z B N C 7 X X f %.",
"%.D X X X X X X C @.%.%.%.%.%.%.@.@.l # X X j %.",
"%.D X X X X X 8 U Q Q Q  .@.@.%.[ c & X X X j %.",
"%.Z X X X X X ; 5 4 4 y ' @.%.' c # X X X X f %.",
"%.D X X X X X X X # 1 I @.@.[ v & # X X X X f %.",
"%.D X X X X X X X ; Z %.%.@.^ B M m 2 X X X f %.",
"%.D X X X X X X & m %.%.@.%.@.%.@.b X X X X j %.",
"%.D X X X X X X e I Y Y [ %.@.@.C ; # X X X f %.",
"%.D X X X X X X : 2 1 e  . . .J 2 # X X X X j %.",
"%.Z X X X X X X X # , K %.@.I 7 X X X X X X f %.",
"%.D X X X X X X X & b %.%.R q X X X X X X X f %.",
"%.D X X X X X X # u [ @.` t # X X X X X X X f %.",
"%.D X X X X X X 5 R %.[ u X X X X X X X X X f %.",
"%.D X X X X X & G %. .l & X # X X X X X X X j %.",
"%.D X X X X X a / _ M # X X X X X X X X X X f %.",
"@.D X X X X X 5 q q ; X X X X X X X X X X X f %.",
"%.R D G D G D D G G G G D G G D D D G G D D I @.",
"%.@.%.%.%.%.%.%.%.%.%.%.%.%.%.%.%.%.%.%.%.@.%.@."
};
