/* XPM */
static char *IconBurn.gif[] = {
/* columns rows colors chars-per-pixel */
"42 42 16 1",
"  c gray100",
". c gray3",
"X c #181818",
"o c gray13",
"O c #313131",
"+ c #393939",
"@ c gray32",
"# c #5A5A5A",
"$ c gray42",
"% c #848484",
"& c gray61",
"* c gray71",
"= c #CECECE",
"- c #E7E7E7",
"; c gray97",
": c black",
/* pixels */
"                                          ",
"                                          ",
"  #OOOOOOOOOOOOOOOOOOOOOOOOOOOOOOOOOOOO@; ",
"  o::::::::::::::::::::::::::::::::::::.; ",
"  O::::::::::::::::::::::::::::::::::::X; ",
"  O::::::::::::::::+#::::::::::::::::::X; ",
"  O:::::::::::::::@-+:::.+:::::::::::::X; ",
"  O::::::::::::::@ *::::O&:::::::::::::X; ",
"  O:::::::::::::o- #::::#=:::::::::::::X; ",
"  O:::::::::X:::&  +::::%-.::::::::::::X; ",
"  O:::::::::@o::=  @::::=-:::::::::::::X; ",
"  O:::::+.::@%::=  &:::O *:::::::::::::X; ",
"  O::::.%.::@-.:&  ;@::* $:::::::::::::X; ",
"  O::::o*:::@ @:@   ;%& *::::::::::::::X; ",
"  O::::$-:::@ &::=     $X.::::#X:::.o::X; ",
"  O::::& .::$ -.:@   -+o%.:.:#*::::o$::X; ",
"  O::::= @::*  @::= ;+.-$:.o.-%::::#&::X; ",
"  O:::.- =o@  &o::+ &:% o:@+# $::::*=::X; ",
"  O:::X;     $:+:::*$:* &%=.& =.::$ *::X; ",
"  O:::.-    $.* &::$#:&   %:&  =&*  &::X; ",
"  O::::$   $.*   *ooo:% &#::#      ;+::X; ",
"  O:::::% %:*     -+::%*::::X;   =&+:::X; ",
"  O::::::@.*       ;#:$$::::o; *+.:::::X; ",
"  O:::::::&          %.:::::@ &::::::::X; ",
"  O:::::.&            *X::::& #::::::::X; ",
"  O:::::*              =+::@- #::::::::X; ",
"  O::::.=               ;#:&  $::::::::X; ",
"  O:::::.&                %:$ %::::::::X; ",
"  O:::::::%                *.#$::::::::X; ",
"  O::::::::@-               =o:::::::::X; ",
"  O:::::::::O=               @:::::::::X; ",
"  O::::::::::.&             $::::::::::X; ",
"  O::::::::::::%           #:::::::::::X; ",
"  O:::::::::::::@-        %::::::::::::X; ",
"  O::::::::::::::O=      %:::::::::::::X; ",
"  O:::::::::::::::.*    %::::::::::::::X; ",
"  O:::::::::::::::::%  %:::::::::::::::X; ",
"  O::::::::::::::::::@#::::::::::::::::X; ",
"  o::::::::::::::::::::::::::::::::::::X; ",
"  @XXXXXXXXXXXXXXXXXXXXXXXXXXXXXXXXXXXX+; ",
"   ;;;;;;;;;;;;;;;;;;;;;;;;;;;;;;;;;;;;;  ",
"                                          "
};
