/* XPM */
static char *IconClanBruA.gif[] = {
/* columns rows colors chars-per-pixel */
"64 64 17 1",
"  c gray100",
". c gray97",
"X c gray87",
"o c #C6C6C6",
"O c gray74",
"+ c #A5A5A5",
"@ c gray58",
"# c #848484",
"$ c gray42",
"% c #5A5A5A",
"& c gray32",
"* c #393939",
"= c gray13",
"- c gray3",
"; c cyan",
": c black",
"> c None",
/* pixels */
">>>>>>>>>>>>>>>>>>>>>>>>>>>>>>>>>>>>>>>>>>>>>>>>>>>>>>>>>>>>>>>>",
">>>>>>>>>>>>>>>>>>>>>>>>>>>>>>>>>>>>>>>>>>>>>>>>>>>>>>>>>>>>>>>>",
">>>>>>>>>>>>>>>>>>>>>>>>>>>>>>>>>>>>>>>>>>>>>>>>>>>>>>>>>>>>>>>>",
">>>>>>>>>>>>>>>>>>>>>>>>>>>>>>>>>>>>>>>>>>>>>>>>>>>>>>>>>>>>>>>>",
">>>>>>>>>>>>>>>>>>>>>>>>>>>>>>>>>>>>>>>>>>>>>>>>>>>>>>>>>>>>>>>>",
">>>>>>>>>>>>>>>>>>>>>>>>>>>>>>>>>>>>>>>>>>>>>>>>>>>>>>>>>>>>>>>>",
">>>>>>>>>>>>>>>>>>>>>>>>>>>>>>>>>>>>>>>>>>>>>>>>>>>>>>>>>>>>>>>>",
">>>>>>>>>>>>>>>>>>>>>>>>>>>>>>>>>>>>>>>>>>>>>>>>   >>>>>>>>>>>>>",
">>>>>>>>>>>>>>>>>>>>>>>>>>>>>   >>>>>>>>>>>>>>>  . >>>>>>>>>>>>>",
">>>>>>>>>>>>>> .. >>>>>>>>>>> o >>>>>>>>>>>>>>> .o.>>>>>>>>>>>>>",
">>>>>>>>>>>>>>.Xo.>>>>>>>>>>..$X>>>>>>>>>>>>>>  XO.>>>>>>>>>>>>>",
">>>>>>>>>>>>>> oo  >>>>>>>>>.o-..>>>>>>>>>>>>  XO+ >>>>>>>>>>>>>",
">>>>>>>>>>>>>>  oo.>>>>>>>>> $:@ >>>>>>>>>>>  .oXX >>>>>>>>>>>>>",
">>>>>>>>>>>>>>>.oO  >>>>>>>  =:%  >>>>>>>>>> XoXo  >>>>>>>>>>>>>",
">>>>>>>>>>>>>>> +Xo >  .   .o::-X    .  >>>  OX.O  >>>>>>>>>>>>>",
">>>>>>>>>>>>> ..o.o. .%=%$==-:::--*$=-+ >>. oX oX. >>>>>>>>>>>>>",
">>>>>>>>>>>>>.#%@ .+ .-:-::===-:::--::#. > .o .o   >>>>>>>>>>>>>",
">>>>>>>>>>>>> o-:X o+*:-==X   .X+@&--::%X XO..X. >>>>>>>>>>>>>>>",
">>>>>>>>>>>>>  &:#  #:-@             +=:=@*@  o. >>>>>>>>>>>>>>>",
">>>>>>>>>>>>>> X:*  .@X     XoX..  .   &-:* .XX .>>>>>>>>>>>>>>>",
">>>>>>>>>>>>>>> $:.  .   #-::::-$X     X+-X  oX >>>>>>>>>>>>>>>>",
">>>>>>>>>>>>>>. #:X  ..O&::::::::*%O*X  X+ .O.  >>>>>>>>>>>>>>>>",
">>>>>>>>>>>>>> @:@.. X#-::::::--:::-:-o .  .%X >>>>>>>>>>>>>>>>>",
">>>>>>>>>>>>  .*=.X   O::::::::::::::--X.  o%#.  >>>>>>>>>>>>>>>",
">>>>>>>>>>>>.*::$      *:-:::::::::::*:-   #-:-+ >>>>>>>>>>>>>>>",
">>>>>>>>>>>> -::#  %.  #-:-::-:::::::#-@. .o--:$ >>>>>>>>>>>>>>>",
">>>>>>>>>>>> %:-  .-X. #-::::::::::-=+&.   X#:-o >>>>>>>>>>>>>>>",
">>>>>>>>>>>> $:%  o:# .$:::::::::::-$.X  @  O*=X  >>>>>>>>>>>>>>",
">>>>>>>>>>>> *:# .X:$  o@--::-:::::-$.        .O+ >>>>>>>>>>>>>>",
">>>>>>>>>>> .:-o  @:=X.XO&&--::::=$+X .    X X#&O >>>>>>>>>>>>>>",
">>>>>>>  . X+::X  &::+  . o**=*+   .    .oX .*-=+X   >>>>>>>>>>>",
">>>>>>  X+*--::X  *:&.     . OX .    . .@:#  #$-::%+. .>>>>>>>>>",
">>>>>> O*:-::-:. .**O .      O.   O... =::#..#$::-::*O >>>>>>>>>",
">>>>>>  .o%*-:-X  X   .    o$-#$=-=X   ::-#  +$::=$o  .>>>>>>>>>",
">>>>>>>>   .@*$.         o=:-:-:::O ..X:-- . o==X    >>>>>>>>>>>",
">>>>>>>>> X@@  .     X.   o:-:-::$    &::#   #:#. >>>>>>>>>>>>>>",
">>>>>>>   o#X .X .X#&%Xo  .%::::=o . +-:-X  O=:O >>>>>>>>>>>>>>>",
">>>>>>  Xo+oo#=+   #:#$*   @::::# .  %::-  .%:-o >>>>>>>>>>>>>>>",
">>>>>> o@@oX@&::+  X-%::.  @-::=X   o=::%   %::@.>>>>>>>>>>>>>>>",
">>>>>>  .  ..*::=   $::-+. #-::%  X%*::$.  X*::@.>>>>>>>>>>>>>>>",
">>>>>>>>>>>>XX#-:O  o&-:*  @:::+ . =-:&.   #:*#. >>>>>>>>>>>>>>>",
">>>>>>>>>>>> . $-=X ..%-:  X--*.  +-::#.. O=-o  >>>>>>>>>>>>>>>>",
">>>>>>>>>>>>>> X=- . . @:+  =:@ .X-:=@.  .-:$ .>>>>>>>>>>>>>>>>>",
">>>>>>>>>>>>>>  $:%X.   .$ .@-  X&&@  . X*::@.>>>>>>>>>>>>>>>>>>",
">>>>>>>>>>>>>> X*::**o  . . X@  X+X   .@=:::=  >>>>>>>>>>>>>>>>>",
">>>>>>>>>>>>>> #:::-:-+        .   . .#-:::::+ >>>>>>>>>>>>>>>>>",
">>>>>>>>>>>>> X-:=%+*-:$X          O$=::$X&=:=  >>>>>>>>>>>>>>>>",
">>>>>>>>>>>>> #=$o . #::-%*+ . o+&=-::&O   o%=#.>>>>>>>>>>>>>>>>",
">>>>>>>>>>>>>.#O.  > X=::::%.  *:::::-#  >   o@ >>>>>>>>>>>>>>>>",
">>>>>>>>>>>>> .  >>>> O#o.@@X #:=#O.O+  >>>>  . >>>>>>>>>>>>>>>>",
">>>>>>>>>>>>>>>>>>>>>     X#OX:-o      >>>>>>>>>>>>>>>>>>>>>>>>>",
">>>>>>>>>>>>>>>>>>>>>>>>> ooO%-=  >>>>>>>>>>>>>>>>>>>>>>>>>>>>>>",
">>>>>>>>>>>>>>>>>>>>>>>>> XOO%:$ >>>>>>>>>>>>>>>>>>>>>>>>>>>>>>>",
">>>>>>>>>>>>>>>>>>>>>>>>> O+X+:o >>>>>>>>>>>>>>>>>>>>>>>>>>>>>>>",
">>>>>>>>>>>>>>>>>>>>>>>>> Xo .*. >>>>>>>>>>>>>>>>>>>>>>>>>>>>>>>",
">>>>>>>>>>>>>>>>>>>>>>>>>  .  O >>>>>>>>>>>>>>>>>>>>>>>>>>>>>>>>",
">>>>>>>>>>>>>>>>>>>>>>>>>>>>>   >>>>>>>>>>>>>>>>>>>>>>>>>>>>>>>>",
">>>>>>>>>>>>>>>>>>>>>>>>>>>>>>>>>>>>>>>>>>>>>>>>>>>>>>>>>>>>>>>>",
">>>>>>>>>>>>>>>>>>>>>>>>>>>>>>>>>>>>>>>>>>>>>>>>>>>>>>>>>>>>>>>>",
">>>>>>>>>>>>>>>>>>>>>>>>>>>>>>>>>>>>>>>>>>>>>>>>>>>>>>>>>>>>>>>>",
">>>>>>>>>>>>>>>>>>>>>>>>>>>>>>>>>>>>>>>>>>>>>>>>>>>>>>>>>>>>>>>>",
">>>>>>>>>>>>>>>>>>>>>>>>>>>>>>>>>>>>>>>>>>>>>>>>>>>>>>>>>>>>>>>>",
">>>>>>>>>>>>>>>>>>>>>>>>>>>>>>>>>>>>>>>>>>>>>>>>>>>>>>>>>>>>>>>>",
">>>>>>>>>>>>>>>>>>>>>>>>>>>>>>>>>>>>>>>>>>>>>>>>>>>>>>>>>>>>>>>>"
};
