/* XPM */
static char *IconClanTre.gif[] = {
/* columns rows colors chars-per-pixel */
"64 64 17 1",
"  c gray100",
". c gray97",
"X c #E7E7E7",
"o c gray84",
"O c gray74",
"+ c #A5A5A5",
"@ c gray55",
"# c #848484",
"$ c gray45",
"% c gray39",
"& c gray29",
"* c gray26",
"= c #181818",
"- c gray3",
"; c cyan",
": c black",
"> c None",
/* pixels */
">>>>>>>>>>>>>>>>>>>>>>>>>>>>>>>>>>>>>>>>>>>>>>>>>>>>>>>>>>>>>>>>",
">>>>>>>>>>>>>>>>>>>>>>>>>>>>>>>>>>>>>>>>>>>>>>>>>>>>>>>>>>>>>>>>",
">>>>>>>>>>>>>>>>>>>>>>>>>>>>>>>>>>>>>>>>>>>>>>>>>>>>>>>>>>>>>>>>",
">>>>>>>>>>>>>>>>>>>>>>>>>>>>>>>>>>>>>>>>>>>>>>>>>>>>>>>>>>>>>>>>",
">>>>>>>>>>>>>>>>>>>>>>>>>>>>>>>>>>>>>>>>>>>>>>>>>>>>>>>>>>>>>>>>",
">>>>>>>>>>>>>>>>>>>>>>>>>>>>>>>>>>>>>>>>>>>>>>>>>>>>>>>>>>>>>>>>",
">>>>>>>>>>>>>>>>>>>>>>>>>>>>>>>>>>>>>>>>>>>>>>>>>>>>>>>>>>>>>>>>",
">>>>>>>>>>>>>>>>>>>>>>>>>>>>>>>>>>>>>>>>>>>>>>>>>>>>>>>>>>>>>>>>",
">>>>>>>>>>>>>>>>>>>>>>>>>>>>>>>.    .              .  X  >>>>>>>",
">>>>>>>>>>>>>>>>>>>>>>>>>>>>>>>O***********************% >>>>>>>",
">>>>>>>>>>>>>>>>>>>>>>>>>>>>>>>.%::-::--:::::::::::::::* >>>>>>>",
">>>>>>>>>>>>>>>>>>>>>>>>>>>>>>>X.%-:::::::::::::::::::-* >>>>>>>",
">>>>>>>>>>>>>>>>>>>>>>>>>>>>>>>> X%::-:::::::::::::::::* >>>>>>>",
">>>>>>>>>>>>>>>>>>>>>>>>    .   . .%:::-::::::::::-:-::* >>>>>>>",
">>>>>>>>>>>>>>>>>>>> .Xo+@$&&%$@oo X%-:::::::::::::::::* >>>>>>>",
">>>>>>>>>>>>>>>>>> .O$=::::::::::-*@X@-::::::::::::::::* >>>>>>>",
">>>>>>>>>>>>>>>>  O*::::::::::::::::-&&-:::::::::::::::* >>>>>>>",
">>>>>>>>>>>>>>> X%::-::-::::::::::-:::=::::::::::::::::* >>>>>>>",
">>>>>>>>>>>>>> +-::::::-::-::-:::::-:::::::::::::::::::* >>>>>>>",
">>>>>>>>>>>> X+-:::::-*@oX    Xo#&-::::::::::::::::::::* >>>>>>>",
">>>>>>>>>>>  $-::::-$o     ..     .+*::::::::::::::::::* >>>>>>>",
">>>>>>>>>>> #-:::-$X                X+&::::::::::::::::* >>>>>>>",
">>>>>>>>>> +::-:-@  ..                o$-::::::::::::::* >>>>>>>",
">>>>>>>>> o=:-::*****************%##$#@$=-:::::::::::::* >>>>>>>",
">>>>>>>>> %-:::*O-::::::::::::::::::::::*o-:-:-:-:::::-* >>>>>>>",
">>>>>>>> X-::-=o+::-::::::::::::::::::::*.$:::-&:::-:-:& >>>>>>>",
">>>>>>>> %:-:-$ @:::::::::::::::::::::::* X*::-$%-::::-* >>>>>>>",
">>>>>>>>.::-:-o $:::::-:::::::::::::::::*. @:::=X%::::-* >>>>>>>",
">>>>>>> +:-::%  $:::::::::::::::::::::::*. X-:::OX&::::* >>>>>>>",
">>>>>>> *:::-o  $:::::::::::::::::::::::* X *:::* o*-:-* >>>>>>>",
">>>>>>>X::::=  .$:::::::::::::::::::::::* . @::--  o*:-* >>>>>>>",
">>>>>>Xo::-:%   $:::-:::::::::::::::::::*   O:::-o> X*:* >>>>>>>",
">>>>>> #::::+.  #:::::::::::::::::::::::*.   ::::O > X&= >>>>>>>",
">>>>>> #::::O   #:::::::::::::::::::::::*    ::::@ >> O+ >>>>>>>",
">>>>>> $:::-O   #:::::::::::::::::::::::*    ::::$ >>>>>>>>>>>>>",
">>>>>> $::::O . #:::::::::::::::::::::::*    -:::# >>>>>>>>>>>>>",
">>>>>> $::::O . #:::::::::::::::::::::::*   .-:::@ >>>>>>>>>>>>>",
">>>>>> @:::-O   #:::::::::::::::::::::::&   o-:::@ >>>>>>>>>>>>>",
">>>>>>>O::::O   #:::::::::::::::::::::::%   O:::-O >>>>>>>>>>>>>",
">>>>>>>o::::+.  #:::::::::::::::::::::::#  .+:-::o>>>>>>>>>>>>>>",
">>>>>>> =:-:%   #:::-:::::::::::::::::::# . *:::=X>>>>>>>>>>>>>>",
">>>>>>> %:::=.. #-::::::::::::::::::::::@  .::-:% >>>>>>>>>>>>>>",
">>>>>>> O::-:O  $::::-::::::::::::::::::$  #-:::O >>>>>>>>>>>>>>",
">>>>>>>> =:::%  #::::::-::::::::::::::::$ .*::-=.>>>>>>>>>>>>>>>",
">>>>>>>> #::--O #::-::::::::::::::::::::# #-:-:@ >>>>>>>>>>>>>>>",
">>>>>>>> X=:-:&X$:::::::::::::::::::::::@o=:-:=  >>>>>>>>>>>>>>>",
">>>>>>>>> +=:::$==::-:-:::::::::::::::::$*:::-O >>>>>>>>>>>>>>>>",
">>>>>>>>>> *::::-+OOO##$################=::::* >>>>>>>>>>>>>>>>>",
">>>>>>>>>> o=:-::*+  .                X+::-:=o >>>>>>>>>>>>>>>>>",
">>>>>>>>>>> O*:--:-%o  X             o%:-::*O >>>>>>>>>>>>>>>>>>",
">>>>>>>>>>>> O*::::--&O .         XO%-::::*O >>>>>>>>>>>>>>>>>>>",
">>>>>>>>>>>>> O=-:::::--%$+OOOOO@%=-:::::*O >>>>>>>>>>>>>>>>>>>>",
">>>>>>>>>>>>>> o=:::::::::::::::::::-:::%o >>>>>>>>>>>>>>>>>>>>>",
">>>>>>>>>>>>>>>  @=::::::::::::-::--::*+X >>>>>>>>>>>>>>>>>>>>>>",
">>>>>>>>>>>>>>>>   O*::::::::::::-::*+X >>>>>>>>>>>>>>>>>>>>>>>>",
">>>>>>>>>>>>>>>>>>> .o@*--:::::::*@o  >>>>>>>>>>>>>>>>>>>>>>>>>>",
">>>>>>>>>>>>>>>>>>>>>   .XoOOOOo    >>>>>>>>>>>>>>>>>>>>>>>>>>>>",
">>>>>>>>>>>>>>>>>>>>>>>>>>>>>>>>>>>>>>>>>>>>>>>>>>>>>>>>>>>>>>>>",
">>>>>>>>>>>>>>>>>>>>>>>>>>>>>>>>>>>>>>>>>>>>>>>>>>>>>>>>>>>>>>>>",
">>>>>>>>>>>>>>>>>>>>>>>>>>>>>>>>>>>>>>>>>>>>>>>>>>>>>>>>>>>>>>>>",
">>>>>>>>>>>>>>>>>>>>>>>>>>>>>>>>>>>>>>>>>>>>>>>>>>>>>>>>>>>>>>>>",
">>>>>>>>>>>>>>>>>>>>>>>>>>>>>>>>>>>>>>>>>>>>>>>>>>>>>>>>>>>>>>>>",
">>>>>>>>>>>>>>>>>>>>>>>>>>>>>>>>>>>>>>>>>>>>>>>>>>>>>>>>>>>>>>>>",
">>>>>>>>>>>>>>>>>>>>>>>>>>>>>>>>>>>>>>>>>>>>>>>>>>>>>>>>>>>>>>>>"
};
