/* XPM */
static char *IconClanBBr.gif[] = {
/* columns rows colors chars-per-pixel */
"64 64 257 2",
"   c gray100",
".  c #FEFEFE",
"X  c #FDFDFD",
"o  c gray99",
"O  c #FBFBFB",
"+  c gray98",
"@  c #F9F9F9",
"#  c #F8F8F8",
"$  c gray97",
"%  c #F6F6F6",
"&  c gray96",
"*  c #F4F4F4",
"=  c #F3F3F3",
"-  c gray95",
";  c #F1F1F1",
":  c gray94",
">  c #EFEFEF",
",  c #EEEEEE",
"<  c gray93",
"1  c #ECECEC",
"2  c gray92",
"3  c #EAEAEA",
"4  c #E9E9E9",
"5  c gray91",
"6  c #E7E7E7",
"7  c #E6E6E6",
"8  c gray90",
"9  c #E4E4E4",
"0  c gray89",
"q  c #E2E2E2",
"w  c #E1E1E1",
"e  c gray88",
"r  c #DFDFDF",
"t  c gray87",
"y  c #DDDDDD",
"u  c gainsboro",
"i  c gray86",
"p  c #DADADA",
"a  c gray85",
"s  c #D8D8D8",
"d  c #D7D7D7",
"f  c gray84",
"g  c gray83",
"h  c LightGray",
"j  c #D2D2D2",
"k  c gray82",
"l  c #D0D0D0",
"z  c gray81",
"x  c #CECECE",
"c  c #CDCDCD",
"v  c gray80",
"b  c #CBCBCB",
"n  c #CACACA",
"m  c gray79",
"M  c #C8C8C8",
"N  c gray78",
"B  c #C6C6C6",
"V  c #C5C5C5",
"C  c gray77",
"Z  c #C3C3C3",
"A  c gray76",
"S  c #C1C1C1",
"D  c #C0C0C0",
"F  c gray75",
"G  c gray",
"H  c #BBBBBB",
"J  c gray73",
"K  c #B9B9B9",
"L  c gray72",
"P  c #B7B7B7",
"I  c #B6B6B6",
"U  c gray71",
"Y  c #B4B4B4",
"T  c gray70",
"R  c #B2B2B2",
"E  c #B1B1B1",
"W  c gray69",
"Q  c #AFAFAF",
"!  c gray68",
"~  c #ACACAC",
"^  c #AAAAAA",
"/  c #A9A9A9",
"(  c gray66",
")  c #A7A7A7",
"_  c #A5A5A5",
"`  c #A4A4A4",
"'  c gray64",
"]  c #A2A2A2",
"[  c gray63",
"{  c #A0A0A0",
"}  c #9F9F9F",
"|  c #9D9D9D",
" . c gray61",
".. c #9B9B9B",
"X. c #9A9A9A",
"o. c gray60",
"O. c #989898",
"+. c #959595",
"@. c gray58",
"#. c #939393",
"$. c #929292",
"%. c gray57",
"&. c #909090",
"*. c #8E8E8E",
"=. c #8D8D8D",
"-. c gray55",
";. c #8B8B8B",
":. c gray54",
">. c #898989",
",. c #868686",
"<. c gray52",
"1. c #838383",
"2. c gray51",
"3. c #818181",
"4. c #808080",
"5. c gray50",
"6. c #7E7E7E",
"7. c #7C7C7C",
"8. c #7B7B7B",
"9. c gray48",
"0. c #797979",
"q. c gray47",
"w. c #777777",
"e. c gray46",
"r. c #747474",
"t. c gray45",
"y. c #727272",
"u. c #717171",
"i. c gray44",
"p. c #6F6F6F",
"a. c gray43",
"s. c gray42",
"d. c DimGray",
"f. c #686868",
"g. c #676767",
"h. c gray40",
"j. c #656565",
"k. c #646464",
"l. c gray39",
"z. c #626262",
"x. c gray38",
"c. c #606060",
"v. c #5F5F5F",
"b. c gray37",
"n. c #5D5D5D",
"m. c gray36",
"M. c #5B5B5B",
"N. c #5A5A5A",
"B. c gray35",
"V. c #585858",
"C. c gray34",
"Z. c #565656",
"A. c #555555",
"S. c gray33",
"D. c #535353",
"F. c gray32",
"G. c #515151",
"H. c #505050",
"J. c gray31",
"K. c #4E4E4E",
"L. c gray30",
"P. c #4C4C4C",
"I. c #4B4B4B",
"U. c gray29",
"Y. c #494949",
"T. c #484848",
"R. c gray28",
"E. c #464646",
"W. c gray27",
"Q. c #444444",
"!. c #434343",
"~. c gray26",
"^. c #414141",
"/. c #3F3F3F",
"(. c #3E3E3E",
"). c gray24",
"_. c #3C3C3C",
"`. c gray23",
"'. c #3A3A3A",
"]. c #393939",
"[. c gray22",
"{. c #373737",
"}. c gray21",
"|. c #353535",
" X c #343434",
".X c gray20",
"XX c #323232",
"oX c #313131",
"OX c gray19",
"+X c #2F2F2F",
"@X c gray18",
"#X c #2D2D2D",
"$X c #2C2C2C",
"%X c gray17",
"&X c #2A2A2A",
"*X c gray16",
"=X c #282828",
"-X c #272727",
";X c gray15",
":X c #252525",
">X c gray14",
",X c #232323",
"<X c #222222",
"1X c gray13",
"2X c #202020",
"3X c gray12",
"4X c #1E1E1E",
"5X c #1D1D1D",
"6X c gray11",
"7X c #1B1B1B",
"8X c gray10",
"9X c #191919",
"0X c #181818",
"qX c gray9",
"wX c #161616",
"eX c #151515",
"rX c gray8",
"tX c #131313",
"yX c gray7",
"uX c #111111",
"iX c #101010",
"pX c gray6",
"aX c #0E0E0E",
"sX c gray5",
"dX c #0C0C0C",
"fX c #0B0B0B",
"gX c gray4",
"hX c #090909",
"jX c gray3",
"kX c #070707",
"lX c #060606",
"zX c gray2",
"xX c #040404",
"cX c gray1",
"vX c #020202",
"bX c #010101",
"nX c cyan",
"mX c black",
"MX c black",
"NX c black",
"BX c black",
"VX c black",
"CX c black",
"ZX c black",
"AX c black",
"SX c black",
"DX c black",
"FX c black",
"GX c black",
"HX c black",
"JX c black",
"KX c black",
"LX c black",
"PX c black",
"IX c black",
"UX c black",
"YX c None",
/* pixels */
"YXYXYXYXYXYXYXYXYXYXYXYXYXYXYXYXYXYXYXYXYXYXYXYXYXYXYXYXYXYXYXYXYXYXYXYXYXYXYXYXYXYXYXYXYXYXYXYXYXYXYXYXYXYXYXYXYXYXYXYXYXYXYXYX",
"YXYXYXYXYXYXYXYXYXYXYXYXYXYXYXYXYXYXYXYXYXYXYXYXYXYXYXYXYXYX  + 2   YXYXYXYXYXYXYXYXYXYXYXYXYXYXYXYXYXYXYXYXYXYXYXYXYXYXYXYXYXYX",
"YXYXYXYXYXYXYXYXYXYXYXYXYXYXYXYXYXYXYXYXYXYXYXYXYXYXYXYXYXYX  ~ 7.  YXYXYXYXYXYXYXYXYXYXYXYXYXYXYXYXYXYXYXYXYXYXYXYXYXYXYXYXYXYX",
"YXYXYXYXYXYXYXYXYXYXYXYXYXYXYXYXYXYXYXYXYXYXYXYXYXYXYXYXYXYX  k.2Xo   YXYXYXYXYXYXYXYXYXYXYXYXYXYXYXYXYXYXYXYXYXYXYXYXYXYXYXYXYX",
"YXYXYXYXYXYXYXYXYXYXYXYXYXYXYXYXYXYXYXYXYXYXYXYXYXYXYXYXYX  # &XmXz   YXYXYXYXYXYXYXYXYXYXYXYXYXYXYXYXYXYXYXYXYXYXYXYXYXYXYXYXYX",
"YXYXYXYXYXYXYXYXYXYXYXYXYXYXYXYXYXYXYXYXYXYXYXYXYXYXYXYXYX  S mXmX7.  YXYXYXYXYXYXYXYXYXYXYXYXYXYXYXYXYXYXYXYXYXYXYXYXYXYXYXYXYX",
"YXYXYXYXYXYXYXYXYXYXYXYXYXYXYXYXYXYXYXYXYXYXYXYXYXYXYXYXYX  7.mXmX,Xo     o > 2 X   YXYXYXYXYXYXYXYXYXYXYXYXYXYXYXYXYXYXYXYXYXYX",
"YXYXYXYXYXYXYXYXYXYXYXYXYXYXYXYXYXYXYXYX                o < =XmXmXmXu.0.g.v.:.2.w.      YXYXYXYXYXYXYXYXYXYXYXYXYXYXYXYXYXYXYXYX",
"YXYXYXYXYXYXYXYXYX        YXYXYXYXYXYXYX  G C.q.8 x *.c.'.8XmXmXgX`.y.) G H @.(.aXF.P   YXYXYXYXYXYXYXYXYXYXYXYXYXYXYXYXYXYXYXYX",
"YXYXYXYXYXYXYXYXYX  M v       YXYXYXYX  e dXmXmXtXlXmXmXmXmX_...0 o n 2.^.aXmXmXmXmX0X+   YXYXYXYXYXYX    @   YXYXYXYXYXYXYXYXYX",
"YXYXYXYXYXYXYXYXYX  r @X0.u       YX    P bXmXmXmXmXmXjXK.Y   + | R.lXmXmXmXmXmXmXmXkXz     YXYXYX    1 1.~ . YXYXYXYXYXYXYXYXYX",
"YXYXYXYXYXYXYXYXYXYX  r.mXqX0.l     2 <.qXmXmXmXmX9X9.u O C d.5XmXmXmXmXmXmXmXmXmXmXmXeX9.3       q ,.,XyX5   YXYXYXYXYXYXYXYXYX",
"YXYXYXYXYXYXYXYXYXYX  e pXmXmXpX4.G |.mXmXmXmXmXD.r   V E.mXmXmXmXmXmXmXmXmXmXmXmXmXmXmXmXXXj : @.6XmXmX;.  YXYXYXYXYXYXYXYXYXYX",
"YXYXYXYXYXYXYXYXYXYXYX  u.mXmXmXmXbXmXmXmXmX0X/     0.cXmXmXmXmXmXmXmXxXmXmXmXmXmXmXmXmXmXmXiX>XmXmXmX2X;   YXYXYXYXYXYXYXYXYXYX",
"YXYXYXYXYXYXYXYXYXYXYX  7 3XmXmXmXmXmXmXmX%XN   e !.mXmXmXmXmXmXmXmXmX_.] E ~ ~ ~ ~ ~ ~ ~ ( ! =.rXmXmX*.  YXYXYXYXYXYXYXYXYXYXYX",
"YXYXYXYXYXYXYXYXYXYXYXYX  &.bXmXmXmXmXmXI.2   b <XmXmXmXmXmXmXmXmXmXmXkXG.$                 d Q.xXmX:X;   YXYXYXYXYXYXYXYXYXYXYX",
"YXYXYXYXYXYXYXYXYXYXYXYX  A xXmXmXmXmX`.<   x 7XmXmXmXmXmXmXmXmXmXmXmXmXmX[.w             f yXmXmXmX-.  YXYXYXYXYXYXYXYXYXYXYXYX",
"YXYXYXYXYXYXYXYXYXYXYX  1 ].mXmXmXmX/.,   F 4XmXmXmXmXmXmXmXmXmXmXmXmXmXmXmXQ.+         % /.mXmXmXmX$X7   YXYXYXYXYXYXYXYXYXYXYX",
"YXYXYXYXYXYXYXYXYXYX    x.mXmXmXmXsXk   n fXmXmXmXmXmXmXmXmXmXmXmXmXmXmXmXmXmXQ         ' mXmXmXmXmXmXz.    YXYXYXYXYXYXYXYXYXYX",
"YXYXYXYXYXYXYXYX    X E mXmXmXmXjX'   ; @XmXmXmXmXmXmXmXmXmXmXmXmXmXmXmXmXmXmXV.      o Y.mXmXmXmXmXmXbXR .     YXYXYXYXYXYXYXYX",
"YXYXYXYXYXYXYXYX  } ).0XmXmXmXmXq.    4.mXmXmXmXmXmXmXmXmXmXmXmXmXmXmXmXmXmXmX'.o     # -XmXmXmXmXmXmXmXtX^.E   YXYXYXYXYXYXYXYX",
"YXYXYXYXYXYXYX  e dXmXmXmXmXmX1X<   R dXmXmXmXmXmXmXmXmXmXmXmXmXmXmXmXmXmXmXmX&X#     # $XmXmXmXmXvX>XxXmXmXiXe   YXYXYXYXYXYXYX",
"YXYXYXYXYXYXYX  a bXmXmXmXmXmX6.  . {.mXmXmXmXmXmXmXmXmXmXmXmXmXmXmXmXmXmXmXmX*X$     # #XmXmXmXmXgX] aXmXmXbXa   YXYXYXYXYXYXYX",
"YXYXYXYXYXYXYX  o k.mXmXmXmX2Xw   L bXmXmXmXmXmXmXmXmXmXmXmXmXmXmXmXmXmXmXmXmX$X#     & <XmXmXmXmXl.p hXmXmXu.o   YXYXYXYXYXYXYX",
"YXYXYXYXYXYXYXYX  #.mXmXmXmX;.  . L.mXmXmXmXmXmXmXmXmXmXmXmXmXmXmXmXmXmXmXmXmX&X#     % 1XmXmXmX+X& b cXmXmXO.  YXYXYXYXYXYXYXYX",
"YXYXYXYXYXYXYXYX  B.mXmXmXxXz   V vXmXmXmXmXmXmXmXmXmXmXmXmXmXmXmXmXgXpXpXpXpX$X%     #  XhXsXA.u   U mXmXmXm.  YXYXYXYXYXYXYXYX",
"YXYXYXYXYXYXYXYX+ #XmXmXmX-X#   >.mXmXmXmXmXmXmXmXmXmXmXmXmXmXmXmXmX=.: : : 1 8 X     . e a q       D vXmXmX9X=   YXYXYXYXYXYXYX",
"YXYXYXYXYXYXYX  > iXmXmXmXJ.    V.mXmXmXmXmXmXmXmXmXmXmXmXmXmXmXmXmX{                               H bXmXmXlXs   YXYXYXYXYXYXYX",
"YXYXYXYXYX      x zXmXmXmXs.    E.mXmXmXmXmXmXmXmXmXmXmXmXmXmXmXmXmXN                               x lXmXmXmXT       YXYXYXYXYX",
"YXYX      # B 7.$XmXmXmXmX4.  . W.mXmXmXmXmXmXmXmXmXmXmXmXmXmXmXmX1X-                               g kXmXmXmX4Xg.E :         YX",
"YX. 3 U 7.OXcXmXmXmXmXmXmX4.    E.mXmXmXmXmXmXmXmXmXmXmXmXmXmXmXmX+.X Q ^ ~ ( E +     o ( o.W :     h kXmXmXmXmXmXmX1Xh.) u O   ",
"YXe S.mXmXmXmXmXmXmXmXmXmX3.    m.mXmXmXmXmXmXmXmXmXmXmXmXmXmXmX&X# P mXmXmXmXfX:     # ,XmXmXoX!   f kXmXmXmXmXmXmXmXmXmXOXV   ",
"YXO < K r.;XmXmXmXmXmXmXmXy.    &.mXmXmXmXmXmXmXmXmXmXmXmXmXmXmX{   N.mXmXmXmXsX:     # %XmXmXmXmX1.i jXmXmXmXmXmXmXeXn._ w #   ",
"YXYX      < W u.$XmXmXmXmXM.    f sXmXmXmXmXmXmXmXmXmXmXmXmXmXE.O a uXmXmXmXmXpX:     # $XmXmXmXmXzXX.eXmXmXmXqXm.} t       YXYX",
"YXYXYXYXYX      g kXmXmXmX}.X     ;.mXmXmXmXmXmXmXmXmXmXmXmX@X6   U.mXmXmXmXmXpX:     # $XmXmXmXmXmX8XjXmXmXvXP         YXYXYXYX",
"YXYXYXYXYXYXYX  = wXmXmXmXjXt     X V.mXmXmXmXmXmXmXmXmXmX=Xf   E mXmXmXmXmXmXpX:     # $XmXmXmXmXmXmXmXmXmXjXr   YXYXYXYXYXYXYX",
"YXYXYXYXYXYXYXYXo [.mXmXmXmX+.      @ 5.mXmXmXmXmXmXmXmXG.4   = >XmXmXmXmXmXmXpX:     # $XmXmXmXmXmXmXmXmXmX%X# YXYXYXYXYXYXYXYX",
"YXYXYXYXYXYXYXYX  k.mXmXmXmX+X3         ' ~.uXmXmXjXXX#.X     i.mXmXmXmXmXmXmXpX:     # $XmXmXmXmXmXmXmXmXmXf.  YXYXYXYXYXYXYXYX",
"YXYXYXYXYXYXYXYX   .mXmXmXmXmXi.            q L K d @       -.mXmXmXmXmXmXmXmXpX:     # $XmXmXmXmXmXmXmXmXmX`   YXYXYXYXYXYXYXYX",
"YXYXYXYXYXYXYXYXo F.mXmXmXmXmXaXi                         W bXmXmXmXmXmXmXmXmXpX:     # $XmXmXmXmXmXmXmXmXmXS.O YXYXYXYXYXYXYXYX",
"YXYXYXYXYXYXYXYX= tXmXmXmXmXmXmX=XD                   $ 4.gXmXmXmXmXmXmXmXmXmXpX:     # $XmXmXmXmXmXmXmXmXmXlX: YXYXYXYXYXYXYXYX",
"YXYXYXYXYXYXYXYXo L.mXmXmXmXmXmXmXiX^ X           o G (.mXmXmXmXmXmXmXmXmXmXmXpX:     # $XmXmXmXmXmXmXmXmXmXI.+ YXYXYXYXYXYXYXYX",
"YXYXYXYXYXYXYXYX  4 [ T.mXmXmXmXmXmXmX(.%.J Z E ,.'.vXmXmXmXmXmXmXmXmXmXmXmXmXpX:     # $XmXmXmXmXmXmXmX~.[ ,   YXYXYXYXYXYXYXYX",
"YXYXYXYXYXYXYXYXYX    p gXmXmXmXmXmXmXmXmXmXvXmXmXmXmXmXmXmXmXmXmXmXmXmXmXmXmXpX:     # $XmXmXmXmXmXmXsXy     YXYXYXYXYXYXYXYXYX",
"YXYXYXYXYXYXYXYXYXYX    2.mXmXmXmXmXmXmXmXmXmXmXmXmXmXmXmXmXmXmXmXmXmXmXmXmXmXpX:     # $XmXmXmXmXmXmX<.    YXYXYXYXYXYXYXYXYXYX",
"YXYXYXYXYXYXYXYXYXYXYX  X h.mXmXmXmXmXmXmXmXmXmXmXmXmXmXmXmXmXmXmXmXmXmXmXmXmXpX:     # $XmXmXmXmXmXS.O   YXYXYXYXYXYXYXYXYXYXYX",
"YXYXYXYXYXYXYXYXYXYXYXYX  ' mXmXmXmXmXmXmXmXmXmXmXmXmXmXmXmXmXmXmXmXmXmXmXmXmXpX:     # $XmXmXmXmXmXc.    YXYXYXYXYXYXYXYXYXYXYX",
"YXYXYXYXYXYXYXYXYXYXYX  @ |.mXmXmXmXmXmXmXmXmXmXmXmXmXmXmXmXmXmXmXmXmXmXmXmXmXpX:     # $XmXmXmXmXmXcXV   YXYXYXYXYXYXYXYXYXYXYX",
"YXYXYXYXYXYXYXYXYXYXYX  $.mXmXmXmXmXmXmXmXmXmXmXmXmXmXmXmXmXmXmXmXmXmXmXmXmXmXaX:     # %XmXmXmXmXmXmXD.    YXYXYXYXYXYXYXYXYXYX",
"YXYXYXYXYXYXYXYXYXYX  > 2XmXmXmXuXXXmXmXmXmXmXmXmXmXmXmXmXmXmXmXmXmXmXmXmXmXmXaX:     X Z.mX}.>XmXmXmXcXV   YXYXYXYXYXYXYXYXYXYX",
"YXYXYXYXYXYXYXYXYXYX  %.mXmXkXN.h % a.lXmXmXmXmXmXmXmXmXmXmXmXmXmXmXmXmXmXmXmX|.O       ' |.. 8 0.7XmXmX(.X   YXYXYXYXYXYXYXYXYX",
"YXYXYXYXYXYXYXYXYX  + ,XmXW.x         G }.mXmXmXmXmXmXmXmXmXmXmXmXmXmXmXmXmXmX;.        & P.U     9 7.yXmXL   YXYXYXYXYXYXYXYXYX",
"YXYXYXYXYXYXYXYXYX. ..R.I O     YXYX    m mXmXmXmXmXmXmXmXmXmXmXmXmXmXmXmXmX[.>           A :XA       s w.b.& YXYXYXYXYXYXYXYXYX",
"YXYXYXYXYXYXYXYXYXo p .     YXYXYXYXYX  < %XmXmXW.%XmXmXmXmXmXmXmXmXmXmXmXj.7               H '.>.*       t - YXYXYXYXYXYXYXYXYX",
"YXYXYXYXYXYXYXYXYX      YXYXYXYXYXYXYXYX  a e.+.X $ I 6.b.}.mXmXmXmXmX{.O.o . $ & - : # & - . n H.b.$ YX      YXYXYXYXYXYXYXYXYX",
"YXYXYXYXYXYXYXYXYXYXYXYXYXYXYXYXYXYXYXYX                  y kXmXmXxX@Xl.4.e.t.p.d.n.V.t.g.m.j.r.N.!.$ YXYXYXYXYXYXYXYXYXYXYXYXYX",
"YXYXYXYXYXYXYXYXYXYXYXYXYXYXYXYXYXYXYXYXYXYXYXYXYXYXYXYX  . '.mXmXxXc ; < < < < , > : < , > , < j e   YXYXYXYXYXYXYXYXYXYXYXYXYX",
"YXYXYXYXYXYXYXYXYXYXYXYXYXYXYXYXYXYXYXYXYXYXYXYXYXYXYXYXYX  *.mXmXW..   YXYXYXYXYXYXYXYXYXYXYX      YXYXYXYXYXYXYXYXYXYXYXYXYXYX",
"YXYXYXYXYXYXYXYXYXYXYXYXYXYXYXYXYXYXYXYXYXYXYXYXYXYXYXYXYX  h xXmX+.  YXYXYXYXYXYXYXYXYXYXYXYXYXYXYXYXYXYXYXYXYXYXYXYXYXYXYXYXYX",
"YXYXYXYXYXYXYXYXYXYXYXYXYXYXYXYXYXYXYXYXYXYXYXYXYXYXYXYXYX  X '.cXt   YXYXYXYXYXYXYXYXYXYXYXYXYXYXYXYXYXYXYXYXYXYXYXYXYXYXYXYXYX",
"YXYXYXYXYXYXYXYXYXYXYXYXYXYXYXYXYXYXYXYXYXYXYXYXYXYXYXYXYXYX  8..X    YXYXYXYXYXYXYXYXYXYXYXYXYXYXYXYXYXYXYXYXYXYXYXYXYXYXYXYXYX",
"YXYXYXYXYXYXYXYXYXYXYXYXYXYXYXYXYXYXYXYXYXYXYXYXYXYXYXYXYXYX  v ..  YXYXYXYXYXYXYXYXYXYXYXYXYXYXYXYXYXYXYXYXYXYXYXYXYXYXYXYXYXYX",
"YXYXYXYXYXYXYXYXYXYXYXYXYXYXYXYXYXYXYXYXYXYXYXYXYXYXYXYXYXYX    o   YXYXYXYXYXYXYXYXYXYXYXYXYXYXYXYXYXYXYXYXYXYXYXYXYXYXYXYXYXYX",
"YXYXYXYXYXYXYXYXYXYXYXYXYXYXYXYXYXYXYXYXYXYXYXYXYXYXYXYXYXYXYXYXYXYXYXYXYXYXYXYXYXYXYXYXYXYXYXYXYXYXYXYXYXYXYXYXYXYXYXYXYXYXYXYX"
};
