/* XPM */
static char *IconClanAss.gif[] = {
/* columns rows colors chars-per-pixel */
"64 64 17 1",
"  c gray100",
". c gray97",
"X c #E7E7E7",
"o c gray84",
"O c gray74",
"+ c gray61",
"@ c gray55",
"# c gray45",
"$ c gray39",
"% c gray29",
"& c #393939",
"* c gray16",
"= c gray13",
"- c gray3",
"; c cyan",
": c black",
"> c None",
/* pixels */
">>>>>>>>>>>>>>>>>>>>>>>>>>>>>>>>>>>>>>>>>>>>>>>>>>>>>>>>>>>>>>>>",
">>>>>>>>>>>>>>>>>>>>>>>>>>>>>>>>>>>>>>>>>>>>>>>>>>>>>>>>>>>>>>>>",
">>>>>>>>>>>>>>>>>>>>>>>>>>>>>>>>>>>>>>>>>>>>>>>>>>>>>>>>>>>>>>>>",
">>>>>>>>>>>>>>>>>>>>>>>>>>>>>>>>>>>>>>>>>>>>>>>>>>>>>>>>>>>>>>>>",
">>>>>>>>>>>>>>>>>>>>>>>>>>>>>>>>>>>>>>>>>>>>>>>>>>>>>>>>>>>>>>>>",
">>>>>>>>>>>>>>>>>>>>>>>>>>>>>>>>>>>>>>>>>>>>>>>>>>>>>>>>>>>>>>>>",
">>>>>>>>>>>>>>>>>>>>>>>>>>>>>>>>>>>>>>>>>>>>>>>>>>>>>>>>>>>>>>>>",
">>>>>>>>>>>>>>>>>>>>>>>>>>>>>>>>>>>>>>>>>>>>>>>>>>>>>>>>>>>>>>>>",
">>>>>>>>>>>>>>>>>>>>>>>>>>>>>>>>>>>>>>>>>>>>>>>>>>>>>>>>>>>>>>>>",
">>>>>>>>>>>>>>>>>>>>>>>>>>>>>>>>>>>>>>>>>>>>>>>>>>>>>>>>>>>>>>>>",
">>>>>>>>>>>>>>>>>>>>>>>>>>>>>>>>>>>>>>>>>>>>>>>>>>>>>>>>>>>>>>>>",
">>>>>>>>>>>>>>>>>>>>>>>>>>>>>>>>>>>>>>>>>>>>>>>>>>>>>>>>>>>>>>>>",
">>>>>>>>>>>>>>>>>>>>>>>>>>>>>>>>>>>>>>>>>>>>>>>>>>>>>>>>>>>>>>>>",
">>>>>>>>>>>>>>>>>>>>>>>>>>>>>>>>>>>>>>>>>>>>>>>>>>>>>>>>>>>>>>>>",
">>>>>>>>>>>>>>>>>>>>>>>>>>>>>>>>>>>>>>>>>>>>>>>>>>>>>>>>>>>>>>>>",
">>>>>>>>>>>>>>>>>>>>>>>>>>>>>>>>>>>>>>>>>>>>>>>>>>>>>>>>>>>>>>>>",
">>>>>>>>>>>>>>>>>>>>>>>>>>>>>>>>>>>>>>>>>>>>>>>>>>>>>>>>>>>>>>>>",
">>>>>>>>>>>>>>>>>>>>>>>>>>>>>>>>>>>>>    . >>>>>>>>>>>>>>   >>>>",
">>>>>>>>>>>>>>>>>>>>>>>>>>>>   >>>>>> o  o >>>>>>>>>>>>> .X >>>>",
">>>>>>>>>>>>>>>>>>>>>>>>>>>  X >>>>> X@ .+ >>>>>>>>>>>>> OO >>>>",
">>>>>>>>>>>>>>>>>>>>>>>>>>> X+ >>>> XO$.o#.>>>>>>>>>>>> .++ >>>>",
">>>>>>>>>>>>>>>>>>>>>>>>>>> O@ >>>  O-o &O >>>>>>>>>>>  O$X >>>>",
">>>>>>>>>>>>>>>>>>>>>>>>>>  &X >>X O=$ @&  >>>>>>>>>>. O*X >>>>>",
">>>>>>>>>>>>>>>>>>>>>>>... @#. >. O-*.+-o   .Xo>>>>>  +*+.>>>>>>",
">>>>>>>>>>>>>>>>>>>>>  .# +-. >  @:$o@-o .o@&#X>>>>  +=@  >>>>>>",
">>>>>>>>>>>>>>>>>>>>  O$X@=o    $:@o#=o o$=#   >>> .+:@ X>>>>>>>",
">>>>>>>>>>>>>>>. .X  +&X&=+#o  $:@.&:O X%*X   .>. .%-O .>>>>>>>>",
">>>>>>>>>>>>> . O@XO%#O-*+=-*X+:o =:+ X** .  @.. +:&O  >>>>>>>>>",
">>>>>>>>>>    o*@X%&+%:$X&:@&@-+ +:&  $:o  X&+  $:*+@X >>>>>>>>>",
">>>>>>>>   o O=@+:%+-=O X:= $%&  #:+ X-$  .&o O*=%O @$  >>>>>>>>",
">>>>>>>  O&$.-+$-@+::=%O+:*.#$#  **  @-+  #@ X=:$%X@ &@  >>>>>>>",
">>>>>>  @:-O%&@=O#:%*-::+:$ XoX. %%. @:o O=. %:=o$*XOX*O >>>>>>>",
">>>>>  @::=o-@:O+O   X-:@:%o-=$&$&$  O:$@-& O:-+O-$O# $$  >>>>>>",
">>>>> o*+-#==&@  X  . &:#:%$:-::=-:  X--:-:$*:=o=-O&O O-o >>>>>>",
">>>> X%Oo:=::&.X+#%&#O*-&:*@*o*$OX=o  $@+X--**#%*:@:O #:O >>>>>>",
">>>> O@ o::$+@%::-::-:-=#=&+$+$#+o&+X O$X oOX&@$%-:-:--=+ >>>>>>",
">>>>.+ . =*O&:=$OX  o%:o #:$**$@-:%%%O $    o$=.o@+ @+X   >>>>>>",
">>>>.X > o@:-+  XO@##@#oX O*O  X#::$+&::=&&::-OX        >>>>>>>>",
">>>>>>> .+:#X +$*&#@&::-*O.  X$-:$O. .O#=:::&@X >>>>>>>>>>>>>>>>",
">>>>>>  +:@ X#+o   .  +&-:@ o=:$X   >      .   >>>>>>>>>>>>>>>>>",
">>>>>> o-+ +@o   >>>>. .+=:%&-o   >>>>>>>>>>>>>>>>>>>>>>>>>>>>>>",
">>>>> .%@ +O   >>>>>>>>  o%:=O  >>>>>>>>>>>>>>>>>>>>>>>>>>>>>>>>",
">>>>> o%XOO  >>>>>>>>>>>  X#+  >>>>>>>>>>>>>>>>>>>>>>>>>>>>>>>>>",
">>>>> # Oo  >>>>>>>>>>>>>>    >>>>>>>>>>>>>>>>>>>>>>>>>>>>>>>>>>",
">>>>> O.   >>>>>>>>>>>>>>>>>>>>>>>>>>>>>>>>>>>>>>>>>>>>>>>>>>>>>",
">>>>>   >>>>>>>>>>>>>>>>>>>>>>>>>>>>>>>>>>>>>>>>>>>>>>>>>>>>>>>>",
">>>>>>>>>>>>>>>>>>>>>>>>>>>>>>>>>>>>>>>>>>>>>>>>>>>>>>>>>>>>>>>>",
">>>>>>>>>>>>>>>>>>>>>>>>>>>>>>>>>>>>>>>>>>>>>>>>>>>>>>>>>>>>>>>>",
">>>>>>>>>>>>>>>>>>>>>>>>>>>>>>>>>>>>>>>>>>>>>>>>>>>>>>>>>>>>>>>>",
">>>>>>>>>>>>>>>>>>>>>>>>>>>>>>>>>>>>>>>>>>>>>>>>>>>>>>>>>>>>>>>>",
">>>>>>>>>>>>>>>>>>>>>>>>>>>>>>>>>>>>>>>>>>>>>>>>>>>>>>>>>>>>>>>>",
">>>>>>>>>>>>>>>>>>>>>>>>>>>>>>>>>>>>>>>>>>>>>>>>>>>>>>>>>>>>>>>>",
">>>>>>>>>>>>>>>>>>>>>>>>>>>>>>>>>>>>>>>>>>>>>>>>>>>>>>>>>>>>>>>>",
">>>>>>>>>>>>>>>>>>>>>>>>>>>>>>>>>>>>>>>>>>>>>>>>>>>>>>>>>>>>>>>>",
">>>>>>>>>>>>>>>>>>>>>>>>>>>>>>>>>>>>>>>>>>>>>>>>>>>>>>>>>>>>>>>>",
">>>>>>>>>>>>>>>>>>>>>>>>>>>>>>>>>>>>>>>>>>>>>>>>>>>>>>>>>>>>>>>>",
">>>>>>>>>>>>>>>>>>>>>>>>>>>>>>>>>>>>>>>>>>>>>>>>>>>>>>>>>>>>>>>>",
">>>>>>>>>>>>>>>>>>>>>>>>>>>>>>>>>>>>>>>>>>>>>>>>>>>>>>>>>>>>>>>>",
">>>>>>>>>>>>>>>>>>>>>>>>>>>>>>>>>>>>>>>>>>>>>>>>>>>>>>>>>>>>>>>>",
">>>>>>>>>>>>>>>>>>>>>>>>>>>>>>>>>>>>>>>>>>>>>>>>>>>>>>>>>>>>>>>>",
">>>>>>>>>>>>>>>>>>>>>>>>>>>>>>>>>>>>>>>>>>>>>>>>>>>>>>>>>>>>>>>>",
">>>>>>>>>>>>>>>>>>>>>>>>>>>>>>>>>>>>>>>>>>>>>>>>>>>>>>>>>>>>>>>>",
">>>>>>>>>>>>>>>>>>>>>>>>>>>>>>>>>>>>>>>>>>>>>>>>>>>>>>>>>>>>>>>>",
">>>>>>>>>>>>>>>>>>>>>>>>>>>>>>>>>>>>>>>>>>>>>>>>>>>>>>>>>>>>>>>>"
};
