/* XPM */
static char *IconClanHoS.gif[] = {
/* columns rows colors chars-per-pixel */
"64 64 257 2",
"   c gray100",
".  c #FEFEFE",
"X  c #FDFDFD",
"o  c gray99",
"O  c #FBFBFB",
"+  c gray98",
"@  c #F9F9F9",
"#  c #F8F8F8",
"$  c gray97",
"%  c #F6F6F6",
"&  c gray96",
"*  c #F3F3F3",
"=  c gray95",
"-  c #F1F1F1",
";  c gray94",
":  c #EFEFEF",
">  c #EEEEEE",
",  c gray93",
"<  c #ECECEC",
"1  c gray92",
"2  c #EAEAEA",
"3  c #E9E9E9",
"4  c gray91",
"5  c #E7E7E7",
"6  c #E6E6E6",
"7  c gray90",
"8  c #E4E4E4",
"9  c gray89",
"0  c #E2E2E2",
"q  c #DFDFDF",
"w  c gray87",
"e  c #DDDDDD",
"r  c gainsboro",
"t  c gray86",
"y  c #DADADA",
"u  c gray85",
"i  c #D8D8D8",
"p  c #D7D7D7",
"a  c gray84",
"s  c #D5D5D5",
"d  c gray83",
"f  c LightGray",
"g  c gray82",
"h  c gray81",
"j  c #CECECE",
"k  c #CDCDCD",
"l  c gray80",
"z  c #CBCBCB",
"x  c #CACACA",
"c  c gray79",
"v  c #C6C6C6",
"b  c #C5C5C5",
"n  c gray77",
"m  c #C3C3C3",
"M  c gray76",
"N  c #C1C1C1",
"B  c #C0C0C0",
"V  c gray75",
"C  c gray",
"Z  c #BBBBBB",
"A  c gray73",
"S  c #B9B9B9",
"D  c gray72",
"F  c #B7B7B7",
"G  c #B6B6B6",
"H  c gray71",
"J  c gray70",
"K  c #B2B2B2",
"L  c #B1B1B1",
"P  c #AEAEAE",
"I  c gray68",
"U  c #ACACAC",
"Y  c gray67",
"T  c #AAAAAA",
"R  c #A9A9A9",
"E  c gray66",
"W  c #A7A7A7",
"Q  c gray65",
"!  c #A5A5A5",
"~  c #A4A4A4",
"^  c gray64",
"/  c gray63",
"(  c #A0A0A0",
")  c #9F9F9F",
"_  c gray62",
"`  c #9D9D9D",
"'  c gray61",
"]  c #9B9B9B",
"[  c #9A9A9A",
"{  c gray60",
"}  c #989898",
"|  c #979797",
" . c gray59",
".. c #959595",
"X. c gray58",
"o. c #939393",
"O. c #929292",
"+. c gray57",
"@. c #909090",
"#. c gray56",
"$. c #8E8E8E",
"%. c #8D8D8D",
"&. c gray55",
"*. c #8B8B8B",
"=. c gray54",
"-. c #898989",
";. c #888888",
":. c gray53",
">. c #868686",
",. c gray52",
"<. c #838383",
"1. c gray51",
"2. c #808080",
"3. c gray50",
"4. c #7E7E7E",
"5. c gray49",
"6. c #7C7C7C",
"7. c gray48",
"8. c gray47",
"9. c #777777",
"0. c gray46",
"q. c #747474",
"w. c gray45",
"e. c #727272",
"r. c #717171",
"t. c gray44",
"y. c #6F6F6F",
"u. c #6D6D6D",
"i. c #6C6C6C",
"p. c gray42",
"a. c #6A6A6A",
"s. c DimGray",
"d. c #686868",
"f. c #676767",
"g. c gray40",
"h. c #656565",
"j. c #646464",
"k. c gray39",
"l. c gray38",
"z. c #606060",
"x. c #5F5F5F",
"c. c #5D5D5D",
"v. c gray36",
"b. c #5B5B5B",
"n. c #5A5A5A",
"m. c gray35",
"M. c #585858",
"N. c gray34",
"B. c #565656",
"V. c #555555",
"C. c gray33",
"Z. c gray32",
"A. c #515151",
"S. c #505050",
"D. c gray31",
"F. c #4E4E4E",
"G. c gray30",
"H. c #4C4C4C",
"J. c #4B4B4B",
"K. c gray29",
"L. c #494949",
"P. c #484848",
"I. c gray28",
"U. c #464646",
"Y. c gray27",
"T. c #444444",
"R. c #434343",
"E. c gray26",
"W. c #414141",
"Q. c gray25",
"!. c #3F3F3F",
"~. c #3E3E3E",
"^. c gray24",
"/. c #3C3C3C",
"(. c gray23",
"). c #3A3A3A",
"_. c gray22",
"`. c #373737",
"'. c gray21",
"]. c #353535",
"[. c #343434",
"{. c gray20",
"}. c #323232",
"|. c #313131",
" X c gray19",
".X c #2F2F2F",
"XX c gray18",
"oX c #2D2D2D",
"OX c #2C2C2C",
"+X c gray17",
"@X c #2A2A2A",
"#X c #282828",
"$X c gray15",
"%X c #252525",
"&X c gray14",
"*X c #232323",
"=X c #222222",
"-X c gray13",
";X c #202020",
":X c gray12",
">X c #1E1E1E",
",X c #1D1D1D",
"<X c gray11",
"1X c #1B1B1B",
"2X c gray10",
"3X c #191919",
"4X c #181818",
"5X c gray9",
"6X c #161616",
"7X c #151515",
"8X c gray8",
"9X c #131313",
"0X c gray7",
"qX c #111111",
"wX c #101010",
"eX c gray6",
"rX c #0E0E0E",
"tX c gray5",
"yX c #0C0C0C",
"uX c #0B0B0B",
"iX c gray4",
"pX c #090909",
"aX c gray3",
"sX c #070707",
"dX c #060606",
"fX c gray2",
"gX c #040404",
"hX c gray1",
"jX c #020202",
"kX c #010101",
"lX c cyan",
"zX c black",
"xX c black",
"cX c black",
"vX c black",
"bX c black",
"nX c black",
"mX c black",
"MX c black",
"NX c black",
"BX c black",
"VX c black",
"CX c black",
"ZX c black",
"AX c black",
"SX c black",
"DX c black",
"FX c black",
"GX c black",
"HX c black",
"JX c black",
"KX c black",
"LX c black",
"PX c black",
"IX c black",
"UX c black",
"YX c None",
/* pixels */
"YXYXYXYXYXYXYXYXYXYXYXYXYXYXYXYXYXYXYXYXYXYXYXYXYXYXYXYXYXYXYXYXYXYXYXYXYXYXYXYXYXYXYXYXYXYXYXYXYXYXYXYXYXYXYXYXYXYXYXYXYXYXYXYX",
"YXYXYXYXYXYXYXYXYXYXYXYXYXYXYXYXYXYXYXYXYXYXYXYXYXYXYXYXYXYXYXYXYXYXYXYXYXYXYXYXYXYXYXYXYXYXYXYXYXYXYXYXYXYXYXYXYXYXYXYXYXYXYXYX",
"YXYXYXYXYXYXYXYXYXYXYXYXYXYXYXYXYXYXYXYXYXYXYXYXYXYXYXYXYXYXYXYXYXYXYXYXYXYXYXYXYXYXYXYXYXYXYXYXYXYXYXYXYXYXYXYXYXYXYXYXYXYXYXYX",
"YXYXYXYXYXYXYXYXYXYXYXYXYXYXYXYXYXYXYXYXYXYXYXYXYXYXYXYXYXYX      YXYXYXYXYXYXYXYXYXYXYXYXYXYXYXYXYXYXYXYXYXYXYXYXYXYXYXYXYXYXYX",
"YXYXYXYXYXYXYXYXYXYXYXYXYXYXYXYXYXYXYXYXYXYXYXYXYXYXYXYX      a       YXYXYXYXYXYXYXYXYXYXYXYXYXYXYXYXYXYXYXYXYXYXYXYXYXYXYXYXYX",
"YXYXYXYXYXYXYXYXYXYXYXYXYXYXYXYXYXYXYXYXYXYXYXYXYXYXYX    ) [ G.b.w     YXYXYXYXYXYXYXYXYXYXYXYXYXYXYXYXYXYXYXYXYXYXYXYXYXYXYXYX",
"YXYXYXYXYXYXYXYXYXYXYXYXYXYXYXYXYXYXYXYXYXYXYXYXYX    3 j.zXm.F.zX<XI     YXYXYXYXYXYXYXYXYXYXYXYXYXYXYXYXYXYXYXYXYXYXYXYXYXYXYX",
"YXYXYXYXYXYXYXYXYXYXYXYXYXYXYXYXYXYXYXYXYXYXYXYX    C $XzXzXB.C.zXzXzXs.$     YXYXYXYXYXYXYXYXYXYXYXYXYXYXYXYXYXYXYXYXYXYXYXYXYX",
"YXYXYXYXYXYXYXYXYXYXYXYXYXYXYXYXYXYXYXYXYXYXYX    { aXzXrX#X:.u.zXzXzXzXD.s     YXYXYXYXYXYXYXYXYXYXYXYXYXYXYXYXYXYXYXYXYXYXYXYX",
"YXYXYXYXYXYXYXYXYXYXYXYXYXYXYXYXYXYXYXYXYXYX    <.zX!.Y < $ o t.zXzXzXzXzX7Xa     YXYXYXYXYXYXYXYXYXYXYXYXYXYXYXYXYXYXYXYXYXYXYX",
"YXYXYXYXYXYXYXYXYXYXYXYXYXYXYXYXYXYXYXYXYX    r.'.H X         1.zXzXzXzXzXzX$Xh     YXYXYXYXYXYXYXYXYXYXYXYXYXYXYXYXYXYXYXYXYXYX",
"YXYXYXYXYXYXYXYXYXYXYX  O     YXYXYXYXYX  X #.x.2             2.zXzXzXzXzXzXzX$Xs : YXYXYXYXYXYXYXYXYXYXYXYXYXYXYXYXYXYXYXYXYXYX",
"YXYXYXYXYXYXYXYXYXYXYX  j I @     YXYX    R i.o               2.zXzXzXzXzXzXzXzX#X6   YXYXYXYXYX    - > YXYXYXYXYXYXYXYXYXYXYXYX",
"YXYXYXYXYXYXYXYXYXYXYX  $ _. X~         x a.O                 2.zXzXzXzXzXzXzXzXzXK.#           % ,.!.4 YXYXYXYXYXYXYXYXYXYXYXYX",
"YXYXYXYXYXYXYXYXYXYXYXYX  Q zXzXP.K $ % i.p                   2.zXzXzXzXzXzXzXzXzXzX` c j   # ( XXzX8.  YXYXYXYXYXYXYXYXYXYXYXYX",
"YXYXYXYXYXYXYXYXYXYXYXYX  O {.zXzXzX} { H                     2.zXzXzXzXzXzXzXzXzXzX<XR {.3.Y.zXzX>X1   YXYXYXYXYXYXYXYXYXYXYXYX",
"YXYXYXYXYXYXYXYXYXYXYXYXYX  K zXzX-XI r.                      3.zXzXzXzXzXzXzXzXzXzXzXJ.E zXzXzXzXO.  YXYXYXYXYXYXYXYXYXYXYXYXYX",
"YXYXYXYXYXYXYXYXYXYXYXYXYX  X L.zX-.7.U       8 D D D 5       ;.zXzXzXzXzXzXzXzXzXzXzXhXL L.zXzX<X3   YXYXYXYXYXYXYXYXYXYXYXYXYX",
"YXYXYXYXYXYXYXYXYXYXYXYXYX    r.gX..7Xe   r g.5XzXzXzX&Xi     ` zXzXzXzXzXzXzXzXzXzXzXzX#X{ zXzXy.  YXYXYXYXYXYXYXYXYXYXYXYXYXYX",
"YXYXYXYXYXYXYXYXYXYXYXYXYX  s gXD.l.kX& X U.zXzXzXzXzXzXI..   Q zXzXzXzXkX`.1.` u.4XzXzXzX! (.zX;X8   YXYXYXYXYXYXYXYXYXYXYXYXYX",
"YXYXYXYXYXYXYXYXYXYXYX    + }.gXx ;XpX& . n.zXzXzXzXzXzXzXU   ! zXzXzX+XN O       5 oXzXzXg.Y zXzXd.      YXYXYXYXYXYXYXYXYXYXYX",
"YXYXYXYXYXYXYXYXYXYX  X l e.zXW.{ zXpXe   P zXzXzXzXzXzXzX[.X E zXjXW.z         . B j.zXzXtXG 2XzXfXW s     YXYXYXYXYXYXYXYXYXYX",
"YXYXYXYXYXYXYXYXYXYX. y.fXzXzX5.'.zXzX@.  O S.zXzXzXkX.X+XzXu G zXuXM.1Xf.4     k.zXdXzXzXzX1.r.zXzXzXaX'   YXYXYXYXYXYXYXYXYXYX",
"YXYXYXYXYXYXYXYXYXYX= pXzXzXtX! iXzXzXQ..   f &X4X7.V # 1 Y % k.zXzXzXzXzX%Xn.G.zXzXzXzXzXzXE.} zXzXzXzXT.  YXYXYXYXYXYXYXYXYXYX",
"YXYXYXYXYXYXYXYXYXYX. p.zXzXW.! zXzXzXzX..    % =           o.zXzXzXzXzXzXzXzXzXzXzXzXzXzXzX8XE sXzXzXgX!   YXYXYXYXYXYXYXYXYXYX",
"YXYXYXYXYXYXYXYXYXYX  m hXzX1.1.zXzXzXzX5Xa               b sXzXzXzXzXzXzXzXzXzXzXzXzXzXzXzXgXo.2XzXzXyX<   YXYXYXYXYXYXYXYXYXYX",
"YXYXYXYXYXYXYXYXYXYX  O.zXzX,.B.zXzXzXzXzXh.            X '.zXzXzXzXzXzXzXzXzXzXzXzXzXzXzXzXzXw.S.kXzXjXF   YXYXYXYXYXYXYXYXYXYX",
"YXYXYXYXYXYXYXYXYXYX  j.zXjX! :XzXzXzXzXzXZ.            i gXzXzXzXzXzXzXzXzXzXzXzXzXzXzXzXzXzXk.^ dXzXzX6.  YXYXYXYXYXYXYXYXYXYX",
"YXYXYXYXYXYXYXYXYX    ].zXgXT 3XzXzXzXzX7XP             } zXzXzXkXzXzXzXzXzXzXzXzXzXzXzXzXzXzXZ.| kXzXzXF.    YXYXYXYXYXYXYXYXYX",
"YXYXYXYXYXYX        x uXzX5XA iXzXzXzXkX'               5.zXXX .sXzXzXzXzXzXzXzXzXzXzXzXzXzXzX~.H kXzXzX{.s         YXYXYXYXYXYX",
"YXYXYX        w W C.uXzXzX3XA aXzXzXzXzXE               0.zXC w gXzXzXzXzXzXzXzXzXzXzXzXzXzXzX/.C fXzXzXzXuXC.W w         YXYXYX",
"YXYXYX  i $.K.iXzXzXzXzXzX2XI dXzXzXzXzX`.Z R u         r.sXX j gXzXzXzXzXzXzXzXzXzXzXzXzXzXzX8X0 8XzXzXzXzXzXzXiXK.-.i   YXYXYX",
"YXYXYX  7 $..XdXzXzXzXzXzX4XA pXzXzXzXzXzXzXzX5XZ       X.q.  z gXzXzXzXzXzXzXzXzXzXzXzXzXzXzX;Xd eXzXzXzXzXzXzXgX.X&.7   YXYXYX",
"YXYXYXYX    X e W k.9XzXzX4XZ pXzXzXzXzXzXzXzXzXW.o     o #   v zXzXzXzXzXzXzXzXzXzXzXzXzXzXzXQ.J jXzXzXzX9Xk.W p X     YXYXYXYX",
"YXYXYXYXYXYX        k rXzX4XS aXzXzXzXzXzXzXzXzX[.O           7 9.|.zXzXzXzXzXzXzXzXzXzXzXzXzX^.G jXzXzX|.p         YXYXYXYXYXYX",
"YXYXYXYXYXYXYXYXYX    R.zX9Xc rXzXzXzXzXzXzXzXzX+XO               $ 5.zXzXzXzXzXzXzXzXzXzXzXzXN.( kXzXzXm.    YXYXYXYXYXYXYXYXYX",
"YXYXYXYXYXYXYXYXYXYX  i.zX2Xd 3XzXzXzXzXzXzXzXzXiXr                 + H.zXzXzXzXzXzXzXzXzXzXzXf.f.zXzXzX=.  YXYXYXYXYXYXYXYXYXYX",
"YXYXYXYXYXYXYXYXYXYX  ^ zXdX{ V.zXzXzXzXzXzXzXzXsXd   t s =   .       r 0XzXzXzXzXzXzXzXzXzXzXe.C.zXzXgXb   YXYXYXYXYXYXYXYXYXYX",
"YXYXYXYXYXYXYXYXYXYX  C hXzX0.6.zXzXzXzXzXzXzXzXqX$ . 4.s.S ! 6         c.zXzXzXzXzXzXzXzXzXzX#..XzXzXyX8   YXYXYXYXYXYXYXYXYXYX",
"YXYXYXYXYXYXYXYXYXYX  v.zXzXR.| zXzXzXzXzXzXzXzXuX4   ^.0X7X2X,         U zXzXzXzXzXzXzXzXzXyXR uXzXzXkX%.  YXYXYXYXYXYXYXYXYXYX",
"YXYXYXYXYXYXYXYXYXYX  F.zXzX7X/ sXzXzXzXzXzXzXzXzXr.X U.zXzXyX;         j fXzXzXzXzXzXzXzXzX{.o.zXzXzXzX>.  YXYXYXYXYXYXYXYXYXYX",
"YXYXYXYXYXYXYXYXYXYX  d H.9XzX<.OXzXzXzXzXzXzXzXzXzXI.|.zXzXeX;         l fXzXzXzXzXzXzXzXzXd.x.zXzX2Xv.2   YXYXYXYXYXYXYXYXYXYX",
"YXYXYXYXYXYXYXYXYXYX      ~ zXl.2.zXzXzXzXzXzXzXzXzXzXzXzXzXeX;         M jXzXzXzXzXzXzXzXhX( =XzX7Xf     YXYXYXYXYXYXYXYXYXYXYX",
"YXYXYXYXYXYXYXYXYXYXYXYX    B.<Xg wXzXzXzXzXzXzXzXzXzXzXzXzXeX;         ] zXzXzXzXzXzXzXzX_.P jXzX=.    YXYXYXYXYXYXYXYXYXYXYXYX",
"YXYXYXYXYXYXYXYXYXYXYXYXYX  , 1X+.A.zXzXzXzXzXzXzXzXzXzXzXzXeX;         F.zXzXzXzXzXzXzXzX[ k.zX).*   YXYXYXYXYXYXYXYXYXYXYXYXYX",
"YXYXYXYXYXYXYXYXYXYXYXYXYX    N.<X$.zXzXzXzXzXzXzXzXzXzXzXzXeX;       ) yXzXzXzXzXzXzXzXqXL eXzXL.    YXYXYXYXYXYXYXYXYXYXYXYXYX",
"YXYXYXYXYXYXYXYXYXYXYXYXYX  y pXzX_ L.zXzXzXzXzXzXzXzXzXzXzXeX;   . ..kXzXzXzXzXzXzXzXzXX.a.zXzXgXz   YXYXYXYXYXYXYXYXYXYXYXYXYX",
"YXYXYXYXYXYXYXYXYXYXYXYX    M.zXzX`.H aXzXzXzXzXzXzXzXzXzXzXwX> J L.zXzXzXzXzXzXzXzXzX#XU zXzXzXzXM.    YXYXYXYXYXYXYXYXYXYXYXYX",
"YXYXYXYXYXYXYXYXYXYXYXYX  Z zXzXzX+Xi ,.zXzXzXzXzXzXzXzXzXzX7Xu tXzXzXzXzXzXzXzXzXzXzX3.e.-.oXzXzXzXS   YXYXYXYXYXYXYXYXYXYXYXYX",
"YXYXYXYXYXYXYXYXYXYXYX    V.zX=XO.>   - ^.zXzXzXzXzXzXzXzXzX8Xt wXzXzXzXzXzXzXzXzXzXz.: O   : =.:XzX.XX   YXYXYXYXYXYXYXYXYXYXYX",
"YXYXYXYXYXYXYXYXYXYXYX  n $Xq.6     YX  k rXzXzXzXzXzXzXzXzXyXl *XzXzXzXzXzXzXzXzX,Xw   YXYX    - =.#XR . YXYXYXYXYXYXYXYXYXYXYX",
"YXYXYXYXYXYXYXYXYXYXYX  J s     YXYXYX    @.zXzXzXzXzXzXzXzXjXZ Z.zXzXzXzXzXzXzXzXD     YXYXYXYX    6 V X YXYXYXYXYXYXYXYXYXYXYX",
"YXYXYXYXYXYXYXYXYXYXYX        YXYXYXYXYX    *.zXzXzXzXzXzXzXkXS C.zXzXzXzXzXzXzXX.    YXYXYXYXYXYXYX      YXYXYXYXYXYXYXYXYXYXYX",
"YXYXYXYXYXYXYXYXYXYXYXYXYXYXYXYXYXYXYXYXYX    m.zXzXzXzXzXzXkXS C.zXzXzXzXzXzXe.    YXYXYXYXYXYXYXYXYXYXYXYXYXYXYXYXYXYXYXYXYXYX",
"YXYXYXYXYXYXYXYXYXYXYXYXYXYXYXYXYXYXYXYXYXYX  o 0.zXzXzXzXzXkXH I.zXzXzXzXzX{     YXYXYXYXYXYXYXYXYXYXYXYXYXYXYXYXYXYXYXYXYXYXYX",
"YXYXYXYXYXYXYXYXYXYXYXYXYXYXYXYXYXYXYXYXYXYXYX  @ %.pXzXzXzXkXD D.zXzXzX6X!     YXYXYXYXYXYXYXYXYXYXYXYXYXYXYXYXYXYXYXYXYXYXYXYX",
"YXYXYXYXYXYXYXYXYXYXYXYXYXYXYXYXYXYXYXYXYXYXYXYX    E >XzXzXkXS C.zXzX:XC     YXYXYXYXYXYXYXYXYXYXYXYXYXYXYXYXYXYXYXYXYXYXYXYXYX",
"YXYXYXYXYXYXYXYXYXYXYXYXYXYXYXYXYXYXYXYXYXYXYXYXYX    q J.zXzXS G.zXE.9     YXYXYXYXYXYXYXYXYXYXYXYXYXYXYXYXYXYXYXYXYXYXYXYXYXYX",
"YXYXYXYXYXYXYXYXYXYXYXYXYXYXYXYXYXYXYXYXYXYXYXYXYXYXYX  . ` @XK p.=.O   YXYXYXYXYXYXYXYXYXYXYXYXYXYXYXYXYXYXYXYXYXYXYXYXYXYXYXYX",
"YXYXYXYXYXYXYXYXYXYXYXYXYXYXYXYXYXYXYXYXYXYXYXYXYXYXYXYX    3 q +     YXYXYXYXYXYXYXYXYXYXYXYXYXYXYXYXYXYXYXYXYXYXYXYXYXYXYXYXYX",
"YXYXYXYXYXYXYXYXYXYXYXYXYXYXYXYXYXYXYXYXYXYXYXYXYXYXYXYXYXYXYXYXYXYXYXYXYXYXYXYXYXYXYXYXYXYXYXYXYXYXYXYXYXYXYXYXYXYXYXYXYXYXYXYX",
"YXYXYXYXYXYXYXYXYXYXYXYXYXYXYXYXYXYXYXYXYXYXYXYXYXYXYXYXYXYXYXYXYXYXYXYXYXYXYXYXYXYXYXYXYXYXYXYXYXYXYXYXYXYXYXYXYXYXYXYXYXYXYXYX",
"YXYXYXYXYXYXYXYXYXYXYXYXYXYXYXYXYXYXYXYXYXYXYXYXYXYXYXYXYXYXYXYXYXYXYXYXYXYXYXYXYXYXYXYXYXYXYXYXYXYXYXYXYXYXYXYXYXYXYXYXYXYXYXYX",
"YXYXYXYXYXYXYXYXYXYXYXYXYXYXYXYXYXYXYXYXYXYXYXYXYXYXYXYXYXYXYXYXYXYXYXYXYXYXYXYXYXYXYXYXYXYXYXYXYXYXYXYXYXYXYXYXYXYXYXYXYXYXYXYX"
};
