/* XPM */
static char *IconClanBaa.gif[] = {
/* columns rows colors chars-per-pixel */
"64 64 257 2",
"   c gray100",
".  c #FEFEFE",
"X  c #FDFDFD",
"o  c gray99",
"O  c #FBFBFB",
"+  c gray98",
"@  c #F9F9F9",
"#  c #F8F8F8",
"$  c gray97",
"%  c #F6F6F6",
"&  c gray96",
"*  c #F4F4F4",
"=  c #F3F3F3",
"-  c gray95",
";  c #F1F1F1",
":  c gray94",
">  c #EFEFEF",
",  c #EEEEEE",
"<  c gray93",
"1  c #ECECEC",
"2  c gray92",
"3  c #EAEAEA",
"4  c #E9E9E9",
"5  c gray91",
"6  c #E7E7E7",
"7  c #E6E6E6",
"8  c gray90",
"9  c #E4E4E4",
"0  c gray89",
"q  c #E2E2E2",
"w  c #E1E1E1",
"e  c #DFDFDF",
"r  c gray87",
"t  c #DDDDDD",
"y  c gainsboro",
"u  c gray86",
"i  c #DADADA",
"p  c gray85",
"a  c #D8D8D8",
"s  c gray84",
"d  c #D5D5D5",
"f  c gray83",
"g  c LightGray",
"h  c #D2D2D2",
"j  c gray82",
"k  c #D0D0D0",
"l  c gray81",
"z  c #CECECE",
"x  c #CDCDCD",
"c  c gray80",
"v  c #CBCBCB",
"b  c #CACACA",
"n  c gray79",
"m  c #C8C8C8",
"M  c gray78",
"N  c #C6C6C6",
"B  c #C5C5C5",
"V  c gray77",
"C  c #C3C3C3",
"Z  c gray76",
"A  c #C0C0C0",
"S  c gray75",
"D  c gray",
"F  c gray74",
"G  c gray73",
"H  c #B9B9B9",
"J  c gray72",
"K  c #B7B7B7",
"L  c #B6B6B6",
"P  c gray71",
"I  c #B4B4B4",
"U  c gray70",
"Y  c #B2B2B2",
"T  c #B1B1B1",
"R  c gray69",
"E  c #AFAFAF",
"W  c #AEAEAE",
"Q  c gray68",
"!  c #ACACAC",
"~  c gray67",
"^  c #AAAAAA",
"/  c #A9A9A9",
"(  c gray66",
")  c #A7A7A7",
"_  c #A5A5A5",
"`  c #A4A4A4",
"'  c gray64",
"]  c #A2A2A2",
"[  c gray63",
"{  c #A0A0A0",
"}  c #9F9F9F",
"|  c gray62",
" . c #9D9D9D",
".. c gray61",
"X. c #9B9B9B",
"o. c gray60",
"O. c #989898",
"+. c #979797",
"@. c gray59",
"#. c gray58",
"$. c #939393",
"%. c #929292",
"&. c gray57",
"*. c #909090",
"=. c gray56",
"-. c #8E8E8E",
";. c #8D8D8D",
":. c gray55",
">. c #8B8B8B",
",. c gray54",
"<. c #898989",
"1. c #888888",
"2. c gray53",
"3. c #868686",
"4. c gray52",
"5. c #848484",
"6. c gray51",
"7. c #818181",
"8. c #808080",
"9. c gray50",
"0. c #7E7E7E",
"q. c gray49",
"w. c #7C7C7C",
"e. c #7B7B7B",
"r. c #797979",
"t. c gray47",
"y. c #777777",
"u. c #747474",
"i. c gray45",
"p. c #727272",
"a. c gray44",
"s. c gray43",
"d. c #6D6D6D",
"f. c #6C6C6C",
"g. c #6A6A6A",
"h. c DimGray",
"j. c #686868",
"k. c #676767",
"l. c gray40",
"z. c #656565",
"x. c #646464",
"c. c gray39",
"v. c gray38",
"b. c #606060",
"n. c #5D5D5D",
"m. c gray36",
"M. c #5B5B5B",
"N. c #5A5A5A",
"B. c gray35",
"V. c #585858",
"C. c gray34",
"Z. c #565656",
"A. c #555555",
"S. c gray33",
"D. c #535353",
"F. c gray32",
"G. c #515151",
"H. c #505050",
"J. c gray31",
"K. c #4E4E4E",
"L. c gray30",
"P. c #4C4C4C",
"I. c #4B4B4B",
"U. c gray29",
"Y. c #494949",
"T. c #484848",
"R. c gray28",
"E. c #464646",
"W. c gray27",
"Q. c #444444",
"!. c #434343",
"~. c gray26",
"^. c #414141",
"/. c gray25",
"(. c #3F3F3F",
"). c #3E3E3E",
"_. c gray24",
"`. c #3C3C3C",
"'. c gray23",
"]. c #3A3A3A",
"[. c #393939",
"{. c #373737",
"}. c gray21",
"|. c #353535",
" X c #343434",
".X c gray20",
"XX c #323232",
"oX c #313131",
"OX c gray19",
"+X c #2F2F2F",
"@X c gray18",
"#X c #2D2D2D",
"$X c #2C2C2C",
"%X c gray17",
"&X c #2A2A2A",
"*X c gray16",
"=X c #282828",
"-X c #272727",
";X c gray15",
":X c #252525",
">X c gray14",
",X c #232323",
"<X c #222222",
"1X c gray13",
"2X c #202020",
"3X c gray12",
"4X c #1E1E1E",
"5X c #1D1D1D",
"6X c gray11",
"7X c #1B1B1B",
"8X c gray10",
"9X c #191919",
"0X c #181818",
"qX c gray9",
"wX c #161616",
"eX c #151515",
"rX c gray8",
"tX c #131313",
"yX c gray7",
"uX c #111111",
"iX c #101010",
"pX c gray6",
"aX c #0E0E0E",
"sX c gray5",
"dX c #0C0C0C",
"fX c #0B0B0B",
"gX c gray4",
"hX c #090909",
"jX c gray3",
"kX c #070707",
"lX c #060606",
"zX c gray2",
"xX c #040404",
"cX c gray1",
"vX c #020202",
"bX c #010101",
"nX c cyan",
"mX c black",
"MX c black",
"NX c black",
"BX c black",
"VX c black",
"CX c black",
"ZX c black",
"AX c black",
"SX c black",
"DX c black",
"FX c black",
"GX c black",
"HX c black",
"JX c black",
"KX c black",
"LX c black",
"PX c black",
"IX c black",
"UX c black",
"YX c None",
/* pixels */
"YXYXYXYXYXYXYXYXYXYXYXYXYXYXYXYXYXYXYXYXYXYXYXYXYXYXYXYXYXYXYXYXYXYXYXYXYXYXYXYXYXYXYXYXYXYXYXYXYXYXYXYXYXYXYXYXYXYXYXYXYXYXYXYX",
"YXYXYXYXYXYXYXYXYXYXYXYXYXYXYXYXYXYXYXYXYXYXYXYXYXYXYXYXYXYXYXYXYXYXYXYXYXYXYXYXYXYXYXYXYXYXYXYXYXYXYXYXYXYXYXYXYXYXYXYXYXYXYXYX",
"YXYXYXYXYXYXYXYXYXYXYXYXYXYXYXYXYXYXYXYXYXYXYXYXYXYXYXYXYXYXYXYXYXYXYXYXYXYXYXYXYXYXYXYXYXYXYXYXYXYXYXYXYXYXYXYXYXYXYXYXYXYXYXYX",
"YXYXYXYXYXYXYXYXYX        YXYXYXYXYXYXYXYXYXYXYXYXYXYXYXYXYXYXYXYXYXYXYXYXYXYXYXYXYXYXYXYXYXYXYXYXYXYXYX    . YXYXYXYXYXYXYXYXYX",
"YXYXYXYXYXYXYXYXYX  r W .     YXYXYXYXYXYXYXYXYXYXYXYXYXYXYXYXYXYXYXYXYXYXYXYXYXYXYXYXYXYXYXYXYXYXYX    $ | 1 YXYXYXYXYXYXYXYXYX",
"YXYXYXYXYXYXYXYXYX  = +XU.i     YXYXYXYXYXYXYXYXYXYXYXYXYXYXYXYXYXYXYXYXYXYXYXYXYXYXYXYXYXYXYXYXYX    B |.C.o YXYXYXYXYXYXYXYXYX",
"YXYXYXYXYXYXYXYXYXYX  #.mX4X{       YXYXYXYXYXYXYXYXYXYXYXYXYXYXYXYXYXYXYXYXYXYXYXYXYXYXYXYXYX    = q.aXmXA   YXYXYXYXYXYXYXYXYX",
"YXYXYXYXYXYXYXYXYXYX  3 eXmXmXP.p     YXYXYXYXYXYXYXYXYXYXYXYXYXYXYXYXYXYXYXYXYXYXYXYXYXYXYX    S .XmXmX|.o   YXYXYXYXYXYXYXYXYX",
"YXYXYXYXYXYXYXYXYXYXYX  x.mXuXmXyX&.+     YXYXYXYXYX          X X X           YXYXYXYXYX    ; i.mXmXaXmX#.  YXYXYXYXYXYXYXYXYXYX",
"YXYXYXYXYXYXYXYXYXYXYX  Z mXM.] 7XmXQ.V     YX      = V @.a.C.`.`.`.M.i. .b #     YXYX    T %XmX+X^ %XfX0   YXYXYXYXYXYXYXYXYXYX",
"YXYXYXYXYXYXYXYXYXYXYX  + OXjX1 5 v.mXmX5.%     a 7.-XcXmXmXmXmXmXmXmXmXmXxXOX,.w     7 c.mXbXy.* c mXx.  YXYXYXYXYXYXYXYXYXYXYX",
"YXYXYXYXYXYXYXYXYXYXYXYX  $.mX,.- 4 R <XmX[.Y r.iXmXmXmXmXmXmXmXmXmXmXmXmXmXmXmX0X1.[ ,XmX{.N 4 . l.mXS   YXYXYXYXYXYXYXYXYXYXYX",
"YXYXYXYXYXYXYXYXYXYXYXYX  y cX@X6 ).~ 5 k.mXmXmXmXmXmXmXmXmXmXmXmXmXmXmXmXmXmXmXmXmXmXzX4.= &.B.e jX<X$   YXYXYXYXYXYXYXYXYXYXYX",
"YXYXYXYXYXYXYXYXYXYXYXYX  X T.mXh u.mXk., Y %XmXmXmXmXmXmXmXmXmXmXmXmXmXmXmXmXmXmXmX[.z s K.mX( ~ mX-.  YXYXYXYXYXYXYXYXYXYXYXYX",
"YXYXYXYXYXYXYXYXYXYXYXYXYX  Y mXg.r aXmX<X' < 7.hXmXmXmXmXmXmXmXmXmXmXmXmXmXmXmXeXo.7 5.pXmX-X: [.dXt   YXYXYXYXYXYXYXYXYXYXYXYX",
"YXYXYXYXYXYXYXYXYXYXYXYXYX  @ ,XhX5 G.mXmXmXJ.w m XXmXmXmXmXmXmXmXmXmXmXmXmXmXH.u x }.mXmXmX8.k mXI.    YXYXYXYXYXYXYXYXYXYXYXYX",
"YXYXYXYXYXYXYXYXYXYXYXYXYXYX  t.mX' _ mXmXmXmXwX| < 6.dXmXmXmXmXmXmXmXmXmXeX ., 1.gXmXmXmXcXg f.mX`   YXYXYXYXYXYXYXYXYXYXYXYXYX",
"YXYXYXYXYXYXYXYXYXYXYXYXYXYX  t sX'.t rXmXmXmXmXmXL.i g ~.mXmXmXmXmXmXmXM.w N +XmXmXmXmXmX/.4 yX-X@   YXYXYXYXYXYXYXYXYXYXYXYXYX",
"YXYXYXYXYXYXYXYXYXYXYXYXYXYX  @ ,XmXc s.mXmXmXmXmXmXrX=.2 &.rXmXmXmX1X_ 3 u.cXmXmXmXmXmXmXX.^ mX/.    YXYXYXYXYXYXYXYXYXYXYXYXYX",
"YXYXYXYXYXYXYXYXYXYXYXYXYXYX  ..vXmXr.j bXmXmXmXmXmXmXmX'.x t P.jXl.2 F &XmXmXmXmXmXmXmXrXq !.mXvXE   YXYXYXYXYXYXYXYXYXYXYXYXYX",
"YXYXYXYXYXYXYXYXYXYXYXYXYX  o +XmXmX%X=  XmXmXmXmXmXmXmXmXzXd., s 7 V.mXmXmXmXmXmXmXmXmXj.d zXmXmX!.X   YXYXYXYXYXYXYXYXYXYXYXYX",
"YXYXYXYXYXYXYXYXYXYXYXYXYX  J vXmXmXmXG ' mXmXmXmXmXmXmXmXmXv.> t 9 L.mXmXmXmXmXmXmXmXmXM 5.mXmXmXxXv   YXYXYXYXYXYXYXYXYXYXYXYX",
"YXYXYXYXYXYXYXYXYXYXYXYXYX  z.mXmXmXmXP.8 pXmXmXmXmXmXmX#XG 9 v.sXi.5 ) 4XmXmXmXmXmXmX$X2 =XmXmXmXmX;.  YXYXYXYXYXYXYXYXYXYXYXYX",
"YXYXYXYXYXYXYXYXYXYXYXYX  & 1XmXmXmXmXkXt b.mXmXmXmXkX8.2 X.8XmXmXmX>XI 0 h.mXmXmXmXmXO.L mXmXmXmXmX`.X YXYXYXYXYXYXYXYXYXYXYXYX",
"YXYXYXYXYXYXYXYXYXYXYXYX  p lXmXmXmXmXmX8.Z mXmXmX`.b u Y.mXmXmXmXmXmXmXh.2 G #XmXmXgXe S.mXmXmXmXmXsX2   YXYXYXYXYXYXYXYXYXYXYX",
"YXYXYXYXYXYXYXYXYXYXYXYX  L mXmXmXmXmXmX-X: &XjX*.- O.tXmXmXmXmXmXmXmXmXmX3X^ > u.mXV.9 dXmXmXmXmXmXxXc   YXYXYXYXYXYXYXYXYXYXYX",
"YXYXYXYXYXYXYXYXYXYXYXYX  ^ mXmXmXmXmXmXmXY Y V s U.mXmXmXmXmXmXmXmXmXmXmXmXmXB.8 P z 2.mXmXmXmXmXmXbXA   YXYXYXYXYXYXYXYXYXYXYX",
"YXYXYXYXYXYXYXYXYXYXYXYX  <.mXmXmXmXmXmXqXH   4.aXmXmXmXmXmXmXmXmXmXmXmXmXmXmXmX6X)   } pXmXmXmXmXmXmXQ   YXYXYXYXYXYXYXYXYXYXYX",
"YXYXYXYXYXYXYXYXYXYXYXYX  4.mXmXmXmXmXD.9 M q (.mXmXmXmXmXmXmXmXmXmXmXmXmXmXmXmXmX8.l v a ~.mXmXmXmXmX!   YXYXYXYXYXYXYXYXYXYXYX",
"YXYXYXYXYXYXYXYXYXYXYXYX  U mXmXmX9XX.3 7.lX2.^ mXmXmXmXmXmXmXmXmXmXmXmXmXmXmXmXdXe V.hX$.3 2.pXmXmXvXN   YXYXYXYXYXYXYXYXYXYXYX",
"YXYXYXYXYXYXYXYXYXYX    % z.mXmXb.0 S -XmXmX%X> >XmXmXmXmXmXmXmXmXmXmXmXmXmXmXmXU.r fXmXmX].k u J.mXmX0.o     YXYXYXYXYXYXYXYXYX",
"YXYXYXYXYXYXYXYXYX    M _.mX;XT > p.vXmXmXmXvXz w.mXmXmXmXmXmXmXmXmXmXmXmXmXmXmX) #.mXmXmXmXkX2.* } 9XmXU.f     YXYXYXYXYXYXYXYX",
"YXYXYXYXYXYXYX    4 s.mXmXf.w ` 6XmXmXmXmXmXmXz.u lXmXmXmXmXmXmXmXmXmXmXmXmXmX3X< @XmXmXmXmXmXmX-XU t N.mXjX9.*     YXYXYXYXYXYX",
"YXYXYXYXYXYX    K %XmX&XP   3.$X*X+XOXOXOXOXOX^.* l.OXOXOXOXOXOXOXOXOXOXOXOX+X>.w  XOXOXOXOXOX+X=XoXX.  / 4XmX}.N     YXYXYXYXYX",
"YXYXYXYX    2 r.jXmXb.t + > e 6 5 5 5 5 5 5 5 6 $ O 7 5 5 5 5 5 5 5 5 5 5 5 5   > 6 5 5 5 5 5 5 5 7 r ; @ h L.mXfX8.=     YXYXYX",
"YXYXYX  + | 5XmXmXmXgXjXcXcXlXhXyXtXtXtXtXtXtXtXR.- XXtXtXtXtXtXtXtXtXtXtXtXC.1 <XtXtXtXtXtXtXtXyXjXlXcXcXhXkXmXmXmX>XI O   YXYX",
"YXYXYXo P S.I.F.D.F.J.K.K.K.K.|.mXmXmXmXmXmXmXmXvXk a.mXmXmXmXmXmXmXmXmXmXmX{ / mXmXmXmXmXmXmXmXmX(.K.K.K.K.H.D.D.F.I.n.N   YXYX",
"YXYXYX. %                     : :XmXmXmXmXmXmXmXmXu.z lXmXmXmXmXmXmXmXmXmXqX1 Q.mXmXmXmXmXmXmXmX{.O                     #   YXYX",
"YXYXYXYXYXYXYXYXYXYXYXYXYXYXYX  / mXmXmXmXmXmXmXmXrX6 W.mXmXmXmXmXmXmXmXmXp.s zXmXmXmXmXmXmXmXkXF   YXYXYXYXYXYXYXYXYXYXYXYXYXYX",
"YXYXYXYXYXYXYXYXYXYXYXYXYXYXYX    g.mXmXmXmXmXmXmXmXW } mXmXmXmXmXmXmXmXzXg 0.mXmXmXmXmXmXmXmX9.    YXYXYXYXYXYXYXYXYXYXYXYXYXYX",
"YXYXYXYXYXYXYXYXYXYXYXYXYXYXYXYX  & R.mXmXmXmXmXmXmXJ.0 aXmXmXmXmXmXmXmX`.= ,XmXmXmXmXmXmXmXm.X   YXYXYXYXYXYXYXYXYXYXYXYXYXYXYX",
"YXYXYXYXYXYXYXYXYXYXYXYXYXYXYXYXYX  1 E.mXmXmXmXmXmXxXk k.mXmXmXmXmXmXmX .L mXmXmXmXmXmXmXZ.@   YXYXYXYXYXYXYXYXYXYXYXYXYXYXYXYX",
"YXYXYXYXYXYXYXYXYXYXYXYXYXYXYXYXYXYX  : Z.mXmXmXmXmXmX0.N mXmXmXmXmXmXsX0 J.mXmXmXmXmXmXk.#   YXYXYXYXYXYXYXYXYXYXYXYXYXYXYXYXYX",
"YXYXYXYXYXYXYXYXYXYXYXYXYXYXYXYXYXYXYX  o 2.jXmXmXmXmX%X, ;XmXmXmXmXmXZ.k cXmXmXmXmXyXO.    YXYXYXYXYXYXYXYXYXYXYXYXYXYXYXYXYXYX",
"YXYXYXYXYXYXYXYXYXYXYXYXYXYXYXYXYXYXYXYX    n ~.mXmXmXbXF :.mXmXmXmXmXF *.mXmXmXcXV.d     YXYXYXYXYXYXYXYXYXYXYXYXYXYXYXYXYXYXYX",
"YXYXYXYXYXYXYXYXYXYXYXYXYXYXYXYXYXYXYXYXYX    o G x.8XmXD.e uXmXmXmX+X: OXmX2Xh.Z       YXYXYXYXYXYXYXYXYXYXYXYXYXYXYXYXYXYXYXYX",
"YXYXYXYXYXYXYXYXYXYXYXYXYXYXYXYXYXYXYXYXYXYXYX      4 XXkX2 b.mXmXmX+.n mXS.:       YXYXYXYXYXYXYXYXYXYXYXYXYXYXYXYXYXYXYXYXYXYX",
"YXYXYXYXYXYXYXYXYXYXYXYXYXYXYXYXYXYXYXYXYXYXYXYXYXYX  %.mX%.S mXmXfXe M.vXn   YXYXYXYXYXYXYXYXYXYXYXYXYXYXYXYXYXYXYXYXYXYXYXYXYX",
"YXYXYXYXYXYXYXYXYXYXYXYXYXYXYXYXYXYXYXYXYXYXYXYXYXYX  0 hX+X- &XmXA.< sX{.    YXYXYXYXYXYXYXYXYXYXYXYXYXYXYXYXYXYXYXYXYXYXYXYXYX",
"YXYXYXYXYXYXYXYXYXYXYXYXYXYXYXYXYXYXYXYXYXYXYXYXYXYXYX  C.mXC -.mXI %.mX:.  YXYXYXYXYXYXYXYXYXYXYXYXYXYXYXYXYXYXYXYXYXYXYXYXYXYX",
"YXYXYXYXYXYXYXYXYXYXYXYXYXYXYXYXYXYXYXYXYXYXYXYXYXYXYX  J mXN.f @X3 %XlXi   YXYXYXYXYXYXYXYXYXYXYXYXYXYXYXYXYXYXYXYXYXYXYXYXYXYX",
"YXYXYXYXYXYXYXYXYXYXYXYXYXYXYXYXYXYXYXYXYXYXYXYXYXYXYX  # >XhXf V D mXU.    YXYXYXYXYXYXYXYXYXYXYXYXYXYXYXYXYXYXYXYXYXYXYXYXYXYX",
"YXYXYXYXYXYXYXYXYXYXYXYXYXYXYXYXYXYXYXYXYXYXYXYXYXYXYXYX  <.mX%.  b.mXY   YXYXYXYXYXYXYXYXYXYXYXYXYXYXYXYXYXYXYXYXYXYXYXYXYXYXYX",
"YXYXYXYXYXYXYXYXYXYXYXYXYXYXYXYXYXYXYXYXYXYXYXYXYXYXYXYX  d cX}.9 iX5X=   YXYXYXYXYXYXYXYXYXYXYXYXYXYXYXYXYXYXYXYXYXYXYXYXYXYXYX",
"YXYXYXYXYXYXYXYXYXYXYXYXYXYXYXYXYXYXYXYXYXYXYXYXYXYXYXYX  . D.zXB.mX7.  YXYXYXYXYXYXYXYXYXYXYXYXYXYXYXYXYXYXYXYXYXYXYXYXYXYXYXYX",
"YXYXYXYXYXYXYXYXYXYXYXYXYXYXYXYXYXYXYXYXYXYXYXYXYXYXYXYXYX  G mXmXsXi   YXYXYXYXYXYXYXYXYXYXYXYXYXYXYXYXYXYXYXYXYXYXYXYXYXYXYXYX",
"YXYXYXYXYXYXYXYXYXYXYXYXYXYXYXYXYXYXYXYXYXYXYXYXYXYXYXYXYX  # >XmXH.    YXYXYXYXYXYXYXYXYXYXYXYXYXYXYXYXYXYXYXYXYXYXYXYXYXYXYXYX",
"YXYXYXYXYXYXYXYXYXYXYXYXYXYXYXYXYXYXYXYXYXYXYXYXYXYXYXYXYXYX  e.mX'   YXYXYXYXYXYXYXYXYXYXYXYXYXYXYXYXYXYXYXYXYXYXYXYXYXYXYXYXYX",
"YXYXYXYXYXYXYXYXYXYXYXYXYXYXYXYXYXYXYXYXYXYXYXYXYXYXYXYXYXYX  l *X1   YXYXYXYXYXYXYXYXYXYXYXYXYXYXYXYXYXYXYXYXYXYXYXYXYXYXYXYXYX",
"YXYXYXYXYXYXYXYXYXYXYXYXYXYXYXYXYXYXYXYXYXYXYXYXYXYXYXYXYXYX  * S   YXYXYXYXYXYXYXYXYXYXYXYXYXYXYXYXYXYXYXYXYXYXYXYXYXYXYXYXYXYX",
"YXYXYXYXYXYXYXYXYXYXYXYXYXYXYXYXYXYXYXYXYXYXYXYXYXYXYXYXYXYXYX      YXYXYXYXYXYXYXYXYXYXYXYXYXYXYXYXYXYXYXYXYXYXYXYXYXYXYXYXYXYX",
"YXYXYXYXYXYXYXYXYXYXYXYXYXYXYXYXYXYXYXYXYXYXYXYXYXYXYXYXYXYXYXYXYXYXYXYXYXYXYXYXYXYXYXYXYXYXYXYXYXYXYXYXYXYXYXYXYXYXYXYXYXYXYXYX",
"YXYXYXYXYXYXYXYXYXYXYXYXYXYXYXYXYXYXYXYXYXYXYXYXYXYXYXYXYXYXYXYXYXYXYXYXYXYXYXYXYXYXYXYXYXYXYXYXYXYXYXYXYXYXYXYXYXYXYXYXYXYXYXYX",
"YXYXYXYXYXYXYXYXYXYXYXYXYXYXYXYXYXYXYXYXYXYXYXYXYXYXYXYXYXYXYXYXYXYXYXYXYXYXYXYXYXYXYXYXYXYXYXYXYXYXYXYXYXYXYXYXYXYXYXYXYXYXYXYX"
};
