/* XPM */
static char *IconClanLas.gif[] = {
/* columns rows colors chars-per-pixel */
"64 64 17 1",
"  c gray100",
". c #EFEFEF",
"X c gray84",
"o c #C6C6C6",
"O c gray71",
"+ c #A5A5A5",
"@ c gray55",
"# c #7B7B7B",
"$ c gray42",
"% c #5A5A5A",
"& c gray29",
"* c #393939",
"= c #181818",
"- c gray3",
"; c cyan",
": c black",
"> c None",
/* pixels */
">>>>>>>>>>>>>>>>>>>>>>>>>>>>>>>>>>>>>>>>>>>>>>>>>>>>>>>>>>>>>>>>",
">>>>>>>>>>>>>>>>>>>>>>>>>>>>>>>>>>>>>>>>>>>>>>>>>>>>>>>>>>>>>>>>",
">>>>>>>>>>>>>>>>>>>>>>>>>>>>>>>>>>>>>>>>>>>>>>>>>>>>>>>>>>>>>>>>",
">>>>>>>>>>>>>>>>>>>>>>>>>>>>>>>>>>>>>>>>>>>>>>>>>>>>>>>>>>>>>>>>",
">>>>>>>>>>>>>>>>>>>>>>>>>>>>>> .. >>>>>>>>>>>>>>>>>>>>>>>>>>>>>>",
">>>>>>>>>>>>>>>>>>>>>>>>>>>>>> %%.>>>>>>>>>>>>>>>>>>>>>>>>>>>>>>",
">>>>>>>>>>>>>>>>>>>>>>>>>>>>>> :: >>>>>>>>>>>>>>>>>>>>>>>>>>>>>>",
">>>>>>>>>>>>>>>>>>>>>>>>>>>>  .-:. .>>>>>>>>>>>>>>>>>>>>>>>>>>>>",
">>>>>>>>>>>>>>>>>>>>>>>>>>>>O::::-:o>>>>>>>>>>>>>>>>>>>>>>>>>>>>",
">>>>>>>>>>>>>>>>>>>>>>>>>>>>O-:-:::X>>>>>>>>>>>>>>>>>>>>>>>>>>>>",
">>>>>>>>>>>>>>>>>>>>>>>>>>>> .O::+  >>>>>>>>>>>>>>>>>>>>>>>>>>>>",
">>>>>>>>>>>>>>>>>>>>>>>>>>>>  .::. >>>>>>>>>>>>>>>>>>>>>>>>>>>>>",
">>>>>>>>>>>>>>>>>>>>>>>>>>> .#*=:*@. >>>>>>>>>>>>>>>>>>>>>>>>>>>",
">>>>>>>>>>>>>>>>>>>>>>>>>> .&-:::::&o >>>>>>>>>>>>>>>>>>>>>>>>>>",
">>>>>>>>>>>>>>>>>>>>>>>>>> $::::-:::% >>>>>>>>>>>>>>>>>>>>>>>>>>",
">>>>>>>>>>>>>>>>>>>>>>>>>> -::::::-:-.>>>>>>>>>>>>>>>>>>>>>>>>>>",
">>>>>>>>>>>>>>>>>>>>>     .:::-::-:::.     >>>>>>>>>>>>>>>>>>>>>",
">>>>>>>>>>>>>>>>  ..XO@%*-:::::::::-:--=%#+..   >>>>>>>>>>>>>>>>",
">>>>>>>>>>>>>  .O$*:::::::::::::::::-:::::::-*$O.  >>>>>>>>>>>>>",
">>>>>>>>>>>  .%-:::::::::::::::-::-:-::-::::::::=%X. >>>>>>>>>>>",
">>>>>>>>> .X%:::::--::-:::-*=::::::-==:::-:::=:::-:%O  >>>>>>>>>",
">>>>>>>> .@=::::-:::::::*+..O=:::::O  +*:::-:::-::::=@. >>>>>>>>",
">>>>>>> .$-::-:::-:--::&o   o-:::-:O  .o%:-:::=--:::::$. >>>>>>>",
">>>>>> .$:::-::*O+::::&o  . o::::-:o .  o*:::-@+*:::-::$. >>>>>>",
">>>>>> $:::-:*+ .&:-:-O  .  o::::::o     O:-::*  +=::-::#.>>>>>>",
">>>>> +-:-::&X. O::-:=.  .  o::-:::o   .  =:::-+  .&-:-:-+ >>>>>",
">>>>>.%::-:%    %::::& .    o:::::-O      %:-::&    $::::&.>>>>>",
">>>> X::::*    .-::::#      o:-::::+      #::::-.    *::::O >>>>",
">>>> #::-:+  . X:::::#      o::::::@      $::::-X    +::::$ >>>>",
">>>> =::-:     o:::::#      o::::::$      #:::::o     -:::= >>>>",
">>>>.:::::     o:-:::%      O::::-:#    . $:-:-:O     =::-:.>>>>",
">>>>o::::*     o:-:::*  .   +::-:::@      *:-:::O     *::-:X>>>>",
">>>>O-:::&    .O:::::*      $::-:::$  .   *:::::O.    &::::o>>>>",
">>>>O-:::=     o:::::=@+   .*::::::*.   +@=:::::o     *::::O>>>>",
">>>>o:::::     .:::::::-.  .=:::::::.  .=:::-:::.     :::::o>>>>",
">>> O::-:-#.  ..:::::::::$ *-:::-:::* $:::::::::..  .@:::::O >>>",
">>> &:::-:-&.  @:-:::::--*.-::::::::-.*:--:-:::-+  .%-:::::&.>>>",
">>>.=:::-:::=o.--:::::-::@ O*:::-::*+ +=::::::-::Xo=::-::::=.>>>",
">>> +*-::--:-&O-:-::::-:*.  @*::-:*@  .&:::::-:::o*:-:::-:=+ >>>",
">>>> .%::::::+X*:-:-:-:%.    X=:::.    .&-::::-:*.+::-:::%  >>>>",
">>>>> .%:::::# X:::::-:%  .  o-:::X  .  %-:--::=o @-:-::%X >>>>>",
">>>>>> X=:::=.  .$::::::*@$#%=::-:-$@%@*:::::-$X  X::-:=X >>>>>>",
">>>>>>> +:::-o.  $::-:::::-::::::-:::=:::-::::%   o--:-@ >>>>>>>",
">>>>>>>>.&::::&$=::::::::::::::::::::::::::::::=%&-:::*. >>>>>>>",
">>>>>>>> +-:::--::::::::::::::::::::::::::::::::--::::+ >>>>>>>>",
">>>>>>>> .=::::::-::::::::::::::::::::::::::::::::::-=. >>>>>>>>",
">>>>>>>>.#::::::::::::::::::::::::::::::::::::::::-:::#.>>>>>>>>",
">>>>>>>>o=::::::::-:::::::::::::::::::::::::::::::::-:=X>>>>>>>>",
">>>>>>>>+::::-::::-::::::::::::::::::::::::::::::::-:::+>>>>>>>>",
">>>>>>>>+---:::::::::::::::::::::::::::::::::::::--:::-+>>>>>>>>",
">>>>>>>>  .@=:::::-:::::::::::::::::::::::::::::::::O   >>>>>>>>",
">>>>>>>>>>>.=:::-::::::::::-:::::::::::::::::::::::-.>>>>>>>>>>>",
">>>>>>>>> .O=:::-::::::::::::::::::::::::::::::::::=O. >>>>>>>>>",
">>>>>>>>>.@-::::::-::-=*$@+XX.    .oO+#%*-::::::::::-$ >>>>>>>>>",
">>>>>>>>>.%:::::-*%+o.    >>>>>>>>>>>      o+%=-:::::& >>>>>>>>>",
">>>>>>>>> +&*=%+.   >>>>>>>>>>>>>>>>>>>>>>>>   .+%**%+ >>>>>>>>>",
">>>>>>>>>>  ..  >>>>>>>>>>>>>>>>>>>>>>>>>>>>>>>>   .  >>>>>>>>>>",
">>>>>>>>>>>>>>>>>>>>>>>>>>>>>>>>>>>>>>>>>>>>>>>>>>>>>>>>>>>>>>>>",
">>>>>>>>>>>>>>>>>>>>>>>>>>>>>>>>>>>>>>>>>>>>>>>>>>>>>>>>>>>>>>>>",
">>>>>>>>>>>>>>>>>>>>>>>>>>>>>>>>>>>>>>>>>>>>>>>>>>>>>>>>>>>>>>>>",
">>>>>>>>>>>>>>>>>>>>>>>>>>>>>>>>>>>>>>>>>>>>>>>>>>>>>>>>>>>>>>>>",
">>>>>>>>>>>>>>>>>>>>>>>>>>>>>>>>>>>>>>>>>>>>>>>>>>>>>>>>>>>>>>>>",
">>>>>>>>>>>>>>>>>>>>>>>>>>>>>>>>>>>>>>>>>>>>>>>>>>>>>>>>>>>>>>>>",
">>>>>>>>>>>>>>>>>>>>>>>>>>>>>>>>>>>>>>>>>>>>>>>>>>>>>>>>>>>>>>>>"
};
