/* XPM */
static char *IconClanGanA.gif[] = {
/* columns rows colors chars-per-pixel */
"64 64 17 1",
"  c gray100",
". c gray97",
"X c gray87",
"o c #CECECE",
"O c gray71",
"+ c #A5A5A5",
"@ c gray61",
"# c gray55",
"$ c gray45",
"% c #5A5A5A",
"& c gray26",
"* c #313131",
"= c gray13",
"- c gray3",
"; c cyan",
": c black",
"> c None",
/* pixels */
">>>>>>>>>>>>>>>>>>>>>>>>>>>>>>>>>>>>>>>>>>>>>>>>>>>>>>>>>>>>>>>>",
">>>>>>>>>>>>>>>>>>>>>>>>>>>>>>>>>>>>>>>>>>>>>>>>>>>>>>>>>>>>>>>>",
">>>>>>>>>>>>>>>>>>>>>>>>>>>>>>>>>>>>>>>>>>>>>>>>>>>>>>>>>>>>>>>>",
">>>>>>>>>>>>>>>>>>>>>>>>>>>>>>>>>>>>>>>>>>>>>>>>>>>>>>>>>>>>>>>>",
">>>>>>>>>>>>>>>>>>>>>>>>>>>>>>>>>>>>>>>>>>>>>>>>>>>>>>>>>>>>>>>>",
">>>>>>>>>>>>>>>>>>>>>>>>>>>>>>>>>>>>>>>>>>>>>>>>>>>>>>>>>>>>>>>>",
">>>>>>>>>>>>>>>>>>>>>>>>>>>>>>>>>>>>>>>>>>>>>>>>>>>>>>>>>>>>>>>>",
">>>>>>>>>>>>>>>>>>>>>>>>>>>>>>  .>>>>>>>>>>>>>>>>>>>>>>>>>>>>>>>",
">>>>>>>>>>>>>>>>>>>>>>>>>>>>   o >>>>>>>>>>>>>>>>>>>>>>>>>>>>>>>",
">>>>>>>>>>>>>>  .>>>         .o*  >>>>>>>>>>>>>>>>>>>>>>>>>>>>>>",
">>>>>>>>>>>>>> .   > .oooX.   +:X >>>>>>>>>>>>>>>>>>>>>>>>>>>>>>",
">>>>>>>>>>>>>> .o. > .o#$$%$#O=:#  >    >>>>>>>>>>>>>>>>>>>>>>>>",
">>>>>>>>>>>>>   &.     .XXX@oo%==X   ..  >>>>>>>>>>>>>>>>>>>>>>>",
">>>>>>>>>>>>> X$+$.   .XoX &X  o=#+.X+O. >>>>>>>>>>>>>>>>>>>>>>>",
">>>>>>>>>>>>>  %.o#XX  -:=-:#   X&::=::@  >.     >>>>>>>>>>>>>>>",
">>>>>>>>>>>>>> #X .OOO+::-::&X   o%:-::&X . X+%o >>>>>>>>>>>>>>>",
">>>>>>>>>>>>>> Xo    o#=:::::@ .  X&::::=+ O&=% .>>>>>>>>>>>>>>>",
">>>>>>>>>>>>>>  +. .   .O*:-&o      #:-:::*:::o >>>>>>>>>>>>>>>>",
">>>>>>>>>>>>>>> #    .   XO.     . . O=::::::% .>>>>>>>>>>>>>>>>",
">>>>>>>>>>>>>>> @      .    ..         +%-:-:o >>>>>>>>>>>>>>>>>",
">>>>>>>>>>>>>>  +X        ..   .    . .  .@=:O .  >>>>>>>>>>>>>>",
">>>>>>>>>>>>>  .$+ .  .          . oo.     #:-  .      >>>>>>>>>",
">>>>>>>>>>>>> O#:&               X%:*@.   .O#%#+OOooO+  >>>>>>>>",
">>>>>>>>>>>>> -::=.               XoX       ..  XoOX.#. >>>>>>>>",
">>>>>>>>>>>>> -::$                     ..            # .>>>>>>>>",
">>>>>>>>>>>   #-=X                 .           ..   XO >>>>>>>>>",
">>>>>>>>>>> ..$:%o                                  #. >>>>>>>>>",
">>>>>>>>>>    :=O..                  .        ..    #  >>>>>>>>>",
">>>>>>>>>> .  =+..o        ..             .        XO >>>>>>>>>>",
">>>>>>>    o%*o O%.         .                      +    >>>>>>>>",
">>>>>>> X$-::*%$=X  .    .X           +o   .    . .-&@. >>>>>>>>",
">>>>>>> X+%:--:-X    . o+X           @:-**o .OO  @$=%+. >>>>>>>>",
">>>>>>>   ..+*-o     .##.           O-:::-@ &-:oo##.    >>>>>>>>",
">>>>>>>>>  . o+.   .$&o   .        .&:::::#+:::O#.   >>>>>>>>>>>",
">>>>>>>>>>  #oX  .o*$. . .          +--::-=-::-=+ .>>>>>>>>>>>>>",
">>>>>>>>   #+   o$-O.   . .           #:::::-:::  >>>>>>>>>>>>>>",
">>>>>>>> .o+. .$*%  .  .           .  .#::=-::=*X >>>>>>>>>>>>>>",
">>>>>>>>  .%*O&@.        .o          .  =-.:::$$o >>>>>>>>>>>>>>",
">>>>>>>>>  X+#. .       o*#         . . .o ::-X#o >>>>>>>>>>>>>>",
">>>>>>>>  .OOo    .  .+&::.         .   .  XOO #  >>>>>>>>>>>>>>",
">>>>>>>  .o#oOO+ . o#=::-=           .   .  .  $ >>>>>>>>>>>>>>>",
">>>>>>> X@#%%#*Oo#*:::::-=         .  $@       @  >>>>>>>>>>>>>>",
">>>>>>  o##@+##+o=:::::::=.         +o#-%.OO##oo. >>>>>>>>>>>>>>",
">>>>>> .O#+X.   #-::-::::=          o%.&:::::=O   >>>>>>>>>>>>>>",
">>>>>>      . ..=::=*-:::-+          +&@:=%-::$ .>>>>>>>>>>>>>>>",
">>>>>>>>>>>  . +:-$X +=:-:&         . X:$X X%:=X >>>>>>>>>>>>>>>",
">>>>>>>>>>>>> .%$X    X-:-:$.       . .@+.   X$$ >>>>>>>>>>>>>>>",
">>>>>>>>>>>>>  o.  >> .&=%%*@X  .  .   oO .   X. >>>>>>>>>>>>>>>",
">>>>>>>>>>>>>>    >>>  ..   o+o         X+$.    .>>>>>>>>>>>>>>>",
">>>>>>>>>>>>>>>>>>>>>>    >  O--$X   OO.Xo@+ >>>>>>>>>>>>>>>>>>>",
">>>>>>>>>>>>>>>>>>>>>>>>>>>>  -:$o#OO#$##$#$  >>>>>>>>>>>>>>>>>>",
">>>>>>>>>>>>>>>>>>>>>>>>>>>> .#:o . . oXX#+#. >>>>>>>>>>>>>>>>>>",
">>>>>>>>>>>>>>>>>>>>>>>>>>>>  o-     ..    .  >>>>>>>>>>>>>>>>>>",
">>>>>>>>>>>>>>>>>>>>>>>>>>>>> .@ >>>    >>  .>>>>>>>>>>>>>>>>>>>",
">>>>>>>>>>>>>>>>>>>>>>>>>>>>>    >>>>>>>>>>>>>>>>>>>>>>>>>>>>>>>",
">>>>>>>>>>>>>>>>>>>>>>>>>>>>>>>>>>>>>>>>>>>>>>>>>>>>>>>>>>>>>>>>",
">>>>>>>>>>>>>>>>>>>>>>>>>>>>>>>>>>>>>>>>>>>>>>>>>>>>>>>>>>>>>>>>",
">>>>>>>>>>>>>>>>>>>>>>>>>>>>>>>>>>>>>>>>>>>>>>>>>>>>>>>>>>>>>>>>",
">>>>>>>>>>>>>>>>>>>>>>>>>>>>>>>>>>>>>>>>>>>>>>>>>>>>>>>>>>>>>>>>",
">>>>>>>>>>>>>>>>>>>>>>>>>>>>>>>>>>>>>>>>>>>>>>>>>>>>>>>>>>>>>>>>",
">>>>>>>>>>>>>>>>>>>>>>>>>>>>>>>>>>>>>>>>>>>>>>>>>>>>>>>>>>>>>>>>",
">>>>>>>>>>>>>>>>>>>>>>>>>>>>>>>>>>>>>>>>>>>>>>>>>>>>>>>>>>>>>>>>",
">>>>>>>>>>>>>>>>>>>>>>>>>>>>>>>>>>>>>>>>>>>>>>>>>>>>>>>>>>>>>>>>",
">>>>>>>>>>>>>>>>>>>>>>>>>>>>>>>>>>>>>>>>>>>>>>>>>>>>>>>>>>>>>>>>"
};
