/* XPM */
static char *IconClanTBr.gif[] = {
/* columns rows colors chars-per-pixel */
"64 64 257 2",
"   c gray100",
".  c #FEFEFE",
"X  c #FDFDFD",
"o  c gray99",
"O  c #FBFBFB",
"+  c gray98",
"@  c #F9F9F9",
"#  c #F8F8F8",
"$  c gray97",
"%  c #F6F6F6",
"&  c gray96",
"*  c #F4F4F4",
"=  c #F3F3F3",
"-  c gray95",
";  c gray94",
":  c #EFEFEF",
">  c #EEEEEE",
",  c gray93",
"<  c #ECECEC",
"1  c gray92",
"2  c #EAEAEA",
"3  c #E9E9E9",
"4  c gray91",
"5  c #E7E7E7",
"6  c #E6E6E6",
"7  c gray90",
"8  c #E4E4E4",
"9  c gray89",
"0  c #E2E2E2",
"q  c #E1E1E1",
"w  c gray88",
"e  c #DFDFDF",
"r  c gray87",
"t  c #DDDDDD",
"y  c gainsboro",
"u  c gray86",
"i  c #DADADA",
"p  c gray85",
"a  c #D8D8D8",
"s  c #D7D7D7",
"d  c #D5D5D5",
"f  c gray83",
"g  c LightGray",
"h  c #D2D2D2",
"j  c #D0D0D0",
"k  c gray80",
"l  c #CBCBCB",
"z  c #CACACA",
"x  c gray79",
"c  c #C8C8C8",
"v  c gray78",
"b  c #C6C6C6",
"n  c #C5C5C5",
"m  c gray77",
"M  c #C3C3C3",
"N  c gray76",
"B  c #C1C1C1",
"V  c #C0C0C0",
"C  c gray75",
"Z  c #BCBCBC",
"A  c gray73",
"S  c #B9B9B9",
"D  c gray72",
"F  c #B7B7B7",
"G  c #B6B6B6",
"H  c gray71",
"J  c #B4B4B4",
"K  c gray70",
"L  c #B2B2B2",
"P  c #B1B1B1",
"I  c #AFAFAF",
"U  c #AEAEAE",
"Y  c gray68",
"T  c #ACACAC",
"R  c gray67",
"E  c #AAAAAA",
"W  c #A9A9A9",
"Q  c gray66",
"!  c #A7A7A7",
"~  c gray65",
"^  c #A5A5A5",
"/  c #A4A4A4",
"(  c gray64",
")  c #A2A2A2",
"_  c #A0A0A0",
"`  c #9F9F9F",
"'  c gray62",
"]  c gray61",
"[  c #9B9B9B",
"{  c #9A9A9A",
"}  c gray60",
"|  c #989898",
" . c #979797",
".. c gray59",
"X. c #959595",
"o. c gray58",
"O. c #939393",
"+. c #909090",
"@. c gray56",
"#. c #8E8E8E",
"$. c gray55",
"%. c #8B8B8B",
"&. c gray54",
"*. c #898989",
"=. c #888888",
"-. c gray53",
";. c gray52",
":. c #848484",
">. c #838383",
",. c gray51",
"<. c #818181",
"1. c #808080",
"2. c gray50",
"3. c #7E7E7E",
"4. c gray49",
"5. c #7C7C7C",
"6. c #7B7B7B",
"7. c gray48",
"8. c #797979",
"9. c gray47",
"0. c #777777",
"q. c #767676",
"w. c gray46",
"e. c #747474",
"r. c gray45",
"t. c #727272",
"y. c gray44",
"u. c #6F6F6F",
"i. c gray43",
"p. c #6D6D6D",
"a. c #6C6C6C",
"s. c gray42",
"d. c #6A6A6A",
"f. c DimGray",
"g. c #686868",
"h. c #676767",
"j. c gray40",
"k. c #656565",
"l. c #646464",
"z. c gray39",
"x. c #626262",
"c. c gray38",
"v. c #606060",
"b. c #5F5F5F",
"n. c gray37",
"m. c #5D5D5D",
"M. c gray36",
"N. c #5B5B5B",
"B. c #5A5A5A",
"V. c gray35",
"C. c #585858",
"Z. c gray34",
"A. c #555555",
"S. c gray33",
"D. c #535353",
"F. c gray32",
"G. c #515151",
"H. c #505050",
"J. c gray31",
"K. c #4E4E4E",
"L. c gray30",
"P. c #4C4C4C",
"I. c #4B4B4B",
"U. c gray29",
"Y. c #494949",
"T. c #484848",
"R. c gray28",
"E. c #464646",
"W. c gray27",
"Q. c #444444",
"!. c #434343",
"~. c gray26",
"^. c #414141",
"/. c gray25",
"(. c #3F3F3F",
"). c #3E3E3E",
"_. c gray24",
"`. c #3C3C3C",
"'. c gray23",
"]. c #3A3A3A",
"[. c #393939",
"{. c gray22",
"}. c #373737",
"|. c gray21",
" X c #353535",
".X c #343434",
"XX c gray20",
"oX c #323232",
"OX c #313131",
"+X c gray19",
"@X c #2F2F2F",
"#X c gray18",
"$X c #2D2D2D",
"%X c #2C2C2C",
"&X c gray17",
"*X c #2A2A2A",
"=X c gray16",
"-X c #282828",
";X c #272727",
":X c gray15",
">X c #252525",
",X c gray14",
"<X c #232323",
"1X c #222222",
"2X c gray13",
"3X c #202020",
"4X c gray12",
"5X c #1E1E1E",
"6X c #1D1D1D",
"7X c gray11",
"8X c #1B1B1B",
"9X c gray10",
"0X c #191919",
"qX c #181818",
"wX c gray9",
"eX c #161616",
"rX c #151515",
"tX c gray8",
"yX c #131313",
"uX c gray7",
"iX c #111111",
"pX c #101010",
"aX c gray6",
"sX c #0E0E0E",
"dX c gray5",
"fX c #0C0C0C",
"gX c #0B0B0B",
"hX c gray4",
"jX c #090909",
"kX c gray3",
"lX c #070707",
"zX c #060606",
"xX c gray2",
"cX c #040404",
"vX c gray1",
"bX c #020202",
"nX c #010101",
"mX c cyan",
"MX c black",
"NX c black",
"BX c black",
"VX c black",
"CX c black",
"ZX c black",
"AX c black",
"SX c black",
"DX c black",
"FX c black",
"GX c black",
"HX c black",
"JX c black",
"KX c black",
"LX c black",
"PX c black",
"IX c black",
"UX c black",
"YX c None",
/* pixels */
"YXYXYXYXYXYXYXYXYXYXYXYXYXYXYXYXYXYXYXYXYXYXYXYXYXYXYXYXYXYXYXYXYXYXYXYXYXYXYXYXYXYXYXYXYXYXYXYXYXYXYXYXYXYXYXYXYXYXYXYXYXYXYXYX",
"YXYXYXYXYXYXYXYXYXYXYXYXYXYXYXYXYXYXYXYXYXYXYXYXYXYXYXYXYXYXYXYXYXYXYXYXYXYXYXYXYXYXYXYXYXYXYXYXYXYXYXYXYXYXYXYXYXYXYXYXYXYXYXYX",
"YXYXYXYXYXYXYXYXYXYXYXYXYXYXYXYXYXYXYXYXYXYXYXYXYXYXYXYXYXYXYXYXYXYXYXYXYXYXYXYXYXYXYXYXYXYXYXYXYXYXYXYXYXYXYXYXYXYXYXYXYXYXYXYX",
"YXYXYXYXYXYXYXYXYXYXYXYXYXYXYXYXYXYXYXYXYXYXYXYX        . X X X X X X X           YXYXYXYXYXYXYXYXYXYXYXYXYXYXYXYXYXYXYXYXYXYXYX",
"YXYXYXYXYXYXYXYXYXYXYXYXYXYXYXYXYXYXYXYXYX      , J ,.r.'.XXXXXXXXXXXX|.M.1.Y f         YXYXYXYXYXYXYXYXYXYXYXYXYXYXYXYXYXYXYXYX",
"YXYXYXYXYXYXYXYXYXYXYXYXYXYXYXYXYXYX      > / n.=XMXMXMXiX/.~.~.~.~.~.*XvXMXMXiXP.&.g       YXYXYXYXYXYXYXYXYXYXYXYXYXYXYXYXYXYX",
"YXYXYXYXYXYXYXYXYXYXYXYXYXYXYXYX      u 0.<XMXvX:XP.U.].{.OX+X+X+X+X+X.X{.E.I.[.jXMXsXg.f       YXYXYXYXYXYXYXYXYXYXYXYXYXYXYXYX",
"YXYXYXYXYXYXYXYXYXYXYXYXYXYXYX    s f.hXMX7XR.I.OXaXkXMXMXMXMXMXMXMXMXMXMXcXsX6XE.T. XcXcXm.B     YXYXYXYXYXYXYXYXYXYXYXYXYXYXYX",
"YXYXYXYXYXYXYXYXYXYXYXYXYXYX  O ^ 9XMXyX$X$XiXMXMXMXMXMXMXbXbXvXxXbXbXMXMXMXMXMXMXfX#XH.+XMXnX+.O   YXYXYXYXYXYXYXYXYXYXYXYXYXYX",
"YXYXYXYXYXYXYXYXYXYXYXYXYX  $ a.MXrXI.%XlXMXMXMXMXxX|.5.%.B M m G M M ! 2.(.uXMXMXMXMXcX*X|.2XMXW.8     YXYXYXYXYXYXYXYXYXYXYXYX",
"YXYXYXYXYXYXYXYXYXYXYX    5 E.MX*X!.tXMXMXMXMXoX>.n @         k r.        . s X.R.cXMXMXMXjX`. XMXXXA     YXYXYXYXYXYXYXYXYXYXYX",
"YXYXYXYXYXYXYXYXYXYX    c _.MX[._.MXMXMXMX X_ *               f.kX6             X v S.MXMXMXMX-X/.cXhXG     YXYXYXYXYXYXYXYXYXYX",
"YXYXYXYXYXYXYXYXYXYX  t rXMX X<XMXMXMXeX .*                 @ &XMX]                 . F @XMXMXMX0X~.dXkXJ     YXYXYXYXYXYXYXYXYX",
"YXYXYXYXYXYXYXYXYX  1 E.MXD.&XMXMXMXY.k                     S xXMXR.X                   e w.cXMXMXpX).gXfXS   YXYXYXYXYXYXYXYXYX",
"YXYXYXYXYXYXYXYX  & R.MX.X@XMXMXMXq.=                       c.MXMXMXb               3 p.P   ) xXMXMXsXE.zX%X0   YXYXYXYXYXYXYXYX",
"YXYXYXYXYXYXYX    w.MX}.<XMXMXhXo.                        d <XqXcX6Xh..           S .XjXw     D &XMXMXiXW.vX@X,   YXYXYXYXYXYXYX",
"YXYXYXYXYXYXYX  m vX,X/.MXMXzX|                           J ^ d.xXh +.@       @ o.jXMX{.X       x zXMXMX9XOXMX8.    YXYXYXYXYXYX",
"YXYXYXYXYXYX  2 ;XdX!.lXMXMX8.                                j.MX&         i W.MXMXMXv..         ` kXMXMX+X*XzXb   YXYXYXYXYXYX",
"YXYXYXYXYXYX  &.MX).7XMXMXP.*                                 k.MX;         x 2.tXMXMX`             9.MXMXkX|.bXF.    YXYXYXYXYX",
"YXYXYXYXYX  & 1XwX'.MXMXwXj                                   k.MX;           X.MX6XpXh             * *XMXMX5X.XMXc   YXYXYXYXYX",
"YXYXYXYXYX  ` MXT.dXMXMX1.                                    k.MX;         w 9XfXx u.6               m bXMXzXQ.bXs.    YXYXYXYX",
"YXYXYXYX  % #XuX`.MXMX8X4                                     k.MX;         b.MX@.  3 O                 !.MXMX%X{.xXf   YXYXYXYX",
"YXYXYXYX  C MXoXdXMXMX9.                                      k.MX;       W MX~.o                       C cXMXdXI.MX&.  YXYXYXYX",
"YXYXYXYX  >.MXR.nXMX7X4                                       k.MX;     e 2XaXg                           G.MXMX&XaX}.+ YXYXYXYX",
"YXYXYXYX@ OXeX{.MXMXb.                                        s.MX@     v.MX0.                            ~ MXMX>XoXMX9   YXYXYX",
"YXYXYX  6 hX_.tXMXMXE                                       q ).MXG . L MXOX1                             4 3XMXkX{.bXH   YXYXYX",
"YXYXYX  I MX*XsXMXqX6                                   v l.8XMXMXjX~.-XjXP                                 J.MXbX.XvXw.  YXYXYX",
"YXYXYX  6.zXT.lXMX'.o                                 Z uXMXMXMXMXMXMXMXI.o                                 @.MXMXN.5XZ.. YXYXYX",
"YXYXYX  7.pXr.MXMX5.                                l iXMXMXcXuXbXpXMXMXcX,.                                ( nXMXJ.%X1X% YXYXYX",
"YXYXYX# }.yXu.MXMX>.                                c.MXMXeX5.[.cX3XMXMXMXiXy                               s jXMXeX`.6X% YXYXYX",
"YXYXYX% 0X_.4.MXbXF                               = wXMXvXe.E.MXMXMX/.4XMXMX/                               i jXMXyX`.5X% YXYXYX",
"YXYXYX% 8XG.U.MXbXn                               ; dXMXfX*.hXMXMXMXa.S.MXMX{                               p jXMXtX`.5X% YXYXYX",
"YXYXYX% 0XB.0.MXbXv                               : gXMXgX>.fXMXMXMXg.G.MXMX}                               p jXMXtX`.5X% YXYXYX",
"YXYXYX% 7XOX9.MXnXW                               % ,XMXnX9XzXnXMXqXr.pXMXMXI                               i jXMXuX_.5X% YXYXYX",
"YXYXYX$ @XrXy.MXMX2.                                9.MXMXMXhX2XjX2.-XMXMX<X5                               p jXMX5X[.6X% YXYXYX",
"YXYXYX  0.aXi.MXMX4.                                w >XMXMXbXxXbXkXMXMXMX[                                 R vXMXV.=X1X% YXYXYX",
"YXYXYX  >.bX|.gXMX`.X                                 ;.MXMXMXMXMXMXMXMXh.O                                 -.MXMXN.4XA.. YXYXYX",
"YXYXYX  n MX+XaXMXrXq                               5 =XuXN.7XzXMXaX!.( +                                 . R.MXnX}.zX,.  YXYXYX",
"YXYXYX  w xX_.wXMXMXU                               k.MXo.  = b.MXq                                       p gXMXhX[.nXD   YXYXYX",
"YXYXYXYX+ R.gX/.MXMXz.                            ) MX[.@     h.MX*                                       O.MXMX1X.XxXr   YXYXYX",
"YXYXYXYX  :.MXQ.vXMXuXw                         6 8XlXC       k.MX;                                       [.MXMX XaXP..   YXYXYX",
"YXYXYXYX  k MX).9XMXMX&.                        3.MXw.        k.MX;                                     c vXMXfX'.MX#.  YXYXYXYX",
"YXYXYXYX  X W.uXR.MXMX2X;                 <   B kX:X;         k.MX;                                   X K.MXMX.X$XeXf   YXYXYXYX",
"YXYXYXYXYX  U MX(.wXMXMXq.                h.{ ^.MXD           k.MX;                                   R MXMXjXQ.MXd.    YXYXYXYX",
"YXYXYXYXYX  < wXyX/.MXMXzXF             O '.zXnXg.            k.MX;                                 2 %XMXMX$X&XMXC   YXYXYXYXYX",
"YXYXYXYXYXYX  @.MX!.3XMXMX'.+           = aXMXMXY.=.O         k.MX;                               o s.MXMXaXR.nXn.X   YXYXYXYXYX",
"YXYXYXYXYXYX  % +XlX~.vXMXMXl.          N xXMXMX Xz .         h.MX+                               =.MXMXMX_.7XfXq   YXYXYXYXYXYX",
"YXYXYXYXYXYXYX  c hXqX|.bXMXMXh.#       r.MXzX<.;         I %.n.lX' ]                           Y gXMXMX-X&XMXO.  YXYXYXYXYXYXYX",
"YXYXYXYXYXYXYX    1.MX-X%XMXMXMXx.X   X ).1XC             V MXfXbXMX{                         ! zXMXMXwX].MXK.    YXYXYXYXYXYXYX",
"YXYXYXYXYXYXYXYX  # s.MXOX,XMXMXMXx.= O 2.3               O C.MXMX4X<                       -.gXMXMX6X`.nX;X0   YXYXYXYXYXYXYXYX",
"YXYXYXYXYXYXYXYXYX  2 |.MX X:XMXMXMX].C                     R MXMX9.                    r N.MXMXMX6X].nX,Xh   YXYXYXYXYXYXYXYXYX",
"YXYXYXYXYXYXYXYXYXYX  7 @XMX@X9XnXMXMXzX1.*                 5 qXMXm                 # / wXMXMXMX7X_.MX3Xa     YXYXYXYXYXYXYXYXYX",
"YXYXYXYXYXYXYXYXYXYXYX  8  XMX%XOXnXMXMXMX*X=.w               b.*Xo             O ( XXMXMXMXMX#X).MX,Xa     YXYXYXYXYXYXYXYXYXYX",
"YXYXYXYXYXYXYXYXYXYXYXYX  8 h.MXrX!.8XMXMXMXMX0Xx.Q 6         K |         3 M 7.}.MXMXMXMXrX_.@XMX.Xh     YXYXYXYXYXYXYXYXYXYXYX",
"YXYXYXYXYXYXYXYXYXYXYXYXYX  O e.zXzX@X`.wXMXMXMXMXMX6XT.>...~ s p T ..X.B.<XbXMXMXMXMXkX>XU.9XMXA.-     YXYXYXYXYXYXYXYXYXYXYXYX",
"YXYXYXYXYXYXYXYXYXYXYXYXYXYX    C  XMXqX~.^.8XnXMXMXMXMXMXMXMXhXhXMXMXMXMXMXMXMXMX8X@XQ.7XMXwX( .   YXYXYXYXYXYXYXYXYXYXYXYXYXYX",
"YXYXYXYXYXYXYXYXYXYXYXYXYXYXYX    * $.wXMXyX#XI.{.9XlXMXMXMXMXMXMXMXMXMXMXlXqX&X$X/.qXMXpXg.t     YXYXYXYXYXYXYXYXYXYXYXYXYXYXYX",
"YXYXYXYXYXYXYXYXYXYXYXYXYXYXYXYXYX    9 X.oXMXnX9X'.L.J.).{.{.Y.P.{.{.{.L.K./.0XMXMX;Xy.p       YXYXYXYXYXYXYXYXYXYXYXYXYXYXYXYX",
"YXYXYXYXYXYXYXYXYXYXYXYXYXYXYXYXYXYXYX    + l t.{.iXMXnXnXvXhX~.I.hXzXbXMXMXMX-XV.) &       YXYXYXYXYXYXYXYXYXYXYXYXYXYXYXYXYXYX",
"YXYXYXYXYXYXYXYXYXYXYXYXYXYXYXYXYXYXYXYXYX      X t { w.h.Z.,X6X7X,X(.h.h.#.S #       YXYXYXYXYXYXYXYXYXYXYXYXYXYXYXYXYXYXYXYXYX",
"YXYXYXYXYXYXYXYXYXYXYXYXYXYXYXYXYXYXYXYXYXYXYXYX            % % % % .           YXYXYXYXYXYXYXYXYXYXYXYXYXYXYXYXYXYXYXYXYXYXYXYX",
"YXYXYXYXYXYXYXYXYXYXYXYXYXYXYXYXYXYXYXYXYXYXYXYXYXYXYXYXYXYXYXYXYXYXYXYXYXYXYXYXYXYXYXYXYXYXYXYXYXYXYXYXYXYXYXYXYXYXYXYXYXYXYXYX",
"YXYXYXYXYXYXYXYXYXYXYXYXYXYXYXYXYXYXYXYXYXYXYXYXYXYXYXYXYXYXYXYXYXYXYXYXYXYXYXYXYXYXYXYXYXYXYXYXYXYXYXYXYXYXYXYXYXYXYXYXYXYXYXYX",
"YXYXYXYXYXYXYXYXYXYXYXYXYXYXYXYXYXYXYXYXYXYXYXYXYXYXYXYXYXYXYXYXYXYXYXYXYXYXYXYXYXYXYXYXYXYXYXYXYXYXYXYXYXYXYXYXYXYXYXYXYXYXYXYX"
};
