/* XPM */
static char *IconClanBru.gif[] = {
/* columns rows colors chars-per-pixel */
"64 64 17 1",
"  c gray100",
". c gray97",
"X c gray87",
"o c #C6C6C6",
"O c gray71",
"+ c #A5A5A5",
"@ c gray58",
"# c gray55",
"$ c gray45",
"% c #5A5A5A",
"& c gray26",
"* c #313131",
"= c #181818",
"- c gray3",
"; c cyan",
": c black",
"> c None",
/* pixels */
">>>>>>>>>>>>>>>>>>>>>>>>>>>>>>>>>>>>>>>>>>>>>>>>>>>>>>>>>>>>>>>>",
">>>>>>>>>>>>>>>>>>>>>>>>>>>>>>>>>>>>>>>>>>>>>>>>>>>>>>>>>>>>>>>>",
">>>>>>>>>>>>>>>>>>>>>>>>>>>>>>>>>>>>>>>>>>>>>>>>>>>>>>>>>>>>>>>>",
">>>>>>>>>>>>>>>>>>>>>>>>>>>>>>>>>>>>>>>>>>>>>>>>>>>>>>>>>>>>>>>>",
">>>>>>>>>>>>>>>>>>>>>>>>>>>>>>>>>>>>>>>>>>>>>>>>>>>>>>> X >>>>>>",
">>>>>>>>>>>>> X >>>>>>>>>>>>>>>>>>>>>>>>>>>>>>>>>>>>>> X# >>>>>>",
">>>>>>>>>>>>> $ >>>>>>>>>>>>>>>>>>>>>>>>>>>>>>>>>>>>> .%+.>>>>>>",
">>>>>>>>>>>>> %o >>>>>>>>>>>>>>>>>>>>>>>>>>>>>>>>>>>  $*. >>>>>>",
">>>>>>>>>>>>> @$ >>>>>>>>>>>>>>>>>>>>>>>>>>>>>>>>>>> o:O >>>>>>>",
">>>>>>>>>>>>> X*.>>>>>>>>>>>>>>>>>>>>>>>>>>>>>>>>>>. &* .>>>>>>>",
">>>>>>>>>>>>>> =X >>>>>>>>>>>>>>>>>>>>>>>>>>>>>>>>. #:O >>>>>>>>",
">>>>>>>>>>>>>> =:X >>>>>>>>>>>>>>>>>>>>>>>>>>>>>>  *:-+ >>>>>>>>",
">>>>>>>>>>>>>> =:#. >>>>>>>>    >>>>>>>>>>>>>>>>> #=:%X >>>>>>>>",
">>>>>>>>>>>>>> %:*O >>>>>   Xoo.      >>>>>>>>>> .-::O >>>>>>>>>",
">>>>>>>>>>>>>> +=-=. >> X +*-*=::*%$O.    >>>>>> $::&. >>>>>>>>>",
">>>>>>>>>>>>>> .*--O   o%==:::::--:::=%&$X  >>> X--:@ >>>>>>>>>>",
">>>>>>>>>>>>>>> %::*O.$-::-::-=:::::::-::=OX >  %::-X >>>>>>>>>>",
">>>>>>>>>>>>>>> #:--=*::-:%#@@oo+$#&*=::*--&o  O:-:#.>>>>>>>>>>>",
">>>>>>>>>>>>>>> O-:-::::*o  ..  . .$#o+*:::--OX*::=. >>>>>>>>>>>",
">>>>>>>>>>>>>>> X=:::::#.  >>>>>>>  XOoX@:::-@#:::o.>>>>>>>>>>>>",
">>>>>>>>>>>>>>  $*:-*%X  >>>>>>>>>>> .  .@:::-::-$.>>>>>>>>>>>>>",
">>>>>>>>>>>>>>.+--::$. >>>>>>>>>>>>>>>>> .+=-:::-$ >>>>>>>>>>>>>",
">>>>>>>>>>>>>>X*-:-:=. >>>>>>>>>>>>>>>>>>  #&-::%=.>>>>>>>>>>>>>",
">>>>>>>>>>>>>>X:::o*:+ >>>>>>>>>>>>>>>>>>>  %--:$X.>>>>>>>>>>>>>",
">>>>>>>>>>>>> X::$ $:% >>>>>>>>>>>>>>>>>>> X-:::=  >>>>>>>>>>>>>",
">>>>>>>>>>>>> $::O o::X >>>>>>>>>>>>>>>> XX&::=-=& >>>>>>>>>>>>>",
">>>>>>>>>>>>  ::-X .=:# >>>>>>>>>>>>>>> XO#-:-.-:-X. >>>>>>>>>>>",
">>>>>>>>>>>> +-:@ >.*:%X>>>>>>>>>>>>>>> O$-::%o&::#+X . >>>>>>>>",
">>>>>>>>>>>> $::$.>.$:%.>>>>>>>>>>>>>>  #-::-=%*-::::*$X>>>>>>>>",
">>>>>>>>>>>>.*::$ > X-= .X.>>>>>>> .  X@*:-::::::-:=&$o >>>>>>>>",
">>>>>>>>>>>>.=:=$ >> *:++oX  . >  oo+&::::::-:::::*o    >>>>>>>>",
">>>>>>>>>>>> =-*$ > X=:*=$+XXo. .+$*-::::--:*#+#::-o >>>>>>>>>>>",
">>>>>>>>>>>> -:*$  X#::-:-*=*+XO$:-:::=::::-%. o:-:o >>>>>>>>>>>",
">>>>>>>>>>>> ::=%X.%-::::::-%X .O*:*$@+=:=-o   O:::X >>>>>>>>>>>",
">>>>>>>>>>>> -:-=@*:::-::::*$X>  oX  .o-:&*  > .::-X >>>>>>>>>>>",
">>>>>>>>>   .*-::::-:::-::O   >>.    .=::+O >> #-::O.>>>>>>>>>>>",
">>>>>>>  X+&*:::-:-::-::::@ >>>>>>>  &:-:oo > .*::=o >>>>>>>>>>>",
">>>>>>> O$*=*=::::*:-*:--:%X >>>>>> +:--%#X >.O::-%.>>>>>>>>>>>>",
">>>>>> X$*:--=--:&$# X$&::=OX >>>> .*:::+# >> +:::o >>>>>>>>>>>>",
">>>>  .O*:*##%::=# . +OX-::#O >>>> @-:-$#. >> +::*  >>>>>>>>>>>>",
">>> .@%%+    .$::*X .+. &-:&O >>> .*::=XO >> .%::$ >>>>>>>>>>>>>",
">>>.OO.   >>> o=::&  .  @::%+ >>> O-::&O..> .#-::% >>>>>>>>>>>>>",
">>>  . >>>>>>  &:::. >> .::*o >>> #:-:X  > .+-::=$ >>>>>>>>>>>>>",
">>>>>>>>>>>>>> O=::% .>> *::X >>..:--& >>> +-:-:*  >>>>>>>>>>>>>",
">>>>>>>>>>>>>> .+-::O..> @::*.>> %-::@.>>> %:::=O >>>>>>>>>>>>>>",
">>>>>>>>>>>>>>>  %:::&X  X:::.  X-:-*X >  X=---@ .>>>>>>>>>>>>>>",
">>>>>>>>>>>>>>>> o*:::-o  %::+ .$:-:O  ..O==::#. >>>>>>>>>>>>>>>",
">>>>>>>>>>>>>>>>> X*:-:*# O::&  =:-%   +*:::-$. >>>>>>>>>>>>>>>>",
">>>>>>>>>>>>>>>>>> X=::::*O=:-X+::-X O*::::*o  >>>>>>>>>>>>>>>>>",
">>>>>>>>>>>>>>>>>>>. +=:::=:::%*:-&X$=:::-*X  >>>>>>>>>>>>>>>>>>",
">>>>>>>>>>>>>>>>>>>>  O*:::::::-::-:::::%@  >>>>>>>>>>>>>>>>>>>>",
">>>>>>>>>>>>>>>>>>>>>  .@*=:-::-:::::=$X . >>>>>>>>>>>>>>>>>>>>>",
">>>>>>>>>>>>>>>>>>>>>>>  XXX%::::-%+.   >>>>>>>>>>>>>>>>>>>>>>>>",
">>>>>>>>>>>>>>>>>>>>>>>>>>> +:::-O.  >>>>>>>>>>>>>>>>>>>>>>>>>>>",
">>>>>>>>>>>>>>>>>>>>>>>>>>>  %::&  >>>>>>>>>>>>>>>>>>>>>>>>>>>>>",
">>>>>>>>>>>>>>>>>>>>>>>>>>>>.+-*. >>>>>>>>>>>>>>>>>>>>>>>>>>>>>>",
">>>>>>>>>>>>>>>>>>>>>>>>>>>>.@:# >>>>>>>>>>>>>>>>>>>>>>>>>>>>>>>",
">>>>>>>>>>>>>>>>>>>>>>>>>>>> O*X.>>>>>>>>>>>>>>>>>>>>>>>>>>>>>>>",
">>>>>>>>>>>>>>>>>>>>>>>>>>>>. O >>>>>>>>>>>>>>>>>>>>>>>>>>>>>>>>",
">>>>>>>>>>>>>>>>>>>>>>>>>>>>>   >>>>>>>>>>>>>>>>>>>>>>>>>>>>>>>>",
">>>>>>>>>>>>>>>>>>>>>>>>>>>>>>>>>>>>>>>>>>>>>>>>>>>>>>>>>>>>>>>>",
">>>>>>>>>>>>>>>>>>>>>>>>>>>>>>>>>>>>>>>>>>>>>>>>>>>>>>>>>>>>>>>>",
">>>>>>>>>>>>>>>>>>>>>>>>>>>>>>>>>>>>>>>>>>>>>>>>>>>>>>>>>>>>>>>>",
">>>>>>>>>>>>>>>>>>>>>>>>>>>>>>>>>>>>>>>>>>>>>>>>>>>>>>>>>>>>>>>>"
};
