/* XPM */
static char *IconClanMalA.gif[] = {
/* columns rows colors chars-per-pixel */
"64 64 17 1",
"  c gray100",
". c gray97",
"X c gray87",
"o c #CECECE",
"O c gray74",
"+ c gray68",
"@ c gray61",
"# c #848484",
"$ c gray45",
"% c #5A5A5A",
"& c gray32",
"* c #313131",
"= c #181818",
"- c gray3",
"; c cyan",
": c black",
"> c None",
/* pixels */
">>>>>>>>>>>>>>>>>>>>>>>>>>>>>>>>>>>>>>>>>>>>>>>>>>>>>>>>>>>>>>>>",
">>>>>>>>>>>>>>>>>>>>>>>>>>>>>>>>>>>>>>>>>>>>>>>>>>>>>>>>>>>>>>>>",
">>>>>>>>>>>>>>>>>>>>>>>>>>>>>>>>>>>>>>>>>>>>>>>>>>>>>>>>>>>>>>>>",
">>>>>>>>>>>>>>>>>>>>>>>>>>>>>>>>>>>>>>>>>>>>>>>>>>>>>>>>>>>>>>>>",
">>>>>>>>>>>>>>>>>>>>>>>>>>>>>>>>>>>>>>>>>>>>>>>>>>>>>>>>>>>>>>>>",
">>>>>>>>>>>>>>>>>>>>>>>>>>>>>>>>>>>>>>>>>>>>>>>>>>>>>>>>>>>>>>>>",
">>>>>>>>>>>>>>>>>>>>>>>>>>>>>>>>>>>>>>>>>>>>>>>>>>>>>>>>>>>>>>>>",
">>>>>>>>>>>>>>>>>>>>>>>>>>>>> .. >>>>>>>>>>>>>>>>>>>>>>>>>>>>>>>",
">>>>>>>>>>>>>>>>>>>>>>>>>>>>>....>>>>>>>>>>>>>>>>>>>>>>>>>>>>>>>",
">>>>>>>>>>>>>>>>>>>>>>>>>>>>> O%  >>>>>>>>>>>>>>>>>>>>>>>>>>>>>>",
">>>>>>>>>>>>>>>>>>>>>>>>>>>>> $-. >>>    .      .>>>>>>>>>>>>>>>",
">>>>>>>>>>>>>>>>>>>>>>>>>>>>  =:+.>   X@@@#O@@Oo   >>>>>>>>>>>>>",
">>>>>>>>>>>>>>>>>>>>>>  .    O-$$.  .++.    ..X+X. >>>>>>>>>>>>>",
">>>>>>>>>>>>>     >>>  oo  O#&&.*@O@@X X+Oo+oXX.@  >>>>>>>>>>>>>",
">>>>>>>>>>>>> .oo  >  X=:*--:=o *-*o o#@.    .X O. >>>>>>>>>>>>>",
">>>>>>>>>>>>> .#*@ . X@::-::-#  Xo  @@.        ..# >>>>>>>>>>>>>",
">>>>>>>>>>>>>. o=:=+X&::-:--+ .o  o@X            # >>>>>>>>>>>>>",
">>>>>>>>>>>>>>  #:::-:--:-:@ X@  .            . X+ >>>>>>>>>>>>>",
">>>>>>>>>>>>>>> X=::::::::@..+.   .           o.+X >>>>>>>>>>>>>",
">>>>>>>>>>>>>>>  %:-::-:-@  +.                X @  >>>>>>>>>>>>>",
">>>>>>>>>>>>>>. X*::-::-$ .+.    .   .XX   ....X+ >>>>>>>>>>>>>>",
">>>>>>>>>>>>.  .$::-:--&. +X  ..    XoooX. o.X +. >>>>>>>>>>>>>>",
">>>>>>>>>>>> .@$--::-:% .@o X o. X  XX .O+o.  .$   >>>>>>>>>>>>>",
">>>>>>>>>>>>  -:::::-*X +OXO$+.#@O$@+X  ..    $-X. >>>>>>>>>>>>>",
">>>>>>>>>>>>> --:-::=o oX  .$  @o .+.  .  .  .=:o  >>>>>>>>>>>>>",
">>>>>>>>>>>>> $::-::@ .O   OX              . @:&.  >>>>>>>>>>>>>",
">>>>>>>>>>>>> *::::* .@   OX.              O $:=@O >>>>>>>>>>>>>",
">>>>>>>>>>>>  -::::@  +..$.                X O#o@X >>>>>>>>>>>>>",
">>>>>>>>>    X=::::X.o. +X                 ... O@X    >>>>>>>>>>",
">>>>>>>   .@$*::-::    X.                 ..  O-:&#X.   >>>>>>>>",
">>>>>>>.o$=-::-::::O OO@                 ... X*:::-:*@X >>>>>>>>",
">>>>>>> .@%-:--:::-@ O#..               .X. X*::-::*#o  >>>>>>>>",
">>>>>>>.    +$::-::=  O              .  .X..$::-=@X    >>>>>>>>>",
">>>>>>>>>>> ..-:::::$   X   .  .       .o. @::::O.  >>>>>>>>>>>>",
">>>>>>>>>>>>  *::::-=o..oOX           .@. +-:::-. >>>>>>>>>>>>>>",
">>>>>>>>>>>>> &::::::-+X.  .  .       O  O-::::*  >>>>>>>>>>>>>>",
">>>>>>>>>>>>> &:--:-::-X  .+.    .  .+  o=::::-*. >>>>>>>>>>>>>>",
">>>>>>>>>>>> .=::-::-=&   XOX.     X@. O-:::-::-X >>>>>>>>>>>>>>",
">>>>>>>>>>>> .$=:::-=o.o.%+ o+o  XO+  O=-:-:::=%. >>>>>>>>>>>>>>",
">>>>>>>>>>>>.  X&:-:#. X*:=. .+$$+ . O-::::::-O. .>>>>>>>>>>>>>>",
">>>>>>>>>>>>>>  @-:* oX ::-=O    .  %:-:::::-$ . >>>>>>>>>>>>>>>",
">>>>>>>>>>>>>>  .%*X .+#:::::*#OO@&:::-:::::-  . >>>>>>>>>>>>>>>",
">>>>>>>>>>>>> .X+$o  @=:::::::-::-::-::-:--:-@ .>>>>>>>>>>>>>>>>",
">>>>>>>>>>>>> o@X.  @-::::::::::::::::-::::-:-. >>>>>>>>>>>>>>>>",
">>>>>>>>>>>>> @X   .%::=:-::::::-:::::::-%%::-@. >>>>>>>>>>>>>>>",
">>>>>>>>>>>>. @..  XO+*::::::-:::::::::*@  o%:*. >>>>>>>>>>>>>>>",
">>>>>>>>>>>> .$    @  O:::::::--::::-:-+     o%+.>>>>>>>>>>>>>>>",
">>>>>>>>>>>>.+O  ..@   $&#@**::::**#@$$. >>>  .  >>>>>>>>>>>>>>>",
">>>>>>>>>>>> @  O#@. > ..   .&-:-O      .>>>>. .>>>>>>>>>>>>>>>>",
">>>>>>>>>>>>.@X.+    >    > .O::%. >>>>>>>>>>>>>>>>>>>>>>>>>>>>>",
">>>>>>>>>>>> O++o >>>>>>>>>> .=:@ >>>>>>>>>>>>>>>>>>>>>>>>>>>>>>",
">>>>>>>>>>>>  ..  >>>>>>>>>>  &-X >>>>>>>>>>>>>>>>>>>>>>>>>>>>>>",
">>>>>>>>>>>>>    >>>>>>>>>>>> +%  >>>>>>>>>>>>>>>>>>>>>>>>>>>>>>",
">>>>>>>>>>>>>>>>>>>>>>>>>>>>>  O >>>>>>>>>>>>>>>>>>>>>>>>>>>>>>>",
">>>>>>>>>>>>>>>>>>>>>>>>>>>>>> . >>>>>>>>>>>>>>>>>>>>>>>>>>>>>>>",
">>>>>>>>>>>>>>>>>>>>>>>>>>>>>>. .>>>>>>>>>>>>>>>>>>>>>>>>>>>>>>>",
">>>>>>>>>>>>>>>>>>>>>>>>>>>>>>>>>>>>>>>>>>>>>>>>>>>>>>>>>>>>>>>>",
">>>>>>>>>>>>>>>>>>>>>>>>>>>>>>>>>>>>>>>>>>>>>>>>>>>>>>>>>>>>>>>>",
">>>>>>>>>>>>>>>>>>>>>>>>>>>>>>>>>>>>>>>>>>>>>>>>>>>>>>>>>>>>>>>>",
">>>>>>>>>>>>>>>>>>>>>>>>>>>>>>>>>>>>>>>>>>>>>>>>>>>>>>>>>>>>>>>>",
">>>>>>>>>>>>>>>>>>>>>>>>>>>>>>>>>>>>>>>>>>>>>>>>>>>>>>>>>>>>>>>>",
">>>>>>>>>>>>>>>>>>>>>>>>>>>>>>>>>>>>>>>>>>>>>>>>>>>>>>>>>>>>>>>>",
">>>>>>>>>>>>>>>>>>>>>>>>>>>>>>>>>>>>>>>>>>>>>>>>>>>>>>>>>>>>>>>>",
">>>>>>>>>>>>>>>>>>>>>>>>>>>>>>>>>>>>>>>>>>>>>>>>>>>>>>>>>>>>>>>>"
};
