/* XPM */
static char *IconClanSet.gif[] = {
/* columns rows colors chars-per-pixel */
"64 64 17 1",
"  c gray100",
". c #EFEFEF",
"X c gray87",
"o c #C6C6C6",
"O c gray71",
"+ c gray61",
"@ c #848484",
"# c gray42",
"$ c gray32",
"% c gray29",
"& c #393939",
"* c gray13",
"= c #101010",
"- c gray3",
"; c cyan",
": c black",
"> c None",
/* pixels */
">>>>>>>>>>>>>>>>>>>>>>>>>>>>>>>>>>>>>>>>>>>>>>>>>>>>>>>>>>>>>>>>",
">>>>>>>>>>>>>>>>>>>>>>>>>>>>>>>>>>>>>>>>>>>>>>>>>>>>>>>>>>>>>>>>",
">>>>>>>>>>>>>>>>>>>>>>>>>>>>>>>>>>>>>>>>>>>>>>>>>>>>>>>>>>>>>>>>",
">>>>>>>>>>>>>>>>>>>>>>>>>>>>>>>>>>>>>>>>>>>>>>>>>>>>>>>>>>>>>>>>",
">>>>>>>>>>>>>>>>>>>>>>>>>>>>>>>>>>>>>>>>>>>>>>>>>>>>>>>>>>>>>>>>",
">>>>>>>>>>>>>>>>>>>>>>>>>>>>>>>>>>>>>>>>>>>>>>>>>>>>>>>>>>>>>>>>",
">>>>>>>>>>>>>>>>>>>>>>>>>>>>>> ..>>>>>>>>>>>>>>>>>>>>>>>>>>>>>>>",
">>>>>>>>>>>>>>>>>>>>>>>>>> . .o+..>>>>>>>>>>>>>>>>>>>>>>>>>>>>>>",
">>>>>>>>>>>>>>>>>>>>>>>>>> O::::=X >>>>>>>>>>>>>>>>>>>>>>>>>>>>>",
">>>>>>>>>>>>>>>>>>>>>>>>>> @-::::O >>  .. .  >>>>>>>>>>>>>>>>>>>",
">>>>>>>>>>>>>>>>>>>>>>>>>> @::-::@ >> O@&$$O >>>>>>>>>>>>>>>>>>>",
">>>>>>>>>>>>>>>>>>>>>>>>>> o::-::& >.o&::::@.>>>>>>>>>>>>>>>>>>>",
">>>>>>>>>>>>>>>>>>>>>>>>>>> &::::= >.+::-::+ >>>>>>>>>>>>>>>>>>>",
">>>>>>>>>>>>>>>>>>>>>>>>>>> O=::-:.> @--:::O >>>>>>>>>>>>>>>>>>>",
">>>>>>>>>>>>>>>>>>>>>>>>>>>. *::::o> $::::=X >>>>>>>>>>>>>>>>>>>",
">>>>>>>>>>>>>>>>>>>>>>>>>>>> %=:::o. &:::=& >>>>>>>>>>>>>>>>>>>>",
">>>>>>>>>>>>>>>>>>>>>>>>>>>> O::::@. &::::O >>>>>>>>>>>>>>>>>>>>",
">>>>>>>>>>>>>>>>>>>>>>>>>>>> X&:=:@  *-::$. >>>>>>>>>>>>>>>>>>>>",
">>>>>>>>>>>>>>>>>>>>>>>>>>>>> +:::$.X-::-O >>>>>>>>>>>>>>>>>>>>>",
">>>>>>>>>>>>>>>>>>>>>>>>>>>>> X*::& +:::@  >>>>>>>>>>>>>>>>>>>>>",
">>>>>>>>>>>>>>>>>>>>>>>>>>>>>> @::=X&::%. >>>>>>>>>>>>>>>>>>>>>>",
">>>>>>>>>>>>>>>>>>>>>>>>>>>>>> o:::*::$X >>>>>>>>>>>>>>>>>>>>>>>",
">>>>>>>>>>>>>>>>>>>>>>>>>>>>> X@-:-:==X . >>>>>>>>>>>>>>>>>>>>>>",
">>>>>>>>>>>>>>>>>>>>>>>>>>>. .@::=:-::-=@X  >>>>>>>>>>>>>>>>>>>>",
">>>>>>>>>>>>>>>>>>>>>>>    .O%:::::::-::::#. >>>>>>>>>>>>>>>>>>>",
">>>>>>>>>>>>>>>>>>>> .Xo@#&*-::=:::::::=:::&. >>>>>>>>>>>>>>>>>>",
">>>>>>>>>>>>>>>>>>> X&=:--::::::::::-:::%*::&. >>>>>>>>>>>>>>>>>",
">>>>>>>>>>>>>>>>>>  @-:::::::::::::-::=+X.O=-&o >>>>>>>>>>>>>>>>",
">>>>>>>>>>>>>>>>>> o=::::::::::::::::::=+O$=::*o >>>>>>>>>>>>>>>",
">>>>>>>>>>>>>>>>>  %:::::::-::::::::::=#$=::=:-=o >>>>>>>>>>>>>>",
">>>>>>>>>>>>>>>>> O-:-&:=::::::::::::-:-:::-:-::$o >>>>>>>>>>>>>",
">>>>>>>>>>>>>>>>..&-:-$:&-::::::::-::::::::::::::@. >>>>>>>>>>>>",
">>>>>>>>>>>>>>>> O=:-:@:%:-:::::-:::::::::::::::::O >>>>>>>>>>>>",
">>>>>>>>>>>>>>>>.#::::@:&::::::::::::::::::-::::::$X >>>>>>>>>>>",
">>>>>>>>>>>>>>> o=:-::@:&=:::::::::::::::::::-:::::+ >>>>>>>>>>>",
">>>>>>>>>>>>>>> @::-:*@:&&:-::::::::::::::%X +%::-:&X >>>>>>>>>>",
">>>>>>>>>>>>>>> *::::&#:%&:-:::::-:::::::*+    @-:::@ >>>>>>>>>>",
">>>>>>>>>>>>>> o::::-&%:&&::=::::*:::::::@. >>  +$%$+ >>>>>>>>>>",
">>>>>>>>>>>>>> #:-::-&&:&$::&::::%::::::-. >>>>  .X.  >>>>>>>>>>",
">>>>>>>>>>>>> .=:::::&&:&#--#-:-:#::::-:@ >>>>>>>>>>>>>>>>>>>>>>",
">>>>>>>>>>>>> O::&::=&&::@::+::::&-:-::&  >>>>>>>>>>>>>>>>>>>>>>",
">>>>>>>>>>>>> $:*%-::&%=:+:=O&::-&-::-#X >>>>>>>>>>>>>>>>>>>>>>>",
">>>>>>>>>>>> .-:@*:::$$::+::@@::-#   .. >>>>>>>>>>>>>>>>>>>>>>>>",
">>>>>>>>>>>>.O::O::-:#@=@O$=@o:::*  >>>>>>>>>>>>>>>>>>>>>>>>>>>>",
">>>>>>>>>>>> $:&#::::@oo   oX #::-O >>>>>>>>>>>>>>>>>>>>>>>>>>>>",
">>>>>>>>>>>  =:@*=::%X.  >    X=::%. >>>>>>>>>>>>>>>>>>>>>>>>>>>",
">>>>>>>>>>> O:-+:-:$X >>>>>>>> @-::+. >>>>>>>>>>>>>>>>>>>>>>>>>>",
">>>>>>>>>>>.#:=@::=o >>>>>>>>> .$=:-@ .>>>>>>>>>>>>>>>>>>>>>>>>>",
">>>>>>>>>>. -:@*:*O  >>>>>>>>>>  +=::$o  >>>>>>>>>>>>>>>>>>>>>>>",
">>>>>>>>>> O:=O-*+  >>>>>>>>>>>> .+&::=#X   >>>>>>>>>>>>>>>>>>>>",
">>>>>>>>>> $:*O:+  >>>>>>>>>>>>>>  X#-:::&O >>>>>>>>>>>>>>>>>>>>",
">>>>>>>>>>X%%@X+  >>>>>>>>>>>>>>>>>  X#&:-#.>>>>>>>>>>>>>>>>>>>>",
">>>>>>>>>> .     >>>>>>>>>>>>>>>>>>>> . o+o >>>>>>>>>>>>>>>>>>>>",
">>>>>>>>>>>>>>>>>>>>>>>>>>>>>>>>>>>>>>>>    >>>>>>>>>>>>>>>>>>>>",
">>>>>>>>>>>>>>>>>>>>>>>>>>>>>>>>>>>>>>>>>>>>>>>>>>>>>>>>>>>>>>>>",
">>>>>>>>>>>>>>>>>>>>>>>>>>>>>>>>>>>>>>>>>>>>>>>>>>>>>>>>>>>>>>>>",
">>>>>>>>>>>>>>>>>>>>>>>>>>>>>>>>>>>>>>>>>>>>>>>>>>>>>>>>>>>>>>>>",
">>>>>>>>>>>>>>>>>>>>>>>>>>>>>>>>>>>>>>>>>>>>>>>>>>>>>>>>>>>>>>>>",
">>>>>>>>>>>>>>>>>>>>>>>>>>>>>>>>>>>>>>>>>>>>>>>>>>>>>>>>>>>>>>>>",
">>>>>>>>>>>>>>>>>>>>>>>>>>>>>>>>>>>>>>>>>>>>>>>>>>>>>>>>>>>>>>>>",
">>>>>>>>>>>>>>>>>>>>>>>>>>>>>>>>>>>>>>>>>>>>>>>>>>>>>>>>>>>>>>>>",
">>>>>>>>>>>>>>>>>>>>>>>>>>>>>>>>>>>>>>>>>>>>>>>>>>>>>>>>>>>>>>>>",
">>>>>>>>>>>>>>>>>>>>>>>>>>>>>>>>>>>>>>>>>>>>>>>>>>>>>>>>>>>>>>>>",
">>>>>>>>>>>>>>>>>>>>>>>>>>>>>>>>>>>>>>>>>>>>>>>>>>>>>>>>>>>>>>>>"
};
