/* XPM */
static char *IconClanTor.gif[] = {
/* columns rows colors chars-per-pixel */
"64 64 17 1",
"  c gray100",
". c gray97",
"X c #E7E7E7",
"o c gray84",
"O c gray74",
"+ c #A5A5A5",
"@ c gray55",
"# c #848484",
"$ c gray42",
"% c gray29",
"& c #313131",
"* c gray13",
"= c gray3",
"- c #18FFFF",
"; c cyan",
": c black",
"> c None",
/* pixels */
">>>>>>>>>>>>>>>>>>>>>>>>>>>>>>>>>>>>>>>>>>>>>>>>>>>>>>>>>>>>>>>>",
">>>>>>>>>>>>>>>>>>>>>>>>>>>>>>>>>>>>>>>>>>>>>>>>>>>>>>>>>>>>>>>>",
">>>>>>>>>>>>>>>>>>>>>>>>>>>>>>>>>>>>>>>>>>>>>>>>>>>>>>>>>>>>>>>>",
">>>>>>>>>>>>>>>>>>>>>>>>>>>>>>>>>>>>>>>>>>>>>>>>>>>>>>>>>>>>>>>>",
">>>>>>>>>>>>>>>>>>>>>>>>>>>>>>>>>>>>>>>>>>>>>>>>>>>>>>>>>>>>>>>>",
">>>>>>>>>>>>>>>>>>>>>>>>>>>>>>>>>>>>>>>>>>>>>>>>>>>>>>>>>>>>>>>>",
">>>>>>>>>>>>>>>>>>>>>>>>>>>>>>>>>>>>>>>>>>>>>>>>>>>>>>>>>>>>>>>>",
">>>>>>>>>>>>>>>>>>>>>>>>>>>>>>>>>>>>>>>>>>>>>>>>>>>>>>>>>>>>>>>>",
">>>>>>>>>>>>>>>>>>>>>>>>>>>>>>>>>>>>>>>>>>>>>>>>>>>>>>>>>>>>>>>>",
">>>>>>>>>>>>>>>>>>>>>>>>>>>>>>>>>>>>>>>>>>>>>>>>>>>>>>>>>>>>>>>>",
">>>>>>>>>>>>>>>>>>>>>>>>>>>>>>>>>>>>>>>>>>>>>>>>>>>>>>>>>>>>>>>>",
">>>>>>>>>>>>>>>>>>>>>>>>>>>>>>>>>>>>>>>>>> XoX. >>>>>>>>>>>>>>>>",
">>>>>>>>>>>>>>>>>>>>>>>>>>>>>>>>>>>>>>>>> .#=:#  >>>>>>>>>>>>>>>",
">>>>>>>>>>>>>>>>>>>>>>>>>>>>>>>    >>>>>> $:::*&o >>>>>>>>>>>>>>",
">>>>>>>>>>>>>>>>>>>>>>>>>>>>  XO@@o.  X  O=:==:=&  >>>>>>>>>>>>>",
">>>>>>>>>>>>>>>>>>>>>>>>>>> O%=::::=&&@ X*:**%:=:# >>>>>>>>>>>>>",
">>>>>>>>>>>>>>>>>>>>>>>>>>> $=::==::=#  @$o  . XOX >>>>>>>>>>>>>",
">>>>>>>>>>>>>>>>>>>>>>>>>>> %=:::::&+   .     %%%o >>>>>>>>>>>>>",
">>>>>>>>>>>>>>>>>>>>>>>>>>> &::=::%O     X&*o @::*O+oX>>>>>>>>>>",
">>>>>>>>>>>>>>>>>>>>>>>>>>> &:=::%o  oo X*:=:O =::*O=oX>>>>>>>>>",
">>>>>>>>>>>>>>>>>>>>>>>>>>> &:::*+*. %:::::=:&X$:::O*=o.>>>>>>>>",
">>>>>>>>>>>>>>>>>>>>>>>>>>> &:=*O%:$.*:$%%&:::$$=::O$:*O.>>>>>>>",
">>>>>>>>>>>>>>>>>>>>>>>>>>> &::& *:=o=%.   X$:*@:::Xo=:%o >>>>>>",
">>>>>>>>>>>>>>>>>>>>>>>>>>> %::@X::*o%$  . X**:O::=  $::# >>>>>>",
">>>>>>>>>>>>>>>>>>>>>>>>>>> #::X+:::$+#.   .$::X=:&  O::=o >>>>>",
">>>>>>>>>>>>>>>>>>>>>>>>>>> O:: $==::+X.O.  #:& *:&   &::# >>>>>",
">>>>>>>>>>>>>>>>>>>>>>>>>>>>X=: %::::&X#%.  &:#.%%%   %:=*X>>>>>",
">>>>>>>>>>>>>>>>>>>>>>>>>>>> #=.&:::::%=*  o:=O ooO  X==::o.>>>>",
">>>>>>>>>>>>>>>>>>>>>>>>>>>> X= %::::=::%   o:   @   &=::=#.>>>>",
">>>>>>>>>>>>>>>>>>>>>>>>>>>>> . $::=::::%Xo+#$#%*:  $=::&@X >>>>",
">>>>>>>>>>>>>>>>>>>>>>>>>>>>>>X$$:::==:=%=:=::=::=X$::&@o  >>>>>",
">>>>>>>>>>>>>>>>>>>>>>>>>>>>> O:#+=::::=%=::::=*:$$:=#o >>>>>>>>",
">>>>>>>>>>>>>>>>>>>>>>>>>>>>> %:O++&::::=::::=::*==*@  >>>>>>>>>",
">>>>>>>>>>>>>>>>>>>>>>>>>>>> o::@#&O#&=:=:==:::::&%X .>>>>>>>>>>",
">>>>>>>>>>>>>>>>>>>>>>>>>>>>X$::$+=&O o%:*=:=$+$+X  >>>>>>>>>>>>",
">>>>>>>>>>>>>>>>>>>>>>>>>>>Xo::=.O:::&#Oo X    . >>>>>>>>>>>>>>>",
">>>>>>>>>>>>>>>>>>>>>>>>>> X&=:# .*:::::::::::* >>>>>>>>>>>>>>>>",
">>>>>>>>>>>>>>>>>>>>>>>>>  $::&   @:=::::::::*$.>>>>>>>>>>>>>>>>",
">>>>>>>>>>>>>>>>>>>>>>>>  @*:*+ > X%:::::::=*OX >>>>>>>>>>>>>>>>",
">>>>>>>>>>>>>>>>>>>>>>> .@=:=+ >>> O*::::=%+..>>>>>>>>>>>>>>>>>>",
">>>>>>>>>>>>>>>>>>>>>. X&:::% >>>>>.O+Oo.   >>>>>>>>>>>>>>>>>>>>",
">>>>>>>>>>>>>>>>>   XO%=:::&. >>>>>>>>>>>>>>>>>>>>>>>>>>>>>>>>>>",
">>>>>>>>  .XoOOooO#&:::::*$+ >>o+->>>>>>>>>>>>>>>>>>>>>>>>>>>>>>",
">>>>>>  O%=:::::::::::=%@O%:X>>>$+>>>>>>>>>>>>>>>>>>>>>>>>>>>>>>",
">>>>>> @=:::::=*%%$@+O   O=:+ >> #>>>>>>>>>>>>>>>>>>>>>>>>>>>>>>",
">>>>> +=::*%@.       >>>>.#=:o .++>>>>>>>>>>>>>>>>>>>>>>>>>>>>>>",
">>>>> %:*#X   >>>>>>>>>>> .@*=%$%o>>>>>>>>>>>>>>>>>>>>>>>>>>>>>>",
">>>>> &=+  >>>>>>>>>>>>>>>  o@#+O >>>>>>>>>>>>>>>>>>>>>>>>>>>>>>",
">>>>> $$.>>>>>>>>>>>>>>>>>>>  X >>>>>>>>>>>>>>>>>>>>>>>>>>>>>>>>",
">>>>> X. >>>>>>>>>>>>>>>>>>>>>>>>>>>>>>>>>>>>>>>>>>>>>>>>>>>>>>>",
">>>>>>>>>>>>>>>>>>>>>>>>>>>>>>>>>>>>>>>>>>>>>>>>>>>>>>>>>>>>>>>>",
">>>>>>>>>>>>>>>>>>>>>>>>>>>>>>>>>>>>>>>>>>>>>>>>>>>>>>>>>>>>>>>>",
">>>>>>>>>>>>>>>>>>>>>>>>>>>>>>>>>>>>>>>>>>>>>>>>>>>>>>>>>>>>>>>>",
">>>>>>>>>>>>>>>>>>>>>>>>>>>>>>>>>>>>>>>>>>>>>>>>>>>>>>>>>>>>>>>>",
">>>>>>>>>>>>>>>>>>>>>>>>>>>>>>>>>>>>>>>>>>>>>>>>>>>>>>>>>>>>>>>>",
">>>>>>>>>>>>>>>>>>>>>>>>>>>>>>>>>>>>>>>>>>>>>>>>>>>>>>>>>>>>>>>>",
">>>>>>>>>>>>>>>>>>>>>>>>>>>>>>>>>>>>>>>>>>>>>>>>>>>>>>>>>>>>>>>>",
">>>>>>>>>>>>>>>>>>>>>>>>>>>>>>>>>>>>>>>>>>>>>>>>>>>>>>>>>>>>>>>>",
">>>>>>>>>>>>>>>>>>>>>>>>>>>>>>>>>>>>>>>>>>>>>>>>>>>>>>>>>>>>>>>>",
">>>>>>>>>>>>>>>>>>>>>>>>>>>>>>>>>>>>>>>>>>>>>>>>>>>>>>>>>>>>>>>>",
">>>>>>>>>>>>>>>>>>>>>>>>>>>>>>>>>>>>>>>>>>>>>>>>>>>>>>>>>>>>>>>>",
">>>>>>>>>>>>>>>>>>>>>>>>>>>>>>>>>>>>>>>>>>>>>>>>>>>>>>>>>>>>>>>>",
">>>>>>>>>>>>>>>>>>>>>>>>>>>>>>>>>>>>>>>>>>>>>>>>>>>>>>>>>>>>>>>>",
">>>>>>>>>>>>>>>>>>>>>>>>>>>>>>>>>>>>>>>>>>>>>>>>>>>>>>>>>>>>>>>>"
};
