/* XPM */
static char *IconClanDoC.gif[] = {
/* columns rows colors chars-per-pixel */
"64 64 257 2",
"   c gray100",
".  c #FEFEFE",
"X  c #FDFDFD",
"o  c gray99",
"O  c #FBFBFB",
"+  c gray98",
"@  c #F9F9F9",
"#  c #F8F8F8",
"$  c gray97",
"%  c #F6F6F6",
"&  c gray96",
"*  c #F4F4F4",
"=  c #F3F3F3",
"-  c gray95",
";  c #F1F1F1",
":  c gray94",
">  c #EFEFEF",
",  c #EEEEEE",
"<  c gray92",
"1  c #EAEAEA",
"2  c #E9E9E9",
"3  c gray91",
"4  c #E7E7E7",
"5  c #E6E6E6",
"6  c gray90",
"7  c #E4E4E4",
"8  c gray89",
"9  c #E2E2E2",
"0  c #E1E1E1",
"q  c gray88",
"w  c #DFDFDF",
"e  c gray87",
"r  c #DDDDDD",
"t  c gainsboro",
"y  c gray86",
"u  c #DADADA",
"i  c gray85",
"p  c #D7D7D7",
"a  c #D5D5D5",
"s  c gray83",
"d  c LightGray",
"f  c #D2D2D2",
"g  c gray82",
"h  c #D0D0D0",
"j  c #CECECE",
"k  c #CDCDCD",
"l  c #CBCBCB",
"z  c #CACACA",
"x  c #C8C8C8",
"c  c #C5C5C5",
"v  c gray77",
"b  c #C3C3C3",
"n  c #C1C1C1",
"m  c #C0C0C0",
"M  c gray75",
"N  c gray",
"B  c #BBBBBB",
"V  c gray73",
"C  c gray72",
"Z  c #B6B6B6",
"A  c #B4B4B4",
"S  c #B2B2B2",
"D  c gray69",
"F  c #AFAFAF",
"G  c #AEAEAE",
"H  c #ACACAC",
"J  c gray67",
"K  c #A9A9A9",
"L  c gray66",
"P  c #A7A7A7",
"I  c #A5A5A5",
"U  c #A4A4A4",
"Y  c #A2A2A2",
"T  c gray63",
"R  c #A0A0A0",
"E  c #9F9F9F",
"W  c gray62",
"Q  c #9B9B9B",
"!  c #9A9A9A",
"~  c #989898",
"^  c #979797",
"/  c gray59",
"(  c #959595",
")  c gray58",
"_  c #939393",
"`  c #929292",
"'  c gray57",
"]  c #909090",
"[  c #8E8E8E",
"{  c #8D8D8D",
"}  c #868686",
"|  c #848484",
" . c #808080",
".. c gray50",
"X. c gray49",
"o. c #7C7C7C",
"O. c #7B7B7B",
"+. c gray48",
"@. c #797979",
"#. c #777777",
"$. c #767676",
"%. c gray46",
"&. c #747474",
"*. c gray45",
"=. c gray44",
"-. c #6F6F6F",
";. c #6D6D6D",
":. c #6C6C6C",
">. c gray42",
",. c #6A6A6A",
"<. c DimGray",
"1. c #686868",
"2. c #676767",
"3. c gray40",
"4. c #656565",
"5. c gray39",
"6. c #626262",
"7. c gray38",
"8. c #606060",
"9. c #5F5F5F",
"0. c gray37",
"q. c gray36",
"w. c #5B5B5B",
"e. c #585858",
"r. c gray34",
"t. c #555555",
"y. c #535353",
"u. c gray32",
"i. c #515151",
"p. c #505050",
"a. c gray31",
"s. c #4E4E4E",
"d. c gray30",
"f. c #4C4C4C",
"g. c #4B4B4B",
"h. c gray29",
"j. c #494949",
"k. c #484848",
"l. c gray28",
"z. c #464646",
"x. c gray27",
"c. c #434343",
"v. c #414141",
"b. c gray25",
"n. c #3F3F3F",
"m. c #3E3E3E",
"M. c gray24",
"N. c #3C3C3C",
"B. c gray23",
"V. c #3A3A3A",
"C. c #393939",
"Z. c gray22",
"A. c #373737",
"S. c gray21",
"D. c #353535",
"F. c #343434",
"G. c gray20",
"H. c #313131",
"J. c gray19",
"K. c #2F2F2F",
"L. c gray18",
"P. c #2C2C2C",
"I. c gray17",
"U. c #2A2A2A",
"Y. c gray16",
"T. c #282828",
"R. c #272727",
"E. c gray15",
"W. c #252525",
"Q. c gray14",
"!. c #232323",
"~. c #222222",
"^. c gray13",
"/. c gray12",
"(. c #1E1E1E",
"). c #1D1D1D",
"_. c gray11",
"`. c #1B1B1B",
"'. c gray10",
"]. c #191919",
"[. c #181818",
"{. c gray9",
"}. c #161616",
"|. c #151515",
" X c #131313",
".X c gray7",
"XX c #111111",
"oX c #101010",
"OX c gray6",
"+X c #0E0E0E",
"@X c gray5",
"#X c #0C0C0C",
"$X c #0B0B0B",
"%X c gray4",
"&X c #090909",
"*X c gray3",
"=X c #070707",
"-X c #060606",
";X c gray2",
":X c #040404",
">X c gray1",
",X c #020202",
"<X c #010101",
"1X c cyan",
"2X c black",
"3X c black",
"4X c black",
"5X c black",
"6X c black",
"7X c black",
"8X c black",
"9X c black",
"0X c black",
"qX c black",
"wX c black",
"eX c black",
"rX c black",
"tX c black",
"yX c black",
"uX c black",
"iX c black",
"pX c black",
"aX c black",
"sX c black",
"dX c black",
"fX c black",
"gX c black",
"hX c black",
"jX c black",
"kX c black",
"lX c black",
"zX c black",
"xX c black",
"cX c black",
"vX c black",
"bX c black",
"nX c black",
"mX c black",
"MX c black",
"NX c black",
"BX c black",
"VX c black",
"CX c black",
"ZX c black",
"AX c black",
"SX c black",
"DX c black",
"FX c black",
"GX c black",
"HX c black",
"JX c black",
"KX c black",
"LX c black",
"PX c black",
"IX c black",
"UX c black",
"YX c None",
/* pixels */
"YXYXYXYXYXYXYXYXYXYXYXYXYXYXYXYXYXYXYXYXYXYXYXYXYXYXYXYXYXYXYXYXYXYXYXYXYXYXYXYXYXYXYXYXYXYXYXYXYXYXYXYXYXYXYXYXYXYXYXYXYXYXYXYX",
"YXYXYXYXYXYXYXYXYXYXYXYXYXYXYXYXYXYXYXYXYXYXYXYXYXYXYXYXYXYXYXYXYXYXYXYXYXYXYXYXYXYXYXYXYXYXYXYXYXYXYXYXYXYXYXYXYXYXYXYXYXYXYXYX",
"YXYXYXYXYXYXYXYXYXYXYXYXYXYXYXYXYXYXYXYXYXYXYXYXYXYXYXYXYXYXYXYXYXYXYXYXYXYXYXYXYXYXYXYXYXYXYXYXYXYXYXYXYXYXYXYXYXYXYXYXYXYXYXYX",
"YXYXYXYXYXYXYXYXYXYXYXYXYXYXYXYXYXYXYXYXYXYXYXYXYXYXYXYXYXYXYXYXYXYXYXYXYXYXYXYXYXYXYXYXYXYXYXYXYXYXYXYXYXYXYXYXYXYXYXYXYXYXYXYX",
"YXYXYXYXYXYXYXYXYXYXYXYXYXYXYXYXYXYXYXYXYXYXYXYXYXYXYXYXYXYXYXYXYXYXYXYXYXYXYXYXYXYXYXYXYXYXYXYXYXYXYXYXYXYXYXYXYXYXYXYXYXYXYXYX",
"YXYXYXYXYXYXYXYXYXYXYXYXYXYXYXYXYXYXYXYXYXYXYXYXYXYXYXYXYXYXYXYXYXYXYXYXYXYXYXYXYXYXYXYXYXYXYXYXYXYXYXYXYXYXYXYXYXYXYXYXYXYXYXYX",
"YXYXYXYXYXYXYXYXYXYXYXYXYXYXYXYXYXYXYXYXYXYXYXYXYXYXYXYXYXYXYXYXYXYXYXYXYXYXYXYXYXYXYXYXYXYXYXYXYXYXYXYXYXYXYXYXYXYXYXYXYXYXYXYX",
"YXYXYXYXYXYXYXYXYXYXYXYXYXYXYXYXYXYXYXYXYXYXYXYXYXYXYXYXYXYXYXYXYXYXYXYXYXYXYXYXYXYXYXYXYXYXYXYXYXYXYXYXYXYXYXYXYXYXYXYXYXYXYXYX",
"YXYXYXYXYXYXYXYXYXYXYXYXYXYXYXYXYXYXYXYXYXYXYXYXYXYXYXYXYXYXYXYXYXYXYXYXYXYXYXYXYXYXYXYXYXYXYXYXYXYXYXYXYXYXYXYXYXYXYXYXYXYXYXYX",
"YXYXYXYXYXYXYXYXYXYXYXYXYXYXYXYXYXYXYXYXYXYXYXYXYXYXYXYXYXYXYXYXYXYXYXYXYXYXYXYXYXYXYXYXYXYXYXYXYXYXYXYXYXYXYXYXYXYXYXYXYXYXYXYX",
"YXYXYXYXYXYXYXYXYXYXYXYXYXYXYXYXYXYXYXYXYXYXYXYXYXYXYXYXYXYXYXYXYXYXYXYXYXYXYXYXYXYXYXYXYXYXYXYXYXYXYXYXYXYXYXYXYXYXYXYXYXYXYXYX",
"YXYXYXYXYXYXYXYXYXYXYXYXYXYXYXYXYXYXYXYXYXYXYXYXYXYXYXYXYXYXYXYXYXYXYXYXYXYXYXYXYXYXYXYXYXYXYXYXYXYXYXYXYXYXYXYXYXYXYXYXYXYXYXYX",
"YXYXYXYXYXYXYXYXYXYXYXYXYXYXYXYXYXYXYXYXYXYXYXYXYXYXYXYXYXYXYXYXYXYXYXYXYXYXYXYXYXYXYXYXYXYXYXYXYXYXYXYXYXYXYXYXYXYXYXYXYXYXYXYX",
"YXYXYXYXYXYXYXYXYXYXYXYXYXYXYXYXYXYXYXYXYXYXYXYXYXYXYXYXYXYXYXYXYXYXYXYXYXYXYXYXYXYXYXYXYXYXYXYXYXYXYXYXYXYXYXYXYXYXYXYXYXYXYXYX",
"YXYXYXYXYXYXYXYXYXYXYXYXYXYXYXYXYXYXYXYXYXYXYXYXYXYXYXYXYXYXYX      % % #                     YXYXYXYXYXYXYXYXYXYXYXYXYXYXYXYXYX",
"YXYXYXYXYXYXYXYXYXYXYXYXYXYXYXYXYXYXYXYXYXYXYXYXYXYXYXYXYXYXYX  r f.E.E.P.t.^ o : V y   8 M -     YXYXYXYXYXYXYXYXYXYXYXYXYXYXYX",
"YXYXYXYXYXYXYXYXYXYXYXYXYXYXYXYXYXYXYXYXYXYX        YXYXYXYX  X C.2X2X2X2X2X2X+.M.2X[.G t.<XE...# =       YXYXYXYXYXYXYXYXYXYXYX",
"YXYXYXYXYXYXYXYXYXYXYXYXYXYXYXYXYXYXYXYX      g H # $ *       j :X2X2X2X2X2X2X2X2X2X2X|.#X2X2X2Xv.'.9.a       YXYXYXYXYXYXYXYXYX",
"YXYXYXYXYXYXYXYXYXYXYXYXYXYXYXYXYXYXYX  @ L p.$X2XG.U.(.4.6   >.2X2X2X2X2X2X2X2X2X2X2X2X2X2X2X2X2X2X2X}./ f 5     YXYXYXYXYXYXYX",
"YXYXYXYXYXYXYXYXYXYXYXYXYXYXYXYXYX      =.2X2X2X2X2X2X2X2Xh.3 [.2X2X2X2X2X2X2X2X2X2X2X2X2X2X2X2X2X2X2X2X2X=X/.l         YXYXYXYX",
"YXYXYXYXYXYXYXYXYXYXYXYXYXYXYXYX  o ' D D.2X2X2X2X2X2X2X2X2Xv.&X2X2X2X2X2X2X2X2X2X2X2X2X2X2X2X2X2X2X2X2X2X2X2X{.X.R g @ o   YXYX",
"YXYXYXYXYXYXYXYXYXYXYXYXYXYXYX  . 8.2X2X:X2X2X2X2X2X2X2X2X2X2X2X2X2X2X2X2X2X2X2X2X2X2X2X2X2Xc.$X2X2X2X2X2X2X2X2X2X2X<XE.( o YXYX",
"YXYXYXYXYXYXYXYXYXYXYXYXYX    & 7.2X2X2X2X2X2X2X2X2X2X2X2X2X2X2X2X2X2X2X2X2X2X2X2X2X2XV.!.9.k -X2X2X2X:Xy.|.p.2X2X<XQ.+.1   YXYX",
"YXYXYXYXYXYXYXYXYXYXYXYX    A d.2X2X2X2X2X2X2X2X2X2X2X2X2X2X2X2X2X2X2X2X2X-X|.2X2X2X2Xp.u.% W 2X2X2X<X_ p P 5.,XV.W t     YXYXYX",
"YXYXYXYXYXYXYXYXYXYXYX    V @X2X2X2X2X2X2X2X2X2X2X2X2X2X2X2X2X2X2X2X2X2X2X*X_.2X2X2XT.a.p B ,X2X;X^.`   b  .} C E W.W   YXYXYXYX",
"YXYXYXYXYXYXYXYXYXYXYX  ~ @X2X2X2X2X2X2X2X2X2X2X2X2X2X2X2X2X2X2X2X2X2X2X2X*X/.2X2XR.M x n {.A.R j ;   * _ Y V t.2Xq.,   YXYXYXYX",
"YXYXYXYXYXYXYXYXYXYX  q XX2X2X2X2X2X2X2X2X2X2X2X2X2X2X2X2X2X2X2X2X2X2X2XI._.8.OXx.u     q a $         7 (.>X2X2X9.+   YXYXYXYXYX",
"YXYXYXYXYXYXYXYXYX  o y.2X2X2X2X2X2X2X2X2X2X2X<X2X2X2X2X2X2X2X2X2X2X5.>.c Z @ : .               5 3.v.P.].2X2X9.X   YXYXYXYXYXYX",
"YXYXYXYXYXYXYXYX  O =.2X2X2X2X2X2X2X2X2X2X<X<Xk.P.2X|.&.2X2X2X2X^.! o                         8 A.2X2X2X2X2X:Xu   YXYXYXYXYXYXYX",
"YXYXYXYXYXYXYX    R 2X2X2X2X2X2X2X2X2X2X2X<X6.4.i.C.}   ' M.B.( 2                     < ] y.y.Y.2X2X2X2X2X2X_.;   YXYXYXYXYXYXYX",
"YXYXYXYXYXYX    v u.2X2X2X2X2X2X2X2X2X2X).P.;Xe.o.0       X X                       % m.2X2X2X2X2X2X2X2X2XXXI   YXYXYXYXYXYXYXYX",
"YXYXYXYXYXYX  s }.2X2X2X2X2X2X2X2X2X2X2X>X;. .@.u                             z +   3 |.2X2X2X2X2X2X2X2X*.i     YXYXYXYXYXYXYXYX",
"YXYXYXYXYX  # B.2X2X2X2X2X2X2X2X2X2X%XD.#.m                   ; V 4.k.k.k.-.E z.w._ 2.[ *X2X2X2X>X2X2X2XI     YXYXYXYXYXYXYXYXYX",
"YXYXYXYXYX  } 2X2X2X2X2X2X2X2X2XZ.T t O                   $ V B.2X2X2X2X2X2X2X%X2X~.2XJ.6.-X2X2Xq.l.2X=Xa   YXYXYXYXYXYXYXYXYXYX",
"YXYXYXYX  4 {.2X2X2X2X2X2X2X.Xx.C                 # ; R L +.2X2X2X2X2X2X2X2X2X2X2X2X2X2Xw.f.2X2Xb./ .XE     YXYXYXYXYXYXYXYXYXYX",
"YXYXYXYX  F 2X2X2X2XXX&XE.U 9                 u %.P.^.2X2X2X2X2X2X2X2X2X2X2X2X2X2X2X2X2X|.<.2X2X2XH w     YXYXYXYXYXYXYXYXYXYXYX",
"YXYXYX    ~  X&X&XS.V 9 &       2 m N         r.2X2X2X2X2X2X2X2X2X2X2X2X2X2X2X2X2X2X2X2X#Xh.<X2X2XJ   YXYXYXYXYXYXYXYXYXYXYXYXYX",
"YXYX  = 1.I.Q t w     g K f S g. X<X<X,.+ v + M.2X2X2X2X2X2X2X2X2X2X2X2X2X2X2X2X2X2X2X2X>X|.<X2X2XD   YXYXYXYXYXYXYXYXYXYXYXYXYX",
"YXYXO -.2XR.D   * n 9.-X2X=X2X2X2X2X2X2XO.E.p H.2X2X2X2X2X2X2X2X2X2X2X2X2X2X2X2X2X2X2X2X2X2X2X2XF.>   YXYXYXYXYXYXYXYXYXYXYXYXYX",
"YXYX8 y.2.O.6.S.OX2X2X2X2X2X2X2X2X;X2X2X2X*XN {.2X2X2X2X2X2X2X2X2X2X2X2X2X2X-X+X2X2X2X2X2X2X2X}.a   YXYXYXYXYXYXYXYXYXYXYXYXYXYX",
"YXYXX J {.2X2X2X:XH.:X2X2X2X2X2X9.`.2X2X2X|.R &X2X2X2X2X2X2X2X2X2X2X2X2X2X2X'.| ,X2X2X2X2X2X<XK     YXYXYXYXYXYXYXYXYXYXYXYXYXYX",
"YXYX  & c j.P.F.^ L.<X2X2X2X2X:.( <X2X2X2X#.Q 2X2X2X2X2X2X2X2X2X2X2X2X2X2X2X{.) :X2Xk.(.2X%X(     YXYXYXYXYXYXYXYXYXYXYXYXYXYXYX",
"YXYXYX      # O s #X2X2X2X2X`.p P.2X2X2X2X8.p.2X2X2X2X2X2X2X2X2X2X2X2X2X2X2XF.B.2X*X6 +.J.c     YXYXYXYXYXYXYXYXYXYXYXYXYXYXYXYX",
"YXYXYXYXYXYXYX  X h 1.F.l.#.~ e >X2X2X2X2XOX>X<X:X2X2X2X2X2X2X2X2X2X2X2X2X2X0.{ Z.]   $ @     YXYXYXYXYXYXYXYXYXYXYXYXYXYXYXYXYX",
"YXYXYXYXYXYXYXYX      O       O v.;X2X2X2X2X2X,Xj.$X2X2X2X2X2X2X-X/.2X2X2X2Xs.  o     YXYXYXYXYXYXYXYXYXYXYXYXYXYXYXYXYXYXYXYXYX",
"YXYXYXYXYXYXYXYXYXYXYXYXYXYXYX  2 ..2X2X2X2X2X2Xw.p.2X2X2X2X2X2Xk.2.2X2X2X2X+.  YXYXYXYXYXYXYXYXYXYXYXYXYXYXYXYXYXYXYXYXYXYXYXYX",
"YXYXYXYXYXYXYXYXYXYXYXYXYXYXYXYX  d V.2X2X2X2X2Xw.k n.N.R.2X2X2XB a.2X2XoX1.-   YXYXYXYXYXYXYXYXYXYXYXYXYXYXYXYXYXYXYXYXYXYXYXYX",
"YXYXYXYXYXYXYXYXYXYXYXYXYXYXYXYX    @ V e.OX2X2XY.o . X = o.!.q.X M H G r     YXYXYXYXYXYXYXYXYXYXYXYXYXYXYXYXYXYXYXYXYXYXYXYXYX",
"YXYXYXYXYXYXYXYXYXYXYXYXYXYXYXYXYXYX      i $.K.K.% YXYX    & .             YXYXYXYXYXYXYXYXYXYXYXYXYXYXYXYXYXYXYXYXYXYXYXYXYXYX",
"YXYXYXYXYXYXYXYXYXYXYXYXYXYXYXYXYXYXYXYX      @ ; . YXYXYXYXYXYXYXYXYXYXYXYXYXYXYXYXYXYXYXYXYXYXYXYXYXYXYXYXYXYXYXYXYXYXYXYXYXYX",
"YXYXYXYXYXYXYXYXYXYXYXYXYXYXYXYXYXYXYXYXYXYXYXYXYXYXYXYXYXYXYXYXYXYXYXYXYXYXYXYXYXYXYXYXYXYXYXYXYXYXYXYXYXYXYXYXYXYXYXYXYXYXYXYX",
"YXYXYXYXYXYXYXYXYXYXYXYXYXYXYXYXYXYXYXYXYXYXYXYXYXYXYXYXYXYXYXYXYXYXYXYXYXYXYXYXYXYXYXYXYXYXYXYXYXYXYXYXYXYXYXYXYXYXYXYXYXYXYXYX",
"YXYXYXYXYXYXYXYXYXYXYXYXYXYXYXYXYXYXYXYXYXYXYXYXYXYXYXYXYXYXYXYXYXYXYXYXYXYXYXYXYXYXYXYXYXYXYXYXYXYXYXYXYXYXYXYXYXYXYXYXYXYXYXYX",
"YXYXYXYXYXYXYXYXYXYXYXYXYXYXYXYXYXYXYXYXYXYXYXYXYXYXYXYXYXYXYXYXYXYXYXYXYXYXYXYXYXYXYXYXYXYXYXYXYXYXYXYXYXYXYXYXYXYXYXYXYXYXYXYX",
"YXYXYXYXYXYXYXYXYXYXYXYXYXYXYXYXYXYXYXYXYXYXYXYXYXYXYXYXYXYXYXYXYXYXYXYXYXYXYXYXYXYXYXYXYXYXYXYXYXYXYXYXYXYXYXYXYXYXYXYXYXYXYXYX",
"YXYXYXYXYXYXYXYXYXYXYXYXYXYXYXYXYXYXYXYXYXYXYXYXYXYXYXYXYXYXYXYXYXYXYXYXYXYXYXYXYXYXYXYXYXYXYXYXYXYXYXYXYXYXYXYXYXYXYXYXYXYXYXYX",
"YXYXYXYXYXYXYXYXYXYXYXYXYXYXYXYXYXYXYXYXYXYXYXYXYXYXYXYXYXYXYXYXYXYXYXYXYXYXYXYXYXYXYXYXYXYXYXYXYXYXYXYXYXYXYXYXYXYXYXYXYXYXYXYX",
"YXYXYXYXYXYXYXYXYXYXYXYXYXYXYXYXYXYXYXYXYXYXYXYXYXYXYXYXYXYXYXYXYXYXYXYXYXYXYXYXYXYXYXYXYXYXYXYXYXYXYXYXYXYXYXYXYXYXYXYXYXYXYXYX",
"YXYXYXYXYXYXYXYXYXYXYXYXYXYXYXYXYXYXYXYXYXYXYXYXYXYXYXYXYXYXYXYXYXYXYXYXYXYXYXYXYXYXYXYXYXYXYXYXYXYXYXYXYXYXYXYXYXYXYXYXYXYXYXYX",
"YXYXYXYXYXYXYXYXYXYXYXYXYXYXYXYXYXYXYXYXYXYXYXYXYXYXYXYXYXYXYXYXYXYXYXYXYXYXYXYXYXYXYXYXYXYXYXYXYXYXYXYXYXYXYXYXYXYXYXYXYXYXYXYX",
"YXYXYXYXYXYXYXYXYXYXYXYXYXYXYXYXYXYXYXYXYXYXYXYXYXYXYXYXYXYXYXYXYXYXYXYXYXYXYXYXYXYXYXYXYXYXYXYXYXYXYXYXYXYXYXYXYXYXYXYXYXYXYXYX",
"YXYXYXYXYXYXYXYXYXYXYXYXYXYXYXYXYXYXYXYXYXYXYXYXYXYXYXYXYXYXYXYXYXYXYXYXYXYXYXYXYXYXYXYXYXYXYXYXYXYXYXYXYXYXYXYXYXYXYXYXYXYXYXYX",
"YXYXYXYXYXYXYXYXYXYXYXYXYXYXYXYXYXYXYXYXYXYXYXYXYXYXYXYXYXYXYXYXYXYXYXYXYXYXYXYXYXYXYXYXYXYXYXYXYXYXYXYXYXYXYXYXYXYXYXYXYXYXYXYX",
"YXYXYXYXYXYXYXYXYXYXYXYXYXYXYXYXYXYXYXYXYXYXYXYXYXYXYXYXYXYXYXYXYXYXYXYXYXYXYXYXYXYXYXYXYXYXYXYXYXYXYXYXYXYXYXYXYXYXYXYXYXYXYXYX"
};
