/* XPM */
static char *IconClanTreA.gif[] = {
/* columns rows colors chars-per-pixel */
"64 64 17 1",
"  c gray100",
". c gray97",
"X c #E7E7E7",
"o c #CECECE",
"O c gray74",
"+ c gray71",
"@ c #A5A5A5",
"# c gray55",
"$ c #7B7B7B",
"% c gray39",
"& c gray29",
"* c #313131",
"= c #181818",
"- c gray3",
"; c cyan",
": c black",
"> c None",
/* pixels */
">>>>>>>>>>>>>>>>>>>>>>>>>>>>>>>>>>>>>>>>>>>>>>>>>>>>>>>>>>>>>>>>",
">>>>>>>>>>>>>>>>>>>>>>>>>>>>>>>>>>>>>>>>>>>>>>>>>>>>>>>>>>>>>>>>",
">>>>>>>>>>>>>>>>>>>>>>>>>>>>>>>>>>>>>>>>>>>>>>>>>>>>>>>>>>>>>>>>",
">>>>>>>>>>>>>>>>>>>>>>>>>>>>>>>>>>>>>>>>>>>>>>>>>>>>>>>>>>>>>>>>",
">>>>>>>>>>>>>>>>>>>>>>>>>>>>>>>>>>>>>>>>>>>>>>>>>>>>>>>>>>>>>>>>",
">>>>>>>>>>>>>>>>>>>>>>>>>>>>>>>>>>>>>>>>>>>>>>>>>>>>>>>>>>>>>>>>",
">>>>>>>>>>>>>>>>>>>>>>>>>>>>>>>>>>>>>>>>>>>>>>>>>>>>>>>>>>>>>>>>",
">>>>>>>>>>>>>>>>>>>>>>>>>>>>>>>>>>>>>>>>>>>>>>>>>>>>>>>>>>>>>>>>",
">>>>>>>>>>>>>>>>>>>>>>>>>>>>>>>>>>>>>>>>>>>>>>>>>>>>>>>>>>>>>>>>",
">>>>>>>>>>>>>>>>>>>>>>>>>>>>>> XX >>>>>>>>>>>>>>>>>>>>>>>>>>>>>>",
">>>>>>>>>>>>>>>>>>>>>>>>>>>>>> ## >>>>>>>>>>>>>>>>>>>>>>>>>>>>>>",
">>>>>>>>>>>>>>>>>>>>>>>>>>>>>> &*.>>>>>>>>>>>>>>>>>>>>>>>>>>>>>>",
">>>>>>>>>>>>>>>>>>>>>>>>>>>>> X-:o >>>>>>>>>>>>>>>>>>>>>>>>>>>>>",
">>>>>>>>>>>>>>>>>>>>>>>      .@::@.     >>>>>>>>>>>>>>>>>>>>>>>>",
">>>>>>>>>>>>>>>   >>>>>.++..@$*::*$O.O@o >>>>>>>>>>>>>>>>>>>>>>>",
">>>>>>>>>>>>>>> +X  >> o-:*::::::::::-:*X >>> X. >>>>>>>>>>>>>>>",
">>>>>>>>>>>>>>> @=$X  X$-:-:-::::::::-:=@.   o%# >>>>>>>>>>>>>>>",
">>>>>>>>>>>>>>>  =:=$@&:::::::::::::-::::%XX%:=o >>>>>>>>>>>>>>>",
">>>>>>>>>>>>>>>> @:::-::::::::::::::::--::-:::$ >>>>>>>>>>>>>>>>",
">>>>>>>>>>>>>>>> X*::::--:::::::-:::::::-::::=X >>>>>>>>>>>>>>>>",
">>>>>>>>>>>>>>>>> #::::::::::-=%OoOOOOOOO+O#:% >>>>>>>>>>>>>>>>>",
">>>>>>>>>>>>>>>> X-:::::::-:-::*O .        O:&. >>>>>>>>>>>>>>>>",
">>>>>>>>>>>>>>   &-:::-:::-:=*=:*+         O::$   >>>>>>>>>>>>>>",
">>>>>>>>>>>>>> #%-::::::*$O    X+@o   .    O-:=$@ >>>>>>>>>>>>>>",
">>>>>>>>>>>>>>.=::::::-%X X      .         O::::%.>>>>>>>>>>>>>>",
">>>>>>>>>>>>>>.*::-:-=@   .+#$#o    .      O:-::% >>>>>>>>>>>>>>",
">>>>>>>>>>>>>> %-:-:-o  o%:::--:=$X   .    O:-:-# >>>>>>>>>>>>>>",
">>>>>>>>>>>>>> &::::@X  @$$$$$$#$$@.  .    O-::-$ >>>>>>>>>>>>>>",
">>>>>>>>>>>>>>X-:-:*  X             +  .   O::::&X>>>>>>>>>>>>>>",
">>>>>>>>>>>   .-:::@ X$X            =X oX  O::-:=X . >>>>>>>>>>>",
">>>>>>>>>  X@&::::-  o:             :@  *X +::::::*$o.  >>>>>>>>",
">>>>>>>>>o%:-:::::&. @:             :&  *&oo:::::::::&O.>>>>>>>>",
">>>>>>>>> o#*:-:::$  %:             :=  $:&@::::::-=@o  >>>>>>>>",
">>>>>>>>>>   o#:-:$  *:             ::. $::=::-:=#X   >>>>>>>>>>",
">>>>>>>>>>>>> X-::#  *:             ::. $:::::::&X >>>>>>>>>>>>>",
">>>>>>>>>>>>>> &::$  &:             :* .#::-::::$ >>>>>>>>>>>>>>",
">>>>>>>>>>>>>> $--*  $:             -%  &::::::-$ >>>>>>>>>>>>>>",
">>>>>>>>>>>>>>X&:::  @:             :O  :-::::::# >>>>>>>>>>>>>>",
">>>>>>>>>>>>>> =::-# X*      .     .&. #:-:::-::& >>>>>>>>>>>>>>",
">>>>>>>>>>>>>> @%-:*X @   X    ..   O X*-:::::-%O >>>>>>>>>>>>>>",
">>>>>>>>>>>>>>. X%::$   @%#$$$##$@o   %-:::-::$X .>>>>>>>>>>>>>>",
">>>>>>>>>>>>>>>> o=::@  X#=::::::&O  @--:::::*X >>>>>>>>>>>>>>>>",
">>>>>>>>>>>>>>>>> &::-@   .o@$#@o   #=::-:-:-& >>>>>>>>>>>>>>>>>",
">>>>>>>>>>>>>>>> X*::::$.    X.   o#-::::::::=o >>>>>>>>>>>>>>>>",
">>>>>>>>>>>>>>>> $:::::--&@X.  .O%=::=:-:--:::% >>>>>>>>>>>>>>>>",
">>>>>>>>>>>>>>> X=::%@-::::::::::::::::::=@%-:-X >>>>>>>>>>>>>>>",
">>>>>>>>>>>>>>> %=%X  X%:::::::::::::-::$X  X%-& >>>>>>>>>>>>>>>",
">>>>>>>>>>>>>>>X@O. >> +-:=::::::::::::&o >> .O#.>>>>>>>>>>>>>>>",
">>>>>>>>>>>>>>> X  >>> .$#oO$%::::%$XO@o >>>>  X >>>>>>>>>>>>>>>",
">>>>>>>>>>>>>>>>>>>>>>>      .&::&.     >>>>>>>>>>>>>>>>>>>>>>>>",
">>>>>>>>>>>>>>>>>>>>>>>>>>>>> @::@ >>>>>>>>>>>>>>>>>>>>>>>>>>>>>",
">>>>>>>>>>>>>>>>>>>>>>>>>>>>> X--X >>>>>>>>>>>>>>>>>>>>>>>>>>>>>",
">>>>>>>>>>>>>>>>>>>>>>>>>>>>>> && >>>>>>>>>>>>>>>>>>>>>>>>>>>>>>",
">>>>>>>>>>>>>>>>>>>>>>>>>>>>>> @@ >>>>>>>>>>>>>>>>>>>>>>>>>>>>>>",
">>>>>>>>>>>>>>>>>>>>>>>>>>>>>> X. >>>>>>>>>>>>>>>>>>>>>>>>>>>>>>",
">>>>>>>>>>>>>>>>>>>>>>>>>>>>>>>>>>>>>>>>>>>>>>>>>>>>>>>>>>>>>>>>",
">>>>>>>>>>>>>>>>>>>>>>>>>>>>>>>>>>>>>>>>>>>>>>>>>>>>>>>>>>>>>>>>",
">>>>>>>>>>>>>>>>>>>>>>>>>>>>>>>>>>>>>>>>>>>>>>>>>>>>>>>>>>>>>>>>",
">>>>>>>>>>>>>>>>>>>>>>>>>>>>>>>>>>>>>>>>>>>>>>>>>>>>>>>>>>>>>>>>",
">>>>>>>>>>>>>>>>>>>>>>>>>>>>>>>>>>>>>>>>>>>>>>>>>>>>>>>>>>>>>>>>",
">>>>>>>>>>>>>>>>>>>>>>>>>>>>>>>>>>>>>>>>>>>>>>>>>>>>>>>>>>>>>>>>",
">>>>>>>>>>>>>>>>>>>>>>>>>>>>>>>>>>>>>>>>>>>>>>>>>>>>>>>>>>>>>>>>",
">>>>>>>>>>>>>>>>>>>>>>>>>>>>>>>>>>>>>>>>>>>>>>>>>>>>>>>>>>>>>>>>",
">>>>>>>>>>>>>>>>>>>>>>>>>>>>>>>>>>>>>>>>>>>>>>>>>>>>>>>>>>>>>>>>"
};
