/* XPM */
static char *IconClanNosA.gif[] = {
/* columns rows colors chars-per-pixel */
"64 64 17 1",
"  c gray100",
". c gray97",
"X c gray84",
"o c #C6C6C6",
"O c gray68",
"+ c gray61",
"@ c gray55",
"# c #848484",
"$ c gray42",
"% c gray32",
"& c gray29",
"* c #393939",
"= c gray13",
"- c gray3",
"; c cyan",
": c black",
"> c None",
/* pixels */
">>>>>>>>>>>>>>>>>>>>>>>>>>>>>>>>>>>>>>>>>>>>>>>>>>>>>>>>>>>>>>>>",
">>>>>>>>>>>>>>>>>>>>>>>>>>>>>>>>>>>>>>>>>>>>>>>>>>>>>>>>>>>>>>>>",
">>>>>>>>>>>>>>>>>>>>>>>>>>>>>>>>>>>>>>>>>>>>>>>>>>>>>>>>>>>>>>>>",
">>>>>>>>>>>>>>>>>>>>>>>>>>>>>>>>>>>>>>>>>>>>>>>>>>>>>>>>>>>>>>>>",
">>>>>>>>>>>>>>>>>>>>>>>>>>>>>>>>>>>>>>>>>>>>>>>>>>>>>>>>>>>>>>>>",
">>>>>>>>>>>>>>>>>>>>>>>>>>>>>>>>>>>>>>>>>>>>>>>>>>>>>>>>>>>>>>>>",
">>>>>>>>>>>>>>>>>>>>>>>>>>>>>>>>>>>>>>>>>>>>>>>>>>>>>>>>>>>>>>>>",
">>>>>>>>>>>>>>>>>>>>>>>>>>>>>>>>>>>>>>>>>>>>>>>>>>>>>>>>>>>>>>>>",
">>>>>>>>>>>>>>>>>>>>>>>>>>>>>>>>>>>>>>>>>>>>>>>>>>>>>>>>>>>>>>>>",
">>>>>>>>>>>>>>>>>>>>>>>>>>>>> ..>>>>>>>>>>>>>>>>>>>>>>>>>>>>>>>>",
">>>>>>>>>>>>>>>>>>>>>>>>>>>>. * .>>>>>>>>>>>>>>>>>>>>>>>>>>>>>>>",
">>>>>>>>>>>>>>>>>>>>>>>>>  . o-o >>>>>>>>>>>>>>>>>>>>>>>>>>>>>>>",
">>>>>>>>>>>>>>>>>>>>>>>>>.X$+%:#  >>>>>>>>>>>>>>>>>>>>>>>>>>>>>>",
">>>>>>>>>>>>>>>>>>>>>>     +  o$o      >>>>>>>>>>>>>>>>>>>>>>>>>",
">>>>>>>>>>>>>>    >>> .Oo.X#    o+o.@O  >>>.   >>>>>>>>>>>>>>>>>",
">>>>>>>>>>>>>>.oo  >  #::=:%X    o-=:=O  >  XX  >>>>>>>>>>>>>>>>",
">>>>>>>>>>>>>>.$=+   o%::::$      +-::$X   X##X >>>>>>>>>>>>>>>>",
">>>>>>>>>>>>>> o-:=O#-::-:-+ .  .  +-::-+ #:-+  >>>>>>>>>>>>>>>>",
">>>>>>>>>>>>>>  %:::-::-::-.      X o=:-:-::&  >>>>>>>>>>>>>>>>>",
">>>>>>>>>>>>>>> X=:::-::::$  .   o$  X%-::::o   >>>>>>>>>>>>>>>>",
">>>>>>>>>>>>>>>  =:::::::=o    o#O.    o#%==O X  >>>>>>>>>>>>>>>",
">>>>>>>>>>>>>   +:::::-::# XXoX..   ..  .   Xo@O   >>>>>>>>>>>>>",
">>>>>>>>>>>>  .X=:::::::&X            .  . . . X+X >>>>>>>>>>>>>",
">>>>>>>>>>>>..&*:::::-:-O .oO#+++OO+    XX      +  >>>>>>>>>>>>>",
">>>>>>>>>>>>.X::::::::=#. ..    .XO .@X o   . .OX >>>>>>>>>>>>>>",
">>>>>>>>>>>> X=:::::-:%      .  .   o#  o  .  +X  >>>>>>>>>>>>>>",
">>>>>>>>>>>>. *::-:::*X   .X .  .    #  o    ##  >>>>>>>>>>>>>>>",
">>>>>>>>>>>>  =:--::=o  .o&:-%X      X. X   #-= >>>>>>>>>>>>>>>>",
">>>>>>>>>>>  o::::-:*.    X+@o      . X    o-:-   >>>>>>>>>>>>>>",
">>>>>>>>    o$:-::::+       .  .  X . X.  .=:=:$o    >>>>>>>>>>>",
">>>>>>>  o$=-:::::::             .%o  .o. +::::--=%o  >>>>>>>>>>",
">>>>>>>.o%:-:::::::* +...  . .   .$=.  o  *:-:::::-*O >>>>>>>>>>",
">>>>>>>   .+%-:--::&X%X           .*+  X o::-::=*#X.  >>>>>>>>>>",
">>>>>>>>>    +-::::# %O . o        .@    @--::-X    >>>>>>>>>>>>",
">>>>>>>>>>>> .:::-:@.   X    .   .  X    *::::=  >>>>>>>>>>>>>>>",
">>>>>>>>>>>> .=-::-$ . X   X    X   .   O:-::-* >>>>>>>>>>>>>>>>",
">>>>>>>>>>>>  *--::$ . .     .o.o  .  .#=-::-:% >>>>>>>>>>>>>>>>",
">>>>>>>>>>>> X:::-:#       X  XXo.. .O*:::::::= >>>>>>>>>>>>>>>>",
">>>>>>>>>>>> X&-:::@.  .++ +XX o.   +-:::-:::=$ >>>>>>>>>>>>>>>>",
">>>>>>>>>>>>  .O=::#. .$--@.   o   o-:::-:::=o  >>>>>>>>>>>>>>>>",
">>>>>>>>>>>>>> .$::@ .O-::==$  X  .=-::-:::-@  >>>>>>>>>>>>>>>>>",
">>>>>>>>>>>>>>  X*:o .$=**::= .   @-:--::-:=. >>>>>>>>>>>>>>>>>>",
">>>>>>>>>>>>>>> X-:  .@X .%-O  X o-:::::::::o >>>>>>>>>>>>>>>>>>",
">>>>>>>>>>>>>>. $:$   X . #@  . X&:-::::::::$  >>>>>>>>>>>>>>>>>",
">>>>>>>>>>>>>> o-:o.  .X+.o     $::::::-%%-::O  >>>>>>>>>>>>>>>>",
">>>>>>>>>>>>>  $:*X     X     .#-::-::*+  X$-&X >>>>>>>>>>>>>>>>",
">>>>>>>>>>>>> o$X @oX      . X$-:::-:-O     O#X >>>>>>>>>>>>>>>>",
">>>>>>>>>>>>>   . .oOoo.    .&::*&$o#+. >>>  X. >>>>>>>>>>>>>>>>",
">>>>>>>>>>>>>>>>>>   .Xo.  o@::-o.  .  >>>>>    >>>>>>>>>>>>>>>>",
">>>>>>>>>>>>>>>>>>>>>  oOo+X.*:=  >>>>>>>>>>>>>>>>>>>>>>>>>>>>>>",
">>>>>>>>>>>>>>>>>>>>>>       #:$ >>>>>>>>>>>>>>>>>>>>>>>>>>>>>>>",
">>>>>>>>>>>>>>>>>>>>>>>>>>>> o:o.>>>>>>>>>>>>>>>>>>>>>>>>>>>>>>>",
">>>>>>>>>>>>>>>>>>>>>>>>>>>>  % .>>>>>>>>>>>>>>>>>>>>>>>>>>>>>>>",
">>>>>>>>>>>>>>>>>>>>>>>>>>>>> o >>>>>>>>>>>>>>>>>>>>>>>>>>>>>>>>",
">>>>>>>>>>>>>>>>>>>>>>>>>>>>>  .>>>>>>>>>>>>>>>>>>>>>>>>>>>>>>>>",
">>>>>>>>>>>>>>>>>>>>>>>>>>>>>>>>>>>>>>>>>>>>>>>>>>>>>>>>>>>>>>>>",
">>>>>>>>>>>>>>>>>>>>>>>>>>>>>>>>>>>>>>>>>>>>>>>>>>>>>>>>>>>>>>>>",
">>>>>>>>>>>>>>>>>>>>>>>>>>>>>>>>>>>>>>>>>>>>>>>>>>>>>>>>>>>>>>>>",
">>>>>>>>>>>>>>>>>>>>>>>>>>>>>>>>>>>>>>>>>>>>>>>>>>>>>>>>>>>>>>>>",
">>>>>>>>>>>>>>>>>>>>>>>>>>>>>>>>>>>>>>>>>>>>>>>>>>>>>>>>>>>>>>>>",
">>>>>>>>>>>>>>>>>>>>>>>>>>>>>>>>>>>>>>>>>>>>>>>>>>>>>>>>>>>>>>>>",
">>>>>>>>>>>>>>>>>>>>>>>>>>>>>>>>>>>>>>>>>>>>>>>>>>>>>>>>>>>>>>>>",
">>>>>>>>>>>>>>>>>>>>>>>>>>>>>>>>>>>>>>>>>>>>>>>>>>>>>>>>>>>>>>>>",
">>>>>>>>>>>>>>>>>>>>>>>>>>>>>>>>>>>>>>>>>>>>>>>>>>>>>>>>>>>>>>>>"
};
