/* XPM */
static char *IconClanTorA.gif[] = {
/* columns rows colors chars-per-pixel */
"64 64 17 1",
"  c gray100",
". c gray97",
"X c gray87",
"o c #CECECE",
"O c gray68",
"+ c gray61",
"@ c gray58",
"# c #848484",
"$ c gray42",
"% c #5A5A5A",
"& c gray29",
"* c #313131",
"= c gray13",
"- c gray3",
"; c cyan",
": c black",
"> c None",
/* pixels */
">>>>>>>>>>>>>>>>>>>>>>>>>>>>>>>>>>>>>>>>>>>>>>>>>>>>>>>>>>>>>>>>",
">>>>>>>>>>>>>>>>>>>>>>>>>>>>>>>>>>>>>>>>>>>>>>>>>>>>>>>>>>>>>>>>",
">>>>>>>>>>>>>>>>>>>>>>>>>>>>>>>>>>>>>>>>>>>>>>>>>>>>>>>>>>>>>>>>",
">>>>>>>>>>>>>>>>>>>>>>>>>>>>>>>>>>>>>>>>>>>>>>>>>>>>>>>>>>>>>>>>",
">>>>>>>>>>>>>>>>>>>>>>>>>>>>>>>>>>>>>>>>>>>>>>>>>>>>>>>>>>>>>>>>",
">>>>>>>>>>>>>>>>>>>>>>>>>>>>>>>>>>>>>>>>>>>>>>>>>>>>>>>>>>>>>>>>",
">>>>>>>>>>>>>>>>>>>>>>>>>>>>>>>>>>>>>>>>>>>>>>>>>>>>>>>>>>>>>>>>",
">>>>>>>>>>>>>>>>>>>>>>>>>>>>>>>>>>>>>>>>>>>>>>>>>>>>>>>>>>>>>>>>",
">>>>>>>>>>>>>>>>>>>>>>>>>>>>>   >>>>>>>>>>>>>>>>>>>>>>>>>>>>>>>>",
">>>>>>>>>>>>>>>>>>>>>>>>>>>>> o  >>>>>>>>>>>>>>>>>>>>>>>>>>>>>>>",
">>>>>>>>>>>>>>>>>>>>>>>>>>>>  %o >>>>>>>>>>>>>>>>>>>>>>>>>>>>>>>",
">>>>>>>>>>>>>>>>>>>>>>>>>>>> .:@ >>>>>>   >>>>>>>>>>>>>>>>>>>>>>",
">>>>>>>>>>>>>>>>>>>>>>>>>>>  +-=  >. .  X   >>>>>>>>>>>>>>>>>>>>",
">>>>>>>>>>>>>>.  >>>>> .   ..$:-o   X  #&*O  .>>>>>>>>>>>>>>>>>>",
">>>>>>>>>>>>>> .  >>>  Oo X+#-::***&##*# X&#X .>>>>>>>>>>>>>>>>>",
">>>>>>>>>>>>>> O.  >  @-:=::::#o.  .O@+  . #@X. X>>>>>>>>>>>>>>>",
">>>>>>>>>>>>>>.%=+.  o&::::::-X .   X+ .    &=o. >>>>>>>>>>>>>>>",
">>>>>>>>>>>>>> o:-=+@&:::::::-. .  .*+%%%%*#&%.  >>>>>>>>>>>>>>>",
">>>>>>>>>>>>>>  %::-::::-::::*    O-&o.@.XoX+=*O  >>>>>>>>>>>>>>",
">>>>>>>>>>>>>>> X::::--::-:::&   .&o  O   .. XX&o  >>>>>>>>>>>>>",
">>>>>>>>>>>>>>>  &::::::::::-*   Xo . oo.    X X&O  >>>>>>>>>>>>",
">>>>>>>>>>>>>>  O-:::::::::::-  o o o.. o#O . . .&X >>>>>>>>>>>>",
">>>>>>>>>>>>  .o*:-:::::::::::  @ O .o X=&  X    o&  >>>>>>>>>>>",
">>>>>>>>>>>> .$&::-:::::::::--o # @  O  -- X. X . &o  >>>>>>>>>>",
">>>>>>>>>>>> o:::-::::::::::::# o.#   oo#*.O XO  .X$. >>>>>>>>>>",
">>>>>>>>>>>> X=::-::::::::::::*o  +.  Oo OO. O$.   &X >>>>>>>>>>",
">>>>>>>>>>>>  *-::-:::::::::-:-$X X@  .o  X  X&   .$o >>>>>>>>>>",
">>>>>>>>>>>>  =:-:::::::::::::::#. +XX   X X  o    $@ >>>>>>>>>>",
">>>>>>>>>>>  o:::::::::::::::::%OX XoooX ..      +*#X >>>>>>>>>>",
">>>>>>>>    o#::-::::::::::::-=Xo XX.  ..   .  O&$ .  >>>>>>>>>>",
">>>>>>   oO&=-::::::::::::::-:% # XoooX   .O  #-:=$o   >>>>>>>>>",
">>>>>> .O*::::-:::::::::::::::. OX .o@@OO@%O$*:::-::$X >>>>>>>>>",
">>>>>>   Xo&*-::-:-::::::::-:&  &+   ..   .+=::--&#X   >>>>>>>>>",
">>>>>>>>  . .O-:-:::::::::::=..O:=X      .o=:::%o .  >>>>>>>>>>>",
">>>>>>>>>>>> .-::::::::::::-O  &::&    .O&::::-O  >>>>>>>>>>>>>>",
">>>>>>>>>>>>> -::::::::::::+  %::-:***=:::::-::o >>>>>>>>>>>>>>>",
">>>>>>>>>>>>> &-::-::::::%o. +::-::::::::::::-=. >>>>>>>>>>>>>>>",
">>>>>>>>>>    ::-::-::=$OX  o:-==:-:::::::::-::o >>>>>>>>>>>>>>>",
">>>>>>>>>> .X&&$##@#+o.    .o-:-O-::::::::::::-o >>>>>>>>>>>>>>>",
">>>>>>>>>  O&o.  .   .o+$&=X -::%=-::::::::::$o  >>>>>>>>>>>>>>>",
">>>>>>>>> o&  .X#$*-::::-::$.o=:@*::::::::::*X  >>>>>>>>>>>>>>>>",
">>>>>>>>>.#O.o&$O-::::-:::-:%O.X&-:::::::::-+  >>>>>>>>>>>>>>>>>",
">>>>>>>>>.@Oo&o  ::::::::::::=::::-::::::::-+ .>>>>>>>>>>>>>>>>>",
">>>>>>>>> o%&o  #:::::::::::::::::::::::::::*X >>>>>>>>>>>>>>>>>",
">>>>>>>>>  $O  .=:----::::::-:-:-:::::::-*:::@  >>>>>>>>>>>>>>>>",
">>>>>>>>>> .  .%:=$.X%:::::::-::::::-::&O.O&:*X >>>>>>>>>>>>>>>>",
">>>>>>>>>>>>>..&#X . .#::-:::-::::-:::%X    +%+.>>>>>>>>>>>>>>>>",
">>>>>>>>>>>>>. o   >> O-=%*-::--:-=%**O .>>  XX >>>>>>>>>>>>>>>>",
">>>>>>>>>>>>>>   >>>>  .    O:::&X   .  >>>>    >>>>>>>>>>>>>>>>",
">>>>>>>>>>>>>>>>>>>>>>>>>>> .*:-O  >   >>>>>>>>>>>>>>>>>>>>>>>>>",
">>>>>>>>>>>>>>>>>>>>>>>>>>>> #:=. >>>>>>>>>>>>>>>>>>>>>>>>>>>>>>",
">>>>>>>>>>>>>>>>>>>>>>>>>>>> X:&  >>>>>>>>>>>>>>>>>>>>>>>>>>>>>>",
">>>>>>>>>>>>>>>>>>>>>>>>>>>> .&O.>>>>>>>>>>>>>>>>>>>>>>>>>>>>>>>",
">>>>>>>>>>>>>>>>>>>>>>>>>>>>> @. >>>>>>>>>>>>>>>>>>>>>>>>>>>>>>>",
">>>>>>>>>>>>>>>>>>>>>>>>>>>>> X  >>>>>>>>>>>>>>>>>>>>>>>>>>>>>>>",
">>>>>>>>>>>>>>>>>>>>>>>>>>>>>   >>>>>>>>>>>>>>>>>>>>>>>>>>>>>>>>",
">>>>>>>>>>>>>>>>>>>>>>>>>>>>>>>>>>>>>>>>>>>>>>>>>>>>>>>>>>>>>>>>",
">>>>>>>>>>>>>>>>>>>>>>>>>>>>>>>>>>>>>>>>>>>>>>>>>>>>>>>>>>>>>>>>",
">>>>>>>>>>>>>>>>>>>>>>>>>>>>>>>>>>>>>>>>>>>>>>>>>>>>>>>>>>>>>>>>",
">>>>>>>>>>>>>>>>>>>>>>>>>>>>>>>>>>>>>>>>>>>>>>>>>>>>>>>>>>>>>>>>",
">>>>>>>>>>>>>>>>>>>>>>>>>>>>>>>>>>>>>>>>>>>>>>>>>>>>>>>>>>>>>>>>",
">>>>>>>>>>>>>>>>>>>>>>>>>>>>>>>>>>>>>>>>>>>>>>>>>>>>>>>>>>>>>>>>",
">>>>>>>>>>>>>>>>>>>>>>>>>>>>>>>>>>>>>>>>>>>>>>>>>>>>>>>>>>>>>>>>",
">>>>>>>>>>>>>>>>>>>>>>>>>>>>>>>>>>>>>>>>>>>>>>>>>>>>>>>>>>>>>>>>"
};
