/* XPM */
static char *IconClanSam.gif[] = {
/* columns rows colors chars-per-pixel */
"64 64 257 2",
"   c gray100",
".  c #FEFEFE",
"X  c #FDFDFD",
"o  c gray99",
"O  c #FBFBFB",
"+  c gray98",
"@  c #F9F9F9",
"#  c #F8F8F8",
"$  c gray97",
"%  c #F6F6F6",
"&  c gray96",
"*  c #F4F4F4",
"=  c #F3F3F3",
"-  c gray95",
";  c #F1F1F1",
":  c gray94",
">  c #EEEEEE",
",  c gray93",
"<  c #ECECEC",
"1  c gray92",
"2  c #EAEAEA",
"3  c #E9E9E9",
"4  c gray91",
"5  c #E6E6E6",
"6  c gray90",
"7  c #E4E4E4",
"8  c #E2E2E2",
"9  c #E1E1E1",
"0  c gray88",
"q  c gray87",
"w  c #DDDDDD",
"e  c gainsboro",
"r  c gray86",
"t  c gray85",
"y  c #D8D8D8",
"u  c #D7D7D7",
"i  c #D5D5D5",
"p  c LightGray",
"a  c #D2D2D2",
"s  c gray82",
"d  c #D0D0D0",
"f  c gray81",
"g  c #CECECE",
"h  c #CDCDCD",
"j  c gray80",
"k  c #CBCBCB",
"l  c gray79",
"z  c #C8C8C8",
"x  c gray78",
"c  c #C6C6C6",
"v  c #C5C5C5",
"b  c gray77",
"n  c #C3C3C3",
"m  c gray76",
"M  c #C1C1C1",
"N  c #C0C0C0",
"B  c gray",
"V  c gray74",
"C  c #BCBCBC",
"Z  c gray73",
"A  c #B9B9B9",
"S  c gray72",
"D  c #B7B7B7",
"F  c #B6B6B6",
"G  c #B4B4B4",
"H  c gray70",
"J  c #B2B2B2",
"K  c gray69",
"L  c #AFAFAF",
"P  c gray68",
"I  c #A9A9A9",
"U  c gray66",
"Y  c #A7A7A7",
"T  c gray65",
"R  c #A5A5A5",
"E  c #A4A4A4",
"W  c gray64",
"Q  c #A2A2A2",
"!  c gray63",
"~  c #A0A0A0",
"^  c #9F9F9F",
"/  c #9D9D9D",
"(  c gray61",
")  c gray60",
"_  c #989898",
"`  c #979797",
"'  c gray59",
"]  c #959595",
"[  c gray58",
"{  c #939393",
"}  c #929292",
"|  c gray57",
" . c #909090",
".. c gray56",
"X. c #8E8E8E",
"o. c #8D8D8D",
"O. c gray55",
"+. c #8B8B8B",
"@. c gray54",
"#. c #888888",
"$. c gray53",
"%. c #868686",
"&. c gray52",
"*. c #848484",
"=. c #838383",
"-. c gray51",
";. c #818181",
":. c #808080",
">. c gray50",
",. c gray49",
"<. c #7C7C7C",
"1. c #7B7B7B",
"2. c gray48",
"3. c #797979",
"4. c gray47",
"5. c #777777",
"6. c #767676",
"7. c #747474",
"8. c #727272",
"9. c #717171",
"0. c gray44",
"q. c gray43",
"w. c #6D6D6D",
"e. c #6C6C6C",
"r. c gray42",
"t. c #6A6A6A",
"y. c #686868",
"u. c #656565",
"i. c #646464",
"p. c gray39",
"a. c gray38",
"s. c #606060",
"d. c #5F5F5F",
"f. c #5D5D5D",
"g. c gray36",
"h. c gray35",
"j. c #585858",
"k. c #555555",
"l. c #535353",
"z. c gray32",
"x. c #515151",
"c. c #505050",
"v. c #4E4E4E",
"b. c gray30",
"n. c #4B4B4B",
"m. c gray29",
"M. c #494949",
"N. c #484848",
"B. c gray28",
"V. c gray27",
"C. c #444444",
"Z. c #414141",
"A. c gray25",
"S. c #3F3F3F",
"D. c #3E3E3E",
"F. c #3C3C3C",
"G. c gray23",
"H. c #3A3A3A",
"J. c #393939",
"K. c gray22",
"L. c #373737",
"P. c gray21",
"I. c #353535",
"U. c gray20",
"Y. c #323232",
"T. c #313131",
"R. c gray19",
"E. c #2F2F2F",
"W. c gray18",
"Q. c gray17",
"!. c gray16",
"~. c #282828",
"^. c #272727",
"/. c gray15",
"(. c gray14",
"). c #232323",
"_. c #222222",
"`. c gray12",
"'. c #1D1D1D",
"]. c gray11",
"[. c #1B1B1B",
"{. c gray10",
"}. c #191919",
"|. c #181818",
" X c gray9",
".X c #161616",
"XX c #151515",
"oX c gray8",
"OX c #131313",
"+X c gray7",
"@X c #111111",
"#X c gray6",
"$X c gray5",
"%X c #0C0C0C",
"&X c #0B0B0B",
"*X c gray4",
"=X c #090909",
"-X c gray3",
";X c #070707",
":X c #060606",
">X c gray2",
",X c #040404",
"<X c gray1",
"1X c #020202",
"2X c #010101",
"3X c cyan",
"4X c black",
"5X c black",
"6X c black",
"7X c black",
"8X c black",
"9X c black",
"0X c black",
"qX c black",
"wX c black",
"eX c black",
"rX c black",
"tX c black",
"yX c black",
"uX c black",
"iX c black",
"pX c black",
"aX c black",
"sX c black",
"dX c black",
"fX c black",
"gX c black",
"hX c black",
"jX c black",
"kX c black",
"lX c black",
"zX c black",
"xX c black",
"cX c black",
"vX c black",
"bX c black",
"nX c black",
"mX c black",
"MX c black",
"NX c black",
"BX c black",
"VX c black",
"CX c black",
"ZX c black",
"AX c black",
"SX c black",
"DX c black",
"FX c black",
"GX c black",
"HX c black",
"JX c black",
"KX c black",
"LX c black",
"PX c black",
"IX c black",
"UX c black",
"YX c None",
/* pixels */
"YXYXYXYXYXYXYXYXYXYXYXYXYXYXYXYXYXYXYXYXYXYXYXYXYXYXYXYXYXYXYXYXYXYXYXYXYXYXYXYXYXYXYXYXYXYXYXYXYXYXYXYXYXYXYXYXYXYXYXYXYXYXYXYX",
"YXYXYXYXYXYXYXYXYXYXYXYXYXYXYXYXYXYXYXYXYXYXYXYXYXYXYXYXYXYXYXYXYXYXYXYXYXYXYXYXYXYXYXYXYXYXYXYXYXYXYXYXYXYXYXYXYXYXYXYXYXYXYXYX",
"YXYXYXYXYXYXYXYXYXYXYXYXYXYXYXYXYXYXYXYXYXYXYXYXYXYXYXYXYXYXYXYXYXYXYXYXYXYXYXYXYXYXYXYXYXYXYXYXYXYXYXYXYXYXYXYXYXYXYXYXYXYXYXYX",
"YXYXYXYXYXYXYXYXYXYXYXYXYXYXYXYXYXYXYXYXYXYXYXYXYXYXYXYXYX                  YXYXYXYXYXYXYXYXYXYXYXYXYXYXYXYXYXYXYXYXYXYXYXYXYXYX",
"YXYXYXYXYXYXYXYXYXYXYXYXYXYXYXYXYXYXYXYXYXYXYXYXYX      4 % g 0.M.C.:.L k 1 O       YXYXYXYXYXYXYXYXYXYXYXYXYXYXYXYXYXYXYXYXYXYX",
"YXYXYXYXYXYXYXYXYXYXYXYXYXYXYXYXYXYXYXYXYXYX      , H u.@XI.C.4X4X4X4X4X>X@XL.u.~ 3     YXYXYXYXYXYXYXYXYXYXYXYXYXYXYXYXYXYXYXYX",
"YXYXYXYXYXYXYXYXYXYXYXYXYXYXYXYXYXYXYXYXYX    K m..X4X4X4X4X4X4X4X4X4X4X4X4X4X4X4XXX .  YXYXYXYXYXYXYXYXYXYXYXYXYXYXYXYXYXYXYXYX",
"YXYXYXYXYXYXYXYXYXYXYXYXYXYXYXYXYXYXYXYXYX  G >X4X4X4X4X4X4X4X4X4X4X4X4X4X4X4X4X4X4X^.@       YXYXYXYXYXYXYXYXYXYXYXYXYXYXYXYXYX",
"YXYXYXYXYXYXYXYXYXYXYXYXYXYXYXYXYXYXYXYXYX  1.4X4X4X4X4X4X4X4X4X4X4X4X4X4X4X4X4X4X4XXX:   a 3     YXYXYXYXYXYXYXYXYXYXYXYXYXYXYX",
"YXYXYXYXYXYXYXYXYXYXYXYXYXYXYXYXYXYXYXYXYX  ,.4X4X4X4X4X4X4X4X4X4X4X4X4X4X4X4X4X4X4X2XC + }._.U     YXYXYXYXYXYXYXYXYXYXYXYXYXYX",
"YXYXYXYXYXYXYXYXYXYXYXYXYXYXYXYXYXYXYXYXYX  g.4X4X4X4X4X4X4X4X4X4X4X4X4X4X4X4X4X4X4X4XT M 4X4X<X&.    YXYXYXYXYXYXYXYXYXYXYXYXYX",
"YXYXYXYXYXYXYXYXYXYXYXYXYXYXYXYXYXYXYXYXYX  j.4X4X4X4X4X4X4X4X4X4X4X4X4X4X4X4X4X4X4X4X' H 4X4X4X4X!   YXYXYXYXYXYXYXYXYXYXYXYXYX",
"YXYXYXYXYXYXYXYXYXYXYXYXYXYXYXYXYXYXYXYXYX. b.4X4X4X4X4X4X4X4X4X4X4X4X4X4X4X4X4X4X4X4X@.R 4X4X4X4Xt.      YXYXYXYXYXYXYXYXYXYXYX",
"YXYXYXYXYXYXYXYXYXYXYXYXYXYXYXYXYXYXYXYXYXX F.4X4X4X4X4X4X4X4X4X4X4X4X4X4X4X4X4X4X4X4X<.o.4X4X4X4XE.v.|     YXYXYXYXYXYXYXYXYXYX",
"YXYXYXYXYXYXYXYXYXYXYXYXYXYXYXYXYXYXYXYXYX# !.4X4X4X4X4X4X4X4X4X4X4X4X4X4X4X4X4X4X4X4X$.R 4X4X4X4X4X4X4XX.    YXYXYXYXYXYXYXYXYX",
"YXYXYXYXYXYXYXYXYXYXYXYXYXYXYXYXYXYXYXYX  : oX4X4X4X4X4X4X4X4X4X4X4X4X4X4X4X4X4X4X4X4X-./ 4X4X4X4X4X4X4X4X~     YXYXYXYXYXYXYXYX",
"YXYXYXYXYXYXYXYXYXYXYXYXYXYXYXYXYXYXYXYX  e 4X4X4X4X4X4X4X4X4X4X4X4X4X4X4X4X4X4X4X4X4X+.q.4X4X4X4X4X4X4X4X*Xc   YXYXYXYXYXYXYXYX",
"YXYXYXYXYXYXYXYXYXYXYXYXYXYXYXYXYXYXYXYX  ; ] Y.4X4X4X4X4X4X4X4X4X4X4X4X4X4X4X4X4X4X4X' L.4X4X4X4X4X4X4X4X4XT.*   YXYXYXYXYXYXYX",
"YXYXYXYXYXYXYXYXYXYXYXYXYXYXYXYXYXYXYXYXYX  S /.4X4X4X4X4X4X4X4X4X4X4X4X4X4X4X4X4X4X*X_ $X4X4X4X4X4X4X4X4X4X4X1.  YXYXYXYXYXYXYX",
"YXYXYXYXYXYXYXYXYXYXYXYXYXYXYXYXYXYXYXYX  9 %X4X4X4X4X4X4X4X4X4X4X4X4X4X4X4X4X4X4X4XG.%.4X4X4X4X4X4X4X4X4X4X4XOX4   YXYXYXYXYXYX",
"YXYXYXYXYXYXYXYXYXYXYXYXYXYXYXYXYXYXYXYX  ` 4X4X4X4X4X4X4X4X4X4X4X4X4X4X4X4X4X4X4X4XF.~.4X4X4X4X4X4X4X4X4X4X4X4X=.  YXYXYXYXYXYX",
"YXYXYXYXYXYXYXYXYXYXYXYXYXYXYXYXYXYXYXYX  9.4X4X4X4X4X4X4X4X4X4X4X4X4X4X4X4X4X4X4X4X4X4X4X4X4X4X4X4X4X4X4X4X4X4X_.&   YXYXYXYXYX",
"YXYXYXYXYXYXYXYXYXYXYXYXYXYXYXYXYXYXYX  & T.4X4X4X4X4X4X4X4X4X4X4X4X4X4X4X4X4X4X4X4X4X4X4X4X4X4X4X4X4X4X4X4X4X4X4XN   YXYXYXYXYX",
"YXYXYXYXYXYXYXYXYXYXYXYXYXYXYXYXYXYXYX  G 4X4X4X4X4X4X4X4X4X4X4X4X4X4X4X4X4X4X4X4X4X4X4X4X4X4X4X4X4X4X4X4X4X4X4X4X5.  YXYXYXYXYX",
"YXYXYXYXYXYXYXYXYXYXYXYXYXYXYXYXYXYXYX  [ 4X4X4X4X4X4X4X4X4X4X4X4X4X4X4X4X4X4X4X4X4X4X4X4X4X4X4X4X4X4X4X4X4X4X4X4XW.+   YXYXYXYX",
"YXYXYXYXYXYXYXYXYXYXYXYXYXYXYXYXYXYXYX  H 4X4X4X4X4X4X4X4X4X4X4X4X4X4X4X4X4X4X4X4X4X4X4X4X4X4X4X4X4X4X4X4X>X%X4X4X4Xp   YXYXYXYX",
"YXYXYXYXYXYXYXYXYXYXYXYXYXYXYXYXYXYXYX  $ D.4X4X4X4X4X4X4X4X4X4X4X4X4X4X4X4X4X4X4X4X4X4X4X4X4X4X4X4X4X4X4X*X&.K.~.o.,   YXYXYXYX",
"YXYXYXYXYXYXYXYXYXYXYXYXYXYXYXYXYXYXYX    b *X4X4X4X4X4X4X4X4X4X4X4X:XI.,X4X4X4X4X4X4X4X4X4X4X4X4X4X4X4X4X4Xo.O $     YXYXYXYXYX",
"YXYXYXYXYXYXYXYXYXYXYXYXYXYXYXYXYXYXYX. m W.<X4X4X4X4X4X4X4X4X4X4X4XV.t.4X4X4X4X4X4X4X4X4X4X4X4X4X4X4X4X4X4X'   YXYXYXYXYXYXYXYX",
"YXYXYXYXYXYXYXYXYXYXYXYXYXYXYXYXYXYX  = OX4X4X4X4X4X4X4X4X4X4X4X4X4X;.I.4X4X4X4X4X4X4X4X4X4X4X4X4X4X4X4X/.Q #   YXYXYXYXYXYXYXYX",
"YXYXYXYXYXYXYXYXYXYXYXYXYXYXYXYXYXYX  q ;X4X4X4X4X4X4X4X4X4X4X4X4X$X] ;X4X4X4X4X4X4X4X4X4X4X4X4X4X4X4XE.w     YXYXYXYXYXYXYXYXYX",
"YXYXYXYXYXYXYXYXYXYXYXYXYXYXYXYXYXYX  ! 4X4X4X4X4X4X4X4X4X4X4X4X4Xi.} 4X4X4X4X4X4X4X4X4X4X4X4X4X4X4XW.9     YXYXYXYXYXYXYXYXYXYX",
"YXYXYXYXYXYX      YXYXYXYXYXYXYXYXYX  q.4X4X4X4X4X4X4X4X4X4X4X4X4XJ q.4X4X4X4X4X4X4X4X4X4X4X4X4X4X).t   YXYXYXYXYXYXYXYXYXYXYXYX",
"YXYXYXYXYX  = +.2   YXYXYXYXYXYXYXYXO K.4X4X4X4X4X4X4X4X4X4X4X4XJ.6 I.4X4X4X4X4X4X4X4X4X4X4X4X4X Xs     YXYXYXYXYXYXYXYXYXYXYXYX",
"YXYXYXYXYX  U 4XN.-   YXYXYXYXYXYXYX; G.<X4X4X4X4X4X4X4X4X4X4X[.r h ,X4X4X4X4X4X4X4X4X4X4X4X4X@XA     YXYXYXYXYXYXYXYXYXYXYXYXYX",
"YXYXYXYXYX  e.4X4XM.<   YXYXYXYXYX    = F r.E.>X4X4X4X4X4X4X4X} q {.4X4X4X4X4X4X4X4X4X4X4X4X;XE     YXYXYXYXYXYXYXYXYXYXYXYXYXYX",
"YXYXYXYXYXX A.4X4X4X#.      YXYX    ,.n.G.f.{ B [ B.,X4X4X4XU.d ).4X4X4X4X4X4X4X4X4X4X4X4X4Xj.    YXYXYXYXYXYXYXYXYXYXYXYXYXYXYX",
"YXYXYXYXYX* |.4X4X4X#.) w   YXYX  L 4X4X4X4X4Xv.U Z B G.4X4X,.S.4X4X4X4X4X4X4X4X4X4X4X4X4X4X)   YXYXYXYXYXYXYXYXYXYXYXYXYXYXYXYX",
"YXYXYXYX  7 *X4X4X4X}.4Xj.    YX  C.4X4X4X4X4X4X4X<Xx.) 9. .z.4X4X4X4X4X4X4X4X4X4X4X4X4X4Xr.:   YXYXYXYXYXYXYXYXYXYXYXYXYXYXYXYX",
"YXYXYXYX  y =X4X4X4X4X4X4XX.    8 *X4X4X4X4X4X4X4X4X4X1XB.B s.$X>X4X4X4X4X4X4X4X4X4X4X4X6.    YXYXYXYXYXYXYXYXYXYXYXYXYXYXYXYXYX",
"YXYXYXYX  h >X4X4X4X4X4X4X<Xz   ( 4X4X4X4X4X4X4X4X4X4X4X4X4X&Xj.n w. X4X4X4X4X4X4X4X4XT.#   YXYXYXYXYXYXYXYXYXYXYXYXYXYXYXYXYXYX",
"YXYXYXYX  t ;X4X4X4X4X4X4X4XA.= C.4X4X4X4X4X4X4X4X4X4X4X4X4X4X,X/ A Y *.OX4X(.1X4X4X%Xn   YXYXYXYXYXYXYXYXYXYXYXYXYXYXYXYXYXYXYX",
"YXYXYXYX  & `.4X4X4X4X4X4X4X4X..y.4X4X4X4X4X4X4X4X4X4X4X4X4X4X4XQ.oX|.#.G X.>.4X4X4X/     YXYXYXYXYXYXYXYXYXYXYXYXYXYXYXYXYXYXYX",
"YXYXYXYXYX  i.@X+X4X4X4X4X4X4XOXF Z.4X4X4X4X4X4X4X4X4X4X4X4X4X4X4X4X4X4X_.J D &X4X=.    YXYXYXYXYXYXYXYXYXYXYXYXYXYXYXYXYXYXYXYX",
"YXYXYXYXYX  7 0 O.4X4X4X4X4X4X4X`._ L.:X<X4X4X4X4X4X4X4X4X4X4X4X4X4X4X4X4X4X-.m a.O   YXYXYXYXYXYXYXYXYXYXYXYXYXYXYXYXYXYXYXYXYX",
"YXYXYXYXYXYXYX  [ 4X4X4X4X4X4X4X4X'.4 q R.4X4X4X4X4X4X4X4X4X4X4X4X4X4X4X4X4X4X`     YXYXYXYXYXYXYXYXYXYXYXYXYXYXYXYXYXYXYXYXYXYX",
"YXYXYXYXYXYXYX  K 4X4X4X4X4X4X4X4X1Xt.W } T.4X4X4X4X4X4X4X4X4X4X4X4X4X4X4X4X4Xl.  YXYXYXYXYXYXYXYXYXYXYXYXYXYXYXYXYXYXYXYXYXYXYX",
"YXYXYXYXYXYXYX  . +.4X4X4X4X4X4X4X4X4X4X9.% 8.<X4X4X4X4X4X4X4X4X4X4X4X4X4X4X4X+.  YXYXYXYXYXYXYXYXYXYXYXYXYXYXYXYXYXYXYXYXYXYXYX",
"YXYXYXYXYXYXYXYX    i.4X4X4X4X4X4X4X4X4X4X0., B P.4X4X4X4X4X4X4X4X4X4X4X4X4X%Xt   YXYXYXYXYXYXYXYXYXYXYXYXYXYXYXYXYXYXYXYXYXYXYX",
"YXYXYXYXYXYXYXYXYX  + h.4X4X4X4X4X4X4X4X4X4XE.c   T m.-X4X4X4X4X4X4X4X4X4X4XC.    YXYXYXYXYXYXYXYXYXYXYXYXYXYXYXYXYXYXYXYXYXYXYX",
"YXYXYXYXYXYXYXYXYXYX  - 4.XX4X4X4X4X4X4X4X4X4X;X7..   u 2.^.4XY.q.4X4X4X4X4X<.  YXYXYXYXYXYXYX    X * . YXYXYXYXYXYXYXYXYXYXYXYX",
"YXYXYXYXYXYXYXYXYXYXYX    i Q.<X;X4X4X4X4X4X4X4X4XI   f :   x 4 2 .X4X4X4X4X)   YXYXYXYX      8 r.H.C.& YXYXYXYXYXYXYXYXYXYXYXYX",
"YXYXYXYXYXYXYXYXYXYXYXYX    0 c M 4X4X4X4X4X4X4X4XB.u +X`.-.l % O 4 l L X.) ;   YXYXYX    v ;.~.4X4XR   YXYXYXYXYXYXYXYXYXYXYXYX",
"YXYXYXYXYXYXYXYXYXYXYXYXYXYX      c.4X4X4X4X4X4X4X4X].4X4X4X2X|.L.h.<.U B g d 4     ; 0 *.*X4X4X4XV..   YXYXYXYXYXYXYXYXYXYXYXYX",
"YXYXYXYXYXYXYXYXYXYXYXYXYXYXYXYX  % q.*X4X4X4X4X4X4X4X4X4X4X4X4X4X4X4X4X4X2X>X|.` x OX&X4X4X4X4X4X^   YXYXYXYXYXYXYXYXYXYXYXYXYX",
"YXYXYXYXYXYXYXYXYXYXYXYXYXYXYXYXYX    j d.$X4X4X4X4X4X4X4X4X4X4X4X4X4X4X4X4X4X4X>XH.4X4X4X4X4X4X-Xe   YXYXYXYXYXYXYXYXYXYXYXYXYX",
"YXYXYXYXYXYXYXYXYXYXYXYXYXYXYXYXYXYX      r [ v.&X4X4X4X4X4X4X4X4X4X4X4X4X4X4X4X4X4X4X4X4X4X4X4X!.O   YXYXYXYXYXYXYXYXYXYXYXYXYX",
"YXYXYXYXYXYXYXYXYXYXYXYXYXYXYXYXYXYXYXYX        g 3.Y.-X4X4X4X4X4X4X4X4X4X4X4X4X4X4X4X4X4X4X4X1XR   YXYXYXYXYXYXYXYXYXYXYXYXYXYX",
"YXYXYXYXYXYXYXYXYXYXYXYXYXYXYXYXYXYXYXYXYXYXYX      + u } p.F.'.%X>X4Xb. Xk.E.4X4X4X2X4X2X#XH.I     YXYXYXYXYXYXYXYXYXYXYXYXYXYX",
"YXYXYXYXYXYXYXYXYXYXYXYXYXYXYXYXYXYXYXYXYXYXYXYXYXYX        X = 7 j F > J 5 c x.*.H V P B 7 o     YXYXYXYXYXYXYXYXYXYXYXYXYXYXYX",
"YXYXYXYXYXYXYXYXYXYXYXYXYXYXYXYXYXYXYXYXYXYXYXYXYXYXYXYXYXYXYXYX                            YXYXYXYXYXYXYXYXYXYXYXYXYXYXYXYXYXYX",
"YXYXYXYXYXYXYXYXYXYXYXYXYXYXYXYXYXYXYXYXYXYXYXYXYXYXYXYXYXYXYXYXYXYXYXYXYXYXYXYXYXYXYXYXYXYXYXYXYXYXYXYXYXYXYXYXYXYXYXYXYXYXYXYX",
"YXYXYXYXYXYXYXYXYXYXYXYXYXYXYXYXYXYXYXYXYXYXYXYXYXYXYXYXYXYXYXYXYXYXYXYXYXYXYXYXYXYXYXYXYXYXYXYXYXYXYXYXYXYXYXYXYXYXYXYXYXYXYXYX",
"YXYXYXYXYXYXYXYXYXYXYXYXYXYXYXYXYXYXYXYXYXYXYXYXYXYXYXYXYXYXYXYXYXYXYXYXYXYXYXYXYXYXYXYXYXYXYXYXYXYXYXYXYXYXYXYXYXYXYXYXYXYXYXYX"
};
