/* XPM */
static char *IconClanGan.gif[] = {
/* columns rows colors chars-per-pixel */
"64 64 17 1",
"  c gray100",
". c #EFEFEF",
"X c #E7E7E7",
"o c #CECECE",
"O c gray71",
"+ c gray61",
"@ c #848484",
"# c #7B7B7B",
"$ c gray45",
"% c #5A5A5A",
"& c gray29",
"* c #393939",
"= c gray13",
"- c gray3",
"; c cyan",
": c black",
"> c None",
/* pixels */
">>>>>>>>>>>>>>>>>>>>>>>>>>>>>>>>>>>>>>>>>>>>>>>>>>>>>>>>>>>>>>>>",
">>>>>>>>>>>>>>>>>>>>>>>>>>>>>>>>>>>>>>>>>>>>>>>>>>>>>>>>>>>>>>>>",
">>>>>>>>>>>>>>>>>>>>>>>>>>>>>>>>>>>>>>>>>>>>>>>>>>>>>>>>>>>>>>>>",
">>>>>>>>>>>>>>>>>>>>>>>>>>>>>>>>>>>>>>>>>>>>>>>>>>>>>>>>>>>>>>>>",
">>>>>>>>>>>>>>>>>>>>>>>>>>>>>>>>>>>>>>>>>>>>>>>>>>>>>>>>>>>>>>>>",
">>>>>>>>>>>>>>>>>>>>>>>>>>>>>>>>>>>>>>>>>>>>>>>>>>>>>>>>>>>>>>>>",
">>>>>>>>>>>>>>>>>>>>>>>>>>>>>>>>>>>>>>>>>>>>>>>>>>>>>>>>>>>>>>>>",
">>>>>>>>>>>>>>>>>>>>>>>>>>> X >>>>>>>>>>>>>>>>>>>>>>>>>>>>>>>>>>",
">>>>>>>>>>>>>>>>>>>>>>>>>>>+@O  >>>>>>>>>>>>>>>>>>>>>>>>>>>>>>>>",
">>>>>>>>>>>>>.o >>>>>>>>>>>+-:%o  >>>>>>>>>>>>>>>>>>>>>>>>>>>>>>",
">>>>>>>>>>>>X@*.>>>>>>>>>>>+=::-$X >>>>>>>>>>>>>>>>>>>>>>>>>>>>>",
">>>>>>>>>>>>X*:+..>>>>>>>>>.&:::-#X >>>>>>>>>>>>>>>>>>>>>>>>>>>>",
">>>>>>>>>>>> &::%@X >>>>>>> $-::::*. >>>>>>>>>>>>>>>>>>>>>>>>>>>",
">>>>>>>>>>>> O::::-+o .>>>>..$::-::%o >>>>>>>>>>>>>>>>>>>>>>>>>>",
">>>>>>>>>>>>>O::::::-&O. >>  $::-:::&O >>>>>>>>>>>>>>>>>>>>>>>>>",
">>>>>>>>>>>>>O-:=::::::=O  O@=:-:::::=+ >>>>>>>>>>>>>>>>>>>>>>>>",
">>>>>>>>>>>>>.::::--::::-==::::::-::::=@. >>>>>>>>>>>>>>>>>>>>>>",
">>>>>>>>>>>>> *:::::::::::::::::::::::::*+    >>>>>>>>>>>>>>>>>>",
">>>>>>>>>>>>> @:::::::::::::::::::-::::::::*@o >>>>>>>>>>>>>>>>>",
">>>>>>>>>>>>>>X::::::::::::::::::::::::::::::=O>>>>>>>>>>>>>>>>>",
">>>>>>>>>>>>>>.=:-:::::::::-::::::-::-:::-:-::+.. >>>>>>>>>>>>>>",
">>>>>>>>>>>>>> $::::::::::::::::-%O  .@=::::::%#$+Oo. . .o >>>>>",
">>>>>>>>>>>>>> +:::::::::::::::::=$.  O*:::--:-:::::-*==-:+>>>>>",
">>>>>>>>>>>>>>.%:::::::::::::::-:::%&=::::::-:-::::::-:::-X>>>>>",
">>>>>>>>>>>>> O::-::::::::::::::::::-:::::::::::-::-:::-:- >>>>>",
">>>>>>>>>>>>>X**-::::::::::::::::::::::-::-:::::::::::-::O >>>>>",
">>>>>>>>>>>>>X@::-:::::::::::::::::::::::::::::-:::-:::-& >>>>>>",
">>>>>>>>>>> .+:-::::::::::::::::::::::-:::-:::::::::---:@ >>>>>>",
">>>>>>>>>> .$-:**-::::::::::::::::::::::-::-::::::::::::+.>>>>>>",
">>>>>>>>>>.$:-#@::::::::::-::::::::-::-:::--:::::::-:::=X>>>>>>>",
">>>>>>>>>>o#*Oo:::::::::==:::::::::::::-::::::-::::--::$ >>>>>>>",
">>>>>>>>>>.XX =:::-:::-**=::::::::::-::$.o$==:::-:::::=O >>>>>>>",
">>>>>>>>>>> .*:::::-:=$%::::::::::::::*o  . o=:&+##::+. >>>>>>>>",
">>>>>>>>>>  $:::::::$O*::::::::::::-:=O >>>> --o . :#.>>>>>>>>>>",
">>>>>>>>> .%-:-::-&X@*::-:::::::::::-$ >>>>>X=@ >>o%o >>>>>>>>>>",
">>>>>>>> X$:::::=+.&:::-:::::::::::::&o  >>>XO  >>.o >>>>>>>>>>>",
">>>>>>> .&::-:-$.o=::-::::::::::::::::=$o >>>>>>>>>>>>>>>>>>>>>>",
">>>>>>>.@-:-:&XX%:::-:::--::::::::::::::*O >>>>>>>>>>>>>>>>>>>>>",
">>>>>>>O&&==OX$::-:::::::::::::::::::::::&. X+ >> O >>>>>>>>>>>>",
">>>>>>>XOX@X%::-::::::::=%*::::::::::::-:-$X@&.>>o- >>>>>>>>>>>>",
">>>>>>>>>.@::::::::::::*oo::::::::::--::::-=:&.  @: >>>>>>>>>>>>",
">>>>>>>> O*=-:::::::-*O  #::::::::::::-::::-::*@%=-.>>>>>>>>>>>>",
">>>>>>>>+*:%*=::::-@o. >X&:::::::::-:::::::::::--::.>>>>>>>>>>>>",
">>>>>>>>&+XO%-::&O .>>>> *:::::::::::::-=::::-::-:=X>>>>>>>>>>>>",
">>>>>>>>>>.#%%+.  >>>>>> *:::::::::-:::-.+=:::--::*.>>>>>>>>>>>>",
">>>>>>>>>>...  >>>>>>>>> *:::::::::::-o:$ .%&#++@@o >>>>>>>>>>>>",
">>>>>>>>>>>>>>>>>>>>>>>> $::::::::::::O$-o  .    .>>>>>>>>>>>>>>",
">>>>>>>>>>>>>>>>>>>>>>>>.O:::::::::-::-o$& >>>>>>>>>>>>>>>>>>>>>",
">>>>>>>>>>>>>>>>>>>>>>>>>.-:::::::::-::-O. >>>>>>>>>>>>>>>>>>>>>",
">>>>>>>>>>>>>>>>>>>>>>>>>.o::--::-::::::-+ >>>>>>>>>>>>>>>>>>>>>",
">>>>>>>>>>>>>>>>>>>>>>>>>>.+-::-:::::::::$. >>>>>>>>>>>>>>>>>>>>",
">>>>>>>>>>>>>>>>>>>>>>>>>>> @=::::::-::::=$. >>>>>>>>>>>>>>>>>>>",
">>>>>>>>>>>>>>>>>>>>>>>>>>>> O*:-=:::::-::-:+>>>>>>>>>>>>>>>>>>>",
">>>>>>>>>>>>>>>>>>>>>>>>>>>>> .XX.X+=::=::==+>>>>>>>>>>>>>>>>>>>",
">>>>>>>>>>>>>>>>>>>>>>>>>>>>>>>>>>>.$*&#+o.. >>>>>>>>>>>>>>>>>>>",
">>>>>>>>>>>>>>>>>>>>>>>>>>>>>>>>>>>    .X>>>>>>>>>>>>>>>>>>>>>>>",
">>>>>>>>>>>>>>>>>>>>>>>>>>>>>>>>>>>>>>>>>>>>>>>>>>>>>>>>>>>>>>>>",
">>>>>>>>>>>>>>>>>>>>>>>>>>>>>>>>>>>>>>>>>>>>>>>>>>>>>>>>>>>>>>>>",
">>>>>>>>>>>>>>>>>>>>>>>>>>>>>>>>>>>>>>>>>>>>>>>>>>>>>>>>>>>>>>>>",
">>>>>>>>>>>>>>>>>>>>>>>>>>>>>>>>>>>>>>>>>>>>>>>>>>>>>>>>>>>>>>>>",
">>>>>>>>>>>>>>>>>>>>>>>>>>>>>>>>>>>>>>>>>>>>>>>>>>>>>>>>>>>>>>>>",
">>>>>>>>>>>>>>>>>>>>>>>>>>>>>>>>>>>>>>>>>>>>>>>>>>>>>>>>>>>>>>>>",
">>>>>>>>>>>>>>>>>>>>>>>>>>>>>>>>>>>>>>>>>>>>>>>>>>>>>>>>>>>>>>>>",
">>>>>>>>>>>>>>>>>>>>>>>>>>>>>>>>>>>>>>>>>>>>>>>>>>>>>>>>>>>>>>>>"
};
