/* XPM */
static char *IconClanKia.gif[] = {
/* columns rows colors chars-per-pixel */
"64 64 257 2",
"   c gray100",
".  c #FEFEFE",
"X  c #FDFDFD",
"o  c gray99",
"O  c #FBFBFB",
"+  c gray98",
"@  c #F9F9F9",
"#  c #F8F8F8",
"$  c gray97",
"%  c #F6F6F6",
"&  c gray96",
"*  c #F4F4F4",
"=  c #F3F3F3",
"-  c gray95",
";  c #F1F1F1",
":  c gray94",
">  c #EFEFEF",
",  c #EEEEEE",
"<  c gray93",
"1  c #ECECEC",
"2  c gray92",
"3  c #EAEAEA",
"4  c #E9E9E9",
"5  c gray91",
"6  c #E7E7E7",
"7  c #E6E6E6",
"8  c gray90",
"9  c #E4E4E4",
"0  c gray89",
"q  c #E2E2E2",
"w  c #E1E1E1",
"e  c gray88",
"r  c #DFDFDF",
"t  c gray87",
"y  c #DDDDDD",
"u  c gainsboro",
"i  c gray86",
"p  c #DADADA",
"a  c gray85",
"s  c #D8D8D8",
"d  c #D7D7D7",
"f  c gray84",
"g  c #D5D5D5",
"h  c gray83",
"j  c LightGray",
"k  c #D2D2D2",
"l  c gray82",
"z  c #D0D0D0",
"x  c gray81",
"c  c #CECECE",
"v  c #CDCDCD",
"b  c gray80",
"n  c #CBCBCB",
"m  c #CACACA",
"M  c gray79",
"N  c #C8C8C8",
"B  c #C6C6C6",
"V  c #C5C5C5",
"C  c gray77",
"Z  c #C3C3C3",
"A  c gray76",
"S  c #C1C1C1",
"D  c #C0C0C0",
"F  c gray75",
"G  c gray74",
"H  c #BCBCBC",
"J  c #BBBBBB",
"K  c gray73",
"L  c #B9B9B9",
"P  c gray72",
"I  c #B7B7B7",
"U  c #B6B6B6",
"Y  c gray71",
"T  c gray70",
"R  c #B2B2B2",
"E  c #B1B1B1",
"W  c gray69",
"Q  c #AFAFAF",
"!  c #AEAEAE",
"~  c gray68",
"^  c #ACACAC",
"/  c gray67",
"(  c #AAAAAA",
")  c #A9A9A9",
"_  c gray66",
"`  c #A7A7A7",
"'  c gray65",
"]  c #A5A5A5",
"[  c #A4A4A4",
"{  c gray64",
"}  c #A2A2A2",
"|  c gray63",
" . c #A0A0A0",
".. c #9F9F9F",
"X. c gray62",
"o. c #9D9D9D",
"O. c gray61",
"+. c #9B9B9B",
"@. c #9A9A9A",
"#. c gray60",
"$. c #989898",
"%. c #979797",
"&. c #959595",
"*. c gray58",
"=. c #939393",
"-. c gray57",
";. c #909090",
":. c gray56",
">. c #8E8E8E",
",. c #8D8D8D",
"<. c gray55",
"1. c #8B8B8B",
"2. c gray54",
"3. c #898989",
"4. c #888888",
"5. c gray53",
"6. c #868686",
"7. c gray52",
"8. c #848484",
"9. c #838383",
"0. c #818181",
"q. c #808080",
"w. c gray50",
"e. c #7E7E7E",
"r. c gray49",
"t. c #7B7B7B",
"y. c gray48",
"u. c gray47",
"i. c #777777",
"p. c #767676",
"a. c gray46",
"s. c #747474",
"d. c gray45",
"f. c #727272",
"g. c #717171",
"h. c gray44",
"j. c #6F6F6F",
"k. c gray43",
"l. c #6D6D6D",
"z. c #6A6A6A",
"x. c DimGray",
"c. c #686868",
"v. c #676767",
"b. c gray40",
"n. c #656565",
"m. c #646464",
"M. c gray39",
"N. c #626262",
"B. c gray38",
"V. c #606060",
"C. c gray37",
"Z. c gray36",
"A. c #5B5B5B",
"S. c #5A5A5A",
"D. c gray35",
"F. c #585858",
"G. c gray34",
"H. c #565656",
"J. c #555555",
"K. c gray33",
"L. c #535353",
"P. c #515151",
"I. c #505050",
"U. c gray31",
"Y. c #4E4E4E",
"T. c gray30",
"R. c #4C4C4C",
"E. c #4B4B4B",
"W. c gray29",
"Q. c #494949",
"!. c #484848",
"~. c gray28",
"^. c #464646",
"/. c gray27",
"(. c #434343",
"). c gray26",
"_. c #414141",
"`. c gray25",
"'. c #3F3F3F",
"]. c #3E3E3E",
"[. c #3C3C3C",
"{. c gray23",
"}. c #393939",
"|. c gray22",
" X c #373737",
".X c gray21",
"XX c #353535",
"oX c #343434",
"OX c gray20",
"+X c #313131",
"@X c gray19",
"#X c #2F2F2F",
"$X c gray18",
"%X c #2C2C2C",
"&X c gray17",
"*X c #2A2A2A",
"=X c gray16",
"-X c #282828",
";X c #272727",
":X c #252525",
">X c gray14",
",X c #232323",
"<X c #222222",
"1X c gray13",
"2X c #202020",
"3X c gray12",
"4X c #1E1E1E",
"5X c #1D1D1D",
"6X c gray11",
"7X c #1B1B1B",
"8X c gray10",
"9X c #191919",
"0X c #181818",
"qX c gray9",
"wX c #161616",
"eX c #151515",
"rX c gray8",
"tX c #131313",
"yX c gray7",
"uX c #111111",
"iX c #101010",
"pX c gray6",
"aX c #0E0E0E",
"sX c gray5",
"dX c #0C0C0C",
"fX c #0B0B0B",
"gX c gray4",
"hX c #090909",
"jX c gray3",
"kX c #070707",
"lX c #060606",
"zX c gray2",
"xX c #040404",
"cX c gray1",
"vX c #020202",
"bX c #010101",
"nX c cyan",
"mX c black",
"MX c black",
"NX c black",
"BX c black",
"VX c black",
"CX c black",
"ZX c black",
"AX c black",
"SX c black",
"DX c black",
"FX c black",
"GX c black",
"HX c black",
"JX c black",
"KX c black",
"LX c black",
"PX c black",
"IX c black",
"UX c black",
"YX c None",
/* pixels */
"YXYXYXYXYXYXYXYXYXYXYXYXYXYXYXYXYXYXYXYXYXYXYXYXYXYXYXYXYXYXYXYXYXYXYXYXYXYXYXYXYXYXYXYXYXYXYXYXYXYXYXYXYXYXYXYXYXYXYXYXYXYXYXYX",
"YXYXYXYXYXYXYXYXYXYXYXYXYXYXYXYXYXYXYXYXYXYXYXYXYXYXYXYXYXYXYXYXYXYXYXYXYXYXYXYXYXYXYXYXYXYXYXYXYXYXYXYXYXYXYXYXYXYXYXYXYXYXYXYX",
"YXYXYXYXYXYXYXYXYXYXYXYXYXYXYXYXYXYXYXYXYXYXYXYXYXYXYXYXYXYXYXYXYXYXYXYXYXYXYXYXYXYXYXYXYXYXYXYXYXYXYXYXYXYXYXYXYXYXYXYXYXYXYXYX",
"YXYXYXYXYXYXYXYXYXYXYXYXYXYXYXYXYXYXYXYXYXYXYXYXYXYXYXYXYXYXYXYXYXYXYXYXYXYXYXYXYXYXYXYXYXYXYXYXYXYXYXYXYXYXYXYXYXYXYXYXYXYXYXYX",
"YXYXYXYXYXYXYXYXYXYXYXYXYXYXYXYXYXYXYXYXYXYXYXYXYXYXYXYXYXYX  & 8   YXYXYXYXYXYXYXYXYXYXYXYXYXYXYXYXYXYXYXYXYXYXYXYXYXYXYXYXYXYX",
"YXYXYXYXYXYXYXYXYXYXYXYXYXYXYXYXYXYXYXYXYXYXYXYXYXYXYXYXYXYX  X.0.  YXYXYXYXYXYXYXYXYXYXYXYXYXYXYXYXYXYXYXYXYXYXYXYXYXYXYXYXYXYX",
"YXYXYXYXYXYXYXYXYXYXYXYXYXYXYXYXYXYXYXYXYXYXYXYXYXYXYXYXYXYX  Y.-XX   YXYXYXYXYXYXYXYXYXYXYXYXYXYXYXYXYXYXYXYXYXYXYXYXYXYXYXYXYX",
"YXYXYXYXYXYXYXYXYXYXYXYXYXYXYXYXYXYXYXYXYXYXYXYXYXYXYXYXYX  4 uXmXl   YXYXYXYXYXYXYXYXYXYXYXYXYXYXYXYXYXYXYXYXYXYXYXYXYXYXYXYXYX",
"YXYXYXYXYXYXYXYXYXYXYXYXYXYXYXYXYXYXYXYXYXYXYXYXYXYXYXYXYX  ! mXmX8.  YXYXYXYXYXYXYXYXYXYXYXYXYXYXYXYXYXYXYXYXYXYXYXYXYXYXYXYXYX",
"YXYXYXYXYXYXYXYXYXYXYXYXYXYXYXYXYXYXYXYXYX                  v.mXmX@X                  YXYXYXYXYXYXYXYXYXYXYXYXYXYXYXYXYXYXYXYXYX",
"YXYXYXYXYXYXYXYXYXYXYX      YX        YXYX  g >.x o r ( e.V.yXmXmXcXC.q.~ q + ^ 4.p   YXYX        YXYXYXYXYXYXYXYXYXYXYXYXYXYXYX",
"YXYXYXYXYXYXYXYXYXYXYX. g -     y B . YX  9 4XmXyX}.pXmXmXmXmXmXmXmXmXmXmXuXOXmXmX'.    YX  y _ $         YXYXYXYXYXYXYXYXYXYXYX",
"YXYXYXYXYXYXYXYXYXYXYX  J _.W i |.E.*     ^ mXmXmXmXmXmXmXmXmXmXmXmXmXmXmXmXmXmXmXwXp       z.%Xz # } U . YXYXYXYXYXYXYXYXYXYXYX",
"YXYXYXYXYXYXYXYXYXYXYX    _.mXeX&.q.% & w.tXmXmXmXmXmXmXmXmXmXmXmXmXmXmXmXmXmXmXmXmX0X9.  Y D.Y R.oXsXy   YXYXYXYXYXYXYXYXYXYXYX",
"YXYXYXYXYXYXYXYXYXYXYXYX  P mX,X  r.i.!.mXmXmXmXmXmXmXmXmXmXmXmXmXmXmXmXmXmXmXmXmXmXmXmX/._.b = vXmXy.    YXYXYXYXYXYXYXYXYXYXYX",
"YXYXYXYXYXYXYXYXYXYXYXYX  . .XK.  5 *XmXmXmXmXmXmXmXmXmXmXmXmXmXmXmXmXmXmXmXmXmXmXmXmXmX+XA   ; hXqX1   YXYXYXYXYXYXYXYXYXYXYXYX",
"YXYXYXYXYXYXYXYXYXYXYXYXYX  H z.O   4 |.mXmXmXmXmXmXmXmXmXmXmXmXmXmXmXmXmXmXmXmXmXmXgX#Xm     ; bXi.  YXYXYXYXYXYXYXYXYXYXYXYXYX",
"YXYXYXYXYXYXYXYXYXYXYXYXYX  4 L.> * ) G.mXmXmXmXmXmXmXmXmXmXmXmXmXmXmXmXmXmXmXmXmXkX/ # .     i XX1   YXYXYXYXYXYXYXYXYXYXYXYXYX",
"YXYXYXYXYXYXYXYXYXYXYXYXYX  H 5.  5 f C _ 2XmXmXmXmXmXmXmXmXmXmXmXmXmXmXmXmXmXmX8X)           m [.,   YXYXYXYXYXYXYXYXYXYXYXYXYX",
"YXYXYXYXYXYXYXYXYXYXYXYX    ^.=.          D 6XmXmXmXmX<X7XkXmXmXmXmXmXbXlXmXmXmXA             [ mXN.    YXYXYXYXYXYXYXYXYXYXYXYX",
"YXYXYXYXYXYXYXYXYXYX      ) mXq.            a F.zXmXmX_.S !.mXmXmXcX(.s.wX1XD.^.c             w.mXkXV       YXYXYXYXYXYXYXYXYXYX",
"YXYXYXYXYXYXYXYXYXYX  T V.8XmXz.                A.mXmXmX>.t.jXmXmXmX2.9.V.6   X %             } mXmX2Xn.z   YXYXYXYXYXYXYXYXYXYX",
"YXYXYXYXYXYXYXYXYX  0 uXmXmXmX_.X             1 8.U.3.pX|.f dXmXmX$X*.C.&                   o v.mXmXmXmX;X& YXYXYXYXYXYXYXYXYXYX",
"YXYXYXYXYXYXYXYXYX  p zXmXmXmXrX=     $ x #   F z     K fX5.J.E.P.n.).6       * o   * n ,   ; 9XmXmXmXmXyX; YXYXYXYXYXYXYXYXYXYX",
"YXYXYXYXYXYXYXYXYX  . i.mXmXmXbX[     s A X   @         :.cXl * + I p.        3 -   Y ' =   h jXmXmXmXbX$.. YXYXYXYXYXYXYXYXYXYX",
"YXYXYXYXYXYXYXYXYXYX  4.mXmXmXmX{.O                     @ >X2.S k &.%.      - $ >   o       %.mXmXmXmXmX|   YXYXYXYXYXYXYXYXYXYX",
"YXYXYXYXYXYXYXYXYXYX. Q.mXmXmXmXvX^.5 O                 , X.V {  .H A w     & o             ^.mXmXmXmXmXS.. YXYXYXYXYXYXYXYXYXYX",
"YXYXYXYXYXYXYXYXYXYX& 4XmXmXmXmXmXmX`.3                 [ 4 s.zXmXoXw ' *               : 6.vXmXmXmXmXmX5X% YXYXYXYXYXYXYXYXYXYX",
"YXYXYXYXYXYXYXYX    6 hXmXmXmXmXmXmXXX.                 ( j u.~ c.3.z [ 4             : M aXmXmXmXmXmXmXhX2     YXYXYXYXYXYXYXYX",
"YXYXYXYXYX      X d d.vXmXmXmXmXmXmXP.            . = - _ > I n.Z.M.X 1.O.k %         + 6 3XmXmXmXmXmXmXvXk.c O       YXYXYXYXYX",
"YXYXYX    $ S 9.].fXmXmXmXmXmXmXmXmX;X*         7 b g j } j   S.].T + i.t e o...%       6.mXmXmXmXmXmXmXmXmXlX Xu.L :     YXYXYX",
"YXYXYX. F `.mXmXmXmXmXmXmXmXmXmXmXmXmX{       #.E.<     O U ; ! :.e U F     w C W =   % :XmXmXmXmXmXmXmXmXmXmXmXmXmX=XQ X YXYXYX",
"YXYXYX  , M <._.vXmXmXmXmXmXmXmXmXmXmX4XJ   , 7.&Xs     X H -       z a         k ]   k.mXmXmXmXmXmXmXmXmXmXmXmXOX0.G 4 . YXYXYX",
"YXYXYXYX      O F e.}.mXmXmXmXmXmXmXmXmXdXn.w   t #     i S         = Y O         ( f.bXmXmXmXmXmXmXmXmXmX#Xf.U &       YXYXYXYX",
"YXYXYXYXYXYXYX      u kXmXmXmXmXmXmXmXmXmXt.X           } m         . R -         f mXmXmXmXmXmXmXmXmXmXjXu       YXYXYXYXYXYXYX",
"YXYXYXYXYXYXYXYXYX  % 8XmXmXmXmXmXmXmXmXeX2             { k         + / &         0 hXmXmXmXmXmXmXmXmXmX8X$   YXYXYXYXYXYXYXYXYX",
"YXYXYXYXYXYXYXYXYXYX. ^.mXmXmXmXmXmXmXmXT.          . e -.B         ; 4.@         : %XmXmXmXmXmXmXmXmXmXH.. YXYXYXYXYXYXYXYXYXYX",
"YXYXYXYXYXYXYXYXYXYX  0.mXmXmXmXmXmXmXmX'.            l :X}         7 ].=           E.mXmXmXmXmXmXmXmXmXO.  YXYXYXYXYXYXYXYXYXYX",
"YXYXYXYXYXYXYXYXYXYX  q.mXmXmXmXmXmXmXmXsXa >         & 8XA.        K hXw         O .XmXmXmXmXmXmXmXmXbXO.  YXYXYXYXYXYXYXYXYXYX",
"YXYXYXYXYXYXYXYXYXYX& 7XmXmXmXmXmXmXmXmXcX{.i .       @.mXaXq       x.mXC         $ 6XmXmXmXmXmXmXmXmXmX&X@ YXYXYXYXYXYXYXYXYXYX",
"YXYXYXYXYXYXYXYXYXYX@ @XmXmXmXmXmXmXmXmXmXvX1.O       c.mXmX%.    8 dXmXh.4     % N kXmXmXmXmXmXmXmXmXmX).O YXYXYXYXYXYXYXYXYXYX",
"YXYXYXYXYXYXYXYXYXYX  c q.3XmXmXmXmXmXmXmXsX<       ; 7XmXmXH.    :.mXmXcX@.f O w i.bXmXmXmXmXmXmXmX:X9.p   YXYXYXYXYXYXYXYXYXYX",
"YXYXYXYXYXYXYXYXYXYX      +.mXmXmXmXmXmXmXiX&       ! mXmXmXeX;   %XmXmXmXiX]     K bXmXmXmXmXmXmXmXK       YXYXYXYXYXYXYXYXYXYX",
"YXYXYXYXYXYXYXYXYXYXYXYX  O R.mXmXmXmXmXmXdXt       F.mXmXmXmX/ v vXmXmXmX9XB F o / mXmXmXmXmXmXmXN.    YXYXYXYXYXYXYXYXYXYXYXYX",
"YXYXYXYXYXYXYXYXYXYXYXYXYX  < =XmXmXmXmXmXmXW.-   w sXmXmXmXmXg.8.mXmXmXmXvX$XL   @.mXmXmXmXmXmX*X;   YXYXYXYXYXYXYXYXYXYXYXYXYX",
"YXYXYXYXYXYXYXYXYXYXYXYXYX  o OXmXmXmXmXmXlXG o n S.mXmXmXmXmX}.L.mXmXmXmXmX'     ! bXmXmXmXmXmX7Xt   YXYXYXYXYXYXYXYXYXYXYXYXYX",
"YXYXYXYXYXYXYXYXYXYXYXYXYX  o.mXmXmXmXmXmXhXw   0 dXmXmXmXmXmXmXvXmXmXmXmXmXp.    L mXmXmXmXmXmXmXl.  YXYXYXYXYXYXYXYXYXYXYXYXYX",
"YXYXYXYXYXYXYXYXYXYXYXYX  : 3XmXmXmXmXmXmXaX:   | xXmXmXmXmXmXmXmXmXmXmXmXmX4X<   D uXmXmXmXmXmXmXuXw   YXYXYXYXYXYXYXYXYXYXYXYX",
"YXYXYXYXYXYXYXYXYXYXYXYX  ,.mXmXmX^.O.|.mX(.  > 1XmXmXmXmXmXmXmXmXmXmXmXmXmXmXH.X   n.mX^.` K.lXmXmXB.    YXYXYXYXYXYXYXYXYXYXYX",
"YXYXYXYXYXYXYXYXYXYXYX  * 7XmX).E .   * ^.@.  S.mXmXmXmXmXmXmXmXmXmXmXmXmXmXmXmXL.Y M #X7     B H.xXmXv   YXYXYXYXYXYXYXYXYXYXYX",
"YXYXYXYXYXYXYXYXYXYXYX. &.;X=.O       d I.5 f.mXmXmXmXmXmXmXmXmXmXmXmXmXmXmXmXmXmXxXm.j.- YX      J _.v.+ YXYXYXYXYXYXYXYXYXYXYX",
"YXYXYXYXYXYXYXYXYXYXYXO C ;     YXYX  } ~.A.kXmXkX*XzXmXmXmXmXmXmXmXmXmXmXlX%XkXmXK.* @   YXYXYX    . B - YXYXYXYXYXYXYXYXYXYXYX",
"YXYXYXYXYXYXYXYXYXYXYX      YXYXYXYX  9 ` j Z a.U # n 1.b.(.bXmXmXmXXXx.;.b # C o.3   YXYXYXYXYXYXYX      YXYXYXYXYXYXYXYXYXYXYX",
"YXYXYXYXYXYXYXYXYXYXYXYXYXYXYXYXYXYXYX                    # ;XmXmXkXp               YXYXYXYXYXYXYXYXYXYXYXYXYXYXYXYXYXYXYXYXYXYX",
"YXYXYXYXYXYXYXYXYXYXYXYXYXYXYXYXYXYXYXYXYXYXYXYXYXYXYXYXYX  c.mXmX}..   YXYXYXYXYXYXYXYXYXYXYXYXYXYXYXYXYXYXYXYXYXYXYXYXYXYXYXYX",
"YXYXYXYXYXYXYXYXYXYXYXYXYXYXYXYXYXYXYXYXYXYXYXYXYXYXYXYXYX  ! mXmX:.  YXYXYXYXYXYXYXYXYXYXYXYXYXYXYXYXYXYXYXYXYXYXYXYXYXYXYXYXYX",
"YXYXYXYXYXYXYXYXYXYXYXYXYXYXYXYXYXYXYXYXYXYXYXYXYXYXYXYXYX  4 iXmXl   YXYXYXYXYXYXYXYXYXYXYXYXYXYXYXYXYXYXYXYXYXYXYXYXYXYXYXYXYX",
"YXYXYXYXYXYXYXYXYXYXYXYXYXYXYXYXYXYXYXYXYXYXYXYXYXYXYXYXYXYX  K.;Xo   YXYXYXYXYXYXYXYXYXYXYXYXYXYXYXYXYXYXYXYXYXYXYXYXYXYXYXYXYX",
"YXYXYXYXYXYXYXYXYXYXYXYXYXYXYXYXYXYXYXYXYXYXYXYXYXYXYXYXYXYX  ) 7.  YXYXYXYXYXYXYXYXYXYXYXYXYXYXYXYXYXYXYXYXYXYXYXYXYXYXYXYXYXYX",
"YXYXYXYXYXYXYXYXYXYXYXYXYXYXYXYXYXYXYXYXYXYXYXYXYXYXYXYXYXYX  # 5   YXYXYXYXYXYXYXYXYXYXYXYXYXYXYXYXYXYXYXYXYXYXYXYXYXYXYXYXYXYX",
"YXYXYXYXYXYXYXYXYXYXYXYXYXYXYXYXYXYXYXYXYXYXYXYXYXYXYXYXYXYXYXYXYXYXYXYXYXYXYXYXYXYXYXYXYXYXYXYXYXYXYXYXYXYXYXYXYXYXYXYXYXYXYXYX",
"YXYXYXYXYXYXYXYXYXYXYXYXYXYXYXYXYXYXYXYXYXYXYXYXYXYXYXYXYXYXYXYXYXYXYXYXYXYXYXYXYXYXYXYXYXYXYXYXYXYXYXYXYXYXYXYXYXYXYXYXYXYXYXYX",
"YXYXYXYXYXYXYXYXYXYXYXYXYXYXYXYXYXYXYXYXYXYXYXYXYXYXYXYXYXYXYXYXYXYXYXYXYXYXYXYXYXYXYXYXYXYXYXYXYXYXYXYXYXYXYXYXYXYXYXYXYXYXYXYX",
"YXYXYXYXYXYXYXYXYXYXYXYXYXYXYXYXYXYXYXYXYXYXYXYXYXYXYXYXYXYXYXYXYXYXYXYXYXYXYXYXYXYXYXYXYXYXYXYXYXYXYXYXYXYXYXYXYXYXYXYXYXYXYXYX"
};
