/* XPM */
static char *Discipline FOR[] = {
/* columns rows colors chars-per-pixel */
"24 24 123 2",
"   c #006D006D006D",
".  c #017201720172",
"X  c #029B029B029B",
"o  c #037203720372",
"O  c #04B304B304B3",
"+  c #059705970597",
"@  c #069706970697",
"#  c #07A107A107A1",
"$  c #089808980898",
"%  c #09D109D109D1",
"&  c #0C5A0C5A0C5A",
"*  c #0DC70DC70DC7",
"=  c #0EA90EA90EA9",
"-  c #0FC90FC90FC9",
";  c #115E115E115E",
":  c #13E213E213E2",
">  c #14D014D014D0",
",  c #152115211521",
"<  c #169916991699",
"1  c #207120712071",
"2  c #226F226F226F",
"3  c #259225922592",
"4  c #286C286C286C",
"5  c #294829482948",
"6  c #2DA22DA22DA2",
"7  c #2E612E612E61",
"8  c #2F6D2F6D2F6D",
"9  c #32FE32FE32FE",
"0  c #33D333D333D3",
"q  c #343934393439",
"w  c #35B935B935B9",
"e  c #37A737A737A7",
"r  c #398239823982",
"t  c #3B243B243B24",
"y  c #3D023D023D02",
"u  c #3D463D463D46",
"i  c #3F073F073F07",
"p  c #41FB41FB41FB",
"a  c #453245324532",
"s  c #479147914791",
"d  c #490449044904",
"f  c #4D454D454D45",
"g  c #4D9B4D9B4D9B",
"h  c #4E904E904E90",
"j  c #4FF94FF94FF9",
"k  c #50DA50DA50DA",
"l  c #51E451E451E4",
"z  c #52D352D352D3",
"x  c #53AF53AF53AF",
"c  c #615D615D615D",
"v  c #641564156415",
"b  c #669C669C669C",
"n  c #699869986998",
"m  c #6C436C436C43",
"M  c #71B071B071B0",
"N  c #742374237423",
"B  c #74AD74AD74AD",
"V  c #765376537653",
"C  c #76BB76BB76BB",
"Z  c #77FA77FA77FA",
"A  c #78E078E078E0",
"S  c #7A047A047A04",
"D  c #7B0B7B0B7B0B",
"F  c #7C587C587C58",
"G  c #812381238123",
"H  c #827D827D827D",
"J  c #833883388338",
"K  c #853485348534",
"L  c #89FD89FD89FD",
"P  c #90FE90FE90FE",
"I  c #91F591F591F5",
"U  c #94FB94FB94FB",
"Y  c #972497249724",
"T  c #983298329832",
"R  c #98B498B498B4",
"E  c #9A419A419A41",
"W  c #9B1A9B1A9B1A",
"Q  c #9D1E9D1E9D1E",
"!  c #9ED99ED99ED9",
"~  c #A032A032A032",
"^  c #A186A186A186",
"/  c #A3DEA3DEA3DE",
"(  c #A6C9A6C9A6C9",
")  c #AC9FAC9FAC9F",
"_  c #B182B182B182",
"`  c #B471B471B471",
"'  c #B4DCB4DCB4DC",
"]  c #B83FB83FB83F",
"[  c #BA5BBA5BBA5B",
"{  c #BCBEBCBEBCBE",
"}  c #BF17BF17BF17",
"|  c #CB85CB85CB85",
" . c #CBEDCBEDCBED",
".. c #CE3DCE3DCE3D",
"X. c #D13BD13BD13B",
"o. c #D4CED4CED4CE",
"O. c gray83",
"+. c #D6AED6AED6AE",
"@. c #D7D7D7D7D7D7",
"#. c #DA5EDA5EDA5E",
"$. c #DCD8DCD8DCD8",
"%. c #DD0CDD0CDD0C",
"&. c #E256E256E256",
"*. c #E4A0E4A0E4A0",
"=. c #E87DE87DE87D",
"-. c #E9BCE9BCE9BC",
";. c #EB00EB00EB00",
":. c #ED2BED2BED2B",
">. c #EE3CEE3CEE3C",
",. c #F06EF06EF06E",
"<. c #F4D9F4D9F4D9",
"1. c #F56CF56CF56C",
"2. c #F671F671F671",
"3. c #F72CF72CF72C",
"4. c #F8E5F8E5F8E5",
"5. c #F965F965F965",
"6. c #FAB6FAB6FAB6",
"7. c #FB9AFB9AFB9A",
"8. c #FC94FC94FC94",
"9. c #FD77FD77FD77",
"0. c #FE9BFE9BFE9B",
"q. c #FF8FFF8FFF8F",
"w. c gray100",
/* pixels */
"0.0.0.0.0.0.0.0.0.0.0.0.0.0.6.0.0.0.0.0.0.0.0.0.",
"0.| R R ^ Q Q Q Q Q Q Y R ^ R Q Q Q Q ^ Q Q ` 0.",
"0.S O . . . . . O . . t O O . O . . . . . . k 0.",
"0.Z . . O . . . . . t  .0 . . . . . . . . . k 0.",
"0.S . . . . . . . O ) 6./ O . . . . . . . O k 0.",
"0.Z . . . . $ . . 0 <.0.:.g . . . . . . . . k 0.",
"6.Z . . . . $ . = / 6.0.0.{ = . . O . . . . k 0.",
"0.S . . . O $ O d ,.0.0.0.6.n O . . . . . . k 0.",
"0.S . O . i S O _ 0.0.6.0.0. .3 O . O . . . k 0.",
"0.S . . 2 [ ;.w L 0.6.0.0.0.6.H O O O . . . k 0.",
"0.S . = R 0.0.` w O.0.0.0.6.0.*.0 . . . . . x 0.",
"0.N O v ,.0.0.<.m v 0.0.0.0.6.6.Y O . . . . k 0.",
"0.S = $.0.0.0.6...0 | 0.0.0.0.6.&.w $ O O O k 0.",
"0.Z < 0.0.0.0.6.6.Y p :.6.0.6.6.&.w = H d O k 6.",
"0.S < 0.0.0.0.0.0.<.p L 6.6.0.$.g < R 6.O.3 x 0.",
"0.Z < 0.0.0.0.0.0.0.[ i O.0.O.d < Q <.0.0.t k 0.",
"0.Z : 0.0.0.0.0.0.0.0.n Z *.g < R 0.6.0.0.t k 0.",
"0.Z : 0.0.0.0.0.0.0.0.#.0 8 < [ 0.6.6.0.0.t k 0.",
"0.Z : 0.0.0.0.0.0.0.0.0.^ 5 ` 6.0.0.6.0.0.t k 0.",
"0.Z < 0.0.0.0.0.0.0.0.0.,.#.0.0.0.0.6.0.0.t k 0.",
"0.Z : 6.0.0.0.0.0.0.0.0.0.0.0.0.0.0.0.6.6.p k 0.",
"0.Z : L H H H K H H H K K H K H K H K H H < g 0.",
"6.L 0 8 8 8 8 8 8 8 8 8 8 8 8 8 8 8 8 8 8 8 N 6.",
"0.0.6.0.0.0.0.0.0.0.0.0.0.0.0.0.0.0.0.0.0.6.0.6."
};
