/* XPM */
static char *Discipline VIC[] = {
/* columns rows colors chars-per-pixel */
"24 24 134 2",
"   c #003A003A003A",
".  c #017801780178",
"X  c #026C026C026C",
"o  c #037F037F037F",
"O  c #046704670467",
"+  c #059905990599",
"@  c #069B069B069B",
"#  c #074907490749",
"$  c #087D087D087D",
"%  c #0AE10AE10AE1",
"&  c #0B570B570B57",
"*  c #0DDE0DDE0DDE",
"=  c #0E8D0E8D0E8D",
"-  c #0FF40FF40FF4",
";  c #11B711B711B7",
":  c #167416741674",
">  c #1AC91AC91AC9",
",  c #1C131C131C13",
"<  c #1CF51CF51CF5",
"1  c #1F941F941F94",
"2  c #216521652165",
"3  c #22FC22FC22FC",
"4  c #241D241D241D",
"5  c #265A265A265A",
"6  c #27A427A427A4",
"7  c #2B112B112B11",
"8  c #2C142C142C14",
"9  c #30CA30CA30CA",
"0  c #32D532D532D5",
"q  c #33D833D833D8",
"w  c #35CF35CF35CF",
"e  c #373037303730",
"r  c #385C385C385C",
"t  c #39CC39CC39CC",
"y  c #3BCE3BCE3BCE",
"u  c #3DC13DC13DC1",
"i  c #453445344534",
"p  c #47D147D147D1",
"a  c #49D549D549D5",
"s  c #4AF04AF04AF0",
"d  c #4FD64FD64FD6",
"f  c #50C450C450C4",
"g  c #51FD51FD51FD",
"h  c #534853485348",
"j  c #537953795379",
"k  c #54AE54AE54AE",
"l  c #55EA55EA55EA",
"z  c #589158915891",
"x  c #59A959A959A9",
"c  c #5A615A615A61",
"v  c #5C205C205C20",
"b  c #626662666266",
"n  c #636963696369",
"m  c #64BC64BC64BC",
"M  c #65F465F465F4",
"N  c #68E068E068E0",
"B  c #69B769B769B7",
"V  c #6CB56CB56CB5",
"C  c #6D856D856D85",
"Z  c #70D870D870D8",
"A  c #72C072C072C0",
"S  c #73B473B473B4",
"D  c #751F751F751F",
"F  c #765076507650",
"G  c #76FC76FC76FC",
"H  c #77EC77EC77EC",
"J  c #798379837983",
"K  c #7B1F7B1F7B1F",
"L  c #7C3D7C3D7C3D",
"P  c #7D857D857D85",
"I  c #7EC87EC87EC8",
"U  c #81DE81DE81DE",
"Y  c #82D882D882D8",
"T  c #84F284F284F2",
"R  c #883F883F883F",
"E  c #89B689B689B6",
"W  c #8C2D8C2D8C2D",
"Q  c #8D098D098D09",
"!  c #936A936A936A",
"~  c #944194419441",
"^  c #954F954F954F",
"/  c #98E898E898E8",
"(  c #9A0F9A0F9A0F",
")  c #9B159B159B15",
"_  c #9C059C059C05",
"`  c #9D569D569D56",
"'  c #9F109F109F10",
"]  c #A11EA11EA11E",
"[  c #A3A2A3A2A3A2",
"{  c #A686A686A686",
"}  c #AA5BAA5BAA5B",
"|  c #AF33AF33AF33",
" . c #B04AB04AB04A",
".. c #B33AB33AB33A",
"X. c #B647B647B647",
"o. c #BB6FBB6FBB6F",
"O. c #BDB0BDB0BDB0",
"+. c #BFACBFACBFAC",
"@. c #C085C085C085",
"#. c #C0F0C0F0C0F0",
"$. c #C6A9C6A9C6A9",
"%. c #C78FC78FC78F",
"&. c #CC0ECC0ECC0E",
"*. c #CD94CD94CD94",
"=. c #CDF4CDF4CDF4",
"-. c #D133D133D133",
";. c #D21AD21AD21A",
":. c #D566D566D566",
">. c #D643D643D643",
",. c #D828D828D828",
"<. c #DC67DC67DC67",
"1. c #DE99DE99DE99",
"2. c #DEE9DEE9DEE9",
"3. c #E165E165E165",
"4. c #E1FCE1FCE1FC",
"5. c #E2E3E2E3E2E3",
"6. c #E54AE54AE54A",
"7. c #E69EE69EE69E",
"8. c #E86FE86FE86F",
"9. c #F05AF05AF05A",
"0. c #F0FFF0FFF0FF",
"q. c #F298F298F298",
"w. c #F374F374F374",
"e. c #F6B7F6B7F6B7",
"r. c #F792F792F792",
"t. c #F8E2F8E2F8E2",
"y. c #F9B0F9B0F9B0",
"u. c #FA6AFA6AFA6A",
"i. c #FB72FB72FB72",
"p. c #FC72FC72FC72",
"a. c #FD92FD92FD92",
"s. c #FE69FE69FE69",
"d. c #FF77FF77FF77",
"f. c gray100",
/* pixels */
"a.a.a.i.a.a.a.a.a.a.a.a.a.a.a.a.a.a.a.a.a.a.a.i.",
"a.%.~ R ~ P J D D J _ ) 2.a.a.a.a.;._ ) ) ) X.i.",
"a.D . . . . . . . . . < %.a.a.a.2.q $ . . . d i.",
"a.D . . . . . . . . @ f r.a.a.q.v . . . . . d a.",
"a.J . . . . . . . . . ) i.a.a.R @ . @ . . . f i.",
"a.D . . . . . . . . * <.a.a.=.5 . . . . @ ; M a.",
"a.D . . . . . . . . p q.a.a.M $ @ . @ @ s | 2.a.",
"a.J @ @ . . . . . . P a.a.;.$ @ . @ e X.r.i.a.a.",
"a.J @ @ . . . . . . { a.i.V . . @ M :.i.a.i.a.a.",
"a.=.V ; . . . . . @ o.a.2.5 @ $ D q.r.i.r.r.q.i.",
"a.a.a...3 . . . . . { a.] @ @ U i.a.q...V 7 v r.",
"a.a.i.a.! : . . . . P i.v . b 9.q.} e * . . j a.",
"a.a.a.a.q.o.v . . @ U 7.q 7 1.:.V * @ . . . f a.",
"a.a.a.a.a.i.<.$ . * o.;.5 _ :.p . @ . . . . f a.",
"i.i.a.a.a.a.i.) q . Z o.t 2.u @ . . @ . . . f a.",
"a...Q ..;.7.i.a.| $ 7 | U P @ . $ . . . . . f a.",
"a.Z . . * u #.8.7.t s #.] < . . . . . . . . d a.",
"a.D . . . . . < j D e o.Y @ @ . . . . . . . f a.",
"a.D . . . . . @ @ < J %.f @ . . . . . . . . f a.",
"a.J . . . @ . . . . > t > . . . . . . . . . f a.",
"a.D . . . . . . . . @ @ @ @ . . . . . . . . d a.",
"a.J . @ . . . . . . . . . . . . . . . . @ @ f a.",
"a.] j j f j f f j f j f f f j f f f f f f j Q i.",
"a.a.a.a.a.a.a.a.a.a.a.a.a.a.a.a.a.a.a.a.a.a.i.a."
};
