/* XPM */
static char *Discipline SER[] = {
/* columns rows colors chars-per-pixel */
"24 24 124 2",
"   c #005100510051",
".  c #019B019B019B",
"X  c #027B027B027B",
"o  c #036003600360",
"O  c #047E047E047E",
"+  c #057905790579",
"@  c #068306830683",
"#  c #07A907A907A9",
"$  c #087608760876",
"%  c #094A094A094A",
"&  c #0BB60BB60BB6",
"*  c #0CA20CA20CA2",
"=  c #0D7A0D7A0D7A",
"-  c #0F900F900F90",
";  c #110811081108",
":  c #113B113B113B",
">  c #129812981298",
",  c #149414941494",
"<  c #175B175B175B",
"1  c #18A818A818A8",
"2  c #19BC19BC19BC",
"3  c #1A611A611A61",
"4  c #1CBA1CBA1CBA",
"5  c #222222222222",
"6  c #239823982398",
"7  c #255425542554",
"8  c #271727172717",
"9  c #2BF12BF12BF1",
"0  c #2CA42CA42CA4",
"q  c #2D4B2D4B2D4B",
"w  c #2EC82EC82EC8",
"e  c #2F622F622F62",
"r  c #314431443144",
"t  c #34C234C234C2",
"y  c #38E038E038E0",
"u  c #3E143E143E14",
"i  c #401540154015",
"p  c #41E241E241E2",
"a  c #47B347B347B3",
"s  c #4D0E4D0E4D0E",
"d  c #4DDF4DDF4DDF",
"f  c #4ECC4ECC4ECC",
"g  c #4FDB4FDB4FDB",
"h  c #50CA50CA50CA",
"j  c #51FC51FC51FC",
"k  c #52AF52AF52AF",
"l  c #53D653D653D6",
"z  c #560756075607",
"x  c #57CE57CE57CE",
"c  c #5DCA5DCA5DCA",
"v  c #5F0D5F0D5F0D",
"b  c #60C660C660C6",
"n  c #632C632C632C",
"m  c #659165916591",
"M  c #66BB66BB66BB",
"N  c #68E268E268E2",
"B  c #6DD06DD06DD0",
"V  c #6EEE6EEE6EEE",
"C  c #6FDE6FDE6FDE",
"Z  c #750E750E750E",
"A  c #764A764A764A",
"S  c #76AA76AA76AA",
"D  c #778F778F778F",
"F  c #79F579F579F5",
"G  c #7B147B147B14",
"H  c #7D1E7D1E7D1E",
"J  c #7E3C7E3C7E3C",
"K  c #7EDD7EDD7EDD",
"L  c #7FB47FB47FB4",
"P  c #818B818B818B",
"I  c #8E668E668E66",
"U  c #927C927C927C",
"Y  c #92AB92AB92AB",
"T  c #9B659B659B65",
"R  c #9DD59DD59DD5",
"E  c #A15DA15DA15D",
"W  c #A3BCA3BCA3BC",
"Q  c #A642A642A642",
"!  c #A81CA81CA81C",
"~  c #A93CA93CA93C",
"^  c #AC56AC56AC56",
"/  c #ACC2ACC2ACC2",
"(  c #AF75AF75AF75",
")  c #B8B7B8B7B8B7",
"_  c #BAF0BAF0BAF0",
"`  c #BE05BE05BE05",
"'  c #C074C074C074",
"]  c #C18CC18CC18C",
"[  c #C229C229C229",
"{  c #C41DC41DC41D",
"}  c #C94BC94BC94B",
"|  c #CA27CA27CA27",
" . c #D055D055D055",
".. c #D0EFD0EFD0EF",
"X. c #D1FFD1FFD1FF",
"o. c #D2DBD2DBD2DB",
"O. c #D913D913D913",
"+. c #DD17DD17DD17",
"@. c #DF85DF85DF85",
"#. c #E0DDE0DDE0DD",
"$. c #E212E212E212",
"%. c #E3E7E3E7E3E7",
"&. c #E53DE53DE53D",
"*. c #E7AEE7AEE7AE",
"=. c #E979E979E979",
"-. c #EA4FEA4FEA4F",
";. c #ECDAECDAECDA",
":. c #EEDAEEDAEEDA",
">. c #F186F186F186",
",. c #F278F278F278",
"<. c #F33FF33FF33F",
"1. c #F4CDF4CDF4CD",
"2. c #F549F549F549",
"3. c #F658F658F658",
"4. c #F7B8F7B8F7B8",
"5. c #F8A4F8A4F8A4",
"6. c #F951F951F951",
"7. c #FAF0FAF0FAF0",
"8. c #FB45FB45FB45",
"9. c #FC78FC78FC78",
"0. c #FD83FD83FD83",
"q. c #FE74FE74FE74",
"w. c #FF8BFF8BFF8B",
"e. c gray100",
/* pixels */
"e.e.e.e.e.e.e.e.e.e.e.e.e.e.e.e.e.e.e.e.e.e.e.e.",
"e.U 0 0 0 9 0 0 0 0 9 9 9 9 0 0 0 9 9 9 0 9 B e.",
"e.S o o o o o # o o o o o o o o o o o o o o a 7.",
"e.F o o o # % > % o o o o o # 1 5 * o o o o f e.",
"e.S # o 5 B { =.E 1 * t m ! O.=.&.&.( a % o a e.",
"e.F # m X.2.e.2.:.! { &.2.>.2.e.e.e.e.%.B # j e.",
"e.H * ! 7.e.e.e.e.7.( H v j m H ( >.7.7.>.y j e.",
"7.F o > H O.7.e.&.f # o # o o o # t %.e.e.E z e.",
"7.S o o % 5 j S i % o o o o o o % > { e.7.` n e.",
"e.Z o o o o o o o # o o o o o # 8 U 2.e.e.) n e.",
"e.F o o o o o o o # o o 1 j I } 2.e.7.7.e.H j 7.",
"e.S o o o o o o o > c ) %.>.7.7.7.e.e.>.! 4 j e.",
"e.S o o o o o o 9 ! 2.e.7.>.=.&.%. .! n , o j e.",
"e.S o o o o o # ! e.&.T M f i 8 % o o o o o j 7.",
"e.Z o o o o o *  .2.P # o o o o o o o o o o j 7.",
"e.Z o o o o # # B @.=.B * o o o o o o o o o f e.",
"e.S o o o o o o # p { >.R > o o o o o o o o f e.",
"e.S o o o o # o o o % j X.R o o o o o o o o f e.",
"e.S o o o o o o o o % # a :.% o o o o o o o f e.",
"e.Z o o o o o o o # # 0 ! H # o o o o o o o j e.",
"e.S o o o o o o o o , i , o o o o o o o o o f e.",
"e.S o # o o o o o o # o o o o o o o o o o o j 7.",
"e.O.{ ` ` ` ` { ` { ` { ` { ` { ` { ` { { `  .e.",
"e.e.e.7.e.e.e.e.e.e.e.e.7.e.e.e.e.e.e.e.e.e.e.7."
};
