/* XPM */
static char *Discipline THN[] = {
/* columns rows colors chars-per-pixel */
"24 24 135 2",
"   c #000400040004",
".  c #01B201B201B2",
"X  c #031B031B031B",
"o  c #052005200520",
"O  c #06A506A506A5",
"+  c #076507650765",
"@  c #086F086F086F",
"#  c #09C309C309C3",
"$  c #0AB10AB10AB1",
"%  c #0B4F0B4F0B4F",
"&  c #0C9B0C9B0C9B",
"*  c #0FDD0FDD0FDD",
"=  c #119A119A119A",
"-  c #122D122D122D",
";  c #140714071407",
":  c #147614761476",
">  c #151F151F151F",
",  c #16A016A016A0",
"<  c #17F317F317F3",
"1  c #202D202D202D",
"2  c #247E247E247E",
"3  c #254025402540",
"4  c #264526452645",
"5  c #2B332B332B33",
"6  c #30DE30DE30DE",
"7  c #339033903390",
"8  c #36F536F536F5",
"9  c #395E395E395E",
"0  c #3C423C423C42",
"q  c #3F133F133F13",
"w  c #3F873F873F87",
"e  c #44AD44AD44AD",
"r  c #45B445B445B4",
"t  c #4AD04AD04AD0",
"y  c #4BCF4BCF4BCF",
"u  c #502950295029",
"i  c #508D508D508D",
"p  c #51BC51BC51BC",
"a  c #52FF52FF52FF",
"s  c #535D535D535D",
"d  c #554655465546",
"f  c #571C571C571C",
"g  c #57BE57BE57BE",
"h  c #58F158F158F1",
"j  c #60F260F260F2",
"k  c #62C462C462C4",
"l  c #644C644C644C",
"z  c #664266426642",
"x  c #685468546854",
"c  c #691B691B691B",
"v  c #6ADB6ADB6ADB",
"b  c #6CDB6CDB6CDB",
"n  c #6D896D896D89",
"m  c #6EEB6EEB6EEB",
"M  c #6FC36FC36FC3",
"N  c #709970997099",
"B  c #721572157215",
"V  c #785378537853",
"C  c #791C791C791C",
"Z  c #79CD79CD79CD",
"A  c #7AFB7AFB7AFB",
"S  c #7DAD7DAD7DAD",
"D  c #7F537F537F53",
"F  c #80B380B380B3",
"G  c #825182518251",
"H  c #82D682D682D6",
"J  c #83DF83DF83DF",
"K  c #855F855F855F",
"L  c #890189018901",
"P  c #8A4D8A4D8A4D",
"I  c #8AA08AA08AA0",
"U  c #8C628C628C62",
"Y  c #8D748D748D74",
"T  c #8F438F438F43",
"R  c #8FA88FA88FA8",
"E  c #91EC91EC91EC",
"W  c #92E992E992E9",
"Q  c #977997799779",
"!  c #97FF97FF97FF",
"~  c #9B979B979B97",
"^  c #9C079C079C07",
"/  c #9F6D9F6D9F6D",
"(  c #A010A010A010",
")  c #A255A255A255",
"_  c #A2EFA2EFA2EF",
"`  c #A3FEA3FEA3FE",
"'  c #A5D8A5D8A5D8",
"]  c #A6F1A6F1A6F1",
"[  c #A8F3A8F3A8F3",
"{  c #AB8FAB8FAB8F",
"}  c #ACA0ACA0ACA0",
"|  c #AD42AD42AD42",
" . c #AE1BAE1BAE1B",
".. c #AFADAFADAFAD",
"X. c #B100B100B100",
"o. c #B349B349B349",
"O. c #B4C4B4C4B4C4",
"+. c #B612B612B612",
"@. c #B7ACB7ACB7AC",
"#. c #B94FB94FB94F",
"$. c #BA09BA09BA09",
"%. c #BB07BB07BB07",
"&. c #BC5EBC5EBC5E",
"*. c #BE7DBE7DBE7D",
"=. c #C046C046C046",
"-. c #C157C157C157",
";. c #C1D0C1D0C1D0",
":. c #C7B1C7B1C7B1",
">. c #C86AC86AC86A",
",. c #CA00CA00CA00",
"<. c #CB89CB89CB89",
"1. c #CFFACFFACFFA",
"2. c #D11FD11FD11F",
"3. c #D1EED1EED1EE",
"4. c #D54AD54AD54A",
"5. c #D68CD68CD68C",
"6. c #DD63DD63DD63",
"7. c #DF5ADF5ADF5A",
"8. c #E069E069E069",
"9. c #E18FE18FE18F",
"0. c #E52DE52DE52D",
"q. c #EACEEACEEACE",
"w. c #EC37EC37EC37",
"e. c #EE9DEE9DEE9D",
"r. c #F577F577F577",
"t. c #F624F624F624",
"y. c #F717F717F717",
"u. c #F976F976F976",
"i. c #FAF6FAF6FAF6",
"p. c #FBB7FBB7FBB7",
"a. c #FCA8FCA8FCA8",
"s. c #FDE7FDE7FDE7",
"d. c #FE57FE57FE57",
"f. c #FFBAFFBAFFBA",
"g. c gray100",
/* pixels */
"g.g.g.g.g.g.g.g.g.g.g.g.g.g.g.g.g.g.g.g.g.g.g.g.",
"g.g.g.g.g.g.g.g.g.g.g.g.g.g.g.g.g.g.g.g.g.g.g.g.",
"g.i.1.;.;.;.;.;.;.;.;.;.;.;.;.;.;.;.;.;.;.2.g.g.",
"g.8.5                                     0 e.g.",
"g.8.5                                     0 e.g.",
"g.8.5           g Z o       @             0 e.g.",
"g.8.5     & z - m ] 8     y Z @           e e.g.",
"g.8.5     5 2.B y %.y   & Y ^ ,           0 e.g.",
"g.8.5     < W O.9 m s   - } } @           0 e.g.",
"g.8.5       S Y y } I   , S K             e e.g.",
"g.8.5       s I B I Q & 3 %.x             e e.g.",
"g.8.5 3 g @ - } G Z W 3 s W 0             0 e.g.",
"g.8.5 g ^ 9   m m ;.W _ _ ! ,             e e.g.",
"g.8.5 1 { K @ s s e.} i.,.Q o             0 e.g.",
"g.8.5   s ;.S *.^ 8.:.g.O.o.o     5 z ] 6 e e.g.",
"g.8.5   @ s } 0.m ^ B q.z 4.%.%._ Q m G - 0 e.g.",
"g.8.5     & ^ G Y G x 8.j r.g.i.I 6.%.@   0 e.g.",
"g.8.5       g B O.j Z 2.m g.4.j *.y       e e.g.",
"g.8.5       , S { s G ] Z 1.o.,.y o       e e.g.",
"g.8.5         Z K x S S K Z ;.j           0 e.g.",
"g.8.5         g Y { ^ Q } _ ,.<           e e.g.",
"g.8.5         - e r r r r r 6             0 e.g.",
"g.r.o._ ^ _ _ ^ _ ^ ^ _ ^ _ _ ^ _ ^ _ ^ _ O.r.g.",
"g.g.g.g.g.g.g.g.g.g.g.g.g.g.g.g.g.g.g.g.g.g.g.g."
};
