/* XPM */
static char *Discipline QUI[] = {
/* columns rows colors chars-per-pixel */
"24 24 124 2",
"   c #005800580058",
".  c #016901690169",
"X  c #027E027E027E",
"o  c #039003900390",
"O  c #047804780478",
"+  c #059005900590",
"@  c #066406640664",
"#  c #075607560756",
"$  c #083908390839",
"%  c #096F096F096F",
"&  c #0AC90AC90AC9",
"*  c #0B580B580B58",
"=  c #0CA00CA00CA0",
"-  c #0FED0FED0FED",
";  c #10E910E910E9",
":  c #14E714E714E7",
">  c #152F152F152F",
",  c #184E184E184E",
"<  c #19EC19EC19EC",
"1  c #1CA11CA11CA1",
"2  c #1F4A1F4A1F4A",
"3  c #29F329F329F3",
"4  c #2BE02BE02BE0",
"5  c #2CB22CB22CB2",
"6  c #2D822D822D82",
"7  c #2F532F532F53",
"8  c #30AA30AA30AA",
"9  c #31CE31CE31CE",
"0  c #33B633B633B6",
"q  c #373D373D373D",
"w  c #38D738D738D7",
"e  c #3A873A873A87",
"r  c #3BC33BC33BC3",
"t  c #3D9F3D9F3D9F",
"y  c #3FC83FC83FC8",
"u  c #410841084108",
"i  c #439D439D439D",
"p  c #44A544A544A5",
"a  c #4A1C4A1C4A1C",
"s  c #4B454B454B45",
"d  c #51E551E551E5",
"f  c #562756275627",
"g  c #57BB57BB57BB",
"h  c #588D588D588D",
"j  c #5B3D5B3D5B3D",
"k  c #5D295D295D29",
"l  c #5EFE5EFE5EFE",
"z  c #62D162D162D1",
"x  c #64A564A564A5",
"c  c #65BE65BE65BE",
"v  c #668D668D668D",
"b  c #694E694E694E",
"n  c #6FA46FA46FA4",
"m  c #742674267426",
"M  c #751175117511",
"N  c #764F764F764F",
"B  c #76C476C476C4",
"V  c #783F783F783F",
"C  c #795679567956",
"Z  c #7C347C347C34",
"A  c #7E2D7E2D7E2D",
"S  c #816A816A816A",
"D  c #864886488648",
"F  c #8B028B028B02",
"G  c #8C488C488C48",
"H  c #901B901B901B",
"J  c #90EF90EF90EF",
"K  c #92C092C092C0",
"L  c #95C395C395C3",
"P  c #9EA99EA99EA9",
"I  c #A13FA13FA13F",
"U  c #A25AA25AA25A",
"Y  c #A33DA33DA33D",
"T  c #A476A476A476",
"R  c #A94BA94BA94B",
"E  c #AA34AA34AA34",
"W  c #ABB8ABB8ABB8",
"Q  c #B22BB22BB22B",
"!  c #B540B540B540",
"~  c #B70BB70BB70B",
"^  c #BC97BC97BC97",
"/  c #BD0DBD0DBD0D",
"(  c #BE07BE07BE07",
")  c #BF7BBF7BBF7B",
"_  c #C064C064C064",
"`  c #C13AC13AC13A",
"'  c #C217C217C217",
"]  c #C32CC32CC32C",
"[  c #C9B1C9B1C9B1",
"{  c #CABBCABBCABB",
"}  c #CB66CB66CB66",
"|  c #CDD6CDD6CDD6",
" . c #D326D326D326",
".. c #D408D408D408",
"X. c #D4EBD4EBD4EB",
"o. c #D828D828D828",
"O. c #DB1BDB1BDB1B",
"+. c #DDAEDDAEDDAE",
"@. c #DE8ADE8ADE8A",
"#. c #DF47DF47DF47",
"$. c #E0CFE0CFE0CF",
"%. c #E1A3E1A3E1A3",
"&. c #E5C0E5C0E5C0",
"*. c #E632E632E632",
"=. c #EA34EA34EA34",
"-. c #EB10EB10EB10",
";. c #ECDDECDDECDD",
":. c #ED91ED91ED91",
">. c #EF9DEF9DEF9D",
",. c #F04AF04AF04A",
"<. c #F222F222F222",
"1. c #F3A8F3A8F3A8",
"2. c #F4CCF4CCF4CC",
"3. c #F64EF64EF64E",
"4. c #F794F794F794",
"5. c #F8AAF8AAF8AA",
"6. c #F9BBF9BBF9BB",
"7. c #FA80FA80FA80",
"8. c #FB7CFB7CFB7C",
"9. c #FC63FC63FC63",
"0. c #FD87FD87FD87",
"q. c #FE7EFE7EFE7E",
"w. c #FF7DFF7DFF7D",
"e. c gray100",
/* pixels */
"q.7.q.7.q.q.q.q.q.q.q.q.q.q.q.q.q.q.q.q.q.q.q.q.",
"7.J 8 4 5 5 5 4 8 5 5 5 5 5 5 5 5 5 5 5 5 8 G 7.",
"q.M O O X X X O O 5 n b > X 4 = X X X X X O V q.",
"q.M X X X O O O j #.q.=.q < $.n X X X X X X M q.",
"q.M X X X X X w o.3.7.=.w u 3.J O X X X X X V q.",
"q.V X X X X X P q.q.q.3.u v 7.D X X X X X X V q.",
"q.V X X X X ; >.q.q.q.q.s G q.A X X X X X X V q.",
"q.M X X X X j q.q.q.q.q.j P q.v X X X X X X V q.",
"q.M X X X X G q.q.q.q.q.M / q.k X X X X X X V q.",
"q.n X X X $ T q.q.q.q.q.S  .q.a O X X X X X V q.",
"q.M X X X O R q.q.q.q.7.' >.q.r X O X X X X M q.",
"q.V X X X $ R q.q.q.q.q.7.7.7.w O ; O X X X M q.",
"q.V X X X $ R q.q.q.q.&.&.q.>.5 u ~ g X X X V q.",
"q.M X X X O P 7.q.q.q.Q / q.&.d { 7.u X X X V q.",
"q.M X X X X F q.7.q.q.v L q.$.' q.! = X X X V q.",
"q.n X X X X v 7.q.7.{ 2 u <.7.3.q.z X X X X V q.",
"q.M X X X X q 7.q.7.d O $ W 3.q.7.> X X X X M q.",
"q.V X X X X =  .q.#.X X X z 7.7.| X X X X X V q.",
"q.V X X X X O P 7. .$ X X v 7.7.V O O X X X V q.",
"q.M X X X X O u $.3.n 2 u | q.#.q X O O X X M q.",
"q.M X O O X O O M >.7.<.7.q.>.A O O X X X X V q.",
"q.V O X X X O O = r M n P T d $ X O O O X X M q.",
"q.O./ ' ' ' ' / ' / ' ' ' / ' ' ' / ' / ' ' #.7.",
"q.q.q.q.q.q.q.q.q.q.q.q.q.q.q.q.q.q.q.q.q.q.q.q."
};
