/* XPM */
static char * Discipline ABO[] = {
"24 24 40 1",
" 	c None",
".	c #FFFFFF",
"+	c #EAEAEA",
"@	c #E7E7E7",
"#	c #373737",
"$	c #202020",
"%	c #282828",
"&	c #252525",
"*	c #BDBDBD",
"=	c #0C0C0C",
"-	c #191919",
";	c #AEAEAE",
">	c #6D6D6D",
",	c #0E0E0E",
"'	c #151515",
")	c #464646",
"!	c #9B9B9B",
"~	c #575757",
"{	c #121212",
"]	c #E1E1E1",
"^	c #1D1D1D",
"/	c #181818",
"(	c #C3C3C3",
"_	c #F5F5F5",
":	c #B3B3B3",
"<	c #CECECE",
"[	c #424242",
"}	c #747474",
"|	c #3C3C3C",
"1	c #666666",
"2	c #535353",
"3	c #303030",
"4	c #5B5B5B",
"5	c #A3A3A3",
"6	c #4A4A4A",
"7	c #D3D3D3",
"8	c #C5C5C5",
"9	c #7E7E7E",
"0	c #2D2D2D",
"a	c #101010",
"........................",
"..+@@+@@@@@+@@@@@+@@@@..",
".+#$$$%$$$$$$$$$$&&$$%*.",
".@$==-;>%,==,==')!~,={;.",
".@$,,>..]>^&$$#;..@/={;.",
".@$,{(....+.___....#={:.",
".@$={<.............[={:.",
".@$,,[............_&={;.",
".@$,=%_.+......__.[=,{:.",
".+$,,{_(#}_...(|1.2=,{;.",
".@$,,3._4#<...}3:.5,,{:.",
".@$,=4...@]...*...+/,{;.",
".@$==6...(@...(_..(',{;.",
".@$,=-+.+(....@(..1=,{:.",
".@$,,=>.<<@...7*.@/=,{:.",
".+$,,,-8(909;)|<<4=,,{;.",
".@$,,,=|<@>==$5_9a,,,{:.",
".@$,,,=3+.@&,9..5,,,,{;.",
".@$=,,={!+8|$!]@[=,,,{:.",
".@$,,,,,$99(@[9),,,,,{;.",
".@$=,,,,=-!_+])==,,,,{:.",
".@0'''''''$[|#'''''''-:.",
"..<(((((((((((((((((((_.",
"........................"};
