/* XPM */
static char *Discipline TEM[] = {
/* columns rows colors chars-per-pixel */
"24 24 107 2",
"   c #000600060006",
".  c #019901990199",
"X  c #027B027B027B",
"o  c #034503450345",
"O  c #041604160416",
"+  c #06C506C506C5",
"@  c #082708270827",
"#  c #09AD09AD09AD",
"$  c #0B7E0B7E0B7E",
"%  c #0D7B0D7B0D7B",
"&  c #0F780F780F78",
"*  c #128C128C128C",
"=  c #155615561556",
"-  c #161616161616",
";  c #174617461746",
":  c #186B186B186B",
">  c #1C371C371C37",
",  c #1DB41DB41DB4",
"<  c #1EDA1EDA1EDA",
"1  c #1F4E1F4E1F4E",
"2  c #205020502050",
"3  c #221122112211",
"4  c #254D254D254D",
"5  c #2B312B312B31",
"6  c #2D422D422D42",
"7  c #2EFE2EFE2EFE",
"8  c #2F402F402F40",
"9  c #32D732D732D7",
"0  c #33CF33CF33CF",
"q  c #36C136C136C1",
"w  c #3BE83BE83BE8",
"e  c #3DB23DB23DB2",
"r  c #3F133F133F13",
"t  c #411141114111",
"y  c #43FE43FE43FE",
"u  c #473147314731",
"i  c #499049904990",
"p  c #4AED4AED4AED",
"a  c #4C524C524C52",
"s  c #4E134E134E13",
"d  c #500C500C500C",
"f  c #543454345434",
"g  c #562456245624",
"h  c #5A3C5A3C5A3C",
"j  c #602860286028",
"k  c #62F762F762F7",
"l  c #640C640C640C",
"z  c #6CA46CA46CA4",
"x  c #6F156F156F15",
"c  c #739E739E739E",
"v  c #75B775B775B7",
"b  c #775D775D775D",
"n  c #78E678E678E6",
"m  c #7B637B637B63",
"M  c #7CF37CF37CF3",
"N  c #7DD77DD77DD7",
"B  c #7F4F7F4F7F4F",
"V  c #834683468346",
"C  c #841984198419",
"Z  c #869486948694",
"A  c #87C587C587C5",
"S  c #89A789A789A7",
"D  c #91FB91FB91FB",
"F  c #9C649C649C64",
"G  c #A012A012A012",
"H  c #A139A139A139",
"J  c #A9EBA9EBA9EB",
"K  c #AC7EAC7EAC7E",
"L  c #AF7DAF7DAF7D",
"P  c #B306B306B306",
"I  c #B463B463B463",
"U  c #B50AB50AB50A",
"Y  c #B64DB64DB64D",
"T  c #B7ACB7ACB7AC",
"R  c #BDFDBDFDBDFD",
"E  c #BFE7BFE7BFE7",
"W  c #C1C7C1C7C1C7",
"Q  c #C2DEC2DEC2DE",
"!  c #C42EC42EC42E",
"~  c #C69CC69CC69C",
"^  c #C76DC76DC76D",
"/  c #C80EC80EC80E",
"(  c #CA5BCA5BCA5B",
")  c #CD2ECD2ECD2E",
"_  c #D02AD02AD02A",
"`  c #D154D154D154",
"'  c #DA9DDA9DDA9D",
"]  c #DB1EDB1EDB1E",
"[  c #DEA6DEA6DEA6",
"{  c #E069E069E069",
"}  c #E403E403E403",
"|  c #E547E547E547",
" . c #E635E635E635",
".. c #E7E5E7E5E7E5",
"X. c #EBCBEBCBEBCB",
"o. c #EC91EC91EC91",
"O. c #EE9DEE9DEE9D",
"+. c #EFC6EFC6EFC6",
"@. c #F163F163F163",
"#. c #F237F237F237",
"$. c #F30CF30CF30C",
"%. c #F610F610F610",
"&. c #F976F976F976",
"*. c #FAF6FAF6FAF6",
"=. c #FBB7FBB7FBB7",
"-. c #FFABFFABFFAB",
";. c gray100",
/* pixels */
";.;.;.;.;.;.;.;.;.;.;.;.;.;.;.;.;.;.;.;.;.;.;.;.",
";.;.;.;.;.;.;.;.;.;.;.;.;.;.;.;.;.;.;.;.;.;.;.;.",
";.*._ W W W W W W W W W W W W W W W W W W _ ;.;.",
";.{ 5                                     e O.;.",
";.{ 5           ; t d 7 7 7 3             e O.;.",
";.{ 5         * G ..X.( / / / C q         e O.;.",
";.{ 5       ; l +.;./ 9 , , v / ..y       t O.;.",
";.{ 5     & Y n , ; &         * V *.l     e O.;.",
";.{ 5     e [ 3                 , ..R &   e O.;.",
";.{ 5   ; Y h                     g O.c   e O.;.",
";.{ 5   i R $                       Y _   e O.;.",
";.{ 5   S B                         v O., t O.;.",
";.{ 5   G z                         f +.e e O.;.",
";.{ 5   D v                         g +.q e O.;.",
";.{ 5   j L                         D ..& e O.;.",
";.{ 5   7 ( 9                     , ] H   e O.;.",
";.{ 5   $ R n                     j +.i   t O.;.",
";.{ 5     q ] d                 d +.J &   e O.;.",
";.{ 5       d _ B 7 ; $ $ ; 7 B ..J ,     e O.;.",
";.{ 5         y J / W S C ( _ _ B ;       e O.;.",
";.{ 5           $ w x P Y H t 4           e O.;.",
";.{ 5                 $ + $               t O.;.",
";.%.P G G H H H G G G G H G G G H G G G H Y *.;.",
";.;.;.;.;.;.;.;.;.;.;.;.;.;.;.;.;.;.;.;.;.;.;.;."
};
