/* XPM */
static char *Discipline VAL[] = {
/* columns rows colors chars-per-pixel */
"24 24 102 2",
"   c #000300030003",
".  c #013C013C013C",
"X  c #023202320232",
"o  c #045304530453",
"O  c #055905590559",
"+  c #060906090609",
"@  c #078307830783",
"#  c #0A8F0A8F0A8F",
"$  c #0DD10DD10DD1",
"%  c #108510851085",
"&  c #11FF11FF11FF",
"*  c #13D813D813D8",
"=  c #14BE14BE14BE",
"-  c #15FA15FA15FA",
";  c #162116211621",
":  c #189818981898",
">  c #1A151A151A15",
",  c #1A1B1A1B1A1B",
"<  c #1C0F1C0F1C0F",
"1  c #1CF01CF01CF0",
"2  c #1D9C1D9C1D9C",
"3  c #208320832083",
"4  c #21E021E021E0",
"5  c #22CB22CB22CB",
"6  c #251625162516",
"7  c #268E268E268E",
"8  c #2A082A082A08",
"9  c #2B3D2B3D2B3D",
"0  c #2DF22DF22DF2",
"q  c #2EFF2EFF2EFF",
"w  c #307630763076",
"e  c #3B9A3B9A3B9A",
"r  c #3C873C873C87",
"t  c #446F446F446F",
"y  c #484648464846",
"u  c #4B004B004B00",
"i  c #4BC04BC04BC0",
"p  c #52AA52AA52AA",
"a  c #548554855485",
"s  c #564356435643",
"d  c #584358435843",
"f  c #620E620E620E",
"g  c #655B655B655B",
"h  c #657565756575",
"j  c #6BF56BF56BF5",
"k  c #728972897289",
"l  c #73CD73CD73CD",
"z  c #7A8D7A8D7A8D",
"x  c #7C147C147C14",
"c  c #81F781F781F7",
"v  c #855185518551",
"b  c #8CB58CB58CB5",
"n  c #8EE38EE38EE3",
"m  c #943A943A943A",
"M  c #9BF89BF89BF8",
"N  c #9EC59EC59EC5",
"B  c #A010A010A010",
"V  c #A0FFA0FFA0FF",
"C  c #A313A313A313",
"Z  c #A60CA60CA60C",
"A  c #A7FBA7FBA7FB",
"S  c #AF11AF11AF11",
"D  c #B149B149B149",
"F  c #B306B306B306",
"G  c #B5D6B5D6B5D6",
"H  c #B904B904B904",
"J  c #BDD3BDD3BDD3",
"K  c #C039C039C039",
"L  c #C1CCC1CCC1CC",
"P  c #C860C860C860",
"I  c #C8E3C8E3C8E3",
"U  c #CA3FCA3FCA3F",
"Y  c #CCF7CCF7CCF7",
"T  c #CE84CE84CE84",
"R  c #CFFACFFACFFA",
"E  c #D387D387D387",
"W  c #D57FD57FD57F",
"Q  c #D868D868D868",
"!  c #DB5EDB5EDB5E",
"~  c #DCBDDCBDDCBD",
"^  c #DFD5DFD5DFD5",
"/  c #E069E069E069",
"(  c #E1BAE1BAE1BA",
")  c #E263E263E263",
"_  c #E512E512E512",
"`  c #E677E677E677",
"'  c #EA7CEA7CEA7C",
"]  c #EB8DEB8DEB8D",
"[  c #ED46ED46ED46",
"{  c #F1C4F1C4F1C4",
"}  c #F2A6F2A6F2A6",
"|  c #F48AF48AF48A",
" . c #F5C1F5C1F5C1",
".. c #F67BF67BF67B",
"X. c #F87DF87DF87D",
"o. c #F985F985F985",
"O. c #FAF0FAF0FAF0",
"+. c #FC3CFC3CFC3C",
"@. c #FD49FD49FD49",
"#. c #FE99FE99FE99",
"$. c #FF3AFF3AFF3A",
"%. c gray100",
/* pixels */
"%.%.%.%.%.%.%.%.%.%.%.%.%.%.%.%.%.%.%.%.%.%.%.%.",
"%.%.%.%.%.%.%.%.%.%.%.%.%.%.%.%.%.%.%.%.%.%.%.%.",
"%.O.R L L L L L L L L L L L L L L L L L L R  .%.",
"%./ 9                                 o 4 q / %.",
"%./ 9                             q m Z c w / %.",
"%./ 9                           4 J %. .i w / %.",
"%./ 9                         - G %.%.S $ q / %.",
"%./ 9                       > G %.%.n *   q / %.",
"%./ 9                       j  .%.W 2     q / %.",
"%./ 9                   o a  .%.R 7       q / %.",
"%./ 9                 o g }  .Z >         q / %.",
"%./ 9   * >         o g ` } v -           q / %.",
"%./ 9   e M 9       a ` ] l $             q / %.",
"%./ 9   p O.E e   t [ / p o               w / %.",
"%./ 9   * z ! ] n ` W w                   q / %.",
"%./ 9       9 P O.} q                     q / %.",
"%./ 9       o  .%. .>                     q / %.",
"%./ 9     2 L / x ` P >                   q / %.",
"%./ 9   7 J ^ u o l %.B 2                 q / %.",
"%./ 9   f P u     - N B d                 q / %.",
"%./ 9   # 4                               q / %.",
"%./ 9                                     q / %.",
"%. .F B B B B B B B B B B B B B B B N B N F  .%.",
"%.%.%.%.%.%.%.%.%.%.%.%.%.%.%.%.%.%.%.%.%.%.%.%."
};
