/* XPM */
static char *Discipline OBT[] = {
/* columns rows colors chars-per-pixel */
"24 24 125 2",
"   c #005A005A005A",
".  c #018101810181",
"X  c #026E026E026E",
"o  c #036903690369",
"O  c #047904790479",
"+  c #056C056C056C",
"@  c #067906790679",
"#  c #07B007B007B0",
"$  c #087B087B087B",
"%  c #093D093D093D",
"&  c #0B2F0B2F0B2F",
"*  c #0C500C500C50",
"=  c #0EE40EE40EE4",
"-  c #0F500F500F50",
";  c #13DB13DB13DB",
":  c #14B614B614B6",
">  c #19D319D319D3",
",  c #1B051B051B05",
"<  c #1BDB1BDB1BDB",
"1  c #1CAD1CAD1CAD",
"2  c #219821982198",
"3  c #231823182318",
"4  c #236123612361",
"5  c #2A262A262A26",
"6  c #2AFE2AFE2AFE",
"7  c #2BB52BB52BB5",
"8  c #2CA52CA52CA5",
"9  c #2DAF2DAF2DAF",
"0  c #2E7C2E7C2E7C",
"q  c #308430843084",
"w  c #330133013301",
"e  c #3AD33AD33AD3",
"r  c #40C540C540C5",
"t  c #43D943D943D9",
"y  c #47E547E547E5",
"u  c #4A2E4A2E4A2E",
"i  c #4EA34EA34EA3",
"p  c #4F694F694F69",
"a  c #50F250F250F2",
"s  c #521E521E521E",
"d  c #529952995299",
"f  c #56B756B756B7",
"g  c #5A3E5A3E5A3E",
"h  c #601A601A601A",
"j  c #61DF61DF61DF",
"k  c #64F464F464F4",
"l  c #695269526952",
"z  c #6ADF6ADF6ADF",
"x  c #6BDE6BDE6BDE",
"c  c #702970297029",
"v  c #707970797079",
"b  c #735B735B735B",
"n  c #73B073B073B0",
"m  c #74E474E474E4",
"M  c #764476447644",
"N  c #767F767F767F",
"B  c #77D277D277D2",
"V  c #791679167916",
"C  c #79E079E079E0",
"Z  c #7E637E637E63",
"A  c #7FED7FED7FED",
"S  c #838A838A838A",
"D  c #859185918591",
"F  c #87D787D787D7",
"G  c #88C988C988C9",
"H  c #8AEE8AEE8AEE",
"J  c #8E2B8E2B8E2B",
"K  c #902490249024",
"L  c #90AE90AE90AE",
"P  c #92BE92BE92BE",
"I  c #944094409440",
"U  c #985D985D985D",
"Y  c #989B989B989B",
"T  c #9C7E9C7E9C7E",
"R  c #9E8B9E8B9E8B",
"E  c #9F1E9F1E9F1E",
"W  c #A356A356A356",
"Q  c #A491A491A491",
"!  c #A974A974A974",
"~  c #AC6DAC6DAC6D",
"^  c #AD38AD38AD38",
"/  c #B390B390B390",
"(  c #BA74BA74BA74",
")  c #BB82BB82BB82",
"_  c #C061C061C061",
"`  c #C1CEC1CEC1CE",
"'  c #C36FC36FC36F",
"]  c #C445C445C445",
"[  c #C6EFC6EFC6EF",
"{  c #CAFCCAFCCAFC",
"}  c #CD81CD81CD81",
"|  c #CE65CE65CE65",
" . c #D0DDD0DDD0DD",
".. c #D410D410D410",
"X. c #D5CDD5CDD5CD",
"o. c #D670D670D670",
"O. c #D854D854D854",
"+. c #D9E9D9E9D9E9",
"@. c #DC0ADC0ADC0A",
"#. c #DD8CDD8CDD8C",
"$. c #E082E082E082",
"%. c #E14BE14BE14B",
"&. c #E313E313E313",
"*. c #E48BE48BE48B",
"=. c #E8C7E8C7E8C7",
"-. c #E93DE93DE93D",
";. c #EAC8EAC8EAC8",
":. c #EB49EB49EB49",
">. c #EC45EC45EC45",
",. c #EEBFEEBFEEBF",
"<. c #EFAAEFAAEFAA",
"1. c #F28FF28FF28F",
"2. c #F46FF46FF46F",
"3. c #F5BAF5BAF5BA",
"4. c #F6B9F6B9F6B9",
"5. c #F79AF79AF79A",
"6. c #F8A7F8A7F8A7",
"7. c #F960F960F960",
"8. c #FA99FA99FA99",
"9. c #FB8EFB8EFB8E",
"0. c #FC5EFC5EFC5E",
"q. c #FD7BFD7BFD7B",
"w. c #FE81FE81FE81",
"e. c #FF6FFF6FFF6F",
"r. c gray100",
/* pixels */
"r.r.r.9.r.r.r.r.r.r.r.r.r.r.r.r.r.r.9.r.r.r.9.r.",
"9.J 9 6 6 6 6 9 9 6 6 6 6 9 6 9 6 6 6 9 6 6 c 5.",
"r.n o o o o o o o o o o o o o o o o o o o o p 9.",
"r.n o o o o o o o o o o o o o o o o o o o o p 9.",
"r.n o o o o o o o o o o o o o O 2 6 > o o o p 9.",
"r.n o o o o o o o o o o o o o O j o.| U 6 o p r.",
"r.n o o o o o o o o O o O o O o O Z 1.5...9 p r.",
"r.n o o o o o o p S g q O O o O O % I 9.r.{ v 9.",
"r.n o o o o O o 2 E 5.%.F : O 1 % o q O.9.9.O.9.",
"r.v o o o o o o o ; ~ 9.5.G % v G ; % E r.9.9.9.",
"r.n o o o o O o o o 1 O.9.r.p 9 =.Q * z r.r.9.r.",
"r.n o o o o k Q f % o V 9.9._ 2 ~ 1.t h r.r.9.r.",
"r.V o o o o > _ ,.Z O t ,.r.5.p S r.F z r.r.r.r.",
"r.n o o o o o t ,.5.u e =.9.r.E n 9.( K r.9.r.r.",
"r.n o o 1 9 * % _ r.! t =.9.9.| I r.=.#.9.r.r.r.",
"r.n o o p [ z o J r.#.k 1.r.r.,.%.9.r.r.r.r.r.r.",
"r.n o o 2 o.%.9 K r.9.( 9.9.9.r.r.9.r.r.r.r.r.r.",
"r.n o o * _ r.K / 9.9.5.9.9.r.9.9.r.r.r.r.r.r.r.",
"r.v o o O _ 9.| #.9.9.r.r.r.9.9.r.9.r.9.r.r.r.r.",
"r.V o o 2 o.r.9.r.r.r.r.r.r.r.r.r.r.r.r.r.r.r.r.",
"r.v O o v 9.r.r.r.r.r.r.r.r.r.r.r.r.r.r.r.r.r.r.",
"r.V O f *.r.r.r.r.r.r.r.r.r.r.r.r.r.r.r.r.r.r.r.",
"r.| ( =.9.r.r.r.r.r.r.r.r.r.r.r.r.r.r.r.r.r.r.r.",
"r.9.5.9.9.r.r.r.r.r.r.r.r.r.r.r.r.r.r.r.r.r.r.r."
};
