/* XPM */
static char *Discipline VIS[] = {
/* columns rows colors chars-per-pixel */
"24 24 113 2",
"   c #000400040004",
".  c #017901790179",
"X  c #03AF03AF03AF",
"o  c #046804680468",
"O  c #05AA05AA05AA",
"+  c #09AC09AC09AC",
"@  c #0CD00CD00CD0",
"#  c #0D600D600D60",
"$  c #0F020F020F02",
"%  c #0F800F800F80",
"&  c #102B102B102B",
"*  c #114711471147",
"=  c #12C512C512C5",
"-  c #18AF18AF18AF",
";  c #1C531C531C53",
":  c #204F204F204F",
">  c #21AB21AB21AB",
",  c #27B527B527B5",
"<  c #294129412941",
"1  c #2B322B322B32",
"2  c #2CCB2CCB2CCB",
"3  c #2ECA2ECA2ECA",
"4  c #316131613161",
"5  c #345B345B345B",
"6  c #35BE35BE35BE",
"7  c #371937193719",
"8  c #385438543854",
"9  c #3C243C243C24",
"0  c #3DDC3DDC3DDC",
"q  c #3F133F133F13",
"w  c #40BB40BB40BB",
"e  c #425A425A425A",
"r  c #445244524452",
"t  c #455F455F455F",
"y  c #473447344734",
"u  c #47C447C447C4",
"i  c #486948694869",
"p  c #49BD49BD49BD",
"a  c #4B2A4B2A4B2A",
"s  c #4C414C414C41",
"d  c #522E522E522E",
"f  c #540754075407",
"g  c #552755275527",
"h  c #56AE56AE56AE",
"j  c #575F575F575F",
"k  c #5A495A495A49",
"l  c #5DB95DB95DB9",
"z  c #5ED95ED95ED9",
"x  c #5F885F885F88",
"c  c #607660766076",
"v  c #771E771E771E",
"b  c #79AB79AB79AB",
"n  c #7D387D387D38",
"m  c #7E6B7E6B7E6B",
"M  c #7ED27ED27ED2",
"N  c #848384838483",
"B  c #860886088608",
"V  c #887688768876",
"C  c #88E588E588E5",
"Z  c #89ED89ED89ED",
"A  c #8C288C288C28",
"S  c #921B921B921B",
"D  c #943894389438",
"F  c #964A964A964A",
"G  c #977E977E977E",
"H  c #97B797B797B7",
"J  c #9A519A519A51",
"K  c #9AAF9AAF9AAF",
"L  c #9C649C649C64",
"P  c #A244A244A244",
"I  c #A314A314A314",
"U  c #A5BCA5BCA5BC",
"Y  c #A85FA85FA85F",
"T  c #AB69AB69AB69",
"R  c #AC67AC67AC67",
"E  c #B22EB22EB22E",
"W  c #B362B362B362",
"Q  c #B50DB50DB50D",
"!  c #B9DCB9DCB9DC",
"~  c #BFA6BFA6BFA6",
"^  c #C1DCC1DCC1DC",
"/  c #CC7CCC7CCC7C",
"(  c #CCD6CCD6CCD6",
")  c #CFC4CFC4CFC4",
"_  c #D028D028D028",
"`  c #D107D107D107",
"'  c #D451D451D451",
"]  c #D605D605D605",
"[  c #D863D863D863",
"{  c #DAB5DAB5DAB5",
"}  c #DBE4DBE4DBE4",
"|  c #E069E069E069",
" . c #E25BE25BE25B",
".. c #E315E315E315",
"X. c #E47AE47AE47A",
"o. c #E583E583E583",
"O. c #E742E742E742",
"+. c #E890E890E890",
"@. c #E8ECE8ECE8EC",
"#. c gray92",
"$. c #EE9DEE9DEE9D",
"%. c #EF44EF44EF44",
"&. c #F0ABF0ABF0AB",
"*. c #F366F366F366",
"=. c #F645F645F645",
"-. c #F87EF87EF87E",
";. c #F976F976F976",
":. c #FA85FA85FA85",
">. c #FB7AFB7AFB7A",
",. c #FCCAFCCAFCCA",
"<. c #FE47FE47FE47",
"1. c #FFA0FFA0FFA0",
"2. c gray100",
/* pixels */
"2.2.2.2.2.2.2.2.2.2.2.2.2.2.2.2.2.2.2.2.2.2.2.2.",
"2.2.2.2.2.2.2.2.2.2.2.2.2.2.2.2.2.2.2.2.2.2.2.2.",
"2.:._ ^ ^ ^ ^ ^ ^ ^ ^ ^ ^ ^ ^ ^ ^ ^ ^ ^ ^ ` 2.2.",
"2.| 1                                     0 %.2.",
"2.| 1                                     0 %.2.",
"2.| 1                                     0 %.2.",
"2.| 1                                     0 %.2.",
"2.| 1     O &   @ N z 8 a                 0 %.2.",
"2.| 3   - 5 a   r | o.v M &               0 %.2.",
"2.| 1 @ Q R M k o.2.2.*.Q 0               w %.2.",
"2.| 3 N 2.{ D 2.2.2.2.2.2.{ n :           w %.2.",
"2.| 5 _ 2.2.2.2.2.2.2.2.2.2.:._ c &       0 %.2.",
"2.| 5 ^ -.2.2.2.2.%.%.2.2.2.2.2.*.U 0 O   0 %.2.",
"2.| 3 : D 2.2.2.2._ 0 D L L L U | 2.+.L 1 0 %.2.",
"2.| 1   M 2.2.2.2.-.g O O O w D +.L M c , r %.2.",
"2.| 1   S 2.2.2.2.2._ ;     O & w L ' ' 5 w %.2.",
"2.| 1   L 2.2.2.2.2.2.g             a *.L a %.2.",
"2.| 1   L 2.2.2.2.2.2.' a @           O c z %.2.",
"2.| 1 & _ +.+.+.+.+.+.+.' T d @           0 %.2.",
"2.| r z N A A A A A A A A A Z z k g k g g r %.2.",
"2.| a %.2.2.2.2.2.2.2.2.2.2.2.2.2.2.2.2.2.z %.2.",
"2.| 4 Z ^ ^ ^ ^ ^ ^ ^ ^ ^ ^ ^ ^ ^ ^ ^ ^ ^ k %.2.",
"2.-.E R E E E E E E E E E E R E E E E E E Q :.2.",
"2.2.2.2.2.2.2.2.2.2.2.2.2.2.2.2.2.2.2.2.2.2.2.2."
};
