/* XPM */
static char *Discipline DOM[] = {
/* columns rows colors chars-per-pixel */
"24 24 151 2",
"   c #008200820082",
".  c #018701870187",
"X  c #026502650265",
"o  c #038903890389",
"O  c #047F047F047F",
"+  c #056305630563",
"@  c #067006700670",
"#  c #075207520752",
"$  c #088008800880",
"%  c #097809780978",
"&  c #0A4F0A4F0A4F",
"*  c #0BB10BB10BB1",
"=  c #0D250D250D25",
"-  c #0EBB0EBB0EBB",
";  c #0F390F390F39",
":  c #115B115B115B",
">  c #12C912C912C9",
",  c #135713571357",
"<  c #14F014F014F0",
"1  c #152415241524",
"2  c #176317631763",
"3  c #198819881988",
"4  c #1D771D771D77",
"5  c #1F751F751F75",
"6  c #20EC20EC20EC",
"7  c #21D721D721D7",
"8  c #226B226B226B",
"9  c #24BE24BE24BE",
"0  c #25E325E325E3",
"q  c #299129912991",
"w  c #2B772B772B77",
"e  c #2D4B2D4B2D4B",
"r  c #301330133013",
"t  c #32D932D932D9",
"y  c #336933693369",
"u  c #346634663466",
"i  c #35FB35FB35FB",
"p  c #36B636B636B6",
"a  c #3AAB3AAB3AAB",
"s  c #3BA33BA33BA3",
"d  c #3CDD3CDD3CDD",
"f  c #3DC43DC43DC4",
"g  c #3FD23FD23FD2",
"h  c #428942894289",
"j  c #449444944494",
"k  c #470E470E470E",
"l  c #4DC74DC74DC7",
"z  c #4EE24EE24EE2",
"x  c #4FA24FA24FA2",
"c  c #50C950C950C9",
"v  c #51E451E451E4",
"b  c #528452845284",
"n  c #53CD53CD53CD",
"m  c #579257925792",
"M  c #5B105B105B10",
"N  c #5D6E5D6E5D6E",
"B  c #630C630C630C",
"V  c #64F064F064F0",
"C  c #674367436743",
"Z  c #678167816781",
"A  c #6B0D6B0D6B0D",
"S  c #6C806C806C80",
"D  c #6D9E6D9E6D9E",
"F  c #729D729D729D",
"G  c #742A742A742A",
"H  c #74BF74BF74BF",
"J  c #760A760A760A",
"K  c #771A771A771A",
"L  c #77F477F477F4",
"P  c #791579157915",
"I  c #7A197A197A19",
"U  c #7B7A7B7A7B7A",
"Y  c #7BA07BA07BA0",
"T  c #7E787E787E78",
"R  c #804A804A804A",
"E  c #814381438143",
"W  c #81C881C881C8",
"Q  c #832E832E832E",
"!  c #866F866F866F",
"~  c #872187218721",
"^  c #886D886D886D",
"/  c #8A568A568A56",
"(  c #921A921A921A",
")  c #93AF93AF93AF",
"_  c #949694969496",
"`  c #95AD95AD95AD",
"'  c #977C977C977C",
"]  c #988498849884",
"[  c #9A4C9A4C9A4C",
"{  c #9B299B299B29",
"}  c #9BD69BD69BD6",
"|  c #9D259D259D25",
" . c #9DE99DE99DE9",
".. c #9EEA9EEA9EEA",
"X. c #A07EA07EA07E",
"o. c #A0FFA0FFA0FF",
"O. c #A566A566A566",
"+. c #A601A601A601",
"@. c #B591B591B591",
"#. c #B899B899B899",
"$. c #BA83BA83BA83",
"%. c #BB54BB54BB54",
"&. c #BC71BC71BC71",
"*. c #BD3ABD3ABD3A",
"=. c #C10AC10AC10A",
"-. c #C20CC20CC20C",
";. c #C52CC52CC52C",
":. c #C600C600C600",
">. c #C7A3C7A3C7A3",
",. c #C85FC85FC85F",
"<. c #CA16CA16CA16",
"1. c #CC63CC63CC63",
"2. c #CF70CF70CF70",
"3. c #D146D146D146",
"4. c #D24FD24FD24F",
"5. c #D3E9D3E9D3E9",
"6. c #D550D550D550",
"7. c #D62CD62CD62C",
"8. c #D704D704D704",
"9. c #D870D870D870",
"0. c #DA91DA91DA91",
"q. c #DD34DD34DD34",
"w. c #DED9DED9DED9",
"e. c #E0AAE0AAE0AA",
"r. c #E12EE12EE12E",
"t. c #E208E208E208",
"y. c #E2F9E2F9E2F9",
"u. c #E495E495E495",
"i. c #E7BFE7BFE7BF",
"p. c #E812E812E812",
"a. c #E9A7E9A7E9A7",
"s. c #EA3AEA3AEA3A",
"d. c #ECA1ECA1ECA1",
"f. c #EDD7EDD7EDD7",
"g. c #EE33EE33EE33",
"h. c #F07FF07FF07F",
"j. c #F2E4F2E4F2E4",
"k. c #F310F310F310",
"l. c #F434F434F434",
"z. c #F567F567F567",
"x. c #F6ADF6ADF6AD",
"c. c #F785F785F785",
"v. c #F881F881F881",
"b. c #F960F960F960",
"n. c #FAA4FAA4FAA4",
"m. c #FB8EFB8EFB8E",
"M. c #FC58FC58FC58",
"N. c #FD88FD88FD88",
"B. c #FE7AFE7AFE7A",
"V. c #FF74FF74FF74",
"C. c gray100",
/* pixels */
"V.V.V.V.V.V.V.b.V.V.V.V.V.V.V.V.V.V.V.V.V.b.x.V.",
"V.} b b N b m b b b l l b l l b b l l l l b o.b.",
"V.F o 7  .b o o o o o o o o o o o o o o o o J V.",
"V.P 3 $.b.r.b @ o o o o ; & o o o o o o o o J V.",
"V.P } b.V.V.i.l & @ : ) r.7.a @ o o o o o o P V.",
"V.P d 7.b.b.b.w.l & D x.V.b.2.d o o @ o o o P V.",
"V.J @ y 0.b.x.V.r.l 9 :.V.V.V.7.y o o o o o J V.",
"V.P @ o u 3.V.x.b.s.l 9 $.V.b.V.r.y o o o o P V.",
"V.F o o @ a 3.b.b.V.r.u q $.b.V.V.3.h @ o o J V.",
"V.F o o o @ u 0.b.b.V.W @ 7 :.V.b.V.7.d o o F V.",
"V.P o @ & P W u 7.V.d.k o o 7 &.V.b.V.3.4 o P V.",
"V.J o o P d.x.P y C h & o @ @ y $.V.b.j.a o J V.",
"V.P @ o @.V.b.x.P & @ o & M / b q ,.b.-.: o J V.",
"V.J o o ^ x.b.b.j.W o @ y s.b.d.D q ( q o o P b.",
"V.F o o : ) b.V.V.j.T ; d b.b.V.d.C & o o @ J b.",
"V.F o o @ 1 ) b.V.b.j.P 7 $.b.V.b.i.A @ @ o P b.",
"V.J o o o o & O.x.b.V.x.J 9 ,.V.V.x.s.B o o J b.",
"V.J o o o o o ; } b.b.b.x.W q -.V.V.V.d.A @ P V.",
"V.J o o o o o o 1 ) x.b.b.2.1 w $.V.V.b.d.C P V.",
"V.F o o o o o o o : W 0.-.d @ o 7 :.V.V.b.O.^ V.",
"V.J @ o o o o o o o o o o o o @ @ 9 -.V.&.3 P V.",
"V.P o o o o o o o o o o o o o @ o o q ^ 7 o J V.",
"V.,. . .} }  .} o. .}  .} }  . .o. .} o. . .,.V.",
"V.V.V.V.V.V.V.V.V.V.V.V.V.V.V.V.V.V.V.V.V.V.V.V."
};
