/* XPM */
static char *Discipline MEL[] = {
/* columns rows colors chars-per-pixel */
"24 24 101 2",
"   c #000200020002",
".  c #017D017D017D",
"X  c #029102910291",
"o  c #030603060306",
"O  c #045504550455",
"+  c #05F905F905F9",
"@  c #065006500650",
"#  c #079907990799",
"$  c #087C087C087C",
"%  c #0A9B0A9B0A9B",
"&  c #0C430C430C43",
"*  c #0FDA0FDA0FDA",
"=  c #10C610C610C6",
"-  c #13C413C413C4",
";  c #173817381738",
":  c #18DA18DA18DA",
">  c #198719871987",
",  c #1ABA1ABA1ABA",
"<  c #1CCA1CCA1CCA",
"1  c #1F851F851F85",
"2  c #214D214D214D",
"3  c #224D224D224D",
"4  c #246224622462",
"5  c #26DE26DE26DE",
"6  c #293029302930",
"7  c #2AD92AD92AD9",
"8  c #2B312B312B31",
"9  c #2C6C2C6C2C6C",
"0  c #2E852E852E85",
"q  c #34D134D134D1",
"w  c #38A638A638A6",
"e  c #3B1E3B1E3B1E",
"r  c #3B483B483B48",
"t  c #3C773C773C77",
"y  c #3E163E163E16",
"u  c #3F143F143F14",
"i  c #404740474047",
"p  c #417741774177",
"a  c #440144014401",
"s  c #474A474A474A",
"d  c #496B496B496B",
"f  c #4FD24FD24FD2",
"g  c #50F050F050F0",
"h  c #52CF52CF52CF",
"j  c #537753775377",
"k  c #57D057D057D0",
"l  c #59DB59DB59DB",
"z  c #5AA55AA55AA5",
"x  c #635E635E635E",
"c  c #677F677F677F",
"v  c #6AB06AB06AB0",
"b  c #716A716A716A",
"n  c #720972097209",
"m  c #756675667566",
"M  c #7D237D237D23",
"N  c #819481948194",
"B  c #86B186B186B1",
"V  c #881B881B881B",
"C  c #88C688C688C6",
"Z  c #89F989F989F9",
"A  c #8C538C538C53",
"S  c #8D4B8D4B8D4B",
"D  c #8DAC8DAC8DAC",
"F  c #953E953E953E",
"G  c #97A097A097A0",
"H  c #996699669966",
"J  c #9AB59AB59AB5",
"K  c #9E639E639E63",
"L  c #A010A010A010",
"P  c #A599A599A599",
"I  c #A5C0A5C0A5C0",
"U  c #A8ADA8ADA8AD",
"Y  c #AB65AB65AB65",
"T  c #AD38AD38AD38",
"R  c #B1D3B1D3B1D3",
"E  c #B306B306B306",
"W  c #B565B565B565",
"Q  c #B7ACB7ACB7AC",
"!  c #BBB3BBB3BBB3",
"~  c #BC59BC59BC59",
"^  c #BEF5BEF5BEF5",
"/  c #C1D5C1D5C1D5",
"(  c #C335C335C335",
")  c #C69DC69DC69D",
"_  c #C83BC83BC83B",
"`  c #CAF0CAF0CAF0",
"'  c #CF61CF61CF61",
"]  c #CFFACFFACFFA",
"[  c #D108D108D108",
"{  c #D1D3D1D3D1D3",
"}  c #D456D456D456",
"|  c #D5DDD5DDD5DD",
" . c #DD52DD52DD52",
".. c #E06DE06DE06D",
"X. c #E152E152E152",
"o. c #EE9DEE9DEE9D",
"O. c #F624F624F624",
"+. c #F976F976F976",
"@. c #FAF6FAF6FAF6",
"#. c #FBB7FBB7FBB7",
"$. c gray100",
/* pixels */
"$.$.$.$.$.$.$.$.$.$.$.$.$.$.$.$.$.$.$.$.$.$.$.$.",
"$.$.$.$.$.$.$.$.$.$.$.$.$.$.$.$.$.$.$.$.$.$.$.$.",
"$.@.] / / / / / / / / _ ) / / / / / / ) / } @.$.",
"$...8               > H C 0               t o.$.",
"$...8                 f P ] N 2           t o.$.",
"$...8                   - h ! W t         t o.$.",
"$...8                       > C  .d       i o.$.",
"$...8           - t           O z ..x     i o.$.",
"$...8           e R q $         O Y ~ >   t o.$.",
"$...8           5 C  .F 8         > T P $ i o.$.",
"$...8               8 H | h         > ~ C s o.$.",
"$...0                 & v | z O       i ..m o.$.",
"$...8       < q $       O z } z O     O D H o.$.",
"$...8       s _ C <         v } i       2 v o.$.",
"$...8         5 L ) 0       O M } &       i o.$.",
"$...8           & v _ 8       > Y z       t o.$.",
"$...8             $ T D                   i o.$.",
"$...8   8 5 O       > _ h                 i o.$.",
"$...8   h R b O       t 2                 i o.$.",
"$...8     e ) j                           t o.$.",
"$...8       2 0                           i o.$.",
"$...8                                     t o.$.",
"$.O.R L L L P L L L L L P L L L P L L L P W @.$.",
"$.$.$.$.$.$.$.$.$.$.$.$.$.$.$.$.$.$.$.$.$.$.$.$."
};
