/* XPM */
static char *Discipline PRO[] = {
/* columns rows colors chars-per-pixel */
"24 24 131 2",
"   c #005A005A005A",
".  c #017401740174",
"X  c #025502550255",
"o  c #036503650365",
"O  c #046C046C046C",
"+  c #059C059C059C",
"@  c #069306930693",
"#  c #074207420742",
"$  c #087F087F087F",
"%  c #093209320932",
"&  c #0B6D0B6D0B6D",
"*  c #0CE00CE00CE0",
"=  c #0F0B0F0B0F0B",
"-  c #0FD80FD80FD8",
";  c #103D103D103D",
":  c #119A119A119A",
">  c #121F121F121F",
",  c #13FC13FC13FC",
"<  c #14BA14BA14BA",
"1  c #162B162B162B",
"2  c #180418041804",
"3  c #182918291829",
"4  c #1A931A931A93",
"5  c #1C191C191C19",
"6  c #1CF01CF01CF0",
"7  c #21D421D421D4",
"8  c #244D244D244D",
"9  c #266326632663",
"0  c #294129412941",
"q  c #2BD92BD92BD9",
"w  c #2DEF2DEF2DEF",
"e  c #2E882E882E88",
"r  c #34B334B334B3",
"t  c #35CF35CF35CF",
"y  c #3BBD3BBD3BBD",
"u  c #4ED64ED64ED6",
"i  c #4FFB4FFB4FFB",
"p  c #50F950F950F9",
"a  c #521652165216",
"s  c #52F652F652F6",
"d  c #538653865386",
"f  c #54E154E154E1",
"g  c #556F556F556F",
"h  c #56DB56DB56DB",
"j  c #59D959D959D9",
"k  c #5B9B5B9B5B9B",
"l  c #5EB65EB65EB6",
"z  c #61AF61AF61AF",
"x  c #630263026302",
"c  c #662766276627",
"v  c #67EC67EC67EC",
"b  c #6E4A6E4A6E4A",
"n  c #6E8A6E8A6E8A",
"m  c #721D721D721D",
"M  c #73C273C273C2",
"N  c #751775177517",
"B  c #760276027602",
"V  c #76EC76EC76EC",
"C  c #783978397839",
"Z  c #78D278D278D2",
"A  c #79F779F779F7",
"S  c #7AC67AC67AC6",
"D  c #7DB77DB77DB7",
"F  c #801680168016",
"G  c #80E680E680E6",
"H  c #849F849F849F",
"J  c #864286428642",
"K  c #86CB86CB86CB",
"L  c #885888588858",
"P  c #8CFA8CFA8CFA",
"I  c #8E1B8E1B8E1B",
"U  c #8FC98FC98FC9",
"Y  c #90C890C890C8",
"T  c #941594159415",
"R  c #951F951F951F",
"E  c #963296329632",
"W  c #969C969C969C",
"Q  c #9A249A249A24",
"!  c #9B179B179B17",
"~  c #9C0F9C0F9C0F",
"^  c #9D599D599D59",
"/  c #9E7E9E7E9E7E",
"(  c #9F069F069F06",
")  c #A066A066A066",
"_  c #A0F3A0F3A0F3",
"`  c #B16FB16FB16F",
"'  c #B261B261B261",
"]  c #B383B383B383",
"[  c #B52BB52BB52B",
"{  c #B71AB71AB71A",
"}  c #BD16BD16BD16",
"|  c #C106C106C106",
" . c #C478C478C478",
".. c #C4F1C4F1C4F1",
"X. c #C645C645C645",
"o. c #C998C998C998",
"O. c #CAB2CAB2CAB2",
"+. c #CB7CCB7CCB7C",
"@. c #CC68CC68CC68",
"#. c #CD72CD72CD72",
"$. c #CFEECFEECFEE",
"%. c #D1E4D1E4D1E4",
"&. c #D372D372D372",
"*. c #D454D454D454",
"=. c #D52BD52BD52B",
"-. c #D915D915D915",
";. c #DED1DED1DED1",
":. c #DF8DDF8DDF8D",
">. c #E1DCE1DCE1DC",
",. c #E223E223E223",
"<. c #E3FAE3FAE3FA",
"1. c #E4FEE4FEE4FE",
"2. c #E752E752E752",
"3. c #E851E851E851",
"4. c #EA48EA48EA48",
"5. c #F081F081F081",
"6. c #F156F156F156",
"7. c #F258F258F258",
"8. c #F496F496F496",
"9. c #F585F585F585",
"0. c #F696F696F696",
"q. c #F7BFF7BFF7BF",
"w. c #F856F856F856",
"e. c #F947F947F947",
"r. c #FAB1FAB1FAB1",
"t. c #FB7DFB7DFB7D",
"y. c #FC7EFC7EFC7E",
"u. c #FD7BFD7BFD7B",
"i. c #FE81FE81FE81",
"p. c #FF7DFF7DFF7D",
"a. c gray100",
/* pixels */
"a.a.a.a.a.a.a.a.a.a.a.a.a.a.a.a.a.a.a.a.a.a.a.a.",
"a.@./ Q Q / / Q T P / _ / Q / _ / / / / Q H  .r.",
"a.N X X X O X O 7 x M = X X X X O O O X X O N a.",
"a.Z O X X X q P 2.a. .: O X X 1 b 9 O X O X N a.",
"a.N X X O d &.r.a.a. .: X X X 3 +.&.h O X X N r.",
"a.N X X x 2.r.a.a.a. .: X X X 3 @.r.2.d X X N a.",
"a.M O w :.a.a.a.a.a. .= X X X 7 =.a.r.<.w X Z a.",
"r.Z % ' a.a.a.a.a.a.| = X X X w 5.a.a.a.' % N a.",
"a.N r 9.a.a.a.a.a.a. .= X X X y r.r.a.r.7.r N a.",
"a.N F a.a.a.a.a.a.a. .= X X X c a.r.a.a.a.H Z a.",
"a.F ] a.r.a.a.a.a.a. .: X X X Q r.a.a.r.a.' Z a.",
"a.P  .a.a.a.a.a.a.a. .: X X 6 @.r.a.a.a.a.+.T r.",
"a.T +.r.a.a.a.a.a.a. .: O O k 9.a.a.a.a.a.@.R a.",
"a.H } a.r.a.a.a.a.a. .: O 3 +.a.r.a.a.r.a.| H r.",
"a.Z R a.r.a.a.a.a.a.| : = R r.a.r.a.a.a.a./ Z a.",
"a.Z d 9.a.r.a.a.a.a.} w N 7.a.a.a.a.r.a.9.d Z r.",
"a.N 1 &.a.a.a.a.r.a.<.+.9.r.a.a.r.a.r.9.@.1 Z a.",
"a.N O h 9.r.r.a.a.r.r.a.a.a.a.a.a.r.a.7.d % N a.",
"a.Z X O R 7.a.r.a.r.a.a.a.a.r.r.a.a.7.P % X Z r.",
"a.N O X 1 R 5.r.a.a.a.r.r.r.a.r.r.9.R 1 O X N r.",
"a.N X X X O k 2.a.a.a.r.a.a.a.r.:.c = X X O N a.",
"a.N X X X X % 3 b ] &.2.4.=.] b 3 O X X X X N a.",
"a./ d i d d d i d h M Z F M k d d i i u i d _ a.",
"r.r.a.r.a.a.r.a.a.a.a.a.a.a.a.a.a.a.a.a.a.r.9.r."
};
