/* XPM */
static char *Discipline AUS[] = {
/* columns rows colors chars-per-pixel */
"24 24 134 2",
"   c #005400540054",
".  c #017901790179",
"X  c #027002700270",
"o  c #037303730373",
"O  c #044B044B044B",
"+  c #059E059E059E",
"@  c #068D068D068D",
"#  c #07A707A707A7",
"$  c #098F098F098F",
"%  c #0A830A830A83",
"&  c #0B7D0B7D0B7D",
"*  c #0CF10CF10CF1",
"=  c #0F280F280F28",
"-  c #103410341034",
";  c #12AB12AB12AB",
":  c #158115811581",
">  c #1B361B361B36",
",  c #202420242024",
"<  c #24A524A524A5",
"1  c #254325432543",
"2  c #29C429C429C4",
"3  c #2FE42FE42FE4",
"4  c #305030503050",
"5  c #320132013201",
"6  c #326332633263",
"7  c #340734073407",
"8  c #345634563456",
"9  c #35E035E035E0",
"0  c #37B337B337B3",
"q  c #38B138B138B1",
"w  c #396A396A396A",
"e  c #3AFD3AFD3AFD",
"r  c #3BC63BC63BC6",
"t  c #3E0D3E0D3E0D",
"y  c #3EF33EF33EF3",
"u  c #3F633F633F63",
"i  c #407740774077",
"p  c #41B641B641B6",
"a  c #443E443E443E",
"s  c #463E463E463E",
"d  c #471347134713",
"f  c #49B549B549B5",
"g  c #4AF64AF64AF6",
"h  c #4D1C4D1C4D1C",
"j  c #50EF50EF50EF",
"k  c #533553355335",
"l  c #570657065706",
"z  c #59C759C759C7",
"x  c #5B4E5B4E5B4E",
"c  c #5CC15CC15CC1",
"v  c #5D9D5D9D5D9D",
"b  c #5ED75ED75ED7",
"n  c #5FBC5FBC5FBC",
"m  c #613961396139",
"M  c #641864186418",
"N  c #654E654E654E",
"B  c #677867786778",
"V  c #698F698F698F",
"C  c #6A9F6A9F6A9F",
"Z  c #6BB36BB36BB3",
"A  c #6D1E6D1E6D1E",
"S  c #713C713C713C",
"D  c #72A172A172A1",
"F  c #743674367436",
"G  c #760E760E760E",
"H  c #772977297729",
"J  c #77E477E477E4",
"K  c #799079907990",
"L  c #7CF97CF97CF9",
"P  c #7FC57FC57FC5",
"I  c #80EB80EB80EB",
"U  c #825C825C825C",
"Y  c #82D982D982D9",
"T  c #84C484C484C4",
"R  c #8B1D8B1D8B1D",
"E  c #8D608D608D60",
"W  c #903790379037",
"Q  c #90F090F090F0",
"!  c #994499449944",
"~  c #9D209D209D20",
"^  c #9DA39DA39DA3",
"/  c #A012A012A012",
"(  c #A18CA18CA18C",
")  c #A25EA25EA25E",
"_  c #A326A326A326",
"`  c #A5EDA5EDA5ED",
"'  c #AA53AA53AA53",
"]  c #AB78AB78AB78",
"[  c #AD98AD98AD98",
"{  c #AE63AE63AE63",
"}  c #AFD9AFD9AFD9",
"|  c #B0F8B0F8B0F8",
" . c #B5FBB5FBB5FB",
".. c #B7F7B7F7B7F7",
"X. c #B8CDB8CDB8CD",
"o. c #BFBDBFBDBFBD",
"O. c #C010C010C010",
"+. c #C437C437C437",
"@. c #C51FC51FC51F",
"#. c #C84AC84AC84A",
"$. c #CB4ECB4ECB4E",
"%. c #CC5BCC5BCC5B",
"&. c #CD1BCD1BCD1B",
"*. c #CF76CF76CF76",
"=. c #D67BD67BD67B",
"-. c #D716D716D716",
";. c #DAC9DAC9DAC9",
":. c #DF31DF31DF31",
">. c #E058E058E058",
",. c #E409E409E409",
"<. c #E5A5E5A5E5A5",
"1. c #E6DBE6DBE6DB",
"2. c #E774E774E774",
"3. c #E879E879E879",
"4. c #EB17EB17EB17",
"5. c #EC07EC07EC07",
"6. c #ECFFECFFECFF",
"7. c #EE76EE76EE76",
"8. c #EF61EF61EF61",
"9. c #F0EAF0EAF0EA",
"0. c #F2C8F2C8F2C8",
"q. c #F36DF36DF36D",
"w. c #F453F453F453",
"e. c #F624F624F624",
"r. c #F709F709F709",
"t. c #F88CF88CF88C",
"y. c #F9ABF9ABF9AB",
"u. c #FA81FA81FA81",
"i. c #FB79FB79FB79",
"p. c #FC95FC95FC95",
"a. c #FD96FD96FD96",
"s. c #FE68FE68FE68",
"d. c #FF93FF93FF93",
"f. c gray100",
/* pixels */
"d.u.d.d.d.d.d.d.d.d.d.d.d.d.d.d.d.d.d.d.u.d.d.u.",
"d.$.I I I P I I I I I I I I I I I I I H H P { d.",
"d.( . . . . . . . . . . . . . . . . . . . . v d.",
"d.( . . . . . + . . . . . . . . . . . . . . v d.",
"d.( . . . . . . . . . . . . . . . . . . . . v d.",
"d.( . . . . . . . . . : N H w + . . . . . . v d.",
"d.( . . . . . * 6 * H 9.d.4.6.O.f . . . . . v d.",
"d.( + . + . - ^ d A e.u.u.&.6 K -.d . . + . z d.",
"d._ + + + - _ $.9 &.d.d.u.e.d % R { . . . . v d.",
"d.( . . - ! d.' y 9.u.d.u.4.9 . 6 e.+ p + . z d.",
"d.( . % K u.d.^ p u.<.6.4.H % . 1 u.% O.w . z d.",
"d.( . d 4.u.u.+.9 ;.E 6 > + . . N +.> 6.{ * v d.",
"d.( . p <.u.u.6.y I <.j . + . 9 -.j N e.X.- z d.",
"d.( . + C u.u.d.} 1 Q 4. .P { >.H 1 ,.>.w . v u.",
"d.( . % % I u.d.e.( 2 f ^  .E y 9 $.6.z + + m d.",
"d.( . . . % Q 9.d.9.&.I p 3 h I ,.9.C + . . v d.",
"d.( . . . . % S ,.u.e.d.u.d.d.d.<.S . + . . v d.",
"d.( . . . . . . y { u.d.u.d.u. .y . + + . . v d.",
"d.( . . . . + + . . > l A v 1 . . . . . . . v d.",
"d.( . . . . . . . . . . . . . . . . . . . . v d.",
"d.( . . . . . . . . . . . . . . . . . . . + v d.",
"u.( . . . . . . . . . . . . . . . . . . + . v u.",
"d.-.( _ _ ( ( ( ( _ _ ( ( ( ( ( ( ( ( ( ( ( +.d.",
"d.d.d.d.d.d.d.d.d.d.d.d.d.d.d.d.d.d.d.d.d.d.u.d."
};
