/* XPM */
static char *Discipline MYT[] = {
/* columns rows colors chars-per-pixel */
"24 24 111 2",
"   c #000300030003",
".  c #01CE01CE01CE",
"X  c #02AA02AA02AA",
"o  c #03C903C903C9",
"O  c #060506050605",
"+  c #07BD07BD07BD",
"@  c #083908390839",
"#  c #095E095E095E",
"$  c #0AAF0AAF0AAF",
"%  c #0B630B630B63",
"&  c #10D810D810D8",
"*  c #11CD11CD11CD",
"=  c #12AE12AE12AE",
"-  c #14C514C514C5",
";  c #15EA15EA15EA",
":  c #168B168B168B",
">  c #18FF18FF18FF",
",  c #1B011B011B01",
"<  c #1BA61BA61BA6",
"1  c #202620262026",
"2  c #24FB24FB24FB",
"3  c #2B312B312B31",
"4  c #334633463346",
"5  c #345334533453",
"6  c #391539153915",
"7  c #3CC43CC43CC4",
"8  c #3F133F133F13",
"9  c #523F523F523F",
"0  c #52F352F352F3",
"q  c #539753975397",
"w  c #555055505550",
"e  c #5C865C865C86",
"r  c #62A362A362A3",
"t  c #695169516951",
"y  c #6A196A196A19",
"u  c #6A976A976A97",
"i  c #6EF66EF66EF6",
"p  c #724072407240",
"a  c #72F472F472F4",
"s  c #762D762D762D",
"d  c #77FA77FA77FA",
"f  c #795079507950",
"g  c #7A497A497A49",
"h  c #7E8C7E8C7E8C",
"j  c #7FD27FD27FD2",
"k  c #846E846E846E",
"l  c #85A085A085A0",
"z  c #879A879A879A",
"x  c #89A489A489A4",
"c  c #8B708B708B70",
"v  c #8BF48BF48BF4",
"b  c #8D388D388D38",
"n  c #8EE98EE98EE9",
"m  c #90A390A390A3",
"M  c #923092309230",
"N  c #935A935A935A",
"B  c #953F953F953F",
"V  c #9CDE9CDE9CDE",
"C  c #9DE19DE19DE1",
"Z  c #A010A010A010",
"A  c #A0D1A0D1A0D1",
"S  c #A1CDA1CDA1CD",
"D  c #A344A344A344",
"F  c #A589A589A589",
"G  c #A86EA86EA86E",
"H  c #A8F0A8F0A8F0",
"J  c #ABA6ABA6ABA6",
"K  c #AC83AC83AC83",
"L  c #AF17AF17AF17",
"P  c #B0EBB0EBB0EB",
"I  c #B1CAB1CAB1CA",
"U  c #B306B306B306",
"Y  c #B66DB66DB66D",
"T  c #B74AB74AB74A",
"R  c #B7C2B7C2B7C2",
"E  c #BA5CBA5CBA5C",
"W  c #BCD1BCD1BCD1",
"Q  c #BE40BE40BE40",
"!  c #BF4ABF4ABF4A",
"~  c #C1C7C1C7C1C7",
"^  c #C343C343C343",
"/  c #C3C7C3C7C3C7",
"(  c #C53AC53AC53A",
")  c #C83CC83CC83C",
"_  c #C948C948C948",
"`  c #CD59CD59CD59",
"'  c #CE7ACE7ACE7A",
"]  c #D000D000D000",
"[  c #D170D170D170",
"{  c #D33AD33AD33A",
"}  c #D42CD42CD42C",
"|  c #D6BCD6BCD6BC",
" . c #DB58DB58DB58",
".. c #DD37DD37DD37",
"X. c #DEAEDEAEDEAE",
"o. c #E069E069E069",
"O. c #E819E819E819",
"+. c #E92FE92FE92F",
"@. c #EB6AEB6AEB6A",
"#. c #ED9EED9EED9E",
"$. c #EE9DEE9DEE9D",
"%. c #EF51EF51EF51",
"&. c #F35BF35BF35B",
"*. c #F624F624F624",
"=. c #F976F976F976",
"-. c #FAF6FAF6FAF6",
";. c #FBC3FBC3FBC3",
":. c #FD5BFD5BFD5B",
">. c #FE8BFE8BFE8B",
",. c #FF43FF43FF43",
"<. c gray100",
/* pixels */
"<.<.<.<.<.<.<.<.<.<.<.<.<.<.<.<.<.<.<.<.<.<.<.<.",
"<.<.<.<.<.<.<.<.<.<.<.<.<.<.<.<.<.<.<.<.<.<.<.<.",
"<.-.] ~ ~ ~ ~ ~ ~ ~ ~ ~ ~ ~ ~ ~ ~ ~ ~ ~ ~ ] <.<.",
"<.o.3                                     7 @.<.",
"<.o.3                                     7 @.<.",
"<.o.3   r z z z z z z z z z z z z z z g O 7 &.<.",
"<.o.3   E <.<.<.<.<.<.&.O.<.<.<.<.<.<.X.  9 @.<.",
"<.o.3   6 X.<.<.&.| H @.O.T ] &.<.<.@.w   5 @.<.",
"<.o.3     n <.<.~ D T ] ] I E Q <.<.L :   7 &.<.",
"<.o.3     $ V @.k ( z v g a ] p X.Q >     7 @.<.",
"<.o.3       $ M D  .~ h e T @.M B :       5 @.<.",
"<.o.3         7 _ z ( C H ] n | 9         9 @.<.",
"<.o.3         > v M ] B n ] v C 4         5 @.<.",
"<.o.3           u T ( Q ~ ] S v $         9 @.<.",
"<.o.3           * 9 L g a B u <           7 &.<.",
"<.o.3             $ I a p I :             9 @.<.",
"<.o.3             $ O.<.<.<.:             5 @.<.",
"<.o.3             $ @.<.<.<.4             9 @.<.",
"<.o.3             * <.<.<.<.4             5 @.<.",
"<.o.3           % 9 <.<.<.<.t *           9 @.<.",
"<.o.3         < p D E T T T H a 2         9 O.-.",
"<.o.3           $ O $ O O $ $ $           7 O.<.",
"<.*.I S C S S S C S S C C S S C S S S C C T -.<.",
"<.<.<.<.<.<.<.<.<.<.<.<.<.<.<.<.<.<.<.<.<.<.<.<."
};
