/* XPM */
static char *Discipline DAI[] = {
/* columns rows colors chars-per-pixel */
"24 24 79 1",
"  c #000200020002",
". c #019301930193",
"X c #029D029D029D",
"o c #03DF03DF03DF",
"O c #041D041D041D",
"+ c #098109810981",
"@ c #0AD60AD60AD6",
"# c #0EB60EB60EB6",
"$ c #129112911291",
"% c #14A014A014A0",
"& c #152315231523",
"* c #16D516D516D5",
"= c #17A417A417A4",
"- c #1BFB1BFB1BFB",
"; c #1CCC1CCC1CCC",
": c #1D731D731D73",
"> c #1EC11EC11EC1",
", c #210121012101",
"< c #219221922192",
"1 c #22AA22AA22AA",
"2 c #266526652665",
"3 c #281B281B281B",
"4 c #313431343134",
"5 c #345A345A345A",
"6 c #354B354B354B",
"7 c #383238323832",
"8 c #3B223B223B22",
"9 c #3E003E003E00",
"0 c #40F040F040F0",
"q c #4B964B964B96",
"w c #55D355D355D3",
"e c #57AF57AF57AF",
"r c #58E058E058E0",
"t c #59B559B559B5",
"y c #5B075B075B07",
"u c #681F681F681F",
"i c #6D996D996D99",
"p c #6F5B6F5B6F5B",
"a c #74BC74BC74BC",
"s c #757875787578",
"d c #76EA76EA76EA",
"f c #8B258B258B25",
"g c #8EE38EE38EE3",
"h c #934893489348",
"j c #950295029502",
"k c #969D969D969D",
"l c #9B259B259B25",
"z c #A3FAA3FAA3FA",
"x c #A668A668A668",
"c c #AB83AB83AB83",
"v c #B131B131B131",
"b c #B1E3B1E3B1E3",
"n c #B301B301B301",
"m c #B665B665B665",
"M c #B93DB93DB93D",
"N c #BA79BA79BA79",
"B c #C15DC15DC15D",
"V c #C1C8C1C8C1C8",
"C c #C30CC30CC30C",
"Z c #CC50CC50CC50",
"A c #CD77CD77CD77",
"S c #CDF0CDF0CDF0",
"D c #CEDECEDECEDE",
"F c #D000D000D000",
"G c #D41BD41BD41B",
"H c #D53FD53FD53F",
"J c #D773D773D773",
"K c #DCFBDCFBDCFB",
"L c #DE35DE35DE35",
"P c #DF30DF30DF30",
"I c #E41DE41DE41D",
"U c #E5BFE5BFE5BF",
"Y c #F383F383F383",
"T c #F45CF45CF45C",
"R c #F5E1F5E1F5E1",
"E c #F62EF62EF62E",
"W c #F875F875F875",
"Q c #FB8BFB8BFB8B",
"! c gray100",
/* pixels */
"!!!!!!!!!!!!!!!!!!!!!!!!",
"!!!!!!!!!!!!!!!!!!!!!!!!",
"!QIPPPPPPPPPPPPPPPPPPIQ!",
"!P3   @O        O@   2P!",
"!P3  ,My   46  OeM;  2K!",
"!P3 OaYx= ,FF, =zWe  2K!",
"!P2  =H8  ;lM;  8H=  2K!",
"!P2  =H8   ij   6H-  2K!",
"!P3  =H0   ij   9H-  2K!",
"!P3  =Gj4  ij  ;hH=  2K!",
"!P3  @gYId,ij;aGWc$  2P!",
"!P3   @ynIGCIFIny#   2K!",
"!K2     =enYWny=     2K!",
"!P2       $fn$       2K!",
"!P3        ij        2K!",
"!P3        ij        2P!",
"!P3        ij        2P!",
"!P3        ij        2K!",
"!P2        ij        2K!",
"!P2        ij        2K!",
"!P2        ij        2P!",
"!P3        qu        2K!",
"!WCmmmmmmmmMMmmmmmmmmNW!",
"!!!!!!!!!!!!!!!!!!!!!!!!"
};
