/* XPM */
static char *Discipline POT[] = {
/* columns rows colors chars-per-pixel */
"24 24 125 2",
"   c #006C006C006C",
".  c #01A701A701A7",
"X  c #026C026C026C",
"o  c #033F033F033F",
"O  c #047704770477",
"+  c #05A105A105A1",
"@  c #06C206C206C2",
"#  c #078107810781",
"$  c #083708370837",
"%  c #093D093D093D",
"&  c #0A170A170A17",
"*  c #0E050E050E05",
"=  c #155D155D155D",
"-  c #16CC16CC16CC",
";  c #177D177D177D",
":  c #188818881888",
">  c #1B641B641B64",
",  c #1C4A1C4A1C4A",
"<  c #208D208D208D",
"1  c #231223122312",
"2  c #242324232423",
"3  c #24FF24FF24FF",
"4  c #270827082708",
"5  c #275B275B275B",
"6  c #284028402840",
"7  c #2ACC2ACC2ACC",
"8  c #2CE52CE52CE5",
"9  c #2D952D952D95",
"0  c #302330233023",
"q  c #361636163616",
"w  c #38D638D638D6",
"e  c #3C0C3C0C3C0C",
"r  c #3D273D273D27",
"t  c #410241024102",
"y  c #48BC48BC48BC",
"u  c #4B0A4B0A4B0A",
"i  c #4CDB4CDB4CDB",
"p  c #4F424F424F42",
"a  c #503E503E503E",
"s  c #50BE50BE50BE",
"d  c #51DB51DB51DB",
"f  c #52BB52BB52BB",
"g  c #53C853C853C8",
"h  c #547754775477",
"j  c #572C572C572C",
"k  c #5C0E5C0E5C0E",
"l  c #614861486148",
"z  c #61A561A561A5",
"x  c #633163316331",
"c  c #664B664B664B",
"v  c #699A699A699A",
"b  c #6BCC6BCC6BCC",
"n  c #6DF86DF86DF8",
"m  c #702070207020",
"M  c #742974297429",
"N  c #74F574F574F5",
"B  c #764576457645",
"V  c #76EB76EB76EB",
"C  c #77CA77CA77CA",
"Z  c #78E478E478E4",
"A  c #7B487B487B48",
"S  c #7C757C757C75",
"D  c #84A384A384A3",
"F  c #867D867D867D",
"G  c #869586958695",
"H  c #89FC89FC89FC",
"J  c #8CE88CE88CE8",
"K  c #8E7C8E7C8E7C",
"L  c #8EC28EC28EC2",
"P  c #91E691E691E6",
"I  c #92D392D392D3",
"U  c #93B393B393B3",
"Y  c #971F971F971F",
"T  c #98A898A898A8",
"R  c #9B209B209B20",
"E  c #9BDB9BDB9BDB",
"W  c #9D419D419D41",
"Q  c #A0EEA0EEA0EE",
"!  c #A219A219A219",
"~  c #A2D6A2D6A2D6",
"^  c #A95AA95AA95A",
"/  c #AC5EAC5EAC5E",
"(  c #ACDCACDCACDC",
")  c #B11BB11BB11B",
"_  c #B23CB23CB23C",
"`  c #B49DB49DB49D",
"'  c #B974B974B974",
"]  c #BA8ABA8ABA8A",
"[  c #BE3BBE3BBE3B",
"{  c #BF3ABF3ABF3A",
"}  c #BFEEBFEEBFEE",
"|  c #C201C201C201",
" . c #C39AC39AC39A",
".. c #C3ECC3ECC3EC",
"X. c #C675C675C675",
"o. c #CABFCABFCABF",
"O. c #CB66CB66CB66",
"+. c #CC69CC69CC69",
"@. c #CDA9CDA9CDA9",
"#. c #CF2CCF2CCF2C",
"$. c #D470D470D470",
"%. c #D616D616D616",
"&. c #D755D755D755",
"*. c #D8D5D8D5D8D5",
"=. c #DC09DC09DC09",
"-. c #DD25DD25DD25",
";. c #E196E196E196",
":. c #E4CDE4CDE4CD",
">. c #E5C0E5C0E5C0",
",. c #E640E640E640",
"<. c #E77DE77DE77D",
"1. c #E80DE80DE80D",
"2. c #EBC9EBC9EBC9",
"3. c #ECDBECDBECDB",
"4. c #EDB7EDB7EDB7",
"5. c #F575F575F575",
"6. c #F89CF89CF89C",
"7. c #F98AF98AF98A",
"8. c #FA60FA60FA60",
"9. c #FBACFBACFBAC",
"0. c #FC9EFC9EFC9E",
"q. c #FD9BFD9BFD9B",
"w. c #FE6DFE6DFE6D",
"e. c #FF70FF70FF70",
"r. c gray100",
/* pixels */
"r.r.r.r.r.r.r.r.r.r.r.r.r.r.r.r.r.r.r.r.r.r.r.r.",
"r.W f f h h f f f f f f f f f a f h f a f f G 8.",
"r.Z . . . . O . . . . O O O . . O . . . . . h r.",
"r.C O . . . . O . . O O . - - . O O O . O . h r.",
"r.M . . . * , & 1 P W 9 x =.=.h q x 9 . . . a r.",
"r.C . . : W @.H R 5.r.+.%.r.r.%.=.8.[ : . . f r.",
"r.C . . a 8.r.8.r.r.r.8.r.8.8.r.r.r.4.r . . a r.",
"r.M . . h 8.r.r.8.8.8.r.r.8.r.8.r.r.4.w . . a r.",
"r.C . . w >.r.r.r.r.r.r.8.r.8.r.8.8.;.0 . . f r.",
"8.C . . 1 %.r.;.>.r.r.5.8.r.r.=.r.8.=.4 . . a r.",
"r.C . . : +.r.[ / r.r._ +.8.8.n >.8.%.1 . . a r.",
"r.C . . O [ r.+.K r.8.W X.r.r.x 2.8.+.- . . a r.",
"r.M . . . W r.+.n r.r.P X.8.5.x 8.r.+.- . . a r.",
"r.C . . . G r.+.f 5.r.S [ r.>.k r.r.[ & . . f r.",
"r.C . . . v r.=.u >.r.v _ r.;.c 8.8.' . . . a r.",
"8.C . . . r | Y q / #.h K _ K u / / Z . . . a r.",
"r.C . . . . O O O O & : x P R R R Y , . . . a r.",
"r.C . . . . O O . . O P 8.8.r.r.r.8.4 . . . f r.",
"r.M . . . . O . . . & P 8.r.r.r.r.8.4 . . . a r.",
"r.C . . . . . . O . . 7 G [ [ [ [ [ : . . . a r.",
"r.C . . . . . . . . . . . . . . . . . . . . a 8.",
"r.Z . . . . . . . . . . . . . . . . . . . . f r.",
"8.' C M C C C C C C C C C C C C C C C M C M W r.",
"8.r.8.r.8.r.r.r.r.r.r.r.r.r.r.r.r.r.r.8.r.r.r.8."
};
