/* XPM */
static char *Type Reaction[] = {
/* columns rows colors chars-per-pixel */
"24 24 154 2",
"   c #008900890089",
".  c #018301830183",
"X  c #026502650265",
"o  c #037403740374",
"O  c #047904790479",
"+  c #057E057E057E",
"@  c #068C068C068C",
"#  c #079507950795",
"$  c #08AC08AC08AC",
"%  c #098309830983",
"&  c #0A630A630A63",
"*  c #0BA20BA20BA2",
"=  c #0CF60CF60CF6",
"-  c #0DDF0DDF0DDF",
";  c #0E4C0E4C0E4C",
":  c #0F790F790F79",
">  c #108010801080",
",  c #120A120A120A",
"<  c #12D812D812D8",
"1  c #13E213E213E2",
"2  c #148414841484",
"3  c #15BE15BE15BE",
"4  c #2AF22AF22AF2",
"5  c #2D622D622D62",
"6  c #2E542E542E54",
"7  c #2F7D2F7D2F7D",
"8  c #321D321D321D",
"9  c #328532853285",
"0  c #348134813481",
"q  c #35B735B735B7",
"w  c #36A236A236A2",
"e  c #37B837B837B8",
"r  c #3C9B3C9B3C9B",
"t  c #3F3F3F3F3F3F",
"y  c #404440444044",
"u  c #422F422F422F",
"i  c #432343234323",
"p  c #440644064406",
"a  c #452145214521",
"s  c #455845584558",
"d  c #467346734673",
"f  c #47D347D347D3",
"g  c #4B3E4B3E4B3E",
"h  c #4C0A4C0A4C0A",
"j  c #4DFB4DFB4DFB",
"k  c #4FFF4FFF4FFF",
"l  c #50F850F850F8",
"z  c #521152115211",
"x  c #553755375537",
"c  c #569156915691",
"v  c #582358235823",
"b  c #5A305A305A30",
"n  c #5BCC5BCC5BCC",
"m  c #5D635D635D63",
"M  c #603660366036",
"N  c #635863586358",
"B  c #650165016501",
"V  c #667366736673",
"C  c #684868486848",
"Z  c #691F691F691F",
"A  c #6B096B096B09",
"S  c #6BF56BF56BF5",
"D  c #6E526E526E52",
"F  c #71BB71BB71BB",
"G  c #72EF72EF72EF",
"H  c #750375037503",
"J  c #75F375F375F3",
"K  c #76BC76BC76BC",
"L  c #7B6F7B6F7B6F",
"P  c #7F7D7F7D7F7D",
"I  c #810781078107",
"U  c #84F984F984F9",
"Y  c #871287128712",
"T  c #87EE87EE87EE",
"R  c #88EB88EB88EB",
"E  c #8A2D8A2D8A2D",
"W  c #8B1B8B1B8B1B",
"Q  c #8C108C108C10",
"!  c #8D088D088D08",
"~  c #8DE48DE48DE4",
"^  c #8EE58EE58EE5",
"/  c #90CE90CE90CE",
"(  c #932493249324",
")  c #958A958A958A",
"_  c #98B898B898B8",
"`  c #9BC79BC79BC7",
"'  c #9D4E9D4E9D4E",
"]  c #9EF99EF99EF9",
"[  c #A049A049A049",
"{  c #A0EDA0EDA0ED",
"}  c #A445A445A445",
"|  c #A53BA53BA53B",
" . c #A629A629A629",
".. c #A70AA70AA70A",
"X. c #A7E9A7E9A7E9",
"o. c #A92BA92BA92B",
"O. c #AA22AA22AA22",
"+. c #AB12AB12AB12",
"@. c #AC0FAC0FAC0F",
"#. c #AD72AD72AD72",
"$. c #AEF4AEF4AEF4",
"%. c #AFE0AFE0AFE0",
"&. c #B0C5B0C5B0C5",
"*. c #B272B272B272",
"=. c #B4E5B4E5B4E5",
"-. c #B6D8B6D8B6D8",
";. c #B93EB93EB93E",
":. c #BD99BD99BD99",
">. c #BE85BE85BE85",
",. c #BFB7BFB7BFB7",
"<. c #C03EC03EC03E",
"1. c #C0C6C0C6C0C6",
"2. c #C3B4C3B4C3B4",
"3. c #C59FC59FC59F",
"4. c #C723C723C723",
"5. c #C8EAC8EAC8EA",
"6. c #CA95CA95CA95",
"7. c #CB4FCB4FCB4F",
"8. c #CD92CD92CD92",
"9. c #CF3ACF3ACF3A",
"0. c #D272D272D272",
"q. c #D39CD39CD39C",
"w. c #D8F8D8F8D8F8",
"e. c #DA7BDA7BDA7B",
"r. c #DC44DC44DC44",
"t. c #DD33DD33DD33",
"y. c #E023E023E023",
"u. c #E24DE24DE24D",
"i. c #E2F5E2F5E2F5",
"p. c #E478E478E478",
"a. c #E536E536E536",
"s. c #E621E621E621",
"d. c #E77BE77BE77B",
"f. c #E864E864E864",
"g. c #EAFBEAFBEAFB",
"h. c #ECD0ECD0ECD0",
"j. c #ED94ED94ED94",
"k. c #EE6AEE6AEE6A",
"l. c #EF01EF01EF01",
"z. c #F102F102F102",
"x. c #F2A5F2A5F2A5",
"c. c #F330F330F330",
"v. c #F471F471F471",
"b. c #F64AF64AF64A",
"n. c #F758F758F758",
"m. c #F84DF84DF84D",
"M. c #F9A5F9A5F9A5",
"N. c #FA40FA40FA40",
"B. c #FB6FFB6FFB6F",
"V. c #FC7AFC7AFC7A",
"C. c #FD88FD88FD88",
"Z. c #FE5FFE5FFE5F",
"A. c #FF39FF39FF39",
"S. c gray100",
/* pixels */
"e.+.....+.....+.+...+.#.+...+.+.+.+...#.+.+.+.e.",
"^ $ # # $ $ $ , d P #.;.5.#.L u : $ $ $ # # $ ( ",
"R X X X X # j =.i.j.V.V.V.V.V.j.1.j # X X X X R ",
"R X X X 2 Y j.g.D 8.V.V.V.V.V.V.V.j.R 2 X X X R ",
"^ X X , [ M.l.n 2 5.V.V.V.V.V.V.V.V.V.] , X X ^ ",
"Y X # I V.b.c # $ n K D L K K I ] i.M.V.Y # # R ",
"R X g g.j.b X X $ X X X X X X X # : P j.j.j X R ",
"R $ &.p.b $ X X # X X X X X X X X # # k i.=.: R ",
"R 0 p.R # # X X X # X X X # X X X X X # D p.e ^ ",
"^ A V.e.d # X # X X X X X X X X X X X X 2 1.D R ",
"^ ) V.V.e.u X # X : $ : : : $ # X X X # # K ] Y ",
"^ #.V.V.V.p.0 # , ` 3.3.3.:.#.d X X X X X e :.^ ",
"R #.V.V.V.V.p.u 2 8.V.V.V.V.V.3.X X X X X 8 :.^ ",
"^ ^ V.V.V.V.V.y.k 5.V.V.V.V.b.) X X X X X 0 ` R ",
"^ N V.V.V.V.V.M.p.y.K k g k d 2 X X X X X B A R ",
"R 6 p.V.V.V.V.V.M.g.6 X X X X X X X X X : ] 8 R ",
"R # ..V.M.V.V.V.V.g.6 X X X X X X X X # k ] $ ^ ",
"R X t i.V.V.V.V.V.p.6 X X X X X X X X 0 8.u X ^ ",
"^ # X A M.M.V.V.V.g.6 X X X X X # : A j.D X X R ",
"Y X X : Y b.V.V.V.p.A d e d d c P 8.l.Y $ X X R ",
"Y # X X , A p.V.V.V.l.b.j.l.b.M.V.p.K $ X X X R ",
"R X X X X # e [ i.b.V.V.V.M.M.e.+.t X X X X X R ",
"^ $ $ # $ $ $ : 8 N ( ..+.( N 8 $ $ $ # # $ $ ( ",
"0.+.+...+...[ +.[ ............+...+.+.+.+...+.0."
};
