/* XPM */
static char *Type Combat[] = {
/* columns rows colors chars-per-pixel */
"24 24 160 2",
"   c #007100710071",
".  c #017701770177",
"X  c #026E026E026E",
"o  c #037C037C037C",
"O  c #047604760476",
"+  c #054005400540",
"@  c #067A067A067A",
"#  c #077407740774",
"$  c #084C084C084C",
"%  c #098D098D098D",
"&  c #0A5A0A5A0A5A",
"*  c #0BBB0BBB0BBB",
"=  c #0C0D0C0D0C0D",
"-  c #101A101A101A",
";  c #126E126E126E",
":  c #141F141F141F",
">  c #15B115B115B1",
",  c #16B216B216B2",
"<  c #179017901790",
"1  c #188B188B188B",
"2  c #1A0D1A0D1A0D",
"3  c #1BC31BC31BC3",
"4  c #1CC91CC91CC9",
"5  c #1D361D361D36",
"6  c #1E801E801E80",
"7  c #1F5D1F5D1F5D",
"8  c #208A208A208A",
"9  c #225722572257",
"0  c #23A223A223A2",
"q  c #258B258B258B",
"w  c #26F626F626F6",
"e  c #296229622962",
"r  c #2ABC2ABC2ABC",
"t  c #2CB82CB82CB8",
"y  c #2DCD2DCD2DCD",
"u  c #2FF62FF62FF6",
"i  c #318631863186",
"p  c #328D328D328D",
"a  c #338633863386",
"s  c #37E137E137E1",
"d  c #390639063906",
"f  c #398839883988",
"g  c #3C2B3C2B3C2B",
"h  c #3C3E3C3E3C3E",
"j  c #3DFA3DFA3DFA",
"k  c #3EC43EC43EC4",
"l  c #44D444D444D4",
"z  c #47CD47CD47CD",
"x  c #4E214E214E21",
"c  c #513A513A513A",
"v  c #523B523B523B",
"b  c #527C527C527C",
"n  c #538A538A538A",
"m  c #547E547E547E",
"M  c #55DF55DF55DF",
"N  c #580158015801",
"B  c #587E587E587E",
"V  c #5BBB5BBB5BBB",
"C  c #5E8F5E8F5E8F",
"Z  c #62B162B162B1",
"A  c #652965296529",
"S  c #65DA65DA65DA",
"D  c #674B674B674B",
"F  c #68F268F268F2",
"G  c #69EB69EB69EB",
"H  c #6B7A6B7A6B7A",
"J  c #6DD96DD96DD9",
"K  c #6F346F346F34",
"L  c #700A700A700A",
"P  c #740774077407",
"I  c #74C974C974C9",
"U  c #769E769E769E",
"Y  c #7C547C547C54",
"T  c #7E477E477E47",
"R  c #7F067F067F06",
"E  c #7FBA7FBA7FBA",
"W  c #826082608260",
"Q  c #82D082D082D0",
"!  c #838783878387",
"~  c #8AD28AD28AD2",
"^  c #8BA28BA28BA2",
"/  c #8D548D548D54",
"(  c #8E5B8E5B8E5B",
")  c #906E906E906E",
"_  c #972197219721",
"`  c #980198019801",
"'  c #99FB99FB99FB",
"]  c #9D7F9D7F9D7F",
"[  c #9FE79FE79FE7",
"{  c #A16EA16EA16E",
"}  c #A52EA52EA52E",
"|  c #A717A717A717",
" . c #A8CEA8CEA8CE",
".. c #AA32AA32AA32",
"X. c #AB10AB10AB10",
"o. c #AC7DAC7DAC7D",
"O. c #AD8FAD8FAD8F",
"+. c #ADF5ADF5ADF5",
"@. c #AF3EAF3EAF3E",
"#. c #AFD3AFD3AFD3",
"$. c #B14AB14AB14A",
"%. c #B393B393B393",
"&. c #B40DB40DB40D",
"*. c #B6D8B6D8B6D8",
"=. c #BB5BBB5BBB5B",
"-. c #BCF8BCF8BCF8",
";. c #BEA9BEA9BEA9",
":. c #C137C137C137",
">. c #C258C258C258",
",. c #C3D0C3D0C3D0",
"<. c #C785C785C785",
"1. c #C897C897C897",
"2. c #C99AC99AC99A",
"3. c #CA4ACA4ACA4A",
"4. c #CB34CB34CB34",
"5. c #CC27CC27CC27",
"6. c #CD65CD65CD65",
"7. c #CE35CE35CE35",
"8. c #CF42CF42CF42",
"9. c #D16FD16FD16F",
"0. c #D274D274D274",
"q. c #D352D352D352",
"w. c #D446D446D446",
"e. c #D56FD56FD56F",
"r. c #D624D624D624",
"t. c #D7ECD7ECD7EC",
"y. c #D938D938D938",
"u. c #DA16DA16DA16",
"i. c #DAE0DAE0DAE0",
"p. c #DC4EDC4EDC4E",
"a. c #DD55DD55DD55",
"s. c #DE61DE61DE61",
"d. c #DFD7DFD7DFD7",
"f. c #E018E018E018",
"g. c #E270E270E270",
"h. c #E328E328E328",
"j. c #E47FE47FE47F",
"k. c #E5BBE5BBE5BB",
"l. c #E6C0E6C0E6C0",
"z. c #E930E930E930",
"x. c #EA0FEA0FEA0F",
"c. c #ECF0ECF0ECF0",
"v. c #EF2EEF2EEF2E",
"b. c #F05DF05DF05D",
"n. c #F157F157F157",
"m. c #F26BF26BF26B",
"M. c #F382F382F382",
"N. c #F4CEF4CEF4CE",
"B. c #F574F574F574",
"V. c #F6C5F6C5F6C5",
"C. c #F75DF75DF75D",
"Z. c #F865F865F865",
"A. c #F97BF97BF97B",
"S. c #FA88FA88FA88",
"D. c #FB82FB82FB82",
"F. c #FC6AFC6AFC6A",
"G. c #FD81FD81FD81",
"H. c #FE8CFE8CFE8C",
"J. c #FF60FF60FF60",
"K. c gray100",
/* pixels */
"4.^ ^ ^ ^ ^ ^ ^ ^ ^ / ^ ^ / ^ ^ ^ ^ ^ / ^ ^ ^ 4.",
"^             , z W | $.#.| / M 6             ^ ",
"/         * C ;.v.Z.H.H.H.H.H.m.9.P ; + + +   / ",
"^ +   + 6 _ m.H.H.m.x.s.s.x.m.H.H.B.#.y +     / ",
"^   + 6 #.Z.H.m.$.D p q 9 p B $.H.H.H.;.y     ^ ",
"/   = _ H.Z.j.C =             P Z.Z.H.Z.*.,   ^ ",
"/   Z m.H.j.p   +     , *     I Z.H.Z.H.Z.T + ^ ",
"^ , ,.H.m.B   + + l ] ;.9   + I Z.H.H.H.H.t.q ^ ",
"^ x m.H.| * + + F g.Z.B.r + + I H.H.H.H.H.Z.F / ",
"^ W Z.m.B     j j.Z.m.8.9     D 9.v.Z.H.H.H.| ^ ",
"^ #.H.s.r     ' H.B.g.n * + + ; x j.Z.H.Z.H.8.^ ",
"^ ;.H.8., = = 9.g.B W g.p +   p 8.H.H.H.H.H.9./ ",
"^ =.H.m.8.8.4.p.z   * T t.j d 9.Z.p.t.t.B.H.9.^ ",
"^ =.H.H.H.H.g.n *     + K 9.p.Z.s.y 2 6 4.H.8.^ ",
"^ ^ Z.H.H.Z.x.#.d   + j | j.Z.Z.W     y s.H.#.^ ",
"^ M B.H.H.H.H.B.n     D H.H.Z.#.6     I B.B.F ^ ",
"^ 6 8.H.H.Z.Z.Z.n     F B.t./ 9     6 9.H.s.r ^ ",
"^   I B.H.H.H.Z.M     , s 6 + + + + { Z.H._ + ^ ",
"^   , #.H.H.H.B.z   + +         6 ' H.Z.4.9   ^ ",
"^     r ;.Z.H.B.T y = + * * q D 4.B.Z.t.d     ^ ",
"/   + + y *.Z.H.B.s.$.{ { | p.B.H.Z.4.j +     / ",
"^         2 T p.Z.H.H.H.H.H.H.Z.g.^ 9         / ",
"^             q K ] ;.8.9.;.| P y +           / ",
"4.^ ^ ^ ^ ^ / / ^ ^ ^ ^ ^ / ^ ^ ^ ^ ^ ^ ^ ^ ^ 4."
};
