/* XPM */
static char *Type Conviction[] = {
/* columns rows colors chars-per-pixel */
"24 23 162 2",
"   c #4B4849",
".  c #4C494A",
"X  c #514D4E",
"o  c #535051",
"O  c #565354",
"+  c #575354",
"@  c #595657",
"#  c #5A5758",
"$  c #5B5859",
"%  c #5C5959",
"&  c #5D5A5A",
"*  c #5D5B5B",
"=  c #5E5B5C",
"-  c #605D5E",
";  c #615E5E",
":  c #615E5F",
">  c #625F60",
",  c #626060",
"<  c #636061",
"1  c #646162",
"2  c #656263",
"3  c #666364",
"4  c #666464",
"5  c #676465",
"6  c #676565",
"7  c #686666",
"8  c #696667",
"9  c #6A6868",
"0  c #6B6969",
"q  c #6C6A6A",
"w  c #6D6A6B",
"e  c #6E6B6C",
"r  c #6F6C6D",
"t  c #706D6E",
"y  c #716E6F",
"u  c #726F70",
"i  c #727070",
"p  c #737171",
"a  c #777475",
"s  c #787576",
"d  c #797777",
"f  c #7A7778",
"g  c #7B7879",
"h  c #7B7979",
"j  c #7C7A7A",
"k  c #7E7B7C",
"l  c #7E7C7C",
"z  c #7E7C7D",
"x  c #7F7C7D",
"c  c #7F7D7D",
"v  c #807E7E",
"b  c #827F80",
"n  c #828080",
"m  c #828081",
"M  c #838081",
"N  c #838181",
"B  c #838182",
"V  c #858283",
"C  c #878586",
"Z  c #8C898A",
"A  c #8C8A8B",
"S  c #908E8E",
"D  c #908E8F",
"F  c #918F8F",
"G  c #929090",
"H  c #929091",
"J  c #939192",
"K  c #949292",
"L  c #959393",
"P  c #959494",
"I  c #969494",
"U  c #969495",
"Y  c #979596",
"T  c #989696",
"R  c #9F9D9D",
"E  c #9F9D9E",
"W  c #A09E9F",
"Q  c #A19FA0",
"!  c #A3A1A1",
"~  c #A3A1A2",
"^  c #A4A3A3",
"/  c #A5A4A4",
"(  c #A6A5A5",
")  c #A8A7A7",
"_  c #AAA8A9",
"`  c #AAA9A9",
"'  c #ABA9AA",
"]  c #ABAAAA",
"[  c #ADACAC",
"{  c #AFADAD",
"}  c #AFADAE",
"|  c #B0AFAF",
" . c #B1B0B0",
".. c #B2B1B1",
"X. c #B4B2B3",
"o. c #B7B6B6",
"O. c #B8B6B7",
"+. c #B9B7B8",
"@. c #BAB9B9",
"#. c #BAB9BA",
"$. c #BCBABB",
"%. c #BDBCBC",
"&. c #BEBDBD",
"*. c #BFBDBE",
"=. c #C1BFC0",
"-. c #C3C2C2",
";. c #C4C3C3",
":. c #C5C4C5",
">. c #C6C5C5",
",. c #C7C6C6",
"<. c #C8C7C7",
"1. c #C9C8C9",
"2. c #CFCECE",
"3. c #D0D0D0",
"4. c #D1D0D0",
"5. c #D3D2D2",
"6. c #D4D3D3",
"7. c #D4D3D4",
"8. c #D6D5D6",
"9. c #D7D6D6",
"0. c #DAD9D9",
"q. c #DADADA",
"w. c #DCDBDB",
"e. c #DCDCDC",
"r. c #DDDDDD",
"t. c #DFDEDF",
"y. c #E1E1E1",
"u. c #E2E1E1",
"i. c #E4E3E4",
"p. c #E6E6E6",
"a. c #E7E6E6",
"s. c #E8E7E8",
"d. c #E9E8E8",
"f. c #EAE9E9",
"g. c #EBEBEB",
"h. c #EDEDED",
"j. c #EEEEEE",
"k. c #EFEEEE",
"l. c #EFEEEF",
"z. c #EFEFEF",
"x. c #F0F0F0",
"c. c #F1F1F1",
"v. c #F2F2F2",
"b. c #F3F3F3",
"n. c #F5F4F4",
"m. c #F5F5F5",
"M. c #F6F5F6",
"N. c #F7F6F6",
"B. c #F7F7F7",
"V. c #F8F7F7",
"C. c #F8F8F8",
"Z. c #F9F8F8",
"A. c #F9F9F9",
"S. c #FAFAFA",
"D. c #FBFAFA",
"F. c #FBFBFB",
"G. c #FCFCFC",
"H. c #FDFDFD",
"J. c #FEFDFD",
"K. c #FEFEFE",
"L. c gray100",
"P. c None",
/* pixels */
"P.P.P.x.4 ,.P.P.P.P.P.P.P.P.P.P.P.P.P.P.P.P.P.P.",
"P.P.P.Z.< h <.P.P.b.= V P.P.P.P.P.P.P.P.P.P.P.P.",
"P.P.P.P.0 e.i >.P.<.0 v P.P.L.o <.P.P.P.P.P.P.P.",
"P.P.P.P.) ] b.r ) T E . 2.b.r r ,.P.P.P.P.P.P.P.",
"P.P.P.P.s.p L.x.v U s.O.C $  .7 x.P.P.P.P.P.P.P.",
"P.Z.x.Z.L.< Z.L.L.W x.O.v y.x.X j.P.x.x.P.P.P.P.",
"P.D . 7 & r Z.L.L.L.L.L.b.L.o.,.4 c O   P.P.P.P.",
"P.j.0 W ,.t. .L.L.L.L.L.L.L.q.K 7.2.4 -.P.P.P.P.",
"P.P.P.r 3.Z.L.L.L.L.L.L.L.L.L.L.b.g %.P.P.P.P.P.",
"P.P.P.o O.o.L.L.L.L.L.L.L.L.L.L.U { h O.P.P.P.P.",
"e.m v r *.y.L.L.L.L.L.L.L.L.L.L.L.Z.>.K < r m e.",
"m : ^ e.Z.L.L.L.L.L.L.L.L.L.L.L.L.L.L.L.l.-.r V ",
"x.<.] + ) 7.L.L.L.L.L.L.L.L.L.L.Z.s.K < h A <.x.",
"P.P.P.8 ;.%.L.L.L.L.L.L.L.L.L.Z.G W ( P.P.P.P.P.",
"P.P.x.$ 9.Z.x.L.L.L.L.L.L.L.L.s.L.Z E Z.P.P.P.P.",
"P.3.0 } U 7. .L.L.L.L.L.L.L. .G X.] v m P.P.P.P.",
"P.) o j { : Z.L.L.j.L.j.-.x.7.} D o.< < P.P.P.P.",
"P.L.b.P.Z.7 L.L.Z.^ x.%.^ 7.s.& L.P.Z.Z.P.P.P.P.",
"P.P.P.P.e.d L.9.: i 5.U < c F 3 s.P.P.P.P.P.P.P.",
"P.P.P.P.G $.i.i j.,.K : P.P.a & ) P.P.P.P.P.P.P.",
"P.P.P.P.i 3.X i.P.3.< j P.P.L.( x.P.P.P.P.P.P.P.",
"P.P.P.i.& @ <.P.P.P.d ^ P.P.P.P.P.P.P.P.P.P.P.P.",
"P.P.P.x.c >.P.P.P.P.P.P.P.P.P.P.P.P.P.P.P.P.P.P."
};
