/* XPM */
static char * Type Event[] = {
"24 24 26 1",
" 	c None",
".	c #FFFFFF",
"+	c #F4F4F4",
"@	c #F3F3F3",
"#	c #E7E7E7",
"$	c #E6E6E6",
"%	c #DBDBDB",
"&	c #CECECE",
"*	c #C3C3C3",
"=	c #C2C2C2",
"-	c #B6B6B6",
";	c #B5B5B5",
">	c #AAAAAA",
",	c #9E9E9E",
"'	c #9D9D9D",
")	c #909090",
"!	c #848484",
"~	c #777777",
"{	c #767676",
"]	c #6A6A6A",
"^	c #5D5D5D",
"/	c #505050",
"(	c #434343",
"_	c #424242",
":	c #363636",
"<	c #353535",
"      <<<<<             ",
"       <!..=<           ",
"         <^..$<         ",
"           <...=:       ",
"            _...&       ",
"             >...]      ",
"             _...#      ",
"              +..._     ",
"              ~...%     ",
"              <&...<    ",
"              <'...<    ",
"              <]...:    ",
"              <{...<    ",
"              <'...<    ",
"              <%...<    ",
"              !...%     ",
"              ...._     ",
"             /...#      ",
"             *...]      ",
"            ^...&       ",
"           _...*<       ",
"         <~..#<         ",
"       <,..*<           ",
"     <<<<<<             "};
