/* XPM */
static char *Type Reflex[] = {
/* columns rows colors chars-per-pixel */
"24 24 130 2",
"   c #000000",
".  c #010101",
"X  c #020202",
"o  c #030303",
"O  c #040404",
"+  c #050505",
"@  c #060606",
"#  c #070707",
"$  c #080808",
"%  c #0A0A0A",
"&  c #0E0E0E",
"*  c #0F0F0F",
"=  c #111111",
"-  c #121212",
";  c #141414",
":  c #151515",
">  c #161616",
",  c #171717",
"<  c #181818",
"1  c #1A1A1A",
"2  c #1B1B1B",
"3  c #1C1C1C",
"4  c #1D1D1D",
"5  c #1E1E1E",
"6  c #1F1F1F",
"7  c #212121",
"8  c #242424",
"9  c #252525",
"0  c #262626",
"q  c #272727",
"w  c #2B2B2B",
"e  c #2C2C2C",
"r  c #2D2D2D",
"t  c #2F2F2F",
"y  c #303030",
"u  c #313131",
"i  c #323232",
"p  c #383838",
"a  c #393939",
"s  c #3A3A3A",
"d  c #3B3B3B",
"f  c #434343",
"g  c #454545",
"h  c #484848",
"j  c #494949",
"k  c #4A4A4A",
"l  c #505050",
"z  c #525252",
"x  c #545454",
"c  c #585858",
"v  c #595959",
"b  c #5F5F5F",
"n  c #646464",
"m  c #656565",
"M  c #666666",
"N  c #6A6A6A",
"B  c #6C6C6C",
"V  c #6D6D6D",
"C  c #6E6E6E",
"Z  c #707070",
"A  c #787878",
"S  c #7A7A7A",
"D  c #7C7C7C",
"F  c #818181",
"G  c #858585",
"H  c #898989",
"J  c #8A8A8A",
"K  c #8B8B8B",
"L  c #909090",
"P  c #919191",
"I  c #949494",
"U  c #969696",
"Y  c #999999",
"T  c #9A9A9A",
"R  c #9B9B9B",
"E  c #A0A0A0",
"W  c #A3A3A3",
"Q  c #A5A5A5",
"!  c #AAAAAA",
"~  c #ABABAB",
"^  c #AFAFAF",
"/  c #B2B2B2",
"(  c #B4B4B4",
")  c #B5B5B5",
"_  c #B7B7B7",
"`  c #B9B9B9",
"'  c #BABABA",
"]  c #BBBBBB",
"[  c #BCBCBC",
"{  c #BDBDBD",
"}  c #C0C0C0",
"|  c #C1C1C1",
" . c #C2C2C2",
".. c #C5C5C5",
"X. c #C9C9C9",
"o. c #CBCBCB",
"O. c #CECECE",
"+. c #CFCFCF",
"@. c #D0D0D0",
"#. c #D1D1D1",
"$. c #D3D3D3",
"%. c #D4D4D4",
"&. c #D5D5D5",
"*. c #D7D7D7",
"=. c #DCDCDC",
"-. c #DEDEDE",
";. c #DFDFDF",
":. c #E0E0E0",
">. c #E3E3E3",
",. c #E5E5E5",
"<. c #E6E6E6",
"1. c #E7E7E7",
"2. c #E8E8E8",
"3. c #EAEAEA",
"4. c #ECECEC",
"5. c #EDEDED",
"6. c #EEEEEE",
"7. c #F0F0F0",
"8. c #F1F1F1",
"9. c #F2F2F2",
"0. c #F5F5F5",
"q. c #F6F6F6",
"w. c #F7F7F7",
"e. c #F9F9F9",
"r. c #FAFAFA",
"t. c #FBFBFB",
"y. c #FCFCFC",
"u. c #FDFDFD",
"i. c #FEFEFE",
"p. c gray100",
/* pixels */
". . . . . . . . @ 2 w w w w 7 @ . . . . . . . . ",
". . . . . . & z ^ -.r.p.p.r.<./ n = . . . . . . ",
". . . . . a ] 9.p.p.p.p.p.p.p.p.p.X.k . . . . . ",
". . . @ C $.&.$.&.&.$.&.&.$.&.&.&.&.O.H @ . . . ",
". . . C 9.r . . . . . . . . . . . . 2 2.H . . . ",
". . g 8.2.2 . . . . . . . . . . . . & $.9.b . . ",
". % ..p.*.= . . . . . . . . . . . . @ ] p.$.> . ",
". x r.p.] @ . . . . . . . . . . . . . Y p.p.A . ",
". E p.p./ . . . . . . . . . . . . . . P p.p.} % ",
"= -.p.p.E . . . . . . . . . . . . . . A p.p.8.q ",
"q p.p.p.P . . . . . . . . . . . . . . C p.p.p.g ",
"f p.p.p.E . . . . . . . . . . . . . . D p.p.r.n ",
"k p.p.p.` . . . . . . . . . . . . . . I p.p.p.N ",
"r p.p.p.$.= . . . . . . . . . . . . . ` r.p.p.z ",
"4 8.p.p.9.a . . . . . . . . . . . . 7 2.p.p.p.p ",
"@ ` p.p.p.! . . . . . . . . . . . . G p.p.p.&.= ",
". Z p.p.p.9.k . . . . . . . . . . t 4.p.p.p.I . ",
". 2 $.p.p.p.*.q . . . . . . . . 2 } p.p.p.;.q . ",
". . b 9.p.p.p.] 4 . . . . . . = W p.p.p.p.A . . ",
". . . H p.p.p.p.X.4 . . . . > / p.p.p.p.! @ . . ",
". . . & Y r.p.p.p.$.r . . 7 ] p.p.p.r./ > . . . ",
". . . . @ n <.p.p.r.;.z a &.p.p.p.4.F @ . . . . ",
". . . . . . q H &.p.r.4.<.p.p.-.Y t . . . . . . ",
". . . . . . . @ > w c Y Y N w 2 @ . . . . . . . "
};
