/* XPM */
static char *Type Political Action[] = {
/* columns rows colors chars-per-pixel */
"24 24 172 2",
"   c #009D009D009D",
".  c #019401940194",
"X  c #028002800280",
"o  c #037303730373",
"O  c #048004800480",
"+  c #057405740574",
"@  c #06B306B306B3",
"#  c #07AE07AE07AE",
"$  c #086508650865",
"%  c #09B209B209B2",
"&  c #0A960A960A96",
"*  c #0B490B490B49",
"=  c #0CC20CC20CC2",
"-  c #0D650D650D65",
";  c #0E8B0E8B0E8B",
":  c #0F5C0F5C0F5C",
">  c #10BF10BF10BF",
",  c #128F128F128F",
"<  c #135C135C135C",
"1  c #14C514C514C5",
"2  c #15CA15CA15CA",
"3  c #16E616E616E6",
"4  c #18E218E218E2",
"5  c #193719371937",
"6  c #1A2F1A2F1A2F",
"7  c #1BD01BD01BD0",
"8  c #1D451D451D45",
"9  c #1E421E421E42",
"0  c #1F341F341F34",
"q  c #211B211B211B",
"w  c #215C215C215C",
"e  c #225D225D225D",
"r  c #239823982398",
"t  c #24A624A624A6",
"y  c #267026702670",
"u  c #290929092909",
"i  c #2D032D032D03",
"p  c #2DF32DF32DF3",
"a  c #32BE32BE32BE",
"s  c #336433643364",
"d  c #34CF34CF34CF",
"f  c #36A036A036A0",
"g  c #3A823A823A82",
"h  c #3D063D063D06",
"j  c #3EA43EA43EA4",
"k  c #411941194119",
"l  c #422942294229",
"z  c #435043504350",
"x  c #449544954495",
"c  c #454945494549",
"v  c #476047604760",
"b  c #498049804980",
"n  c #4C8A4C8A4C8A",
"m  c #4F804F804F80",
"M  c #52DE52DE52DE",
"N  c #54CF54CF54CF",
"B  c #561556155615",
"V  c #589C589C589C",
"C  c #5A075A075A07",
"Z  c #5C0B5C0B5C0B",
"A  c #5D685D685D68",
"S  c #625C625C625C",
"D  c #644264426442",
"F  c #654E654E654E",
"G  c #66E566E566E5",
"H  c #681668166816",
"J  c #68A768A768A7",
"K  c #6A266A266A26",
"L  c #6ACF6ACF6ACF",
"P  c #6BD26BD26BD2",
"I  c #6DE46DE46DE4",
"U  c #6EAA6EAA6EAA",
"Y  c #6FA96FA96FA9",
"T  c #709870987098",
"R  c #74AD74AD74AD",
"E  c #79C779C779C7",
"W  c #7AE47AE47AE4",
"Q  c #7E457E457E45",
"!  c #7F637F637F63",
"~  c #801C801C801C",
"^  c #824082408240",
"/  c #83E283E283E2",
"(  c #858185818581",
")  c #85E985E985E9",
"_  c #87B187B187B1",
"`  c #895089508950",
"'  c #8A088A088A08",
"]  c #8B308B308B30",
"[  c #8BD98BD98BD9",
"{  c #8D228D228D22",
"}  c #8E028E028E02",
"|  c #8EA78EA78EA7",
" . c #924492449244",
".. c #935393539353",
"X. c #93C093C093C0",
"o. c #957395739573",
"O. c #95F895F895F8",
"+. c #977B977B977B",
"@. c #9A239A239A23",
"#. c #9BEA9BEA9BEA",
"$. c #A02DA02DA02D",
"%. c #A0D9A0D9A0D9",
"&. c #A43CA43CA43C",
"*. c #A4D5A4D5A4D5",
"=. c #A661A661A661",
"-. c #A6F3A6F3A6F3",
";. c #A7EBA7EBA7EB",
":. c #A908A908A908",
">. c #A9FEA9FEA9FE",
",. c #AB02AB02AB02",
"<. c #B19CB19CB19C",
"1. c #B283B283B283",
"2. c #B303B303B303",
"3. c #B536B536B536",
"4. c #B8DCB8DCB8DC",
"5. c #BB10BB10BB10",
"6. c #BC0FBC0FBC0F",
"7. c #C046C046C046",
"8. c #C15BC15BC15B",
"9. c #C23AC23AC23A",
"0. c #C398C398C398",
"q. c #C466C466C466",
"w. c #C55CC55CC55C",
"e. c #C5E1C5E1C5E1",
"r. c #C838C838C838",
"t. c #CA00CA00CA00",
"y. c #CBB6CBB6CBB6",
"u. c #CBE0CBE0CBE0",
"i. c #CD53CD53CD53",
"p. c #CE4DCE4DCE4D",
"a. c #CF73CF73CF73",
"s. c #D068D068D068",
"d. c #D16CD16CD16C",
"f. c #D1E2D1E2D1E2",
"g. c #D4B6D4B6D4B6",
"h. c #D6B2D6B2D6B2",
"j. c #D783D783D783",
"k. c #D99BD99BD99B",
"l. c #DB7EDB7EDB7E",
"z. c #DC8DDC8DDC8D",
"x. c #DDF2DDF2DDF2",
"c. c #DF99DF99DF99",
"v. c #E0ADE0ADE0AD",
"b. c #E104E104E104",
"n. c #E405E405E405",
"m. c #E678E678E678",
"M. c #E768E768E768",
"N. c #E896E896E896",
"B. c #E901E901E901",
"V. c #EA5DEA5DEA5D",
"C. c #EB45EB45EB45",
"Z. c #EBF8EBF8EBF8",
"A. c #ED65ED65ED65",
"S. c #EEA0EEA0EEA0",
"D. c #EF1CEF1CEF1C",
"F. c #F048F048F048",
"G. c #F0F6F0F6F0F6",
"H. c #F288F288F288",
"J. c #F382F382F382",
"K. c #F446F446F446",
"L. c #F559F559F559",
"P. c #F670F670F670",
"I. c #F749F749F749",
"U. c #F862F862F862",
"Y. c #F999F999F999",
"T. c #FA79FA79FA79",
"R. c #FB82FB82FB82",
"E. c #FC94FC94FC94",
"W. c #FD7EFD7EFD7E",
"Q. c #FE76FE76FE76",
"!. c #FF73FF73FF73",
"~. c gray100",
/* pixels */
"5.L L L L L H L L I I L L H L L H L H L L L I r.",
"[ . . . O . . 3 N  .7.7.z.7.{ m > . . . . . % =.",
"{ . . . . % D i.L.!.!.O.l.!.!.L.7.V % O . . % ;.",
"{ . . O 7 @.T.T.!.T.T.H 3.!.!.!.!.A. .3 . . % ;.",
"[ . O 7 3.!.T.T.!.!.L.k ) T.T.!.!.T.!.@.3 . % ;.",
"[ . % O.!.!.!.!.!.!.V.: D T.!.T.!.T.!.T.) O O ;.",
"{ . V H.!.!.T.T.T.L.r.O h A.T.!.T.!.!.!.V.b % =.",
"{ > 7.!.!.!.!.!.T.!.e.Z I H.T.!.T.!.!.T.!.2.: ;.",
"{ h A.!.!.!.T.!.l.R a 8 e M 2.T.!.!.T.!.!.M.f ;.",
"[ R !.!.T.!.!.r.g O . % . . > E A.!.T.!.!.T.L =.",
"[ $.!.!.!.T.V.a . O . . O . . : ) !.T.!.T.!. .=.",
"{ 5.!.!.T.!.Q % O O . O . . . O > r.!.!.!.!.=.;.",
") 2.T.!.T.L.e . . O O . O O . . . I !.!.!.!.&.,.",
"[  .!.!.!.l.. e O.i 3 =.c . T I . f T.T.!.!.Q ;.",
"{ Z L.!.!.h.H ^ A.{ T A.$.H i.i.H R !.T.T.L.N =.",
"[ u z.!.!.h.L ) A. .R V.;.L i.r.L Q !.!.!.h.e =.",
"[ O O.T.T.5.. a M.c 3 v.L . 2.$.. e !.!.T.[ % ;.",
"{ O i v.!.5.. 8 { i : L a . H L . y !.T.d.y % =.",
"{ O O N L.6.O O . O . . O . O . O y !.A.m O : &.",
"{ O . O T ;.. % . O . . . . O . . > M.M O O O =.",
" .. . . % c ;.i.d.i.d.d.d.d.i.i.i.O.k O O . O ;.",
"[ . . . . . e E i.A.T.!.!.T.V.e.I 3 . O O O : ;.",
"[ : : % : : : % e c L ^ ) H c 7 : : > : : % > ;.",
"z.e.e.e.7.7.e.7.e.7.7.e.e.6.r.7.e.7.e.e.7.e.e.V."
};
