/* XPM */
static char *Type Retainer[] = {
/* columns rows colors chars-per-pixel */
"24 24 165 2",
"   c #003F003F003F",
".  c #017301730173",
"X  c #028602860286",
"o  c #037B037B037B",
"O  c #047204720472",
"+  c #057105710571",
"@  c #066C066C066C",
"#  c #07BA07BA07BA",
"$  c #080E080E080E",
"%  c #098509850985",
"&  c #0B0F0B0F0B0F",
"*  c #0CAB0CAB0CAB",
"=  c #0D610D610D61",
"-  c #0E480E480E48",
";  c #0F920F920F92",
":  c #109110911091",
">  c #127412741274",
",  c #132013201320",
"<  c #142514251425",
"1  c #15F415F415F4",
"2  c #16A216A216A2",
"3  c #1A091A091A09",
"4  c #1A401A401A40",
"5  c #1BA01BA01BA0",
"6  c #238923892389",
"7  c #279F279F279F",
"8  c #299D299D299D",
"9  c #2AB22AB22AB2",
"0  c #2C262C262C26",
"q  c #2CE72CE72CE7",
"w  c #314431443144",
"e  c #32B232B232B2",
"r  c #34B434B434B4",
"t  c #36A236A236A2",
"y  c #377537753775",
"u  c #38DC38DC38DC",
"i  c #3A043A043A04",
"p  c #3C123C123C12",
"a  c #3C4D3C4D3C4D",
"s  c #3DB43DB43DB4",
"d  c #3E8F3E8F3E8F",
"f  c #3F7D3F7D3F7D",
"g  c #40B940B940B9",
"h  c #41E241E241E2",
"j  c #439843984398",
"k  c #445344534453",
"l  c #475847584758",
"z  c #490A490A490A",
"x  c #497649764976",
"c  c #4A504A504A50",
"v  c #4B584B584B58",
"b  c #4CA74CA74CA7",
"n  c #4DEE4DEE4DEE",
"m  c #4EBF4EBF4EBF",
"M  c #4F914F914F91",
"N  c #532D532D532D",
"B  c #53A453A453A4",
"V  c #54A954A954A9",
"C  c #56D156D156D1",
"Z  c #5B485B485B48",
"A  c #5FA55FA55FA5",
"S  c #617261726172",
"D  c #64BF64BF64BF",
"F  c #65E765E765E7",
"G  c #6A356A356A35",
"H  c #6BEF6BEF6BEF",
"J  c #6D426D426D42",
"K  c #70DC70DC70DC",
"L  c #737173717371",
"P  c #76ED76ED76ED",
"I  c #77E377E377E3",
"U  c #78A278A278A2",
"Y  c #7BD67BD67BD6",
"T  c #7D2E7D2E7D2E",
"R  c #7F0E7F0E7F0E",
"E  c #803480348034",
"W  c #859085908590",
"Q  c #87D187D187D1",
"!  c #88AA88AA88AA",
"~  c #8A258A258A25",
"^  c #8B238B238B23",
"/  c #8BCC8BCC8BCC",
"(  c #8CDF8CDF8CDF",
")  c #8DEE8DEE8DEE",
"_  c #8F0E8F0E8F0E",
"`  c #901190119011",
"'  c #92CF92CF92CF",
"]  c #93C493C493C4",
"[  c #957595759575",
"{  c #981598159815",
"}  c #997F997F997F",
"|  c #9BC19BC19BC1",
" . c #9CD99CD99CD9",
".. c #9F619F619F61",
"X. c #A2F3A2F3A2F3",
"o. c #A491A491A491",
"O. c #A4FBA4FBA4FB",
"+. c #A64DA64DA64D",
"@. c #A80CA80CA80C",
"#. c #A92EA92EA92E",
"$. c #A9D7A9D7A9D7",
"%. c #AC26AC26AC26",
"&. c #ACFEACFEACFE",
"*. c #AF65AF65AF65",
"=. c #B0E1B0E1B0E1",
"-. c #B272B272B272",
";. c #B2C5B2C5B2C5",
":. c #B556B556B556",
">. c #B6BAB6BAB6BA",
",. c #B92EB92EB92E",
"<. c #BA4EBA4EBA4E",
"1. c #BFCCBFCCBFCC",
"2. c #C125C125C125",
"3. c #C1C7C1C7C1C7",
"4. c #C33EC33EC33E",
"5. c #C44EC44EC44E",
"6. c #C5BBC5BBC5BB",
"7. c #C5E1C5E1C5E1",
"8. c #C709C709C709",
"9. c #C7FFC7FFC7FF",
"0. c #C8E0C8E0C8E0",
"q. c #CC86CC86CC86",
"w. c #D046D046D046",
"e. c #D15CD15CD15C",
"r. c #D239D239D239",
"t. c #D3C8D3C8D3C8",
"y. c #D417D417D417",
"u. c #D733D733D733",
"i. c #D87AD87AD87A",
"p. c #D9D3D9D3D9D3",
"a. c #DA39DA39DA39",
"s. c #DC39DC39DC39",
"d. c #DDB9DDB9DDB9",
"f. c #DF71DF71DF71",
"g. c #E0D3E0D3E0D3",
"h. c #E13DE13DE13D",
"j. c #E22AE22AE22A",
"k. c #E3C7E3C7E3C7",
"l. c #E557E557E557",
"z. c #E6E0E6E0E6E0",
"x. c #E7E3E7E3E7E3",
"c. c #E81CE81CE81C",
"v. c #E941E941E941",
"b. c #EA6BEA6BEA6B",
"n. c #EBC3EBC3EBC3",
"m. c #EC32EC32EC32",
"M. c #ED51ED51ED51",
"N. c #EE59EE59EE59",
"B. c #EEF9EEF9EEF9",
"V. c #F08AF08AF08A",
"C. c #F157F157F157",
"Z. c #F266F266F266",
"A. c #F3BAF3BAF3BA",
"S. c #F56BF56BF56B",
"D. c #F6AFF6AFF6AF",
"F. c #F78EF78EF78E",
"G. c #F88EF88EF88E",
"H. c #F983F983F983",
"J. c #FA87FA87FA87",
"K. c #FB81FB81FB81",
"L. c #FCA3FCA3FCA3",
"P. c #FD7FFD7FFD7F",
"I. c #FE76FE76FE76",
"U. c #FF73FF73FF73",
"Y. c gray100",
/* pixels */
"0.( ~ ( ( ( ( ( ( ' &.3.8.$.' ( ~ ( ( ( ( ( ( p.",
"~ O . . . O = M } g.B.Z.B.n.p.} x & O O . . & $.",
"( O . . . r :.Z.L.L.L.K.L.L.L.L.Z.$.q O O . & $.",
"( O . & N d.3.S H 3.K.K.L.L.K.L.L.L.r.C O . O $.",
"( . O C n.d.5 . O 2 P n.L.L.L.L.L.L.L.g.x . & $.",
"( O e g.K.~ . . . . . f Z.L.L.L.L.L.K.L.r.9 O O.",
"( & =.L.A.x . O & , } q.B.L.L.L.L.L.K.K.L...= O.",
"~ j B.L.B.r O . . 2 8.K.L.L.L.L.L.L.K.L.L.z.f O.",
"~ [ L.L.Z.u . O . & r $.A.L.L.L.L.L.L.L.L.L.W X.",
"( y.L.L.Z.j . . . . . & F z.L.L.L.L.L.L.L.L.0.O.",
"..n.L.L.K.,.O O . . . . O x z.L.L.L.L.L.L.L.n.$.",
"O.n.L.L.L.A.g . . . . . . . M B.L.L.L.L.L.L.Z.,.",
"O.n.K.L.L.A.:., . . . . . . . Z A.L.L.L.L.L.B.:.",
"} n.L.L.K.K.K.L & . . . . . O O J K.L.L.L.L.g.$.",
"( 3.L.L.L.L.K.B.P = . O . . O . & J B.L.L.L.=.O.",
"~ R L.L.L.L.A.K.A...5 O O . O . O O g 3.A.K.J $.",
"~ e z.L.L.L.L.L.K.L.&.= f & g M u r u j O.r.9 O.",
"~ O ' L.L.L.L.L.d.0.Z.f p.x O.K.L.L.L.K.L.Y = $.",
"~ . 5 ,.L.L.L.n.A W ( 9 [ 7 [ O.O.} Z.K.=.2 O $.",
"~ O . e r.L.z.j , x u f M u R R ~ $.L.8.9 . O $.",
"( . . . 9 :.C 5 &.B.n.z.Z.g.K.L.K.K.$.9 O O & $.",
"~ O . . O , & J A.K.K.K.L.L.K.A.y.J 2 O . . O $.",
"' = & = & , = 7 J O.p.Z.Z.y.O.F 7 , & = & = , &.",
"d.8.8.8.0.0.0.8.3.8.8.8.8.3.8.1.3.8.0.0.0.8.1.n."
};
