/* XPM */
static char *Discipline OBF[] = {
/* columns rows colors chars-per-pixel */
"24 24 30 1",
"  c #001700170017",
". c #017601760176",
"X c #022402240224",
"o c #03E103E103E1",
"O c #043004300430",
"+ c #075407540754",
"@ c #2CC92CC92CC9",
"# c #2DAD2DAD2DAD",
"$ c #2EB72EB72EB7",
"% c #751C751C751C",
"& c #765476547654",
"* c #76EE76EE76EE",
"= c #785978597859",
"- c #794E794E794E",
"; c #87C987C987C9",
": c #8DF88DF88DF8",
"> c #986A986A986A",
", c #9A749A749A74",
"< c #9AFD9AFD9AFD",
"1 c #9BF89BF89BF8",
"2 c #9E429E429E42",
"3 c #C972C972C972",
"4 c #CC7BCC7BCC7B",
"5 c #FA5AFA5AFA5A",
"6 c #FBBEFBBEFBBE",
"7 c #FC2FFC2FFC2F",
"8 c #FD8CFD8CFD8C",
"9 c #FE79FE79FE79",
"0 c #FF68FF68FF68",
"q c gray100",
/* pixels */
"999699999999999999999999",
"9:##@@#@##@@#@##@@####:6",
"9&O+XXXXXXXXXXXXXXXXOX-9",
"9&XXXXXXXXXXXXXXXXXXOX&9",
"9&XXXXXXXXXXXXXXXXXXXX-9",
"9&XXXXXXXXXXXXXXXXXXXX-9",
"9&XXXXXXXXXXXXXXXXXXXX-9",
"9&XXXXXXXXXXXXXXXXXXXX-9",
"9&XXXXXXXXXXXXXXXXXXXX-9",
"9&XXXXXXXXXXXXXXXXXXXX-9",
"9&XXXXXXXXXXXXXXXXXXXX&9",
"9&XXXXXXXXXXXXXXXXXXXX&9",
"9&XXXXXXXXXXXXXXXXXXXX-9",
"9&XXXXXXXXXXXXXXXXXXXX-9",
"9&XXXXXXXXXXXXXXXXXXXX-9",
"9&XXXXXXXXXXXXXXXXXXXX-9",
"9&XXXXXXXXXXXXXXXXXXXX&9",
"9&XXXXXXXXXXXXXXXXXXXX-9",
"9&XXXXXXXXXXXXXXXXXXXX-9",
"9&XXXXXXXXXXXXXXXXXXXX-9",
"9&XXXXXXXXXXXXXXXXXXXX&9",
"9&XXXXXXXXXXXXXXXXXXXX-9",
"93,11,,,1111,,11,,1,;149",
"969999999999999999999996"
};
