/* XPM */
static char *IconClanSal.gif[] = {
/* columns rows colors chars-per-pixel */
"64 64 257 2",
"   c gray100",
".  c #FEFEFE",
"X  c #FDFDFD",
"o  c gray99",
"O  c #FBFBFB",
"+  c gray98",
"@  c #F9F9F9",
"#  c #F8F8F8",
"$  c gray97",
"%  c #F6F6F6",
"&  c gray96",
"*  c #F4F4F4",
"=  c #F3F3F3",
"-  c gray95",
";  c gray94",
":  c #EFEFEF",
">  c #EEEEEE",
",  c #ECECEC",
"<  c #EAEAEA",
"1  c #E9E9E9",
"2  c gray91",
"3  c #E7E7E7",
"4  c #E6E6E6",
"5  c gray90",
"6  c #E1E1E1",
"7  c gray88",
"8  c gray87",
"9  c #DDDDDD",
"0  c gainsboro",
"q  c #DADADA",
"w  c gray85",
"e  c #D8D8D8",
"r  c #D7D7D7",
"t  c gray84",
"y  c #D5D5D5",
"u  c LightGray",
"i  c #D2D2D2",
"p  c gray82",
"a  c gray81",
"s  c #CECECE",
"d  c #CDCDCD",
"f  c #CBCBCB",
"g  c #CACACA",
"h  c #C8C8C8",
"j  c gray78",
"k  c #C5C5C5",
"l  c gray77",
"z  c gray76",
"x  c #C0C0C0",
"c  c gray",
"v  c gray74",
"b  c #BCBCBC",
"n  c #BBBBBB",
"m  c gray73",
"M  c #B9B9B9",
"N  c gray72",
"B  c #B7B7B7",
"V  c #B6B6B6",
"C  c gray71",
"Z  c #B4B4B4",
"A  c gray70",
"S  c #B2B2B2",
"D  c #B1B1B1",
"F  c gray69",
"G  c #AFAFAF",
"H  c #AEAEAE",
"J  c #ACACAC",
"K  c gray67",
"L  c #AAAAAA",
"P  c #A9A9A9",
"I  c gray66",
"U  c #A7A7A7",
"Y  c gray65",
"T  c #A5A5A5",
"R  c #A4A4A4",
"E  c gray64",
"W  c #A2A2A2",
"Q  c gray63",
"!  c #A0A0A0",
"~  c #9F9F9F",
"^  c gray62",
"/  c #9D9D9D",
"(  c gray61",
")  c #9B9B9B",
"_  c #9A9A9A",
"`  c gray60",
"'  c #989898",
"]  c #979797",
"[  c gray59",
"{  c #959595",
"}  c gray58",
"|  c #939393",
" . c #929292",
".. c gray57",
"X. c gray56",
"o. c #8E8E8E",
"O. c #8D8D8D",
"+. c gray55",
"@. c #8B8B8B",
"#. c gray54",
"$. c #898989",
"%. c #888888",
"&. c gray53",
"*. c #868686",
"=. c gray52",
"-. c #848484",
";. c #838383",
":. c gray51",
">. c #818181",
",. c #808080",
"<. c gray50",
"1. c #7E7E7E",
"2. c gray49",
"3. c #7C7C7C",
"4. c #7B7B7B",
"5. c gray48",
"6. c #797979",
"7. c gray47",
"8. c #777777",
"9. c #767676",
"0. c gray46",
"q. c #747474",
"w. c #727272",
"e. c gray44",
"r. c #6F6F6F",
"t. c gray43",
"y. c #6D6D6D",
"u. c #6C6C6C",
"i. c gray42",
"p. c #6A6A6A",
"a. c DimGray",
"s. c #686868",
"d. c #676767",
"f. c gray40",
"g. c #656565",
"h. c gray39",
"j. c #626262",
"k. c #606060",
"l. c gray37",
"z. c #5D5D5D",
"x. c gray36",
"c. c #5B5B5B",
"v. c #5A5A5A",
"b. c gray35",
"n. c #585858",
"m. c gray34",
"M. c #565656",
"N. c #555555",
"B. c gray33",
"V. c #535353",
"C. c gray32",
"Z. c #515151",
"A. c #505050",
"S. c #4E4E4E",
"D. c gray30",
"F. c #4B4B4B",
"G. c gray29",
"H. c #494949",
"J. c #484848",
"K. c #464646",
"L. c gray27",
"P. c #444444",
"I. c #434343",
"U. c gray26",
"Y. c #414141",
"T. c #3F3F3F",
"R. c #3E3E3E",
"E. c gray24",
"W. c #3C3C3C",
"Q. c gray23",
"!. c #3A3A3A",
"~. c #393939",
"^. c #373737",
"/. c gray21",
"(. c #353535",
"). c #343434",
"_. c gray20",
"`. c #323232",
"'. c #313131",
"]. c gray19",
"[. c #2F2F2F",
"{. c gray18",
"}. c #2D2D2D",
"|. c #2C2C2C",
" X c gray17",
".X c #2A2A2A",
"XX c gray16",
"oX c #282828",
"OX c #272727",
"+X c gray15",
"@X c #252525",
"#X c gray14",
"$X c #232323",
"%X c #222222",
"&X c gray13",
"*X c #202020",
"=X c gray12",
"-X c #1E1E1E",
";X c #1D1D1D",
":X c gray11",
">X c #1B1B1B",
",X c gray10",
"<X c #191919",
"1X c #181818",
"2X c gray9",
"3X c #161616",
"4X c #151515",
"5X c gray8",
"6X c #131313",
"7X c gray7",
"8X c #111111",
"9X c #101010",
"0X c gray6",
"qX c #0E0E0E",
"wX c gray5",
"eX c #0C0C0C",
"rX c #0B0B0B",
"tX c gray4",
"yX c #090909",
"uX c gray3",
"iX c #070707",
"pX c #060606",
"aX c gray2",
"sX c #040404",
"dX c gray1",
"fX c #020202",
"gX c #010101",
"hX c cyan",
"jX c black",
"kX c black",
"lX c black",
"zX c black",
"xX c black",
"cX c black",
"vX c black",
"bX c black",
"nX c black",
"mX c black",
"MX c black",
"NX c black",
"BX c black",
"VX c black",
"CX c black",
"ZX c black",
"AX c black",
"SX c black",
"DX c black",
"FX c black",
"GX c black",
"HX c black",
"JX c black",
"KX c black",
"LX c black",
"PX c black",
"IX c black",
"UX c black",
"YX c None",
/* pixels */
"YXYXYXYXYXYXYXYXYXYXYXYXYXYXYXYXYXYXYXYXYXYXYXYXYXYXYXYXYXYXYXYXYXYXYXYXYXYXYXYXYXYXYXYXYXYXYXYXYXYXYXYXYXYXYXYXYXYXYXYXYXYXYXYX",
"YXYXYXYXYXYXYXYXYXYXYXYXYXYXYXYXYXYXYXYXYXYXYXYXYXYXYXYXYXYXYXYXYXYXYXYXYXYXYXYXYXYXYXYXYXYXYXYXYXYXYXYXYXYXYXYXYXYXYXYXYXYXYXYX",
"YXYXYXYXYXYXYXYXYXYXYXYXYXYXYXYXYXYXYXYXYXYXYXYXYXYXYXYXYXYXYXYXYXYXYXYXYXYXYXYXYXYXYXYXYXYXYXYXYXYXYXYXYXYXYXYXYXYXYXYXYXYXYXYX",
"YXYXYXYXYXYXYXYXYXYXYXYXYXYXYXYXYXYXYXYXYXYXYXYXYXYXYXYXYXYXYXYXYXYXYXYXYXYXYXYXYXYXYXYXYXYXYXYXYXYXYXYXYXYXYXYXYXYXYXYXYXYXYXYX",
"YXYXYXYXYXYXYXYXYXYXYXYXYXYXYXYXYXYXYXYXYXYXYXYXYXYXYXYXYXYXYXYXYXYXYXYXYXYXYXYXYXYXYXYXYXYXYXYXYXYXYXYXYXYXYXYXYXYXYXYXYXYXYXYX",
"YXYXYXYXYXYXYXYXYXYXYXYXYXYXYXYXYXYXYXYXYXYXYXYXYXYXYXYXYXYXYXYXYXYXYXYXYXYXYXYXYXYXYXYXYXYXYXYXYXYXYXYXYXYXYXYXYXYXYXYXYXYXYXYX",
"YXYXYXYXYXYXYXYXYXYXYXYXYXYXYXYXYXYXYXYXYXYXYXYXYXYXYXYXYXYXYXYXYXYXYXYXYXYXYXYXYXYXYXYXYXYXYXYXYXYXYXYXYXYXYXYXYXYXYXYXYXYXYXYX",
"YXYXYXYXYXYXYXYXYXYXYXYXYXYXYXYXYXYXYXYXYXYXYXYXYXYXYXYXYXYXYXYXYXYXYXYXYXYXYXYXYXYXYXYXYXYXYXYXYXYXYXYXYXYXYXYXYXYXYXYXYXYXYXYX",
"YXYXYXYXYXYXYXYXYXYXYXYXYXYXYXYXYXYXYXYXYXYXYXYXYXYXYXYXYXYX      YXYXYXYXYXYXYXYXYXYXYXYXYXYXYXYXYXYXYXYXYXYXYXYXYXYXYXYXYXYXYX",
"YXYXYXYXYXYXYXYXYXYXYXYXYXYXYXYXYXYXYXYXYXYXYXYXYXYXYXYXYX    u   YXYXYXYXYXYXYXYXYXYXYXYXYXYXYXYXYXYXYXYXYXYXYXYXYXYXYXYXYXYXYX",
"YXYXYXYXYXYXYXYXYXYXYXYXYXYXYXYXYXYXYXYXYXYXYXYXYXYXYXYX    U.#X    YXYXYXYXYXYXYXYXYXYXYXYXYXYXYXYXYXYXYXYXYXYXYXYXYXYXYXYXYXYX",
"YXYXYXYXYXYXYXYXYXYXYXYXYXYXYXYXYXYXYXYXYXYXYXYXYXYXYXYX  / jXjXr.    YXYXYXYXYXYXYXYXYXYXYXYXYXYXYXYXYXYXYXYXYXYXYXYXYXYXYXYXYX",
"YXYXYXYXYXYXYXYXYXYXYXYXYXYXYXYXYXYXYXYXYXYXYXYXYXYXYX    ,XjXjXfXx   YXYXYXYXYXYXYXYXYXYXYXYXYXYXYXYXYXYXYXYXYXYXYXYXYXYXYXYXYX",
"YXYXYXYXYXYXYXYXYXYXYXYXYXYXYXYXYXYXYXYXYXYXYXYXYXYX    t.jXjXjXjX$X    YXYXYXYXYXYXYXYXYXYXYXYXYXYXYXYXYXYXYXYXYXYXYXYXYXYXYXYX",
"YXYXYXYXYXYXYXYXYXYXYXYXYXYXYXYXYXYXYXYXYXYXYXYXYXYX  0 uXjX4XQ.jXjXp.    YXYXYXYXYXYXYXYXYXYXYXYXYXYXYXYXYXYXYXYXYXYXYXYXYXYXYX",
"YXYXYXYXYXYXYXYXYXYXYXYXYXYXYXYXYXYXYXYXYXYXYXYXYX    S.jXsXS , +XjXaXG   YXYXYXYXYXYXYXYXYXYXYXYXYXYXYXYXYXYXYXYXYXYXYXYXYXYXYX",
"YXYXYXYXYXYXYXYXYXYXYXYXYXYXYXYXYXYXYXYXYXYXYXYXYX  / jXjXk.    n jXjX4X    YXYXYXYXYXYXYXYXYXYXYXYXYXYXYXYXYXYXYXYXYXYXYXYXYXYX",
"YXYXYXYXYXYXYXYXYXYXYXYXYXYXYXYXYXYXYXYXYXYXYXYX    OXjX#X*   # # ~ s. Xg.  YXYXYXYXYXYXYXYXYXYXYXYXYXYXYXYXYXYXYXYXYXYXYXYXYXYX",
"YXYXYXYXYXYXYXYXYXYXYXYXYXYXYXYXYXYXYXYXYXYXYX    6.jXoX2.1.J.}.OXI.h.~ z     YXYXYXYXYXYXYXYXYXYXYXYXYXYXYXYXYXYXYXYXYXYXYXYXYX",
"YXYXYXYXYXYXYXYXYXYXYXYXYXYXYXYXYXYXYXYXYXYXYX  t +XS.P.rXjXjXjXjXjXjXgXH.p     YXYXYXYXYXYXYXYXYXYXYXYXYXYXYXYXYXYXYXYXYXYXYXYX",
"YXYXYXYXYXYXYXYXYXYXYXYXYXYXYXYXYXYXYXYX        t v.1XjXjXjX*Xu.l.qXjXjXjX6X[           YXYXYXYXYXYXYXYXYXYXYXYXYXYXYXYXYXYXYXYX",
"YXYXYXYXYXYXYXYXYXYXYXYXYXYXYXYXYXYXYXYX  ~.x.w.).jXjX5Xa.B l Y 7 8 *.@XjXjXjXS.0.R.e.  YXYXYXYXYXYXYXYXYXYXYXYXYXYXYXYXYXYXYXYX",
"YXYXYXYXYXYXYXYXYXYXYXYXYXYXYXYXYXYXYXYX  %XjXjXjXfXt.0   # |.jX2Xi   , *.1XjXjXjXjXl.  YXYXYXYXYXYXYXYXYXYXYXYXYXYXYXYXYXYXYXYX",
"YXYXYXYXYXYXYXYXYXYXYXYXYXYXYXYXYXYXYXYX  2XjXjXfX;.      D jXjXjXo.      t Q.jXjXjXZ.  YXYXYXYXYXYXYXYXYXYXYXYXYXYXYXYXYXYXYXYX",
"YXYXYXYXYXYXYXYXYXYXYXYXYXYXYXYXYXYXYX    qXjXjXjXXXc     z sXjXjXA       8 T.jXjXjXY.  YXYXYXYXYXYXYXYXYXYXYXYXYXYXYXYXYXYXYXYX",
"YXYXYXYXYXYXYXYXYXYXYXYXYXYXYXYXYXYXYX  0 fX6XpXjXjX9X..=   k $.E     # ! &XjXjXjXjX#X  YXYXYXYXYXYXYXYXYXYXYXYXYXYXYXYXYXYXYXYX",
"YXYXYXYXYXYXYXYXYXYXYXYXYXYXYXYXYXYXYX    g.d.{ e.sXjXjX}.9.D e w A 4.].jXjXjX1Xh.j.j.  YXYXYXYXYXYXYXYXYXYXYXYXYXYXYXYXYXYXYXYX",
"YXYXYXYXYXYXYXYXYXYXYXYXYXYXYXYXYXYX    L ].qX9   ' sXjXjXjXjXdXsXjXjXjXjXjX_.e ( :X'.    YXYXYXYXYXYXYXYXYXYXYXYXYXYXYXYXYXYXYX",
"YXYXYXYXYXYXYXYXYXYXYXYXYXYXYXYXYXYX  M jXjX9.      N R.jXjXjXjXjXjXjXjXrX8.;   m jXjXx.    YXYXYXYXYXYXYXYXYXYXYXYXYXYXYXYXYXYX",
"YXYXYXYXYXYXYXYXYXYXYXYXYXYXYXYXYX    (.jX2X<     p <.w S j.~.;X=X).b.&.v         c.jXgXS   YXYXYXYXYXYXYXYXYXYXYXYXYXYXYXYXYXYX",
"YXYXYXYXYXYXYXYXYXYXYXYXYXYXYXYX    -.jXjX3.    X S.jX-X%.Z b Z C B _ f.+Xd       7 :XjX>X    YXYXYXYXYXYXYXYXYXYXYXYXYXYXYXYXYX",
"YXYXYXYXYXYXYXYXYXYXYXYXYXYXYXYX  e 0XjX=X2     F jXjXjXjXjXaXpXpXsXjXjXjXR.#       I jXjXs.    YXYXYXYXYXYXYXYXYXYXYXYXYXYXYXYX",
"YXYXYXYXYXYXYXYXYXYXYXYXYXYXYX    N.jXjXT     * `.jXjXjXjXjXjXjXjXjXjXjXjXjX,.      . Z.jXpXG   YXYXYXYXYXYXYXYXYXYXYXYXYXYXYXYX",
"YXYXYXYXYXYXYXYXYXYXYXYXYXYXYX  B gXjX'.O     ' jXjXjXjXjXjXjXjXjXjXjXjXjXjXtXt       q rXjX<X    YXYXYXYXYXYXYXYXYXYXYXYXYXYXYX",
"YXYXYXYXYXYXYXYXYXYXYXYXYXYX    OXjXjXJ     < $XjXjXjXjXjXjXjXjXjXjXjXjXjXjXjXA.O       ..jXjX6.    YXYXYXYXYXYXYXYXYXYXYXYXYXYX",
"YXYXYXYXYXYXYXYXYXYXYXYXYXYX  >.jXjXD.      7.jXjXjXjXjXjXjXjXjXjXjXjXjXjXjXjXjXO.        P.jXtXd   YXYXYXYXYXYXYXYXYXYXYXYXYXYX",
"YXYXYXYXYXYXYXYXYXYXYXYXYXYX  yXjX,Xs     r wXjXjXjXjXjXjXjXjXjXjXjXjXjXjXjXjXjX8X8       g rXjX+X  YXYXYXYXYXYXYXYXYXYXYXYXYXYX",
"YXYXYXYXYXYXYXYXYXYXYXYX      0.L 6       d.jXjXjXjXjXjXjXjXjXjXjXjXjXjXjXjXjXjXjXC..       Y w.q.    YXYXYXYXYXYXYXYXYXYXYXYXYX",
"YXYXYXYXYXYXYXYXYXYX      t / f.U.^.m./ % M.jXjXjXjXjXjXjXjXjXjXjXjXjXjXjXjXjXjXjX_.- v 5.J.).E.k.}       YXYXYXYXYXYXYXYXYXYXYX",
"YXYXYXYXYXYXYXYX      9.'.uXjXjXjXjXjXjX`...T.jXjXjXjXjXjXjXjXjXjXjXjXjXjXjXjXtX;.$./.jXjXjXjXjXjXjX.Xx     YXYXYXYXYXYXYXYXYXYX",
"YXYXYXYXYXYXYX    j {.jXjXjXjXuXyXjXjXjXjX9Xw.`.jXjXjXjXjXjXjXjXjXjXjXjXjXjX7X| y.fXjXjXuXQ.V.(.iXjXjXtX*.    YXYXYXYXYXYXYXYXYX",
"YXYXYX          ! 9XjXjXjXJ.A 4 1 B j.iXjXjXsXB.k.qXpX-Xn.0XjXjXyX}.jXjXjX4X| R.jXjXjXd.i       u a.jXjXjXj.              YXYXYX",
"YXYXYX  J E E F.jXjXjX-X( . 1 } X.4   m +XjXjXfXw.x v P K |.jXjX0Xl g.R.z.A l.jXjX3X~     f r.}     W 9XjXjXU.H r Z P.:.  YXYXYX",
"YXYXYX  J.jXjXjXjXaXB.7   # oXjXjX[.$   5 L.jXjXjX*X`.iX9.).jXjX3X5.=X<.@.].jXjX[.a     & &XjXjX5.    l 7XjXjXjXuXjXjXT   YXYXYX",
"YXYXYX  C.jXjXjXjXM.      : aXjXjXfXe     - E.jXjXjXjXjXU `.jXjX2X0.jXjXjXjXjX(.=       ; yXjXjX!..     b 4XjXjXjXjXgXn   YXYXYX",
"YXYXYX  x.jXjXjXjX8X&.O   O n.jXjX5X1     , b.jXjXjXjXjX^ ,XjXjXqXe.jXjXjXjXjX1XI       o l.jXfX)       i %XjXjXjXjXwX    YXYXYX",
"YXYXYX  G.jXjXjXjXjXjXZ.9     i.Y.T     l (.jXjXjXjXjXjX/ U.wXtXK.*.jXjXjXjXjXjXjX .*     % o.l     + U 8XjXjXjXdXjXjXy   YXYXYX",
"YXYXYX  ~ ..J #.oXjXjXjX8Xk.E w > 3 L v.pXjXjXsXJ.7.9.N.s @ 4 8 O t.jXjXsXwXgXjXjXjX X1.b 3   1 n =./.jXjXjX%XK.H V o.    YXYXYX",
"YXYXYX          Z W.jXjXjXjXjXyX7XeXjXjXjXjX.XM                   ` %.T h 2 v {.jXjXjXjXjXeX0XtXjXjXjXjXjXc.f.5X=.      YXYXYXYX",
"YXYXYXYXYXYX  ;.5X:.9.eXjXjXjXjXjXjXjXjXyXp.<                                 ; ! !.fXjXjXjXjXjXjXjXjX).B X S.jXrXk   YXYXYXYXYX",
"YXYXYXYXYX    3XjX8X@ 7 0.@XqXfXdX5X(.o.5                                           u 7.].=X=X|.S.O.f       4 1XjX}.    YXYXYXYX",
"YXYXYXYX    w.jXjX%X1.%.&.h.{.iXrXP.q.) / ] [ [ [ [ [ [ [ [ [ [ [ [ [ [ [ [ [ [ [ ` ! ~ +.*.*.@.{ R Q ` [ ..-.[.jXjX&.    YXYXYX",
"YXYXYXYX  v sXjXjXjXjXjXjXjXjXjXjXjXjXjXjXjXjXjXjXjXjXjXjXjXjXjXjXjXjXjXjXjXjXjXjXjXjXjXjXjXjXjXjXjXjXjXjXjXjXjXjXjXsXb   YXYXYX",
"YXYXYXYX  T.jXjXjXjXjXjXjXgXiXiXiXiXiXpXpXpXpXpXpXpXiXqX0X0X0X0X0X0X0X0X0X0X0X0X:X@X@X@X@X@X@X@X@X@X@X@X@X@X+X+X XW.~.q.  YXYXYX",
"YXYXYXYX                                                                                                                  YXYXYX",
"YXYXYXYXYXYXYXYXYXYXYXYXYXYXYXYXYXYXYXYXYXYXYXYXYXYXYXYXYXYXYXYXYXYXYXYXYXYXYXYXYXYXYXYXYXYXYXYXYXYXYXYXYXYXYXYXYXYXYXYXYXYXYXYX",
"YXYXYXYXYXYXYXYXYXYXYXYXYXYXYXYXYXYXYXYXYXYXYXYXYXYXYXYXYXYXYXYXYXYXYXYXYXYXYXYXYXYXYXYXYXYXYXYXYXYXYXYXYXYXYXYXYXYXYXYXYXYXYXYX",
"YXYXYXYXYXYXYXYXYXYXYXYXYXYXYXYXYXYXYXYXYXYXYXYXYXYXYXYXYXYXYXYXYXYXYXYXYXYXYXYXYXYXYXYXYXYXYXYXYXYXYXYXYXYXYXYXYXYXYXYXYXYXYXYX",
"YXYXYXYXYXYXYXYXYXYXYXYXYXYXYXYXYXYXYXYXYXYXYXYXYXYXYXYXYXYXYXYXYXYXYXYXYXYXYXYXYXYXYXYXYXYXYXYXYXYXYXYXYXYXYXYXYXYXYXYXYXYXYXYX",
"YXYXYXYXYXYXYXYXYXYXYXYXYXYXYXYXYXYXYXYXYXYXYXYXYXYXYXYXYXYXYXYXYXYXYXYXYXYXYXYXYXYXYXYXYXYXYXYXYXYXYXYXYXYXYXYXYXYXYXYXYXYXYXYX",
"YXYXYXYXYXYXYXYXYXYXYXYXYXYXYXYXYXYXYXYXYXYXYXYXYXYXYXYXYXYXYXYXYXYXYXYXYXYXYXYXYXYXYXYXYXYXYXYXYXYXYXYXYXYXYXYXYXYXYXYXYXYXYXYX",
"YXYXYXYXYXYXYXYXYXYXYXYXYXYXYXYXYXYXYXYXYXYXYXYXYXYXYXYXYXYXYXYXYXYXYXYXYXYXYXYXYXYXYXYXYXYXYXYXYXYXYXYXYXYXYXYXYXYXYXYXYXYXYXYX",
"YXYXYXYXYXYXYXYXYXYXYXYXYXYXYXYXYXYXYXYXYXYXYXYXYXYXYXYXYXYXYXYXYXYXYXYXYXYXYXYXYXYXYXYXYXYXYXYXYXYXYXYXYXYXYXYXYXYXYXYXYXYXYXYX",
"YXYXYXYXYXYXYXYXYXYXYXYXYXYXYXYXYXYXYXYXYXYXYXYXYXYXYXYXYXYXYXYXYXYXYXYXYXYXYXYXYXYXYXYXYXYXYXYXYXYXYXYXYXYXYXYXYXYXYXYXYXYXYXYX"
};
