/* XPM */
static char *Discipline SPI[] = {
/* columns rows colors chars-per-pixel */
"24 24 87 1",
"  c black",
". c #01BE01BE01BE",
"X c #02CC02CC02CC",
"o c #037E037E037E",
"O c #04A804A804A8",
"+ c #057705770577",
"@ c #06B606B606B6",
"# c #07A507A507A5",
"$ c #083B083B083B",
"% c #09FF09FF09FF",
"& c #0A730A730A73",
"* c #104310431043",
"= c #113811381138",
"- c #12A812A812A8",
"; c #16C416C416C4",
": c #185A185A185A",
"> c #1A6A1A6A1A6A",
", c #21DD21DD21DD",
"< c #29D529D529D5",
"1 c #2B122B122B12",
"2 c #2E422E422E42",
"3 c #3D633D633D63",
"4 c #3F133F133F13",
"5 c #422A422A422A",
"6 c #49D249D249D2",
"7 c #4B184B184B18",
"8 c #4C424C424C42",
"9 c #4D814D814D81",
"0 c #4F9F4F9F4F9F",
"q c #524052405240",
"w c #531553155315",
"e c #54E054E054E0",
"r c #556955695569",
"t c #577957795779",
"y c #5D1F5D1F5D1F",
"u c #5DAD5DAD5DAD",
"i c #5EF05EF05EF0",
"p c #607A607A607A",
"a c #624662466246",
"s c #67AD67AD67AD",
"d c #6D116D116D11",
"f c #752275227522",
"g c #85CD85CD85CD",
"h c #8AC18AC18AC1",
"j c #908D908D908D",
"k c #942894289428",
"l c #97CC97CC97CC",
"z c #9DBC9DBC9DBC",
"x c #A014A014A014",
"c c #A239A239A239",
"v c #A403A403A403",
"b c #A5C6A5C6A5C6",
"n c #A923A923A923",
"m c #ABC1ABC1ABC1",
"M c #B142B142B142",
"N c #B677B677B677",
"B c #B7ACB7ACB7AC",
"V c #BBC2BBC2BBC2",
"C c #BEC3BEC3BEC3",
"Z c #C027C027C027",
"A c #C1C7C1C7C1C7",
"S c #C359C359C359",
"D c #C466C466C466",
"F c #CE6CCE6CCE6C",
"G c #D12DD12DD12D",
"H c #D57CD57CD57C",
"J c #DF1FDF1FDF1F",
"K c #E0A5E0A5E0A5",
"L c #E14CE14CE14C",
"P c #E39EE39EE39E",
"I c #E49FE49FE49F",
"U c #E6F3E6F3E6F3",
"Y c #E83EE83EE83E",
"T c #E918E918E918",
"R c #ECEAECEAECEA",
"E c #ED28ED28ED28",
"W c #EE9CEE9CEE9C",
"Q c #EF7DEF7DEF7D",
"! c #F069F069F069",
"~ c #F185F185F185",
"^ c #F741F741F741",
"/ c #F993F993F993",
"( c #FBB7FBB7FBB7",
") c #FC53FC53FC53",
"_ c #FE9DFE9DFE9D",
"` c #FFB0FFB0FFB0",
"' c gray100",
/* pixels */
"''''''''''''''''''''''''",
"''''''''''''''''''''''''",
"''HAAAAAAAAAAAAAAAAAAG/'",
"''q                  4E'",
"'/q       =2<        4E'",
"'/q     =emLF>       4E'",
"'/q     8g''^e       4E'",
"''MUUUUUC>k''c=nUUUUUCE'",
"'/lE''''Eqb''A4L''''ExE'",
"''euY''''JE''/H''''~d4E'",
"'/q qL''''''''''''Us 4E'",
"''q @eJ''''''''''Eu@ 4E'",
"''q  @8U''''''''~a@  4E'",
"'/q    eE''''''~a    4E'",
"'/q     8E''''~u@    4E'",
"''q     @k''''c&     4E'",
"'/q      6''''8      4E'",
"''q      @A''F&      4E'",
"''q      =D''H;      4E'",
"'/q     @f''''h&     4E'",
"'/q     2cNNNNn,     4E'",
"''q      @&@@&@      4E'",
"''CxxxcxxxxxcxxxcxxxcN/'",
"''''''''''''''''''''''''"
};
