/* XPM */
static char *Type Action Modifier[] = {
/* columns rows colors chars-per-pixel */
"24 24 172 2",
"   c #007B007B007B",
".  c #018901890189",
"X  c #027802780278",
"o  c #036203620362",
"O  c #048204820482",
"+  c #054D054D054D",
"@  c #068B068B068B",
"#  c #077307730773",
"$  c #089908990899",
"%  c #099809980998",
"&  c #0A6E0A6E0A6E",
"*  c #0BC70BC70BC7",
"=  c #0C4D0C4D0C4D",
"-  c #0DA00DA00DA0",
";  c #0F940F940F94",
":  c #11C611C611C6",
">  c #121F121F121F",
",  c #15A315A315A3",
"<  c #169016901690",
"1  c #175517551755",
"2  c #199519951995",
"3  c #1B101B101B10",
"4  c #1B9C1B9C1B9C",
"5  c #1C3A1C3A1C3A",
"6  c #1D641D641D64",
"7  c #1E731E731E73",
"8  c #1F481F481F48",
"9  c #207020702070",
"0  c #215A215A215A",
"q  c #223922392239",
"w  c #23CB23CB23CB",
"e  c #25A825A825A8",
"r  c #26E126E126E1",
"t  c #272D272D272D",
"y  c #287928792879",
"u  c #2C042C042C04",
"i  c #2CCD2CCD2CCD",
"p  c #2D842D842D84",
"a  c #2F6D2F6D2F6D",
"s  c #307630763076",
"d  c #34EB34EB34EB",
"f  c #354C354C354C",
"g  c #380238023802",
"h  c #3A123A123A12",
"j  c #3A913A913A91",
"k  c #3D503D503D50",
"l  c #3EB93EB93EB9",
"z  c #41AF41AF41AF",
"x  c #42CD42CD42CD",
"c  c #439D439D439D",
"v  c #447244724472",
"b  c #490149014901",
"n  c #49C749C749C7",
"m  c #4B3E4B3E4B3E",
"M  c #4BEF4BEF4BEF",
"N  c #4EC94EC94EC9",
"B  c #51CE51CE51CE",
"V  c #528D528D528D",
"C  c #53E153E153E1",
"Z  c #54A754A754A7",
"A  c #572257225722",
"S  c #584158415841",
"D  c #5A495A495A49",
"F  c #5C475C475C47",
"G  c #5F355F355F35",
"H  c #5F965F965F96",
"J  c #629162916291",
"K  c #691669166916",
"L  c #69A969A969A9",
"P  c #6CE66CE66CE6",
"I  c #70BB70BB70BB",
"U  c #71D571D571D5",
"Y  c #741F741F741F",
"T  c #7C087C087C08",
"R  c #7CDC7CDC7CDC",
"E  c #7E017E017E01",
"W  c #7E9E7E9E7E9E",
"Q  c #802980298029",
"!  c #809C809C809C",
"~  c #81D481D481D4",
"^  c #845A845A845A",
"/  c #84A484A484A4",
"(  c #862D862D862D",
")  c #86A486A486A4",
"_  c #87D687D687D6",
"`  c #88E588E588E5",
"'  c #8A2A8A2A8A2A",
"]  c #8AF78AF78AF7",
"[  c #8C088C088C08",
"{  c #8CE88CE88CE8",
"}  c #8DF78DF78DF7",
"|  c #904A904A904A",
" . c #910E910E910E",
".. c #920C920C920C",
"X. c #959395939593",
"o. c #987A987A987A",
"O. c #9A2A9A2A9A2A",
"+. c #9F539F539F53",
"@. c #A1C3A1C3A1C3",
"#. c #A306A306A306",
"$. c #A440A440A440",
"%. c #A534A534A534",
"&. c #A675A675A675",
"*. c #A6FBA6FBA6FB",
"=. c #A826A826A826",
"-. c #A93AA93AA93A",
";. c #A9E0A9E0A9E0",
":. c #AB08AB08AB08",
">. c #AC68AC68AC68",
",. c #ACB2ACB2ACB2",
"<. c #AFE4AFE4AFE4",
"1. c #B423B423B423",
"2. c #B4DCB4DCB4DC",
"3. c #B654B654B654",
"4. c #B78AB78AB78A",
"5. c #B812B812B812",
"6. c #B9A2B9A2B9A2",
"7. c #BA34BA34BA34",
"8. c #BB66BB66BB66",
"9. c #BC33BC33BC33",
"0. c #BDD2BDD2BDD2",
"q. c #BF28BF28BF28",
"w. c #BFE7BFE7BFE7",
"e. c #C138C138C138",
"r. c #C231C231C231",
"t. c #C353C353C353",
"y. c #C48EC48EC48E",
"u. c #C55CC55CC55C",
"i. c #C612C612C612",
"p. c #C6C6C6C6C6C6",
"a. c #C7D4C7D4C7D4",
"s. c #C9A9C9A9C9A9",
"d. c #CB4ECB4ECB4E",
"f. c #CD6BCD6BCD6B",
"g. c #CF25CF25CF25",
"h. c #D020D020D020",
"j. c #D299D299D299",
"k. c #D3CDD3CDD3CD",
"l. c #D679D679D679",
"z. c #D786D786D786",
"x. c #D92ED92ED92E",
"c. c #DB75DB75DB75",
"v. c #DD83DD83DD83",
"b. c #DE70DE70DE70",
"n. c #DF71DF71DF71",
"m. c #E07CE07CE07C",
"M. c #E225E225E225",
"N. c #E35FE35FE35F",
"B. c #E46FE46FE46F",
"V. c #E581E581E581",
"C. c #E8E4E8E4E8E4",
"Z. c #EA5AEA5AEA5A",
"A. c #EB73EB73EB73",
"S. c #ECBFECBFECBF",
"D. c #EDDAEDDAEDDA",
"F. c #EE36EE36EE36",
"G. c #F000F000F000",
"H. c #F169F169F169",
"J. c #F258F258F258",
"K. c #F372F372F372",
"L. c #F4A4F4A4F4A4",
"P. c #F65DF65DF65D",
"I. c #F787F787F787",
"U. c #F895F895F895",
"Y. c #F97BF97BF97B",
"T. c #FA71FA71FA71",
"R. c #FB71FB71FB71",
"E. c #FC7AFC7AFC7A",
"W. c #FD7BFD7BFD7B",
"Q. c #FE6EFE6EFE6E",
"!. c #FFCAFFCAFFCA",
"~. c gray100",
/* pixels */
"u.] ] [ ] ] ] ] [ ] ] ] ] ] ] [ ] ] ] ] ] ] ..n.",
"] X X X X X X % l Y @.7.7.O.L p X X X X X X = r.",
"] X X X # % M 1.F.Q.R.Q.R.Q.R.m.%.g X X # X % u.",
"] X X X , E G.P.R.G.1.R.u.G.Q.P.R.V.G % X X % u.",
"] X # > O.R.Q.R.G.E l R.B [ P.Q.R.R.G.Z # X % d.",
"] X # ~ R.R.R.Q.E % h R.x % ..P.Q.Q.Q.G.Z X = u.",
") X M F.R.Q.P.U # X D Q.Z X = ] P.R.Q.R.g.q = u.",
"] % 1.Q.R.P.Y = # x x.R.x.p X > ) R.P.R.R.) % u.",
"] g Z.Q.G.E # X x z.R.P.P.d.g X = ) P.Q.Q.j.7 r.",
"] U Q.G.~ % X x z.R.m.P n.R.d.g # = [ P.Q.F.M r.",
"] o.G.~ = # h n.Q.m.N X x m.R.g.p X = ..G.Q.U r.",
") 1.) % # u m.Q.Z.M # # X c V.P.z.u % = [ Q.~ d.",
"[ 1.q.3 # % :.R.G.T # X # [ P.R.1.= # 7 q.Q.) d.",
"[ o.R.q.e X = %.R.G.E % [ R.R.,., X 7 7.R.R.L u.",
"] P P.R.q.e # , %.P.G.7.P.Q.%.3 X 3 q.R.R.F.M u.",
"] p V.Q.R.q.q # , %.R.R.R.@.3 # 7 1.Q.Q.R.g.q r.",
"] X %.R.Q.Q.7.e # , %.Q.1., # 7 1.R.Q.Q.Q.E = d.",
"] X x F.Q.Q.Q.7.q # x P.x # 3 1.R.R.Q.P.g.q = r.",
"] X % E P.R.Q.R.u.e h Q.c 7 q.R.R.Q.R.Z.N X = u.",
"] X X = ) P.Q.Q.R.q.G R.J 7.Q.Q.R.Q.G.D % # = r.",
"[ X X X = E Z.Q.Q.R.m.Q.m.R.R.Q.R.n.B # # X = u.",
"] X X X # # x %.m.P.R.P.R.R.P.n.O.p X X X X = u.",
"..% # % % % # = h P O.%.%.[ G u = % % # % % , r.",
"z.%.%.:.%.:.:.:.,.@.:.%.:.:.%.:.:.%.%.:.:.@.:.F."
};
