/* XPM */
static char *Discipline OBE[] = {
/* columns rows colors chars-per-pixel */
"24 24 98 2",
"   c #000200020002",
".  c #01D101D101D1",
"X  c #029A029A029A",
"o  c #038403840384",
"O  c #04E204E204E2",
"+  c #07C207C207C2",
"@  c #0A070A070A07",
"#  c #0C010C010C01",
"$  c #0CE60CE60CE6",
"%  c #0EB60EB60EB6",
"&  c #0FDD0FDD0FDD",
"*  c #11F911F911F9",
"=  c #12E212E212E2",
"-  c #14ED14ED14ED",
";  c #158315831583",
":  c #16BF16BF16BF",
">  c #18AD18AD18AD",
",  c #1A921A921A92",
"<  c #1B801B801B80",
"1  c #1CF51CF51CF5",
"2  c #1DE41DE41DE4",
"3  c #1EA31EA31EA3",
"4  c #232A232A232A",
"5  c #270F270F270F",
"6  c #28D928D928D9",
"7  c #2B312B312B31",
"8  c #2D0E2D0E2D0E",
"9  c #2D8C2D8C2D8C",
"0  c #2E592E592E59",
"q  c #2FC62FC62FC6",
"w  c #35B235B235B2",
"e  c #369736973697",
"r  c #3BAC3BAC3BAC",
"t  c #3F133F133F13",
"y  c #413E413E413E",
"u  c #426442644264",
"i  c #4EC74EC74EC7",
"p  c #508E508E508E",
"a  c #5BDA5BDA5BDA",
"s  c #5D5D5D5D5D5D",
"d  c #633163316331",
"f  c #647D647D647D",
"g  c #670367036703",
"h  c #680568056805",
"j  c #687C687C687C",
"k  c #6ED96ED96ED9",
"l  c #71C671C671C6",
"z  c #752175217521",
"x  c #77FC77FC77FC",
"c  c #7AFD7AFD7AFD",
"v  c #7DDD7DDD7DDD",
"b  c #820F820F820F",
"n  c #878187818781",
"m  c #879287928792",
"M  c #894689468946",
"N  c #8BD98BD98BD9",
"B  c #8E138E138E13",
"V  c #900190019001",
"C  c #93F093F093F0",
"Z  c #952695269526",
"A  c #973397339733",
"S  c #98D698D698D6",
"D  c #9B139B139B13",
"F  c #9E399E399E39",
"G  c #9F2D9F2D9F2D",
"H  c #A012A012A012",
"J  c #A12AA12AA12A",
"K  c #A1A3A1A3A1A3",
"L  c #A746A746A746",
"P  c #A949A949A949",
"I  c #B310B310B310",
"U  c #B66EB66EB66E",
"Y  c #B7ACB7ACB7AC",
"T  c #C0B7C0B7C0B7",
"R  c #C1C7C1C7C1C7",
"E  c #C35AC35AC35A",
"W  c #C6C9C6C9C6C9",
"Q  c #CD57CD57CD57",
"!  c #CF0ACF0ACF0A",
"~  c #D029D029D029",
"^  c #D107D107D107",
"/  c #D82CD82CD82C",
"(  c #DA6CDA6CDA6C",
")  c #E069E069E069",
"_  c #EE96EE96EE96",
"`  c #EFA8EFA8EFA8",
"'  c #F02CF02CF02C",
"]  c #F5B2F5B2F5B2",
"[  c #F624F624F624",
"{  c #F842F842F842",
"}  c #F976F976F976",
"|  c #FAF6FAF6FAF6",
" . c #FBB7FBB7FBB7",
".. c #FC6CFC6CFC6C",
"X. c #FDADFDADFDAD",
"o. c #FEC5FEC5FEC5",
"O. c #FFC5FFC5FFC5",
"+. c gray100",
/* pixels */
"+.+.+.+.+.+.+.+.+.+.+.+.+.+.+.+.+.+.+.+.+.+.+.+.",
"+.+.+.+.+.+.+.+.+.+.+.+.+.+.+.+.+.+.+.+.+.+.+.+.",
"+.| ~ R R R R R R R R R R R R R R R R R R ~ +.+.",
"+.) 7                                     r _ +.",
"+.) 7                                     r _ +.",
"+.) 7           O < 5 q q > > O           r _ +.",
"+.) 7         4 b ( C s a v ( M 7         y _ +.",
"+.) 7     y L _ +.+.| H C ] +.+.] P y     y _ +.",
"+.) 7 O e R +.+.+.+.+.L C +.+.+.+.+.R w O r _ +.",
"+.) 7 % I | +.+.+.+.+.L L +.+.+.+.+.+.~ % r _ +.",
"+.) 7   < k ~ ( _ +.+.L L +.+._ ( / z 7   r ] +.",
"+.) 7     O * : i c M H H N c i : : O     y _ +.",
"+.) 7               M H H z O             y _ +.",
"+.) 7             @ U d k W *             r _ +.",
"+.) 7             O D F C ~ %             r _ +.",
"+.) 7               q M P e               y _ +.",
"+.) 7               i f h f               y _ +.",
"+.) 7               h N M h               r _ +.",
"+.) 7               < C D 4               y _ +.",
"+.) 7               * M N *               r _ +.",
"+.) 7                 r r                 y _ +.",
"+.) 7                 : >                 r _ +.",
"+.] I H H H H H H H H H H H H H H H H H H U | +.",
"+.+.+.+.+.+.+.+.+.+.+.+.+.+.+.+.+.+.+.+.+.+.+.+."
};
