/* XPM */
static char *IconClanGio.gif[] = {
/* columns rows colors chars-per-pixel */
"64 64 17 1",
"  c gray100",
". c #EFEFEF",
"X c gray87",
"o c #CECECE",
"O c gray74",
"+ c #A5A5A5",
"@ c gray58",
"# c gray55",
"$ c #7B7B7B",
"% c gray42",
"& c gray32",
"* c #393939",
"= c gray13",
"- c #101010",
"; c cyan",
": c black",
"> c None",
/* pixels */
">>>>>>>>>>>>>>>>>>>>>>>>>>>>>>>>>>>>>>>>>>>>>>>>>>>>>>>>>>>>>>>>",
">>>>>>>>>>>>>>>>>>>>>>>>>>>>>>>>>>>>>>>>>>>>>>>>>>>>>>>>>>>>>>>>",
">>>>>>>>>>>>>>>>>>>>>>>>>>>>>>>>>>>>>>>>>>>>>>>>>>>>>>>>>>>>>>>>",
">>>>>>>>>>>>>>>>>>>>>>>>>>>>>>>>>>>>>>>>>>>>>>>>>>>>>>>>>>>>>>>>",
">>>>>>>>>>>>>>>>>>>>>>>>>>>>>>>>>>>>>>>>>>>>>>>>>>>>>>>>>>>>>>>>",
">>>>>>>>>>>>>>>>>>>>>>>>>>>>>>>>>>>>>>>>>>>>>>>>>>>>>>>>>>>>>>>>",
">>>>>>>>>>>>>>>>>>>>>>>>>>>>>>>>>>>>>>>>>>>>>>>>>>>>>>>>>>>>>>>>",
">>>>>>>>>>>>>>>>>>>>>>>>>>>>>>>>>>>>>>>>>>>>>>>>>>>>>>>>>>>>>>>>",
">>>>>>>>>>>>>>>>>>>>>>>>>>>>>>>>>>>>>>>>>>>>>>>>>>>>>>>>>>>>>>>>",
">>>>>>>>>>>>>>>>>>>>>>>>>>>>>>>>>>>>>>>>>>>>>>>>>>>>>>>>>>>>>>>>",
">>>>>>>>>>>>>>>>>>>>>>>>>>>>>>>>>>>>>>>>>>>>>>>>>>>>>>>>>>>>>>>>",
">>>>>>>>>>>> XXXX..XXXXXXXXX..XXXXXXXXXooXXXXXXXX.X. >>>>>>>>>>>",
">>>>>>>>>>>> $#%$+@$$&&%%$#@+#$%&&&%$$%&&%%%%&&*&&*%o>>>>>>>>>>>",
">>>>>>>>>>>>X$#X**%%&#@@$&%O+OOOOOo+&%@$*=#O@@-&oX**X>>>>>>>>>>>",
">>>>>>>>>>>>X@oX&@+oX+O#@o..XXXooX..OOOOO$$+Xo-+@X%&X>>>>>>>>>>>",
">>>>>>>>>>>>X&&&=%&@#O+o.oOooXXXXXXXooXXXX.X+X=@*%$*o>>>>>>>>>>>",
">>>>>>>>>>>>X*%@&%=&@oXoOX .X...XX...XoooO+OOX&#&&$*o>>>>>>>>>>>",
">>>>>>>>>>>>X*$.%&%+XOX..  ..O#&==%+o.X.X .  X$$OO&&X>>>>>>>>>>>",
">>>>>>>>>>>>X&&X%%OXO.. .XXO*:*@OO@%&&+.o.   OO&X+*&o>>>>>>>>>>>",
">>>>>>>>>>>>X*$O$oooo  ..X$**OO+#@$&$@@+O.X. o.*O&%*X>>>>>>>>>>>",
">>>>>>>>>>>>X@@OO.+X  .oo%=%OoO$@.O*=&@O#OOX.XX&#&@&X>>>>>>>>>>>",
">>>>>>>>>>>>o&@XoOX   oX%:O$&@&X $O &&#Oo+@oX.O+&o%*X>>>>>>>>>>>",
">>>>>>>>>>>>o*@XOO  ..O#*O+O@*:-****&*&#*=@+ooXo .@@X>>>>>>>>>>>",
">>>>>>>>>>>>o&+oOX  .+o=+oO+oo**@oX.X.oOO$%%@oX.oX+%X>>>>>>>>>>>",
">>>>>>>>>>>>o#OoX   ..%*o$XX&&O.XOOOooooXo+$$@oX.XO* >>>>>>>>>>>",
">>>>>>>>>>>>o+XO. . Xo:@O*-*+.ooXX..XX ..XXo+@+oOO*%X>>>>>>>>>>>",
">>>>>>>>>>>>O+Xo.   O+=.@:%oXoXX.o#%$oXX...XX+#@O@%%X>>>>>>>>>>>",
">>>>>>>>>>>>OOO.   .O&$%=+ooX. O&*%O@$+XXX XXX@$*%&*X>>>>>>>>>>>",
">>>>>>>>>>>>+X+  . XX=+*ooX. XX%&OO@o*++oo. Xo.$#%&*X>>>>>>>>>>>",
">>>>>>>>>>>>Ooo    Oo=O=XO.  o@%$=&+&&=$oOX  .o+&%&*.>>>>>>>>>>>",
">>>>>>>>>>>>oO.    Oo=o:%.X .X%%**% +o$&OX+.  XX&%*&.>>>>>>>>>>>",
">>>>>>>>>>>>oO  .  Oo=X-*+o..X%$+*OOo&:%+oO . ..$&*&.>>>>>>>>>>>",
">>>>>>>>>>>>oO  .  Oo=@-&=.o. $%O.#+%OOO$X+.   oO*&*X>>>>>>>>>>>",
">>>>>>>>>>>>+oo    oX*$&$=OX.X###&=:#ooO*XOo   OX=$*.>>>>>>>>>>>",
">>>>>>>>>>>>@OO  . XX*$#$$*ooX$%*&#&#OOO*Ooo   oX&@&.>>>>>>>>>>>",
">>>>>>>>>>>>++OX   .o$$+$o*+.O.%O.o.&*O$%XOX  .Xo%$%.>>>>>>>>>>>",
">>>>>>>>>>>>O@Oo    oO%O$%::oXo.XOooO:*=OXO.  ..o%%&.>>>>>>>>>>>",
">>>>>>>>>>>>O$X+.   XX*+%&:-*XoOo+.X@:O.oX+    .o%&$.>>>>>>>>>>>",
">>>>>>>>>>>>O%+oO   . #%@++&&$XooO.o*@XX+X#.   Xo&%$X>>>>>>>>>>>",
">>>>>>>>>>>>o*$oO.   XX%O@+$o*&O o+&O%O#oOoX   XX*@%.>>>>>>>>>>>",
">>>>>>>>>>>>o*@@ooX  ..O#O*$Oo$:=*=:*-%#OO.    oX-@&.>>>>>>>>>>>",
">>>>>>>>>>>>o%#@OooX  .XoX%$$&%&$+$::@OXOXo . .XO=%& >>>>>>>>>>>",
">>>>>>>>>>>>X$&O$ooo. ..oO@$&%#&XX#$+OOOOoXo .oX%&*% >>>>>>>>>>>",
">>>>>>>>>>>>X*&X%@OoX  . o.OO@@+@%+@XoOOoo.X Xo+&%*%.>>>>>>>>>>>",
">>>>>>>>>>>>X=@X%*#oXXX . oX.oO+OO.XOOOoo$Xoooo&%&%& >>>>>>>>>>>",
">>>>>>>>>>>>X=O+&%&$@XXX.  .oOOOOOOooXXO*=#OO#*$&+O& >>>>>>>>>>>",
">>>>>>>>>>>>X&$%*%*&%%@oXXXX.   ..XXXX%-&$&$OOOO++#*.>>>>>>>>>>>",
">>>>>>>>>>>>X&&&*$@++o@%$OXXXXXX.Xo@$*&$#+O@%%&$.#=$ >>>>>>>>>>>",
">>>>>>>>>>>>XO+@&@oXO$##%&&%%#$%&==&%#&*++*$oOXO.O:$ >>>>>>>>>>>",
">>>>>>>>>>>>X+%&-*&==%&*=*$@#@##@O+$&*&*%%*&*%o%*&:% >>>>>>>>>>>",
">>>>>>>>>>>>.+@@#+@$+#@@#+OO@@+++@##@@##$#@$%%#%%%#o >>>>>>>>>>>",
">>>>>>>>>>>>         .   ..         ..    . .  .     >>>>>>>>>>>",
">>>>>>>>>>>>>>>>>>>>>>>>>>>>>>>>>>>>>>>>>>>>>>>>>>>>>>>>>>>>>>>>",
">>>>>>>>>>>>>>>>>>>>>>>>>>>>>>>>>>>>>>>>>>>>>>>>>>>>>>>>>>>>>>>>",
">>>>>>>>>>>>>>>>>>>>>>>>>>>>>>>>>>>>>>>>>>>>>>>>>>>>>>>>>>>>>>>>",
">>>>>>>>>>>>>>>>>>>>>>>>>>>>>>>>>>>>>>>>>>>>>>>>>>>>>>>>>>>>>>>>",
">>>>>>>>>>>>>>>>>>>>>>>>>>>>>>>>>>>>>>>>>>>>>>>>>>>>>>>>>>>>>>>>",
">>>>>>>>>>>>>>>>>>>>>>>>>>>>>>>>>>>>>>>>>>>>>>>>>>>>>>>>>>>>>>>>",
">>>>>>>>>>>>>>>>>>>>>>>>>>>>>>>>>>>>>>>>>>>>>>>>>>>>>>>>>>>>>>>>",
">>>>>>>>>>>>>>>>>>>>>>>>>>>>>>>>>>>>>>>>>>>>>>>>>>>>>>>>>>>>>>>>",
">>>>>>>>>>>>>>>>>>>>>>>>>>>>>>>>>>>>>>>>>>>>>>>>>>>>>>>>>>>>>>>>",
">>>>>>>>>>>>>>>>>>>>>>>>>>>>>>>>>>>>>>>>>>>>>>>>>>>>>>>>>>>>>>>>",
">>>>>>>>>>>>>>>>>>>>>>>>>>>>>>>>>>>>>>>>>>>>>>>>>>>>>>>>>>>>>>>>",
">>>>>>>>>>>>>>>>>>>>>>>>>>>>>>>>>>>>>>>>>>>>>>>>>>>>>>>>>>>>>>>>"
};
