/* XPM */
static char *Discipline ANI[] = {
/* columns rows colors chars-per-pixel */
"24 24 164 2",
"   c #00A600A600A6",
".  c #018E018E018E",
"X  c #027102710271",
"o  c #038403840384",
"O  c #046A046A046A",
"+  c #05AD05AD05AD",
"@  c #06A306A306A3",
"#  c #079E079E079E",
"$  c #083808380838",
"%  c #099809980998",
"&  c #0AD00AD00AD0",
"*  c #0B880B880B88",
"=  c #0C690C690C69",
"-  c #0DAC0DAC0DAC",
";  c #0E710E710E71",
":  c #0F620F620F62",
">  c #106910691069",
",  c #135513551355",
"<  c #14A714A714A7",
"1  c #1A071A071A07",
"2  c #1A8E1A8E1A8E",
"3  c #1B871B871B87",
"4  c #1CD31CD31CD3",
"5  c #1F2A1F2A1F2A",
"6  c #203720372037",
"7  c #218C218C218C",
"8  c #23B723B723B7",
"9  c #288128812881",
"0  c #2C1C2C1C2C1C",
"q  c #30BA30BA30BA",
"w  c #31C831C831C8",
"e  c #33F033F033F0",
"r  c #358A358A358A",
"t  c #383438343834",
"y  c #3AAD3AAD3AAD",
"u  c #3BE13BE13BE1",
"i  c #3F393F393F39",
"p  c #41E041E041E0",
"a  c #447344734473",
"s  c #4B144B144B14",
"d  c #4B7E4B7E4B7E",
"f  c #4D0F4D0F4D0F",
"g  c #504C504C504C",
"h  c #50C550C550C5",
"j  c #52E352E352E3",
"k  c #53C253C253C2",
"l  c #571157115711",
"z  c #5A605A605A60",
"x  c #5BB05BB05BB0",
"c  c #5CED5CED5CED",
"v  c #5DFD5DFD5DFD",
"b  c #5EBD5EBD5EBD",
"n  c #601F601F601F",
"m  c #607760776077",
"M  c #61DF61DF61DF",
"N  c #64B764B764B7",
"B  c #661E661E661E",
"V  c #673A673A673A",
"C  c #67EB67EB67EB",
"Z  c #692369236923",
"A  c #69DA69DA69DA",
"S  c #6B0D6B0D6B0D",
"D  c #6C726C726C72",
"F  c #6DC06DC06DC0",
"G  c #6EF46EF46EF4",
"H  c #6FC96FC96FC9",
"J  c #730473047304",
"K  c #742E742E742E",
"L  c #74FC74FC74FC",
"P  c #765A765A765A",
"I  c #77E177E177E1",
"U  c #78A578A578A5",
"Y  c #79C079C079C0",
"T  c #7ADA7ADA7ADA",
"R  c #7C2B7C2B7C2B",
"E  c #7D487D487D48",
"W  c #7DC77DC77DC7",
"Q  c #7F447F447F44",
"!  c #802480248024",
"~  c #80EA80EA80EA",
"^  c #833883388338",
"/  c #842184218421",
"(  c #85FE85FE85FE",
")  c #86AC86AC86AC",
"_  c #886088608860",
"`  c #89A289A289A2",
"'  c #8AE48AE48AE4",
"]  c #8C178C178C17",
"[  c #8E5D8E5D8E5D",
"{  c #935993599359",
"}  c #93CA93CA93CA",
"|  c #965696569656",
" . c #96F996F996F9",
".. c #983298329832",
"X. c #99E699E699E6",
"o. c #9D129D129D12",
"O. c #9F889F889F88",
"+. c #A039A039A039",
"@. c #A102A102A102",
"#. c #A26EA26EA26E",
"$. c #A32CA32CA32C",
"%. c #A421A421A421",
"&. c #A543A543A543",
"*. c #A6A2A6A2A6A2",
"=. c #A7F1A7F1A7F1",
"-. c #AAF9AAF9AAF9",
";. c #AC2AAC2AAC2A",
":. c #AD54AD54AD54",
">. c #AE5BAE5BAE5B",
",. c #AF59AF59AF59",
"<. c #B01CB01CB01C",
"1. c #B0E7B0E7B0E7",
"2. c #B261B261B261",
"3. c #B762B762B762",
"4. c #B929B929B929",
"5. c #BA03BA03BA03",
"6. c #BEB8BEB8BEB8",
"7. c #BF43BF43BF43",
"8. c #C217C217C217",
"9. c #C3A1C3A1C3A1",
"0. c #C4F9C4F9C4F9",
"q. c #C73BC73BC73B",
"w. c #C94EC94EC94E",
"e. c #CA9ACA9ACA9A",
"r. c #CD74CD74CD74",
"t. c #CE62CE62CE62",
"y. c #D00DD00DD00D",
"u. c #D0EBD0EBD0EB",
"i. c #D39ED39ED39E",
"p. c #D430D430D430",
"a. c #D4E7D4E7D4E7",
"s. c #D648D648D648",
"d. c #D707D707D707",
"f. c #D924D924D924",
"g. c #DA91DA91DA91",
"h. c #DB64DB64DB64",
"j. c #DBFEDBFEDBFE",
"k. c #DD44DD44DD44",
"l. c #DE7FDE7FDE7F",
"z. c #DF84DF84DF84",
"x. c #E306E306E306",
"c. c #E697E697E697",
"v. c #E7D2E7D2E7D2",
"b. c #E854E854E854",
"n. c #E8F9E8F9E8F9",
"m. c #EADCEADCEADC",
"M. c #EBC9EBC9EBC9",
"N. c #EDBAEDBAEDBA",
"B. c #EE48EE48EE48",
"V. c #F18BF18BF18B",
"C. c #F230F230F230",
"Z. c #F376F376F376",
"A. c #F584F584F584",
"S. c #F6A2F6A2F6A2",
"D. c #F7ADF7ADF7AD",
"F. c #F89BF89BF89B",
"G. c #F977F977F977",
"H. c #FA72FA72FA72",
"J. c #FB99FB99FB99",
"K. c #FC9BFC9BFC9B",
"L. c #FD8DFD8DFD8D",
"P. c #FE82FE82FE82",
"I. c #FF71FF71FF71",
"U. c gray100",
/* pixels */
"K.J.K.K.K.K.K.K.K.K.K.J.K.K.K.K.K.K.K.K.K.K.K.K.",
"K.t.I b b x b H T ! ( | | ! T E b b b b T ! ,.K.",
"K.#.o o o o o : g { t.g.a.i.-.V 4 + o o o o x K.",
"K.#.o + + o g 4.V.J.K.K.J.J.J.D.i.H + o o o x K.",
"K.*.o o + A N.J.D.J.K.K.K.6.3.J.K.J.o.2 o o M K.",
"K.*.o + V D.K.J.a.E N.J.J.b g V.J.J.K.O., o M K.",
"K.*.o a m.K.K.J.V : -.K.i.< + | K.K.K.J.H o M K.",
"K.*.+ ,.D.K.K.i.2 o b K.-.+ o r m.K.K.K.l.0 b K.",
"K.#.p V.D.g.K.<.& o 9 K.*.+ o & ,.J.l.a.K.E M K.",
"K.#.E K.t.q 4.#.+ o 2 D.-.& o o O.i.l | J.9.b J.",
"K.#.,.K.T o r | o o 0 J.a.4 o + O.u + [ K.g.T K.",
"K.*.t.K.b o o ' & , o.g.t.,.4 q ( + o A K.m.' K.",
"K.*.i.K.b o + 6.q.q.H + + A x.l.u o o b J.v.[ K.",
"K.*.<.K.M + + e.| 7 & o o & H 9.h o o x K.l.T K.",
"K.#.E J.#.r V h & o o o o o + 7 H 4 o [ K.9.M K.",
"K.#.p N.J.N.b o o o o & y + + o 7 4.( v.D.E b K.",
"K.*.& <.J.J.+ o o o o + 6.u o o : l.K.K.x.q b K.",
"K.*.o y N.D.q o o + o a V.x o o 2 v.J.K.T + b K.",
"K.*.o o A V.,.& o + M m.K.y o o b J.J.*.: + b K.",
"K.*.o o & H m.t.[ <.V.J.K.H 7 h g.J.O., + o b K.",
"K.#.+ o o o g 9.J.K.K.J.J.V.l.m.a.A : + o o b K.",
"K.#.o + o + o , h | e.g.g.i.*.V 9 o + + o o b K.",
"K.i.! ! E E H E ! ( ! o.o.! ! ! ! I ! ! ! ! ,.K.",
"K.K.K.K.K.K.K.K.K.K.K.K.K.K.K.K.K.K.K.K.K.K.K.J."
};
