/* XPM */
static char * mal_xpm[] = {
"19 19 299 2",
"  	c #A0A7A1",
". 	c #AEB1B0",
"+ 	c #AAAEAC",
"@ 	c #B2B4B3",
"# 	c #B1B4B2",
"$ 	c #ABAEAC",
"% 	c #A8ADAA",
"& 	c #ACB3AF",
"* 	c #AEB8B4",
"= 	c #B4BDB9",
"- 	c #AEB5B2",
"; 	c #A9AFAC",
"> 	c #A9AFAB",
", 	c #AFB5B1",
"' 	c #ACB6B3",
") 	c #AAB3AF",
"! 	c #849992",
"~ 	c #FFFFFF",
"{ 	c #E5E0E1",
"] 	c #CDC9CA",
"^ 	c #CAC8C9",
"/ 	c #CDCBCC",
"( 	c #C8C6C7",
"_ 	c #D3D1D2",
": 	c #D4D2D3",
"< 	c #CFCDCE",
"[ 	c #D4D1D3",
"} 	c #CECCCD",
"| 	c #D5D3D4",
"1 	c #C9C7C9",
"2 	c #D1CFCD",
"3 	c #D3D3D1",
"4 	c #C4C8C7",
"5 	c #F2FAF9",
"6 	c #D6E8E5",
"7 	c #FBFBFA",
"8 	c #666161",
"9 	c #0C090A",
"0 	c #191718",
"a 	c #2F2D2E",
"b 	c #3C3A3B",
"c 	c #070506",
"d 	c #181617",
"e 	c #1B191A",
"f 	c #0A0809",
"g 	c #444344",
"h 	c #343130",
"i 	c #13110F",
"j 	c #0B0E0D",
"k 	c #97A1A0",
"l 	c #CEE0DB",
"m 	c #FEFEFF",
"n 	c #6C6969",
"o 	c #100D0E",
"p 	c #211F1F",
"q 	c #383637",
"r 	c #DBD9DA",
"s 	c #7D7B7C",
"t 	c #131112",
"u 	c #1C1A1B",
"v 	c #292728",
"w 	c #171516",
"x 	c #888687",
"y 	c #C6C4C5",
"z 	c #353030",
"A 	c #1F1A1A",
"B 	c #111110",
"C 	c #9FA7A6",
"D 	c #CEDFDB",
"E 	c #FFFFFE",
"F 	c #6D6C6B",
"G 	c #100E0F",
"H 	c #242223",
"I 	c #B8B6B7",
"J 	c #ECECEC",
"K 	c #ADABAC",
"L 	c #0E0C0D",
"M 	c #353334",
"N 	c #B2B0B1",
"O 	c #F7F6F7",
"P 	c #A7A4A5",
"Q 	c #120C0D",
"R 	c #282323",
"S 	c #120F10",
"T 	c #A7ADAC",
"U 	c #CFDDDA",
"V 	c #666665",
"W 	c #101010",
"X 	c #272526",
"Y 	c #110F10",
"Z 	c #767475",
"` 	c #AAA8A9",
" .	c #929091",
"..	c #CBC9CA",
"+.	c #D0CECF",
"@.	c #838283",
"#.	c #BCBABB",
"$.	c #6B6869",
"%.	c #171212",
"&.	c #272121",
"*.	c #131011",
"=.	c #A3A7A7",
"-.	c #CFDCDA",
";.	c #696A67",
">.	c #0F100F",
",.	c #262425",
"'.	c #484647",
").	c #302E2F",
"!.	c #989697",
"~.	c #E0DFDF",
"{.	c #918F90",
"].	c #322F30",
"^.	c #2E2B2D",
"/.	c #201B1B",
"(.	c #272021",
"_.	c #181315",
":.	c #A3A6A7",
"<.	c #D0DDDB",
"[.	c #6D6C69",
"}.	c #0E0E0D",
"|.	c #252324",
"1.	c #222021",
"2.	c #B6B4B5",
"3.	c #B0AEAF",
"4.	c #B7B5B6",
"5.	c #C9C9C9",
"6.	c #BEBCBD",
"7.	c #A6A4A5",
"8.	c #110F11",
"9.	c #221E1D",
"0.	c #121010",
"a.	c #A3A6A8",
"b.	c #CDD9D6",
"c.	c #676664",
"d.	c #121210",
"e.	c #211F20",
"f.	c #1A1819",
"g.	c #716F70",
"h.	c #E4E3E4",
"i.	c #C0BEBF",
"j.	c #7F7D7E",
"k.	c #A19FA0",
"l.	c #D6D4D5",
"m.	c #12100E",
"n.	c #252221",
"o.	c #121112",
"p.	c #A4A7A7",
"q.	c #D0DBD8",
"r.	c #696866",
"s.	c #090907",
"t.	c #292627",
"u.	c #9F9D9D",
"v.	c #B9B7B8",
"w.	c #525051",
"x.	c #C1BFC0",
"y.	c #444243",
"z.	c #8F8D8E",
"A.	c #C1BFC1",
"B.	c #92908F",
"C.	c #252422",
"D.	c #070707",
"E.	c #9FA3A3",
"F.	c #D2DCDB",
"G.	c #6A6765",
"H.	c #3C3C3B",
"I.	c #D7D6D7",
"J.	c #F7F5F5",
"K.	c #AFADAE",
"L.	c #AEACAD",
"M.	c #7E7C7D",
"N.	c #8E8C8D",
"O.	c #FFFEFD",
"P.	c #D8D8D7",
"Q.	c #3E3F3F",
"R.	c #9DA1A1",
"S.	c #807C7B",
"T.	c #8E8A8A",
"U.	c #BDBABB",
"V.	c #A09C9D",
"W.	c #B5B1B2",
"X.	c #AAA7A8",
"Y.	c #C0BDBE",
"Z.	c #868384",
"`.	c #C5C1C2",
" +	c #9C999A",
".+	c #9E9A9B",
"++	c #8F8D8C",
"@+	c #959493",
"#+	c #6A6A6A",
"$+	c #A7ACAB",
"%+	c #CCD7D4",
"&+	c #6B6768",
"*+	c #160F12",
"=+	c #231C1E",
"-+	c #221C1E",
";+	c #20191C",
">+	c #120C0E",
",+	c #524C4F",
"'+	c #C8C4C6",
")+	c #30292B",
"!+	c #D2CDCF",
"~+	c #3C3537",
"{+	c #171113",
"]+	c #1E181A",
"^+	c #20191B",
"/+	c #1B1516",
"(+	c #0F0B09",
"_+	c #A6A7A4",
":+	c #D1DAD3",
"<+	c #6B6867",
"[+	c #120D0D",
"}+	c #262324",
"|+	c #201E1E",
"1+	c #232021",
"2+	c #1E1B1C",
"3+	c #BBB9B9",
"4+	c #ABA8A9",
"5+	c #ADADAD",
"6+	c #131111",
"7+	c #252323",
"8+	c #282022",
"9+	c #151110",
"0+	c #A4A6A1",
"a+	c #D2DAD3",
"b+	c #6E6B6A",
"c+	c #120F0E",
"d+	c #222323",
"e+	c #1F2120",
"f+	c #202221",
"g+	c #101211",
"h+	c #8A8C8B",
"i+	c #666867",
"j+	c #1A1C1B",
"k+	c #202321",
"l+	c #1E1F1E",
"m+	c #201E1F",
"n+	c #242021",
"o+	c #141211",
"p+	c #D6DED9",
"q+	c #FEFFFE",
"r+	c #686966",
"s+	c #11110F",
"t+	c #252425",
"u+	c #232323",
"v+	c #222121",
"w+	c #232223",
"x+	c #181818",
"y+	c #595959",
"z+	c #F2F1F2",
"A+	c #333333",
"B+	c #1C1B1B",
"C+	c #202020",
"D+	c #212121",
"E+	c #161614",
"F+	c #A3A7A2",
"G+	c #D5DFD8",
"H+	c #FFFEFF",
"I+	c #5D625D",
"J+	c #030301",
"K+	c #1C1518",
"L+	c #191215",
"M+	c #191114",
"N+	c #1A1315",
"O+	c #160F11",
"P+	c #282023",
"Q+	c #797174",
"R+	c #251E21",
"S+	c #140D0F",
"T+	c #1F181A",
"U+	c #150E11",
"V+	c #171415",
"W+	c #141615",
"X+	c #060805",
"Y+	c #9BA39D",
"Z+	c #D0DDD4",
"`+	c #FBFDFC",
" @	c #818A82",
".@	c #3F413C",
"+@	c #544F50",
"@@	c #544D4E",
"#@	c #544D4F",
"$@	c #554E50",
"%@	c #4E4849",
"&@	c #514B4D",
"*@	c #575051",
"=@	c #524C4D",
"-@	c #514B4C",
";@	c #554D4F",
">@	c #4F4E4E",
",@	c #494E4C",
"'@	c #3D433E",
")@	c #B0BBB4",
"!@	c #D2DDD7",
"~@	c #FEFFFF",
"{@	c #FCFFFE",
"]@	c #FDFFFF",
"^@	c #FCFFFF",
"/@	c #FBFFFF",
"(@	c #CCDBD2",
"  . + @ # @ $ % & * * = - ; > , ' ) ! ",
"~ { ] ^ / ( _ : < < [ } | 1 2 3 4 5 6 ",
"7 8 9 0 a b c d e 0 d e f g h i j k l ",
"m n o p q r s t u v e w x y z A B C D ",
"E F G H u I J K a L M N O P Q R S T U ",
"~ V W X Y Z `  ...s +.@.#.$.%.&.*.=.-.",
"~ ;.>.,.w './ ).!.~.{.]._ ^./.(._.:.<.",
"~ [.}.|.1.Y 2.3.4.5.#.6.7.8.9.&.0.a.b.",
"~ c.d.e.f.g.h.i.j.a k.l./ Z m.n.o.p.q.",
"~ r.s.t.u.v.w.!.x.y.z.I y.A.B.C.D.E.F.",
"~ G.H.I.J.s g.K K.L.#.L.M.N.O.P.Q.R.F.",
"~ S.T.U.V.W.X.Y.U.Z.`.W. +.+++@+#+$+%+",
"~ &+*+=+-+;+>+,+'+)+!+~+{+]+^+/+(+_+:+",
"~ <+[+}+|+1+2+t.3+4+5+6+7+|.=+8+9+0+a+",
"~ b+c+d+e+f+f+g+h+~ i+j+k+l+m+n+o+0+p+",
"q+r+s+t+u+v+w+x+y+z+A+B+C+D+w+H E+F+G+",
"H+I+J+K+L+M+N+O+P+Q+R+S+T+U+V+W+X+Y+Z+",
"`+ @.@+@@@#@$@%@&@*@=@=@-@;@>@,@'@)@!@",
"~@{@~ ~ ~ ~@~ ~ ~ ~@{@~ ~ ~@]@^@/@~ (@"};
