/* XPM */
static char * striga_xpm[] = {
"19 19 298 2",
"  	c #999F9A",
". 	c #AFB3AE",
"+ 	c #A8AEA9",
"@ 	c #ACB3B2",
"# 	c #B4B6B7",
"$ 	c #B1B2B0",
"% 	c #A7ABA9",
"& 	c #AAB0AD",
"* 	c #A8AFAC",
"= 	c #ACB5B1",
"- 	c #B2BDB8",
"; 	c #AFBAB6",
"> 	c #AFB8B4",
", 	c #A9AFAC",
"' 	c #ACB2AD",
") 	c #AEB9B3",
"! 	c #A8B2AD",
"~ 	c #8DA29B",
"{ 	c #FFFFFF",
"] 	c #F1F0F2",
"^ 	c #D5D4D6",
"/ 	c #D8DBD9",
"( 	c #D2D2D2",
"_ 	c #D8D5D7",
": 	c #DCDADB",
"< 	c #D9D6D7",
"[ 	c #DEDCDD",
"} 	c #DBD9DB",
"| 	c #DBD9DA",
"1 	c #DAD8D9",
"2 	c #E0DEDF",
"3 	c #DCDADA",
"4 	c #D5D4D3",
"5 	c #F0F2F0",
"6 	c #E9F6F1",
"7 	c #FAFBFB",
"8 	c #8B8C8D",
"9 	c #030105",
"0 	c #191919",
"a 	c #1F1D1E",
"b 	c #171516",
"c 	c #1A1819",
"d 	c #181617",
"e 	c #151314",
"f 	c #1D1B1C",
"g 	c #121011",
"h 	c #1C1A1B",
"i 	c #0E0B0A",
"j 	c #7C807C",
"k 	c #D8E6DF",
"l 	c #FCFEFF",
"m 	c #8F9090",
"n 	c #050305",
"o 	c #2C2A2B",
"p 	c #201E1F",
"q 	c #211F20",
"r 	c #222021",
"s 	c #272526",
"t 	c #212021",
"u 	c #232122",
"v 	c #242223",
"w 	c #1A1919",
"x 	c #252323",
"y 	c #120F0D",
"z 	c #81837F",
"A 	c #E2EBE8",
"B 	c #FAFEFE",
"C 	c #909292",
"D 	c #0F0C0C",
"E 	c #241F20",
"F 	c #131011",
"G 	c #161415",
"H 	c #1B191A",
"I 	c #151313",
"J 	c #211E1E",
"K 	c #140E0E",
"L 	c #858683",
"M 	c #E0E9E5",
"N 	c #F6FFFD",
"O 	c #919494",
"P 	c #090507",
"Q 	c #3B3434",
"R 	c #9A9596",
"S 	c #ACABAC",
"T 	c #A6A5A6",
"U 	c #4B494A",
"V 	c #191718",
"W 	c #424041",
"X 	c #9B9A9B",
"Y 	c #ABA9AA",
"Z 	c #A4A2A3",
"` 	c #413D3E",
" .	c #100A0A",
"..	c #868483",
"+.	c #DEE6E3",
"@.	c #F8FFFF",
"#.	c #919594",
"$.	c #070304",
"%.	c #888081",
"&.	c #F6F5F5",
"*.	c #E7E5E6",
"=.	c #514F50",
"-.	c #141213",
";.	c #FBFBFB",
">.	c #B1AEAE",
",.	c #150E0E",
"'.	c #82807F",
").	c #E4EBE8",
"!.	c #F9FFFE",
"~.	c #8A8D8C",
"{.	c #0F0B0D",
"].	c #8A8484",
"^.	c #B0AEAE",
"/.	c #B2B0B1",
"(.	c #D9D8D9",
"_.	c #CECCCD",
":.	c #252324",
"<.	c #AAA8A9",
"[.	c #DFDDDE",
"}.	c #B9B7B8",
"|.	c #ADACAC",
"1.	c #A8A4A5",
"2.	c #231D1D",
"3.	c #848381",
"4.	c #E2EAE5",
"5.	c #8A8D8D",
"6.	c #0E0A0A",
"7.	c #B7B2B1",
"8.	c #6C6A6C",
"9.	c #323031",
"0.	c #F7F5F6",
"a.	c #5C595A",
"b.	c #F2F1F2",
"c.	c #E5E4E5",
"d.	c #3E3C3D",
"e.	c #545253",
"f.	c #F9F9F9",
"g.	c #E2DFE0",
"h.	c #151010",
"i.	c #858583",
"j.	c #909191",
"k.	c #090706",
"l.	c #AAA7A5",
"m.	c #FCFCFC",
"n.	c #504E4F",
"o.	c #0D0B0C",
"p.	c #3F3C3D",
"q.	c #A9A8A9",
"r.	c #636162",
"s.	c #100E0F",
"t.	c #3B383A",
"u.	c #CFCDCE",
"v.	c #050503",
"w.	c #7F8380",
"x.	c #E2EAE7",
"y.	c #F8FBFB",
"z.	c #A9A9A9",
"A.	c #050402",
"B.	c #61605D",
"C.	c #CBC9CB",
"D.	c #282627",
"E.	c #1B1A1B",
"F.	c #1C1B1B",
"G.	c #1F1E1F",
"H.	c #B1B0B0",
"I.	c #7C7A7B",
"J.	c #171714",
"K.	c #878C88",
"L.	c #D7E4DD",
"M.	c #F8FDFD",
"N.	c #B8B7B7",
"O.	c #605E5E",
"P.	c #1C1B19",
"Q.	c #C0BEBD",
"R.	c #716E6F",
"S.	c #100C0D",
"T.	c #262223",
"U.	c #242021",
"V.	c #201C1D",
"W.	c #1E1B1C",
"X.	c #4A4748",
"Y.	c #DEDBDC",
"Z.	c #211E1F",
"`.	c #5F5E5E",
" +	c #B4B7B5",
".+	c #D3DED9",
"++	c #FCFFFD",
"@+	c #8A898A",
"#+	c #878485",
"$+	c #938E91",
"%+	c #4F4A4C",
"&+	c #FAFAFA",
"*+	c #A6A0A2",
"=+	c #11090C",
"-+	c #291F23",
";+	c #261B1F",
">+	c #281C20",
",+	c #1C1215",
"'+	c #7F777A",
")+	c #6D6769",
"!+	c #7A7376",
"~+	c #A49AA1",
"{+	c #8A8789",
"]+	c #E0E6E1",
"^+	c #FBFEFC",
"/+	c #8F8F8E",
"(+	c #1F1B1D",
"_+	c #A8A2A6",
":+	c #B3B0B3",
"<+	c #A8A7A8",
"[+	c #1B1819",
"}+	c #221D1F",
"|+	c #282224",
"1+	c #110C0E",
"2+	c #858283",
"3+	c #FAF7F8",
"4+	c #CCCBCB",
"5+	c #AEA9AC",
"6+	c #372E35",
"7+	c #7A7778",
"8+	c #E1E7E1",
"9+	c #FEFFFF",
"0+	c #908F8F",
"a+	c #050303",
"b+	c #211B1F",
"c+	c #616061",
"d+	c #EAEAEA",
"e+	c #A0A1A1",
"f+	c #101312",
"g+	c #222322",
"h+	c #201F20",
"i+	c #202020",
"j+	c #161616",
"k+	c #7D7E7E",
"l+	c #F1F3F2",
"m+	c #7D807F",
"n+	c #1E2020",
"o+	c #0C070D",
"p+	c #8B8C8C",
"q+	c #DEE8E1",
"r+	c #FDFEFE",
"s+	c #929291",
"t+	c #141214",
"u+	c #282529",
"v+	c #151516",
"w+	c #404241",
"x+	c #434544",
"y+	c #1B1C1C",
"z+	c #221F20",
"A+	c #1E1D1D",
"B+	c #383738",
"C+	c #484949",
"D+	c #171817",
"E+	c #242525",
"F+	c #161619",
"G+	c #828585",
"H+	c #E2EBE6",
"I+	c #8C8C8B",
"J+	c #000000",
"K+	c #1B1A1D",
"L+	c #191719",
"M+	c #0D080A",
"N+	c #1E171A",
"O+	c #170E12",
"P+	c #180D12",
"Q+	c #1E1417",
"R+	c #1D1517",
"S+	c #110A0D",
"T+	c #100B0D",
"U+	c #1A1618",
"V+	c #050909",
"W+	c #747C79",
"X+	c #D8E6DE",
"Y+	c #F9FBFA",
"Z+	c #A5A7A6",
"`+	c #3A3D3C",
" @	c #505153",
".@	c #4D4C4E",
"+@	c #53504F",
"@@	c #504B4C",
"#@	c #4F4A4B",
"$@	c #524B4D",
"%@	c #564E50",
"&@	c #544A4D",
"*@	c #4E4749",
"=@	c #544E4F",
"-@	c #565253",
";@	c #4D4949",
">@	c #4F504F",
",@	c #3B4442",
"'@	c #92A19A",
")@	c #DBEAE2",
"!@	c #F1F8F4",
"~@	c #FDFFFD",
"{@	c #FEFFFE",
"]@	c #FAFFFF",
"^@	c #F7FFFF",
"/@	c #DCEAE3",
"  . + @ # $ % & * = - ; > , & ' ) ! ~ ",
"{ ] ^ / ( _ : < [ : } | 1 | 2 3 4 5 6 ",
"7 8 9 0 a b c b b b d e b f g h i j k ",
"l m n o p q r s h t u r v w v x y z A ",
"B C D E F q d G r p p H I q G J K L M ",
"N O P Q R S T U h u V W X Y Z `  ...+.",
"@.#.$.%.&.{ { *.=.-.W : { { ;.>.,.'.).",
"!.~.{.].^./.(.{ _.:.<.{ [.}.|.1.2.3.4.",
"B 5.6.7.{ 8.9.[ 0.a.b.c.d.e.f.g.h.i.M ",
"@.j.k.l.m.n.o.U Y p.q.r.s.t.[ u.v.w.x.",
"y.z.A.B.{ C.D.f E.F.G.h h H.{ I.J.K.L.",
"M.N.O.P.Q.{ R.S.T.U.V.W.X.{ Y.Z.`. +.+",
"++@+#+$+%+&+*+=+-+;+>+,+'+0.)+!+~+{+]+",
"^+/+(+_+:+{ <+[+}+}+|+1+2+3+4+5+6+7+8+",
"9+0+a+b+c+d+e+f+g+h+i+j+k+l+m+n+o+p+q+",
"r+s+t+u+v+w+x+y+t v z+A+B+C+D+E+F+G+H+",
"{ I+J+K+L+F M+N+O+P+Q+R+S+T+U+V V+W+X+",
"Y+Z+`+ @.@+@@@#@$@%@&@*@=@-@;@>@,@'@)@",
"!@{ 9+{ { { 9+{ ~@{@{ { { { { ]@^@{ /@"};
