/* XPM */
static char * Discipline MAL_xpm[] = {
"24 24 431 2",
"  	c None",
". 	c #C9C5C5",
"+ 	c #979293",
"@ 	c #767374",
"# 	c #747172",
"$ 	c #7E7C7D",
"% 	c #848283",
"& 	c #807D7E",
"* 	c #757374",
"= 	c #716F70",
"- 	c #7E7C7C",
"; 	c #7D7A7B",
"> 	c #7C797A",
", 	c #7E7B7C",
"' 	c #7F7B7D",
") 	c #726F70",
"! 	c #787678",
"~ 	c #848284",
"{ 	c #8A8887",
"] 	c #858381",
"^ 	c #757573",
"/ 	c #717472",
"( 	c #A0A6A5",
"_ 	c #989595",
": 	c #423E3F",
"< 	c #141213",
"[ 	c #131212",
"} 	c #222021",
"| 	c #383637",
"1 	c #4E4B4C",
"2 	c #393738",
"3 	c #120F10",
"4 	c #131112",
"5 	c #000000",
"6 	c #171516",
"7 	c #161415",
"8 	c #141112",
"9 	c #504F50",
"0 	c #413F3E",
"a 	c #24211F",
"b 	c #100E0D",
"c 	c #171818",
"d 	c #535A5A",
"e 	c #979595",
"f 	c #3E3A3B",
"g 	c #0B0909",
"h 	c #0D0B0B",
"i 	c #464445",
"j 	c #9F9D9E",
"k 	c #9C9A9B",
"l 	c #484647",
"m 	c #0B090A",
"n 	c #181617",
"o 	c #0A0809",
"p 	c #494647",
"q 	c #918F90",
"r 	c #979596",
"s 	c #4F4C4C",
"t 	c #191413",
"u 	c #0C0808",
"v 	c #0C0C0C",
"w 	c #525656",
"x 	c #9E9D9C",
"y 	c #474545",
"z 	c #131111",
"A 	c #1D1B1B",
"B 	c #413F40",
"C 	c #B2B0B1",
"D 	c #E0DFE0",
"E 	c #B7B6B7",
"F 	c #727071",
"G 	c #333132",
"H 	c #0F0D0E",
"I 	c #151314",
"J 	c #302E2F",
"K 	c #6F6D6E",
"L 	c #BCBABB",
"M 	c #DAD8D9",
"N 	c #ABA8A9",
"O 	c #464141",
"P 	c #181212",
"Q 	c #1B1717",
"R 	c #141212",
"S 	c #5D5F5F",
"T 	c #9C9C9A",
"U 	c #454443",
"V 	c #292728",
"W 	c #898788",
"X 	c #CECECF",
"Y 	c #DADADA",
"Z 	c #B8B6B7",
"` 	c #7B797A",
" .	c #403E3F",
"..	c #262425",
"+.	c #3D3B3C",
"@.	c #777576",
"#.	c #B1AFB0",
"$.	c #E5E4E5",
"%.	c #D4D2D3",
"&.	c #888586",
"*.	c #2C2727",
"=.	c #120D0C",
"-.	c #151213",
";.	c #5E5E5F",
">.	c #989898",
",.	c #424241",
"'.	c #131313",
").	c #191617",
"!.	c #1D1B1C",
"~.	c #646263",
"{.	c #A3A2A3",
"].	c #B7B5B6",
"^.	c #989697",
"/.	c #ABA9AA",
"(.	c #969495",
"_.	c #7D7B7C",
":.	c #939192",
"<.	c #AEACAD",
"[.	c #8B898A",
"}.	c #C2C1C2",
"|.	c #ABAAAB",
"1.	c #666364",
"2.	c #241F20",
"3.	c #161313",
"4.	c #5D5D5E",
"5.	c #989897",
"6.	c #474546",
"7.	c #8E8C8D",
"8.	c #5C5A5B",
"9.	c #8F8D8E",
"0.	c #C3C2C2",
"a.	c #BCBBBB",
"b.	c #4E4C4D",
"c.	c #444243",
"d.	c #1D1919",
"e.	c #181415",
"f.	c #9B9B99",
"g.	c #434442",
"h.	c #121211",
"i.	c #2D2B2C",
"j.	c #817F80",
"k.	c #BAB8B9",
"l.	c #4F4D4E",
"m.	c #6B686A",
"n.	c #B7B6B6",
"o.	c #DCDBDB",
"p.	c #BDBBBC",
"q.	c #757273",
"r.	c #4A4748",
"s.	c #BAB8B8",
"t.	c #817E80",
"u.	c #282527",
"v.	c #161112",
"w.	c #191415",
"x.	c #5E5D5F",
"y.	c #9D9C9A",
"z.	c #454442",
"A.	c #191718",
"B.	c #110F10",
"C.	c #5B595A",
"D.	c #BBB9BA",
"E.	c #AFADAE",
"F.	c #BEBCBD",
"G.	c #C8C7C7",
"H.	c #B9B7B8",
"I.	c #B6B4B5",
"J.	c #5E5D5E",
"K.	c #161516",
"L.	c #141111",
"M.	c #151212",
"N.	c #5C5C5D",
"O.	c #9A9997",
"P.	c #444341",
"Q.	c #141413",
"R.	c #121011",
"S.	c #3C3B3C",
"T.	c #999899",
"U.	c #E8E7E8",
"V.	c #CBC9CA",
"W.	c #A2A0A1",
"X.	c #828182",
"Y.	c #BFBCBD",
"Z.	c #D6D4D5",
"`.	c #DBD9DA",
" +	c #9B999A",
".+	c #494848",
"++	c #13110F",
"@+	c #13100E",
"#+	c #1D1A1A",
"$+	c #41403E",
"%+	c #0B0B09",
"&+	c #090807",
"*+	c #252223",
"=+	c #514F4F",
"-+	c #868484",
";+	c #A2A1A2",
">+	c #A9A8A9",
",+	c #ACAAAB",
"'+	c #5E5C5D",
")+	c #9E9C9D",
"!+	c #9B999B",
"~+	c #525050",
"{+	c #22201E",
"]+	c #0B0B0B",
"^+	c #575859",
"/+	c #403F3D",
"(+	c #10100E",
"_+	c #262424",
":+	c #6A6869",
"<+	c #A8A6A6",
"[+	c #858485",
"}+	c #929091",
"|+	c #605D5F",
"1+	c #6D6B6C",
"2+	c #A8A6A7",
"3+	c #636162",
"4+	c #7F7D7F",
"5+	c #B0AEAF",
"6+	c #A9A6A6",
"7+	c #6F6E6C",
"8+	c #2C2B2A",
"9+	c #121212",
"0+	c #545756",
"a+	c #989695",
"b+	c #474543",
"c+	c #333331",
"d+	c #787878",
"e+	c #CDCBCC",
"f+	c #DFDDDE",
"g+	c #A9A7A8",
"h+	c #706D6E",
"i+	c #9A9899",
"j+	c #9D9B9C",
"k+	c #ACABAC",
"l+	c #767476",
"m+	c #DFDDDC",
"n+	c #D5D4D3",
"o+	c #858584",
"p+	c #3A3A3A",
"q+	c #5D6060",
"r+	c #9B9897",
"s+	c #625F5D",
"t+	c #6C6B6A",
"u+	c #F1F0F0",
"v+	c #D8D5D6",
"w+	c #898687",
"x+	c #B7B4B5",
"y+	c #ADABAC",
"z+	c #B9B6B7",
"A+	c #C1BEBF",
"B+	c #B3B0B1",
"C+	c #9C999A",
"D+	c #8C8A8B",
"E+	c #A09D9E",
"F+	c #D0CFCE",
"G+	c #E9E8E7",
"H+	c #BAB9B9",
"I+	c #686869",
"J+	c #737676",
"K+	c #A19E9D",
"L+	c #7B7676",
"M+	c #848080",
"N+	c #A29E9F",
"O+	c #A09C9E",
"P+	c #928D8E",
"Q+	c #A19C9D",
"R+	c #A39EA0",
"S+	c #9F9C9D",
"T+	c #B2AFB0",
"U+	c #C3BFC1",
"V+	c #A3A0A1",
"W+	c #888485",
"X+	c #A19D9E",
"Y+	c #C6C2C3",
"Z+	c #A8A3A4",
"`+	c #939091",
" @	c #908C8D",
".@	c #8C8989",
"+@	c #827F7E",
"@@	c #807E7D",
"#@	c #7B7978",
"$@	c #676665",
"%@	c #828484",
"&@	c #9D9A9A",
"*@	c #504C4D",
"=@	c #2A2527",
"-@	c #30292C",
";@	c #373032",
">@	c #332D2F",
",@	c #352E31",
"'@	c #2E272A",
")@	c #2E292B",
"!@	c #585355",
"~@	c #B2ADAF",
"{@	c #918C8E",
"]@	c #5B5557",
"^@	c #898385",
"/@	c #BEB9BB",
"(@	c #4C4547",
"_@	c #2F282A",
":@	c #2B2527",
"<@	c #2F292B",
"[@	c #2D2728",
"}@	c #221D1D",
"|@	c #1F1B1A",
"1@	c #636260",
"2@	c #9B9898",
"3@	c #443F3F",
"4@	c #110A0C",
"5@	c #130D0F",
"6@	c #1D181A",
"7@	c #1A1617",
"8@	c #191416",
"9@	c #130E10",
"0@	c #120E0F",
"a@	c #2D282A",
"b@	c #9A9697",
"c@	c #A3A0A0",
"d@	c #848081",
"e@	c #9A9698",
"f@	c #A09E9F",
"g@	c #1C1718",
"h@	c #151112",
"i@	c #181516",
"j@	c #1B1618",
"k@	c #1C1517",
"l@	c #1D1517",
"m@	c #130B0D",
"n@	c #100B0A",
"o@	c #5B5956",
"p@	c #9C9A99",
"q@	c #454140",
"r@	c #1A1718",
"s@	c #191818",
"t@	c #797777",
"u@	c #C4C3C3",
"v@	c #AFAFAF",
"w@	c #757574",
"x@	c #100F0E",
"y@	c #161211",
"z@	c #5C5C59",
"A@	c #9D9C9B",
"B@	c #474443",
"C@	c #0D0E0E",
"D@	c #535554",
"E@	c #BBBCBB",
"F@	c #E8E8E8",
"G@	c #B1B1B1",
"H@	c #484A49",
"I@	c #171413",
"J@	c #5D5D5A",
"K@	c #9B9B9A",
"L@	c #464543",
"M@	c #151413",
"N@	c #111212",
"O@	c #3A3C3A",
"P@	c #AAABAA",
"Q@	c #E7E7E7",
"R@	c #9FA0A0",
"S@	c #252626",
"T@	c #181716",
"U@	c #5E5F5C",
"V@	c #959795",
"W@	c #3D3E3B",
"X@	c #0C0D0B",
"Y@	c #242222",
"Z@	c #B4B1B2",
"`@	c #797677",
" #	c #161213",
".#	c #141313",
"+#	c #111110",
"@#	c #585A56",
"##	c #919591",
"$#	c #363A35",
"%#	c #050604",
"&#	c #0E0A0C",
"*#	c #140D0F",
"=#	c #171113",
"-#	c #484143",
";#	c #6B6366",
">#	c #4E4649",
",#	c #150E11",
"'#	c #130C0E",
")#	c #1A1416",
"!#	c #191214",
"~#	c #160F11",
"{#	c #151113",
"]#	c #161615",
"^#	c #0B0D0C",
"/#	c #090A09",
"(#	c #515651",
"_#	c #9EA49E",
":#	c #50554F",
"<#	c #262724",
"[#	c #2F2B2B",
"}#	c #3C3537",
"|#	c #393134",
"1#	c #3A3134",
"2#	c #3A3235",
"3#	c #3A3234",
"4#	c #352E30",
"5#	c #453D3F",
"6#	c #51494B",
"7#	c #494244",
"8#	c #383133",
"9#	c #362F31",
"0#	c #363233",
"a#	c #333534",
"b#	c #282D2A",
"c#	c #252A25",
"d#	c #666E68",
"e#	c #C2C8C3",
"f#	c #939993",
"g#	c #7B7D79",
"h#	c #817F7F",
"i#	c #8A8586",
"j#	c #898484",
"k#	c #888384",
"l#	c #898485",
"m#	c #888385",
"n#	c #847F81",
"o#	c #858181",
"p#	c #847F80",
"q#	c #837E7F",
"r#	c #868282",
"s#	c #878384",
"t#	c #868182",
"u#	c #828584",
"v#	c #7B7F7D",
"w#	c #787E7A",
"x#	c #A1A8A4",
". + @ # $ % & * = - & ; > , ' ; ) ! ~ { ] ^ / ( ",
"_ : < [ } | 1 2 3 4 5 5 5 5 6 7 8 | 9 0 a b c d ",
"e f g h 5 i j k l m 5 6 5 n m o p q r s t u v w ",
"x y z 5 A B C D E F G < H I J K L M N O P Q R S ",
"T U 4 5 n V W X Y Z `  ...+.@.#.$.%.&.*.=.5 -.;.",
">.,.'.5 ).!.~.{.].^./.(._.:.<.[.}.|.1.2.5 5 3.4.",
"5.,.'.5 5 n 6.7./.8.9.L 0.a.r b.C q c.d.5 5 e.4.",
"f.g.h.5 5 6 i.j.k.l.m.n.o.p.q.r.s.t.u.v.5 5 w.x.",
"y.z.5 5 5 A.B.C.D.E.E.F.G.0.H.H.I.J.K.L.5 5 M.N.",
"O.P.Q.5 n R.S.T.U.V.W.= J.X.Y.Z.`. +.+++@+#+7 4.",
"O.$+%+&+*+=+-+;+>+<.,+K +.'+E.V.)+!+[.~+{+g ]+^+",
"O./+(+_+:+<+E.[+~.:.k.}+|+1+2+I.3+4+5+6+7+8+9+0+",
"a+b+c+d+e+f+g+h+3+i+]./.^.j+C k+1+l+,+m+n+o+p+q+",
"r+s+t+F.u+v+W.w+(.x+x+y+<.z+A+B+C+D+E+F+G+H+I+J+",
"K+L+M+N+O+P+Q+R+S+T+U+V+W+X+Y+Z+`+ @.@+@@@#@$@%@",
"&@*@=@-@;@>@,@'@)@!@~@{@]@^@/@(@_@:@<@_@[@}@|@1@",
"2@3@4@5@6@7@8@9@0@a@b@c@d@e@f@g@h@i@j@k@l@m@n@o@",
"p@q@5 5 5 5 5 5 r@s@t@s.u@v@w@x@5 5 5 5 5 5 y@z@",
"A@B@5 5 5 5 5 5 5 C@D@E@F@G@H@5 5 5 5 5 5 5 I@J@",
"K@L@M@5 5 5 5 5 5 N@O@P@Q@R@S@5 5 5 5 5 5 5 T@U@",
"V@W@X@5 5 5 5 5 5 z Y@> Z@`@4  #5 5 5 5 5 .#+#@#",
"##$#%#&#5 5 5 5 5 *#=#-#;#>#,#'#)#!#~#{#]#^#/#(#",
"_#:#<#[#}#|#1#2#3#4#4#5#6#7#8#9#3#3#8#0#a#b#c#d#",
"e#f#g#h#i#j#k#l#m#n#o#p#q#M+r#s#t#k#W+[+u#v#w#x#"};
